<?xml version="1.0" encoding="UTF-8" standalone="no"?><!-- Generator: Gravit.io --><svg xmlns="http://www.w3.org/2000/svg" xmlns:xlink="http://www.w3.org/1999/xlink" style="isolation:isolate" viewBox="0 0 120 120" width="120pt" height="120pt"><defs><clipPath id="_clipPath_98ewj6xUE5TEL4O1xoLUAupxJAsMG3r5"><rect width="120" height="120"/></clipPath></defs><g clip-path="url(#_clipPath_98ewj6xUE5TEL4O1xoLUAupxJAsMG3r5)"><rect width="120" height="120" style="fill:rgb(0,0,0)" fill-opacity="0"/><g><path d=" M 12.962 47.602 C 12.962 47.508 13.838 47.432 14.917 47.432 C 15.997 47.432 16.872 47.508 16.872 47.602 C 16.872 47.696 15.997 47.772 14.917 47.772 C 13.838 47.772 12.962 47.696 12.962 47.602 Z " fill="rgb(224,224,224)"/><defs><filter id="0qWtLvqjqISWVXOERnQNze35z6zRsRLh" x="-200%" y="-200%" width="400%" height="400%" filterUnits="objectBoundingBox" color-interpolation-filters="sRGB"><feOffset xmlns="http://www.w3.org/2000/svg" in="SourceGraphic" dx="0" dy="0"/><feGaussianBlur xmlns="http://www.w3.org/2000/svg" stdDeviation="2.146804531419514" result="pf_100_offsetBlur"/><feComposite xmlns="http://www.w3.org/2000/svg" in="SourceGraphic" in2="pf_100_offsetBlur" result="pf_100_inverse" operator="out"/><feFlood xmlns="http://www.w3.org/2000/svg" flood-color="#000000" flood-opacity="0.5" result="pf_100_color"/><feComposite xmlns="http://www.w3.org/2000/svg" in="pf_100_color" in2="pf_100_inverse" operator="in" result="pf_100_shadow"/><feComposite xmlns="http://www.w3.org/2000/svg" in="pf_100_shadow" in2="SourceGraphic" operator="over"/></filter></defs><g filter="url(#0qWtLvqjqISWVXOERnQNze35z6zRsRLh)"><path d=" M 119.97 71.627 C 118.936 97.812 99.653 119.481 73.452 119.991 C 47.251 120.5 25.599 99.673 25.089 73.472 C 24.579 47.272 45.478 23.1 71.607 25.109 C 99.476 27.253 120.913 47.737 119.97 71.627 Z " fill="rgb(224,224,224)"/></g><path d=" M 114.197 85.106 L 99.388 94.245 L 104.819 107.314 C 109.825 102.662 113.819 96.946 116.448 90.534 L 114.197 85.106 Z " fill="rgb(183,136,118)"/><path d=" M 118.213 85.407 C 116.298 80.825 109.73 65.696 104.233 60.041 C 96.002 51.576 81.512 52.715 81.512 52.715 L 62.692 53.384 C 62.692 53.384 55.535 54.17 48.828 57.674 L 48.367 57.817 L 48.373 57.913 C 43.105 60.773 35.645 67.634 28.538 74.293 L 37.042 82.185 L 46.455 90.54 C 46.455 90.54 46.418 90.6 46.439 90.707 C 46.537 91.213 44.909 101.323 43.469 110.056 C 51.739 116.473 62.173 120.209 73.452 119.991 C 80.634 119.851 87.41 118.119 93.457 115.144 L 94.16 107.069 C 94.801 99.749 95.29 90.685 95.29 90.685 L 97.994 97.54 L 117.629 87.329 C 117.837 86.695 118.032 86.053 118.213 85.407 Z " fill="rgb(232,80,91)"/><path d=" M 82.034 52.001 C 82.046 51.998 82.074 52.114 82.117 52.337 C 82.169 52.558 82.208 52.891 82.242 53.322 C 82.3 54.182 82.231 55.456 81.755 56.938 C 81.27 58.403 80.342 60.082 78.779 61.441 C 77.235 62.814 75.021 63.713 72.645 63.833 C 70.266 63.936 67.979 63.249 66.311 62.028 C 64.626 60.822 63.544 59.238 62.921 57.826 C 62.307 56.396 62.118 55.135 62.094 54.273 C 62.086 53.841 62.094 53.507 62.124 53.281 C 62.146 53.055 62.163 52.938 62.174 52.938 C 62.213 52.94 62.16 53.415 62.225 54.266 C 62.29 55.113 62.513 56.343 63.14 57.727 C 63.776 59.096 64.852 60.621 66.491 61.772 C 68.112 62.938 70.324 63.594 72.628 63.494 C 74.932 63.376 77.072 62.517 78.575 61.204 C 80.098 59.902 81.025 58.283 81.528 56.86 C 82.021 55.423 82.127 54.177 82.109 53.327 C 82.094 52.475 81.996 52.007 82.034 52.001 Z " fill="rgb(38,50,56)"/><path d=" M 99.956 56.083 C 99.962 56.125 99.455 56.105 98.624 56.398 C 97.798 56.678 96.665 57.362 95.708 58.61 C 94.732 59.844 94.104 61.666 93.857 63.733 C 93.725 64.768 93.669 65.866 93.631 67.008 C 93.584 68.149 93.564 69.332 93.551 70.543 C 93.514 75.391 93.801 79.774 94.108 82.936 C 94.256 84.517 94.414 85.793 94.512 86.677 C 94.559 87.087 94.597 87.424 94.629 87.694 C 94.652 87.927 94.658 88.051 94.647 88.053 C 94.635 88.055 94.606 87.934 94.561 87.705 C 94.513 87.436 94.454 87.102 94.381 86.695 C 94.243 85.816 94.049 84.543 93.869 82.96 C 93.501 79.799 93.174 75.404 93.21 70.541 C 93.225 69.325 93.247 68.14 93.298 66.995 C 93.343 65.851 93.405 64.743 93.547 63.692 C 93.814 61.596 94.484 59.718 95.519 58.463 C 96.531 57.193 97.721 56.521 98.583 56.273 C 99.449 56.012 99.956 56.083 99.956 56.083 Z " fill="rgb(38,50,56)"/><path d=" M 55.162 54.861 C 55.173 54.865 55.145 54.99 55.082 55.227 C 55.005 55.499 54.908 55.839 54.789 56.258 C 54.515 57.194 54.142 58.474 53.685 60.035 C 52.762 63.228 51.544 67.655 50.353 72.581 C 49.163 77.511 48.227 82.006 47.592 85.268 C 47.285 86.866 47.033 88.175 46.849 89.133 C 46.764 89.56 46.695 89.907 46.64 90.183 C 46.588 90.424 46.556 90.548 46.544 90.546 C 46.532 90.545 46.543 90.416 46.573 90.173 C 46.611 89.893 46.659 89.542 46.719 89.112 C 46.851 88.191 47.068 86.863 47.356 85.225 C 47.932 81.949 48.832 77.439 50.022 72.502 C 51.216 67.568 52.473 63.145 53.456 59.967 C 53.946 58.378 54.36 57.097 54.662 56.217 C 54.806 55.807 54.923 55.472 55.016 55.206 C 55.101 54.976 55.151 54.857 55.162 54.861 Z " fill="rgb(38,50,56)"/><path d=" M 117.844 82.261 C 117.857 82.281 117.583 82.484 117.076 82.834 C 116.571 83.185 115.829 83.678 114.904 84.275 C 113.055 85.47 110.468 87.068 107.553 88.738 C 104.637 90.409 101.95 91.834 99.985 92.825 C 99.002 93.321 98.201 93.711 97.643 93.97 C 97.084 94.23 96.771 94.364 96.76 94.343 C 96.75 94.322 97.044 94.148 97.583 93.852 C 98.179 93.53 98.949 93.113 99.873 92.613 C 101.808 91.569 104.473 90.112 107.384 88.445 C 110.294 86.777 112.898 85.214 114.777 84.072 C 115.676 83.527 116.425 83.074 117.005 82.723 C 117.533 82.407 117.831 82.242 117.844 82.261 Z " fill="rgb(38,50,56)"/><path d=" M 47.429 85.123 C 47.369 85.195 43.669 82.278 39.164 78.608 C 34.658 74.937 31.054 71.903 31.113 71.83 C 31.173 71.757 34.872 74.674 39.379 78.346 C 43.884 82.015 47.488 85.05 47.429 85.123 Z " fill="rgb(38,50,56)"/><g opacity="0.199997"><path d=" M 93.367 71.876 L 100.736 96.114 L 97.994 97.54 L 95.29 90.684 C 95.29 90.684 92.512 76.286 93.367 71.876 Z " fill="rgb(0,0,0)"/></g><g opacity="0.199997"><path d=" M 55.96 54.875 C 51.989 56.97 61.943 62.007 66.438 61.872 L 63.173 53.258 C 63.173 53.258 57.293 54.173 55.96 54.875 Z " fill="rgb(0,0,0)"/></g><g opacity="0.199997"><path d=" M 81.307 90.023 L 57.723 90.111 L 59.274 81.43 L 83.05 80.967 L 81.307 90.023 Z " fill="rgb(255,255,255)"/></g><path d=" M 79.048 24.037 C 78.864 24.69 79.103 25.441 79.631 25.868 C 80.159 26.294 80.945 26.369 81.544 26.05 C 82.682 25.445 82.796 23.857 82.546 22.593 C 82.295 21.329 81.837 19.983 82.346 18.8 C 82.736 17.894 83.607 17.308 84.28 16.588 C 85.455 15.333 86.057 13.528 85.733 11.841 C 85.409 10.154 84.11 8.657 82.447 8.227 C 80.749 7.788 78.679 8.347 77.398 7.149 C 76.47 6.281 76.386 4.831 75.66 3.787 C 74.535 2.167 72.216 1.951 70.266 2.257 C 68.317 2.562 66.339 3.227 64.416 2.788 C 62.809 2.422 61.475 1.331 59.964 0.674 C 56.687 -0.747 52.552 0.138 50.144 2.777 C 47.737 5.416 47.235 9.615 48.951 12.747 C 49.569 13.872 50.483 14.888 51.682 15.346" fill="rgb(38,50,56)"/><path d=" M 72.21 63.635 L 72.21 63.635 C 67.031 63.644 62.756 59.619 62.501 54.492 C 62.287 50.221 62.109 46.108 62.109 46.108 C 62.109 46.108 54.179 45.534 53.448 37.782 C 52.716 30.03 52.616 12.103 52.616 12.103 C 61.364 7.511 71.932 7.97 80.238 13.302 L 80.992 13.787 L 81.908 53.903 C 81.967 59.254 77.61 63.627 72.21 63.635 Z " fill="rgb(183,136,118)"/><path d=" M 67.66 24.027 C 67.063 24.224 66.738 24.863 66.936 25.456 C 67.134 26.049 67.78 26.37 68.379 26.173 C 68.976 25.976 69.3 25.337 69.102 24.744 C 68.904 24.151 68.258 23.83 67.66 24.027 Z " fill="rgb(38,50,56)"/><path d=" M 65.488 24.43 C 65.619 24.557 66.353 23.925 67.433 23.855 C 68.511 23.77 69.329 24.293 69.441 24.148 C 69.495 24.083 69.359 23.848 69.001 23.61 C 68.65 23.374 68.058 23.162 67.386 23.209 C 66.713 23.258 66.159 23.552 65.846 23.836 C 65.526 24.121 65.424 24.374 65.488 24.43 Z " fill="rgb(38,50,56)"/><path d=" M 55.826 24.027 C 55.228 24.224 54.904 24.863 55.102 25.456 C 55.301 26.049 55.946 26.37 56.544 26.173 C 57.142 25.976 57.466 25.337 57.268 24.744 C 57.069 24.151 56.424 23.83 55.826 24.027 Z " fill="rgb(38,50,56)"/><path d=" M 53.508 24.454 C 53.639 24.581 54.374 23.948 55.453 23.879 C 56.532 23.794 57.35 24.316 57.461 24.171 C 57.516 24.108 57.379 23.872 57.021 23.634 C 56.67 23.398 56.079 23.185 55.406 23.233 C 54.734 23.281 54.179 23.576 53.866 23.86 C 53.546 24.145 53.445 24.398 53.508 24.454 Z " fill="rgb(38,50,56)"/><path d=" M 61.653 32.836 C 61.653 32.752 60.975 32.672 59.879 32.611 C 59.595 32.604 59.368 32.557 59.335 32.409 C 59.271 32.244 59.356 31.937 59.472 31.592 C 59.691 30.863 59.914 30.125 60.147 29.352 C 61.072 26.163 61.689 23.541 61.526 23.494 C 61.362 23.448 60.48 25.995 59.556 29.184 C 59.339 29.961 59.131 30.704 58.927 31.438 C 58.85 31.769 58.684 32.162 58.868 32.612 C 58.964 32.836 59.2 32.986 59.39 33.018 C 59.582 33.06 59.741 33.047 59.876 33.042 C 60.974 32.993 61.652 32.92 61.653 32.836 Z " fill="rgb(38,50,56)"/><path d=" M 65.253 33.735 C 63.092 34.784 62.088 35.105 60.089 35.684 C 60.089 35.684 61.512 37.577 63.702 36.576 C 65.976 35.537 65.253 33.735 65.253 33.735 Z " fill="rgb(255,255,255)"/><path d=" M 62.087 45.997 C 62.087 45.997 67.068 45.997 72.059 42.299 C 72.059 42.299 70.103 48.078 62.233 48.009 L 62.087 45.997 Z " fill="rgb(163,105,87)"/><path d=" M 81.182 21.626 C 81.174 20.998 81.657 20.458 82.29 20.428 C 83.752 20.359 86.156 20.888 86.458 24.885 C 86.89 30.593 81.316 29.275 81.294 29.112 C 81.277 28.985 81.21 23.847 81.182 21.626 Z " fill="rgb(183,136,118)"/><path d=" M 82.521 26.842 C 82.545 26.822 82.626 26.904 82.802 26.968 C 82.973 27.031 83.261 27.061 83.553 26.927 C 84.145 26.661 84.585 25.665 84.535 24.634 C 84.51 24.113 84.363 23.626 84.146 23.231 C 83.939 22.826 83.644 22.555 83.333 22.524 C 83.023 22.477 82.82 22.674 82.762 22.841 C 82.697 23.006 82.742 23.118 82.712 23.129 C 82.697 23.145 82.581 23.043 82.61 22.804 C 82.625 22.689 82.682 22.549 82.809 22.429 C 82.94 22.307 83.138 22.236 83.353 22.242 C 83.8 22.239 84.23 22.615 84.468 23.049 C 84.731 23.484 84.909 24.03 84.937 24.614 C 84.987 25.768 84.475 26.888 83.66 27.189 C 83.263 27.323 82.915 27.228 82.73 27.106 C 82.541 26.979 82.502 26.854 82.521 26.842 Z " fill="rgb(163,105,87)"/><path d=" M 69.334 21.248 C 69.09 21.562 68.239 21.416 67.134 21.369 C 66.032 21.28 65.168 21.322 64.967 20.981 C 64.739 20.626 65.806 19.81 67.229 19.927 C 68.654 19.985 69.607 20.924 69.334 21.248 Z " fill="rgb(38,50,56)"/><path d=" M 56.875 21.05 C 56.794 21.445 56.078 21.634 55.27 21.71 C 54.462 21.774 53.724 21.714 53.575 21.338 C 53.423 20.975 54.101 20.361 55.143 20.271 C 56.184 20.179 56.96 20.665 56.875 21.05 Z " fill="rgb(38,50,56)"/><path d=" M 51.514 14.557 C 51.514 14.557 56.218 16.834 62.34 13.779 C 66.357 11.773 71.04 10.794 72.072 11.601 C 73.104 12.409 73.322 16.548 77.302 17.757 C 77.302 17.757 77.029 25.654 80.178 25.373 C 83.326 25.091 81.359 12.859 81.359 12.859 L 73.655 9.097 L 65.249 7.509 L 57.328 8.625 L 51.199 10.304 L 51.514 14.557 Z " fill="rgb(38,50,56)"/><path d=" M 23.374 28.078 C 23.653 28.526 32.714 59.921 32.714 59.921 L 14.736 62.371 L 6.467 36.754 L 23.374 28.078 Z " fill="rgb(69,90,100)"/><path d=" M 32.713 59.92 L 34.328 59.061 L 24.921 27.255 L 23.18 28.178 L 32.713 59.92 Z " fill="rgb(38,50,56)"/><path d=" M 15.843 36.415 C 15.931 36.826 15.669 37.232 15.258 37.32 C 14.846 37.408 14.441 37.146 14.352 36.734 C 14.264 36.323 14.526 35.918 14.937 35.83 C 15.349 35.741 15.755 36.003 15.843 36.415 Z " fill="rgb(38,50,56)"/><path d=" M 29.322 74.249 L 17.529 81.932 L 15.359 54.446 L 15.542 53.073 L 23.532 50.024 L 21.236 44.141 C 20.113 41.396 16.885 40.196 14.242 41.54 C 13.39 41.974 12.495 42.431 11.685 42.843 C 9.863 43.772 8.514 45.426 7.987 47.402 C 7.079 50.807 6.271 54.487 6.355 54.167 L 6.356 54.167 L 6.355 54.167 L 1.302 89.549 C 1.302 89.549 -1.102 99.749 5.878 104.602 C 11.151 108.269 20.032 104.375 24.746 101.711 L 45.171 89.401 L 29.322 74.249 Z " fill="rgb(183,136,118)"/></g></g></svg>