<?xml version="1.0" encoding="UTF-8" standalone="no"?><!-- Generator: Gravit.io --><svg xmlns="http://www.w3.org/2000/svg" xmlns:xlink="http://www.w3.org/1999/xlink" style="isolation:isolate" viewBox="0 0 250 250" width="250pt" height="250pt"><defs><clipPath id="_clipPath_b1RQWRv2tiNouxjI1skZfoNMjo0XajVf"><rect width="250" height="250"/></clipPath></defs><g clip-path="url(#_clipPath_b1RQWRv2tiNouxjI1skZfoNMjo0XajVf)"><rect width="250" height="250" style="fill:rgb(0,0,0)" fill-opacity="0"/><g><g><path d=" M 95.671 25.634 L 92.783 33.695 L 131.746 14.545 L 90.839 0 L 95.426 9.272 C 48.368 20.046 11.597 57.996 2.734 105.963 C -0.439 123.132 0.055 140.365 4.196 157.185 L 19.682 153.371 C 16.089 138.765 15.661 123.79 18.419 108.861 C 25.914 68.301 56.366 35.984 95.671 25.634 Z " fill="rgb(72,199,116)"/><path d=" M 103.356 232.301 C 81.931 228.342 62.319 217.868 47.157 202.48 L 55.626 200.949 L 19.575 176.753 L 27.402 219.458 L 33.137 210.87 C 50.922 230.105 74.535 243.195 100.458 247.985 C 138.887 255.086 178.701 243.173 206.966 216.119 L 195.942 204.597 C 171.366 228.115 136.753 238.472 103.356 232.301 Z " fill="rgb(72,199,116)"/><path d=" M 242.478 150.263 C 253.915 88.369 217.007 28.518 156.627 11.047 L 152.193 26.368 C 204.661 41.55 236.737 93.569 226.797 147.365 C 226.242 150.367 225.545 153.341 224.741 156.279 L 219.183 149.716 L 216.259 193.034 L 249.327 164.899 L 239.014 164.229 C 240.428 159.652 241.606 154.986 242.478 150.263 Z " fill="rgb(72,199,116)"/></g><g><path d=" M 141.034 162.552 L 62.842 162.552 C 55.143 162.552 48.902 156.31 48.902 148.611 L 48.902 70.899 C 66.762 70.899 73.352 107.09 73.352 136.702 C 73.352 160.681 117.749 158.454 134.623 156.743 C 134.82 156.724 135.018 156.714 135.215 156.714 C 138.402 156.714 141.034 159.299 141.034 162.552 Z " fill="rgb(206,58,68)"/><path d=" M 134.858 162.552 L 62.842 162.552 C 55.143 162.552 48.901 156.31 48.901 148.611 L 48.901 75.298 C 62.88 81.587 68.182 113.436 68.182 139.991 C 68.182 163.972 112.58 161.744 129.453 160.033 C 129.65 160.014 129.848 160.005 130.045 160.005 C 132.029 160.005 133.805 161.011 134.858 162.552 Z " fill="rgb(232,80,91)"/><path d=" M 114.619 169.227 L 67.336 169.227 C 63.65 169.227 60.661 166.238 60.661 162.552 L 121.293 162.552 C 121.293 166.238 118.305 169.227 114.619 169.227 Z " fill="rgb(69,90,100)"/><path d=" M 117.129 237.535 L 121.876 237.535 L 112.38 169.227 L 105.259 169.227 L 113.371 215.915 L 68.584 215.915 L 76.696 169.227 L 69.575 169.227 L 60.078 237.535 L 64.826 237.535 L 67.712 220.929 L 114.243 220.929 L 117.129 237.535 Z " fill="rgb(69,90,100)"/><path d=" M 207.062 120.728 L 79.543 120.728 L 79.543 103.547 L 207.062 103.547 L 207.062 120.728 Z " fill="rgb(122,72,45)"/><path d=" M 207.063 112.139 L 79.543 112.139 L 79.543 103.548 L 207.063 103.548 L 207.063 112.139 Z " fill="rgb(142,86,51)"/><path d=" M 97.715 237.535 L 91.488 237.535 L 107.748 120.578 L 118.039 120.578 L 97.715 237.535 Z " fill="rgb(142,86,51)"/><path d=" M 193.495 237.685 L 187.268 237.685 L 166.944 120.728 L 177.235 120.728 L 193.495 237.685 Z " fill="rgb(142,86,51)"/><g><path d=" M 180.733 102.599 L 162.027 102.599 C 159.994 102.599 158.346 100.952 158.346 98.919 L 184.412 98.919 C 184.412 100.952 182.765 102.599 180.733 102.599 Z " fill="rgb(255,255,255)"/><path d=" M 187.38 93.676 C 186.12 95.651 183.91 96.959 181.4 96.959 C 180.214 96.959 179.101 96.658 178.118 96.146 C 177.378 97.308 176.363 98.267 175.144 98.917 L 167.206 98.917 C 164.997 97.73 163.388 95.537 163.055 92.896 L 162.933 91.93 C 167.182 93.514 174.665 95.561 179.336 92.579 L 179.296 92.896 C 179.255 93.238 179.182 93.579 179.101 93.912 C 179.783 94.294 180.563 94.521 181.4 94.521 C 183.407 94.521 185.121 93.246 185.779 91.466 C 186.364 92.06 186.892 92.823 187.38 93.676 Z " fill="rgb(234,234,234)"/></g><g><path d=" M 134.116 68.831 C 134.116 68.831 134.817 46.25 126.635 37.134 C 126.635 37.134 139.726 44.659 134.116 68.831 Z " fill="rgb(145,196,55)"/><path d=" M 135.54 68.831 C 135.54 68.831 136.569 35.675 124.556 22.289 C 124.556 22.289 143.777 33.339 135.54 68.831 Z " fill="rgb(145,196,55)"/><path d=" M 141.444 68.287 C 141.444 68.287 140.667 43.269 149.732 33.168 C 149.732 33.168 135.228 41.505 141.444 68.287 Z " fill="rgb(145,196,55)"/><path d=" M 139.866 68.287 C 139.866 68.287 138.725 31.552 152.036 16.72 C 152.036 16.72 130.739 28.963 139.866 68.287 Z " fill="rgb(145,196,55)"/><path d=" M 145.525 60.585 L 146.289 55.324 L 130.302 55.324 L 131.067 60.585 C 131.654 64.629 130.819 68.795 128.522 72.175 C 126.439 75.238 125.173 79.285 125.173 83.723 C 125.173 93.285 131.048 101.035 138.296 101.035 C 145.543 101.035 151.419 93.285 151.419 83.723 C 151.419 79.285 150.152 75.238 148.07 72.175 C 145.772 68.795 144.938 64.629 145.525 60.585 Z " fill="rgb(106,177,183)"/><path d=" M 145.106 103.548 L 131.485 103.548 L 131.485 98.522 L 145.106 98.522 L 145.106 103.548 Z " fill="rgb(74,151,153)"/></g><g><path d=" M 107.024 67.586 L 100.174 102.599 L 131.356 102.599 L 124.979 67.586 L 107.024 67.586 Z " fill="rgb(255,255,255)"/><path d=" M 107.024 67.586 L 111.985 102.599 L 100.174 102.599 L 107.024 67.586 Z " fill="rgb(234,234,234)"/><path d=" M 110.369 71.523 L 113.009 89.626 L 126.225 89.626 L 123.165 71.523 L 110.369 71.523 Z " fill="rgb(234,234,234)"/></g></g></g></g></svg>