<?xml version="1.0" encoding="UTF-8" standalone="no"?><!-- Generator: Gravit.io --><svg xmlns="http://www.w3.org/2000/svg" xmlns:xlink="http://www.w3.org/1999/xlink" style="isolation:isolate" viewBox="0 0 120 120" width="120pt" height="120pt"><defs><clipPath id="_clipPath_YBe2TyUcpn6I3ul2JBpO75zb1l6xAgeo"><rect width="120" height="120"/></clipPath></defs><g clip-path="url(#_clipPath_YBe2TyUcpn6I3ul2JBpO75zb1l6xAgeo)"><rect width="120" height="120" style="fill:rgb(0,0,0)" fill-opacity="0"/><g><defs><filter id="khsCczMnd0R22FejTPdbUGgixQid2MEC" x="-200%" y="-200%" width="400%" height="400%" filterUnits="objectBoundingBox" color-interpolation-filters="sRGB"><feOffset xmlns="http://www.w3.org/2000/svg" in="SourceGraphic" dx="0" dy="0"/><feGaussianBlur xmlns="http://www.w3.org/2000/svg" stdDeviation="2.146804531419514" result="pf_100_offsetBlur"/><feComposite xmlns="http://www.w3.org/2000/svg" in="SourceGraphic" in2="pf_100_offsetBlur" result="pf_100_inverse" operator="out"/><feFlood xmlns="http://www.w3.org/2000/svg" flood-color="#000000" flood-opacity="0.5" result="pf_100_color"/><feComposite xmlns="http://www.w3.org/2000/svg" in="pf_100_color" in2="pf_100_inverse" operator="in" result="pf_100_shadow"/><feComposite xmlns="http://www.w3.org/2000/svg" in="pf_100_shadow" in2="SourceGraphic" operator="over"/></filter></defs><g filter="url(#khsCczMnd0R22FejTPdbUGgixQid2MEC)"><path d=" M 16.524 56.977 C 16.058 80.988 35.144 100.831 59.154 101.298 C 83.165 101.765 103.009 82.679 103.476 58.668 C 103.943 34.657 84.857 14.814 60.846 14.347 C 36.835 13.88 16.991 32.966 16.524 56.977 Z " fill="rgb(224,224,224)"/></g><defs><filter id="TGD6Ng1T1p7R0IJT0hMgi6CdSlxv32C6" x="-200%" y="-200%" width="400%" height="400%" filterUnits="objectBoundingBox" color-interpolation-filters="sRGB"><feGaussianBlur xmlns="http://www.w3.org/2000/svg" stdDeviation="2.146804531419514"/></filter></defs><g filter="url(#TGD6Ng1T1p7R0IJT0hMgi6CdSlxv32C6)"><linearGradient id="_lgradient_14" x1="0" y1="0" x2="1" y2="0" gradientTransform="matrix(-179.626,113.625,-131.929,-135.025,175.259,8.176)" gradientUnits="userSpaceOnUse"><stop offset="0%" stop-opacity="1" style="stop-color:rgb(254,254,254)"/><stop offset="14.430801587301586%" stop-opacity="1" style="stop-color:rgb(235,235,236)"/><stop offset="47.02171428571429%" stop-opacity="1" style="stop-color:rgb(190,190,190)"/><stop offset="47.08998412698413%" stop-opacity="1" style="stop-color:rgb(192,191,191)"/><stop offset="49.505071428571426%" stop-opacity="1" style="stop-color:rgb(186,186,186)"/><stop offset="56.12735714285715%" stop-opacity="1" style="stop-color:rgb(163,163,163)"/><stop offset="60.266285714285715%" stop-opacity="1" style="stop-color:rgb(150,150,152)"/><stop offset="68.54414285714286%" stop-opacity="1" style="stop-color:rgb(124,126,128)"/><stop offset="74.33864285714286%" stop-opacity="1" style="stop-color:rgb(107,108,112)"/><stop offset="76.822%" stop-opacity="1" style="stop-color:rgb(105,106,106)"/><stop offset="100%" stop-opacity="1" style="stop-color:rgb(86,86,88)"/></linearGradient><path d=" M 29.295 120 C 26.254 93.98 27.947 71.726 26.219 47.404 C 28.791 47.848 32.895 48.238 37.881 48.569 C 56.717 49.821 88.179 50.244 97.581 49.651 C 93.354 71.222 93.581 91.51 95.394 116.984 C 86.439 116.694 47.158 116.827 29.295 120 Z " fill="url(#_lgradient_14)"/></g><linearGradient id="_lgradient_15" x1="0" y1="0" x2="1" y2="0" gradientTransform="matrix(-90.089,110.026,-136.107,-63.404,95.484,41.443)" gradientUnits="userSpaceOnUse"><stop offset="0%" stop-opacity="1" style="stop-color:rgb(254,254,254)"/><stop offset="46.13416825396825%" stop-opacity="1" style="stop-color:rgb(242,242,242)"/><stop offset="69.20125238095238%" stop-opacity="1" style="stop-color:rgb(221,221,221)"/><stop offset="84.1270126984127%" stop-opacity="1" style="stop-color:rgb(200,200,200)"/><stop offset="85.25348571428572%" stop-opacity="1" style="stop-color:rgb(199,198,198)"/><stop offset="100%" stop-opacity="1" style="stop-color:rgb(224,224,224)"/></linearGradient><path d=" M 28.473 48.44 C 41.564 49.309 83.524 48.743 95.025 48.043 C 94.664 70.107 93.483 92.272 95.319 116.489 C 86.654 116.203 39.421 116.264 26.571 117.598 C 27.166 92.765 27.904 72.225 28.473 48.44 Z " fill-rule="evenodd" fill="url(#_lgradient_15)"/><g><path d=" M 79.697 112.67 L 41.938 112.61 C 38.524 112.605 35.761 109.833 35.766 106.42 L 35.826 68.66 C 35.831 65.246 38.603 62.483 42.016 62.488 L 79.776 62.548 C 83.19 62.553 85.953 65.325 85.948 68.738 L 85.888 106.498 C 85.883 109.912 83.111 112.675 79.697 112.67 Z " fill="rgb(255,255,255)"/><path d=" M 50.447 79.72 L 48.705 79.718 L 44.65 79.711 L 42.908 79.709 C 41.63 79.707 40.597 78.67 40.599 77.393 L 40.602 75.65 L 40.608 71.601 L 40.606 71.601 L 40.609 69.857 C 40.611 68.581 41.647 67.547 42.924 67.549 L 50.465 67.557 C 50.466 67.557 50.466 67.557 50.466 67.557 C 51.743 67.559 52.777 68.596 52.775 69.873 L 52.772 71.614 L 52.766 75.669 L 52.763 77.412 C 52.761 78.689 51.724 79.722 50.447 79.72 Z  M 45.19 71.602 C 44.899 71.602 44.662 71.838 44.662 72.129 L 44.657 75.129 C 44.657 75.42 44.893 75.657 45.184 75.657 L 48.184 75.662 C 48.475 75.663 48.711 75.426 48.712 75.135 L 48.716 72.136 C 48.717 71.844 48.482 71.608 48.19 71.607 L 45.19 71.602 Z " fill="rgb(47,55,68)"/><path d=" M 60.03 75.681 L 57.666 75.677 C 57.2 75.676 56.822 75.297 56.822 74.83 L 56.827 71.621 L 56.832 68.412 C 56.833 67.944 57.213 67.566 57.679 67.567 L 60.889 67.572 L 64.098 67.577 C 64.565 67.578 64.943 67.957 64.942 68.424 L 64.939 70.788 C 64.938 71.255 64.558 71.633 64.092 71.632 L 61.728 71.628 C 61.26 71.628 60.882 72.006 60.881 72.473 L 60.877 74.836 C 60.877 75.303 60.497 75.681 60.03 75.681 Z " fill="rgb(47,55,68)"/><path d=" M 43.462 108.093 L 41.693 108.091 C 41.062 108.09 40.551 107.577 40.552 106.946 L 40.555 105.177 C 40.556 104.546 41.069 104.035 41.7 104.036 L 43.469 104.039 C 44.1 104.04 44.611 104.552 44.61 105.183 L 44.607 106.952 C 44.606 107.583 44.093 108.094 43.462 108.093 Z " fill="rgb(47,55,68)"/><path d=" M 63.971 83.797 L 60.863 83.792 L 57.755 83.787 C 57.233 83.786 56.809 83.361 56.81 82.838 L 56.813 80.677 C 56.814 80.154 57.239 79.731 57.762 79.732 L 59.922 79.735 C 60.445 79.736 60.87 79.313 60.871 78.79 L 60.874 76.629 C 60.875 76.106 61.299 75.683 61.823 75.684 L 63.984 75.687 C 64.506 75.688 64.93 76.112 64.929 76.635 L 64.925 79.743 L 64.92 82.851 C 64.919 83.374 64.494 83.797 63.971 83.797 Z " fill="rgb(47,55,68)"/><path d=" M 43.494 87.819 L 41.725 87.816 C 41.094 87.815 40.583 87.303 40.584 86.672 L 40.587 84.903 C 40.588 84.271 41.1 83.761 41.732 83.762 L 43.5 83.764 C 44.132 83.765 44.643 84.278 44.642 84.909 L 44.639 86.678 C 44.638 87.309 44.125 87.82 43.494 87.819 Z " fill="rgb(47,55,68)"/><path d=" M 55.652 91.893 L 53.884 91.89 C 53.252 91.889 52.741 91.377 52.742 90.746 L 52.745 88.977 C 52.746 88.345 52.235 87.833 51.604 87.832 L 49.835 87.829 C 49.204 87.828 48.693 87.316 48.694 86.684 L 48.696 84.916 C 48.697 84.284 49.21 83.773 49.841 83.774 L 52.753 83.779 L 55.665 83.783 C 56.296 83.784 56.807 84.297 56.806 84.928 L 56.802 87.84 L 56.797 90.752 C 56.796 91.383 56.284 91.894 55.652 91.893 Z " fill="rgb(47,55,68)"/><path d=" M 79.981 91.931 L 77.069 91.927 L 74.157 91.922 C 73.526 91.921 73.015 91.409 73.016 90.777 L 73.019 89.009 C 73.02 88.377 72.509 87.865 71.877 87.864 L 70.109 87.861 C 69.479 87.86 68.968 87.347 68.969 86.716 L 68.971 84.947 C 68.972 84.316 69.485 83.805 70.115 83.806 L 73.027 83.811 L 75.939 83.815 C 76.57 83.816 77.081 84.329 77.08 84.96 L 77.077 86.729 C 77.076 87.36 77.587 87.873 78.219 87.874 L 79.988 87.877 C 80.619 87.878 81.13 88.39 81.129 89.021 L 81.126 90.79 C 81.125 91.422 80.613 91.932 79.981 91.931 Z " fill="rgb(47,55,68)"/><path d=" M 47.543 91.88 L 45.774 91.878 C 45.143 91.877 44.632 91.364 44.633 90.733 L 44.635 88.964 C 44.636 88.333 45.149 87.822 45.78 87.823 L 47.549 87.826 C 48.18 87.827 48.691 88.339 48.69 88.97 L 48.687 90.739 C 48.686 91.371 48.174 91.881 47.543 91.88 Z " fill="rgb(47,55,68)"/><path d=" M 67.817 91.912 L 64.905 91.908 L 61.994 91.903 C 61.362 91.902 60.851 91.39 60.852 90.758 L 60.855 88.99 C 60.856 88.358 61.369 87.847 62 87.848 L 64.912 87.853 L 67.824 87.857 C 68.455 87.858 68.966 88.371 68.965 89.002 L 68.962 90.771 C 68.961 91.402 68.449 91.913 67.817 91.912 Z " fill="rgb(47,55,68)"/><path d=" M 47.53 99.99 L 44.618 99.985 L 41.706 99.981 C 41.075 99.98 40.564 99.467 40.565 98.836 L 40.568 97.067 C 40.569 96.436 41.081 95.925 41.713 95.926 L 44.624 95.931 L 47.536 95.935 C 48.167 95.936 48.678 96.449 48.677 97.08 L 48.674 98.849 C 48.673 99.48 48.161 99.991 47.53 99.99 Z " fill="rgb(47,55,68)"/><path d=" M 55.639 100.003 L 53.871 100 C 53.239 99.999 52.728 99.486 52.729 98.855 L 52.732 97.087 C 52.733 96.455 53.246 95.944 53.877 95.945 L 55.646 95.948 C 56.277 95.949 56.788 96.462 56.787 97.093 L 56.784 98.862 C 56.783 99.493 56.271 100.004 55.639 100.003 Z " fill="rgb(47,55,68)"/><path d=" M 63.781 100.016 L 62.012 100.013 C 61.381 100.012 60.87 99.499 60.871 98.868 L 60.873 97.099 C 60.874 96.468 61.387 95.957 62.018 95.958 L 63.787 95.961 C 64.418 95.962 64.929 96.474 64.928 97.106 L 64.926 98.874 C 64.925 99.506 64.412 100.017 63.781 100.016 Z " fill="rgb(47,55,68)"/><path d=" M 51.578 104.051 L 49.809 104.049 C 49.178 104.048 48.667 103.535 48.668 102.904 L 48.671 101.135 C 48.672 100.504 49.184 99.993 49.816 99.994 L 51.584 99.996 C 52.216 99.997 52.727 100.51 52.726 101.141 L 52.723 102.91 C 52.722 103.541 52.209 104.052 51.578 104.051 Z " fill="rgb(47,55,68)"/><path d=" M 63.737 108.125 L 60.825 108.121 L 56.77 108.114 L 53.858 108.11 C 53.227 108.109 52.716 107.596 52.717 106.965 L 52.719 105.196 C 52.72 104.565 53.233 104.054 53.864 104.055 L 55.633 104.058 C 56.264 104.059 56.777 103.548 56.778 102.916 L 56.781 101.148 C 56.782 100.516 57.294 100.005 57.926 100.006 L 59.694 100.009 C 60.326 100.01 60.837 100.523 60.836 101.154 L 60.833 102.923 C 60.832 103.554 61.343 104.067 61.974 104.068 L 63.743 104.07 C 64.374 104.071 64.885 104.584 64.884 105.215 L 64.882 106.984 C 64.881 107.615 64.368 108.126 63.737 108.125 Z " fill="rgb(47,55,68)"/><path d=" M 78.788 108.148 L 77.046 108.146 L 72.991 108.139 L 71.249 108.137 C 69.972 108.135 68.938 107.098 68.94 105.82 L 68.943 104.078 L 68.949 100.029 L 68.948 100.029 L 68.95 98.285 C 68.952 97.009 69.988 95.975 71.264 95.977 L 78.806 95.985 C 78.806 95.985 78.808 95.985 78.808 95.985 C 80.085 95.987 81.119 97.024 81.117 98.301 L 81.114 100.042 L 81.108 104.097 L 81.105 105.84 C 81.103 107.117 80.066 108.15 78.788 108.148 Z  M 73.531 100.03 C 73.239 100.03 73.004 100.266 73.003 100.557 L 72.998 103.557 C 72.998 103.848 73.233 104.085 73.525 104.085 L 76.524 104.09 C 76.816 104.091 77.053 103.855 77.053 103.563 L 77.058 100.564 C 77.059 100.272 76.822 100.036 76.53 100.035 L 73.531 100.03 Z " fill="rgb(47,55,68)"/><path d=" M 78.833 79.764 L 77.091 79.762 L 73.036 79.755 L 71.294 79.753 C 70.016 79.751 68.982 78.714 68.984 77.437 L 68.987 75.694 L 68.994 71.645 L 68.992 71.645 L 68.995 69.902 C 68.997 68.625 70.033 67.591 71.309 67.593 L 78.851 67.601 C 78.851 67.601 78.851 67.601 78.852 67.601 C 80.129 67.603 81.163 68.64 81.161 69.917 L 81.159 71.658 L 81.152 75.713 L 81.149 77.456 C 81.147 78.733 80.11 79.767 78.833 79.764 Z  M 73.576 71.647 C 73.284 71.646 73.048 71.882 73.048 72.174 L 73.043 75.173 C 73.043 75.464 73.278 75.701 73.57 75.701 L 76.569 75.706 C 76.86 75.707 77.098 75.471 77.098 75.179 L 77.103 72.18 C 77.103 71.888 76.867 71.652 76.575 71.651 L 73.576 71.647 Z " fill="rgb(47,55,68)"/></g><g><path d=" M 66.615 73.969 C 66.065 73.326 66.009 72.783 67.248 72.672 C 69.981 72.426 71.993 71.233 72.311 70.543 C 72.629 69.852 71.763 69.177 71.021 69.592 C 70.423 69.928 69.251 70.186 68.361 70.345 C 67.628 70.477 66.878 70.491 66.144 70.376 C 65.507 70.276 64.948 70.169 64.448 70.063 C 64.448 70.063 61.556 69.439 60.307 68.465 L 54.192 75.001 L 57.06 78.242 C 57.06 78.242 58.43 80.29 60.891 80.047 C 63.351 79.805 66.661 78.038 66.661 78.038 C 67.108 77.352 71.07 79.795 72.346 80.711 C 73.607 81.616 74.566 81.396 74.517 80.516 C 74.485 79.914 70.646 77.017 69.363 76.14 C 68.662 75.661 67.279 74.743 66.615 73.969 Z " fill="rgb(255,190,157)"/><path d=" M 63.02 79.647 C 63.027 79.685 62.844 79.762 62.528 79.755 C 62.215 79.748 61.777 79.624 61.389 79.332 C 61.002 79.039 60.763 78.651 60.673 78.351 C 60.578 78.049 60.603 77.852 60.641 77.848 C 60.728 77.828 60.878 78.568 61.579 79.081 C 62.263 79.615 63.016 79.558 63.02 79.647 Z " fill="rgb(235,153,110)"/><path d=" M 65.443 78.693 C 65.448 78.731 65.27 78.797 64.968 78.778 C 64.669 78.761 64.254 78.632 63.888 78.348 C 63.521 78.062 63.294 77.692 63.205 77.406 C 63.112 77.118 63.132 76.929 63.17 76.924 C 63.258 76.903 63.42 77.6 64.081 78.099 C 64.726 78.617 65.442 78.603 65.443 78.693 Z " fill="rgb(235,153,110)"/><path d=" M 72.037 10.709 C 72.293 16.076 78.838 23.427 83.707 24.616 C 86.266 25.242 89.211 24.947 91.239 26.667 C 94.716 29.616 92.682 35.729 95.028 39.684 C 96.47 42.117 99.334 43.31 100.957 45.619 C 103.652 49.456 101.843 55.257 98.165 58.115 C 94.485 60.974 89.586 61.52 84.975 61.401 C 74.834 61.138 64.448 57.915 57.117 50.727 C 53.674 47.35 40.199 36.923 44.898 12.212" fill="rgb(38,50,56)"/><path d=" M 108.642 49.107 L 70.083 37.66 C 66.887 36.302 64.467 35.97 64.467 35.97 L 51.449 36.057 C 49.681 36.057 48.017 36.437 46.455 37.101 L 11.358 48.759 C 8.761 49.581 6.966 52.245 6.966 55.279 C 6.966 59.02 9.663 62.052 12.989 62.052 L 29.196 62.052 C 29.15 62.204 29.125 62.29 29.125 62.29 L 85.497 62.501 C 85.497 62.494 85.496 62.487 85.496 62.48 L 107.012 62.528 C 110.338 62.528 113.034 59.466 113.034 55.69 C 113.034 52.627 111.239 49.937 108.642 49.107 Z " fill="rgb(232,80,91)"/><path d=" M 100.915 53.276 C 100.913 53.287 100.792 53.28 100.565 53.258 C 100.303 53.228 99.974 53.191 99.572 53.145 C 98.711 53.036 97.463 52.897 95.92 52.748 C 92.835 52.448 88.556 52.182 83.825 52.241 C 79.095 52.306 74.824 52.684 71.747 53.065 C 70.208 53.254 68.965 53.425 68.107 53.557 C 67.706 53.614 67.378 53.659 67.117 53.695 C 66.89 53.724 66.77 53.734 66.768 53.723 C 66.766 53.712 66.883 53.681 67.107 53.633 C 67.365 53.581 67.689 53.516 68.087 53.436 C 68.939 53.267 70.179 53.061 71.718 52.844 C 74.793 52.405 79.076 51.991 83.822 51.925 C 88.566 51.866 92.857 52.169 95.943 52.527 C 97.487 52.704 98.732 52.877 99.589 53.023 C 99.989 53.093 100.315 53.15 100.574 53.195 C 100.799 53.238 100.916 53.265 100.915 53.276 Z " fill="rgb(38,50,56)"/><g opacity="0.600006"><path d=" M 91.866 43.907 C 91.87 43.911 91.834 43.955 91.758 44.037 C 91.669 44.13 91.557 44.248 91.419 44.395 C 91.115 44.704 90.666 45.161 90.056 45.717 C 89.446 46.272 88.68 46.936 87.712 47.604 C 86.743 48.259 85.559 48.944 84.112 49.32 C 82.674 49.723 80.978 49.682 79.294 49.224 C 77.599 48.769 75.929 47.913 74.222 46.983 C 72.506 46.073 70.738 45.016 68.729 44.408 C 66.744 43.751 64.464 43.772 62.448 44.731 C 60.419 45.646 58.693 47.041 56.806 48.046 C 56.339 48.306 55.845 48.506 55.367 48.723 C 54.871 48.898 54.388 49.095 53.887 49.217 C 52.898 49.507 51.896 49.655 50.916 49.729 C 46.973 50.011 43.451 48.732 41.052 47.016 C 39.839 46.151 38.918 45.171 38.072 44.37 C 37.233 43.559 36.461 42.915 35.765 42.484 C 34.36 41.615 33.381 41.657 33.402 41.598 C 33.402 41.598 33.632 41.594 34.061 41.677 C 34.489 41.753 35.113 41.958 35.829 42.379 C 36.545 42.8 37.339 43.44 38.193 44.242 C 39.054 45.035 39.982 45.997 41.18 46.834 C 43.558 48.499 47.026 49.733 50.896 49.439 C 51.856 49.362 52.838 49.214 53.805 48.927 C 54.296 48.807 54.768 48.612 55.253 48.44 C 55.72 48.226 56.201 48.031 56.66 47.774 C 58.513 46.784 60.238 45.384 62.32 44.444 C 64.39 43.452 66.795 43.432 68.819 44.113 C 70.877 44.741 72.65 45.812 74.36 46.728 C 76.061 47.664 77.708 48.517 79.364 48.972 C 81.01 49.429 82.649 49.483 84.056 49.104 C 85.471 48.752 86.646 48.093 87.614 47.458 C 88.581 46.81 89.355 46.165 89.974 45.625 C 90.594 45.085 91.056 44.644 91.375 44.35 C 91.522 44.212 91.641 44.101 91.735 44.014 C 91.818 43.939 91.863 43.903 91.866 43.907 Z " fill="rgb(255,255,255)"/></g><g opacity="0.199997"><path d=" M 31.949 53.198 L 56.322 57.793 L 53.507 62.379 L 52.765 62.39 L 31.949 53.198 Z " fill="rgb(0,0,0)"/></g><g opacity="0.600006"><path d=" M 105.728 48.382 C 105.739 48.382 105.742 48.51 105.74 48.755 C 105.734 49 105.708 49.362 105.633 49.822 C 105.479 50.736 105.106 52.073 104.165 53.469 C 103.24 54.857 101.676 56.267 99.562 57 C 98.515 57.37 97.345 57.578 96.132 57.536 C 94.919 57.491 93.692 57.214 92.475 56.867 C 91.255 56.523 90.083 56.144 88.925 55.911 C 87.77 55.659 86.628 55.611 85.556 55.736 C 83.406 55.993 81.59 56.887 80.301 57.888 C 78.983 58.874 78.179 59.968 77.69 60.741 C 77.574 60.934 77.469 61.108 77.375 61.266 C 77.3 61.417 77.232 61.55 77.174 61.667 C 77.062 61.884 76.999 61.996 76.989 61.993 C 76.979 61.988 77.023 61.868 77.115 61.641 C 77.167 61.518 77.226 61.38 77.291 61.224 C 77.379 61.06 77.476 60.878 77.584 60.678 C 78.047 59.876 78.837 58.741 80.164 57.712 C 81.462 56.669 83.31 55.728 85.521 55.447 C 86.622 55.31 87.809 55.356 88.985 55.608 C 90.167 55.842 91.348 56.222 92.561 56.564 C 93.771 56.909 94.97 57.179 96.143 57.227 C 97.314 57.273 98.448 57.077 99.466 56.726 C 101.522 56.029 103.054 54.681 103.981 53.343 C 104.923 51.996 105.324 50.694 105.513 49.8 C 105.696 48.897 105.695 48.38 105.728 48.382 Z " fill="rgb(255,255,255)"/></g><path d=" M 11.391 61.27 C 11.391 61.27 55.453 80.712 55.226 80.271 C 54.999 79.83 62.222 67.078 62.222 67.078 L 26.522 49.435 L 11.391 61.27 Z " fill="rgb(232,80,91)"/><path d=" M 31.617 51.952 C 31.626 51.932 31.949 52.069 32.525 52.333 C 33.147 52.626 33.963 53.011 34.949 53.475 C 36.991 54.452 39.801 55.822 42.897 57.351 C 45.993 58.882 48.789 60.283 50.806 61.312 C 51.775 61.813 52.576 62.228 53.187 62.545 C 53.747 62.842 54.052 63.016 54.042 63.035 C 54.033 63.055 53.711 62.919 53.135 62.656 C 52.513 62.363 51.696 61.978 50.71 61.514 C 48.67 60.536 45.858 59.167 42.761 57.636 C 39.665 56.106 36.869 54.704 34.852 53.676 C 33.885 53.175 33.082 52.76 32.471 52.443 C 31.912 52.146 31.607 51.972 31.617 51.952 Z " fill="rgb(38,50,56)"/><g opacity="0.600006"><path d=" M 41.293 57.85 C 41.293 57.85 41.269 58.352 40.883 59.157 C 40.51 59.959 39.656 61.01 38.255 61.784 C 37.557 62.166 36.733 62.489 35.808 62.655 C 34.883 62.822 33.869 62.831 32.828 62.69 C 30.733 62.421 28.572 61.548 26.402 60.534 C 24.232 59.518 22.163 58.539 20.153 58.069 C 19.153 57.828 18.176 57.712 17.267 57.735 C 16.355 57.758 15.513 57.922 14.775 58.155 C 13.294 58.63 12.261 59.425 11.7 60.082 C 11.127 60.739 10.935 61.196 10.902 61.177 C 10.902 61.177 11.05 60.699 11.606 60.003 C 12.15 59.305 13.192 58.458 14.705 57.944 C 15.459 57.69 16.321 57.509 17.258 57.473 C 18.195 57.439 19.198 57.548 20.219 57.787 C 22.273 58.251 24.369 59.235 26.535 60.248 C 28.698 61.259 30.824 62.125 32.867 62.403 C 33.883 62.547 34.867 62.547 35.762 62.398 C 36.66 62.247 37.465 61.946 38.149 61.587 C 39.523 60.861 40.377 59.866 40.774 59.1 C 41.184 58.332 41.255 57.839 41.293 57.85 Z " fill="rgb(255,255,255)"/></g><g opacity="0.600006"><path d=" M 60 71.177 C 59.991 71.236 59.023 71.074 57.449 71.048 C 56.662 71.031 55.726 71.076 54.693 71.189 C 53.663 71.317 52.539 71.524 51.384 71.845 C 50.232 72.177 49.165 72.591 48.221 73.022 C 47.283 73.467 46.461 73.92 45.801 74.348 C 44.474 75.195 43.734 75.84 43.696 75.795 C 43.682 75.779 43.857 75.607 44.189 75.311 C 44.516 75.01 45.024 74.613 45.678 74.162 C 46.331 73.705 47.151 73.225 48.096 72.759 C 49.048 72.308 50.128 71.879 51.298 71.541 C 52.47 71.215 53.615 71.014 54.662 70.899 C 55.711 70.801 56.661 70.779 57.455 70.825 C 58.25 70.867 58.891 70.938 59.327 71.023 C 59.765 71.102 60.004 71.155 60 71.177 Z " fill="rgb(255,255,255)"/></g><g opacity="0.199997"><path d=" M 65.433 35.888 C 64.704 37.927 65.799 40.122 66.86 42.008 C 67.598 43.321 68.35 44.652 69.415 45.717 C 70.48 46.782 71.916 47.567 73.421 47.517 C 75.4 47.453 77.171 45.991 79.147 46.106 C 80.49 46.183 81.671 46.977 82.787 47.731 C 84.72 49.037 86.703 50.312 88.895 51.114 C 91.086 51.916 93.527 52.218 95.761 51.545 C 97.995 50.872 99.969 49.111 100.512 46.841" fill="rgb(0,0,0)"/></g><path d=" M 65.599 35.326 C 65.701 32.954 65.828 30.807 65.828 30.807 C 65.828 30.807 71.13 30.138 71.358 24.728 C 71.587 19.315 71.048 6.855 71.048 6.855 L 61.291 2.17 L 50.792 10.627 L 52.439 35.48 C 52.676 39.06 55.734 41.793 59.319 41.627 C 62.728 41.469 65.453 38.735 65.599 35.326 Z " fill="rgb(255,190,157)"/><path d=" M 70.134 16.64 C 70.141 17.022 69.844 17.337 69.471 17.343 C 69.099 17.35 68.792 17.046 68.785 16.664 C 68.779 16.281 69.076 15.966 69.447 15.96 C 69.82 15.953 70.127 16.258 70.134 16.64 Z " fill="rgb(38,50,56)"/><path d=" M 70.789 15.195 C 70.703 15.286 70.198 14.86 69.471 14.833 C 68.745 14.794 68.206 15.173 68.128 15.075 C 68.091 15.031 68.178 14.864 68.413 14.692 C 68.645 14.522 69.037 14.362 69.49 14.382 C 69.943 14.403 70.321 14.597 70.537 14.788 C 70.757 14.981 70.83 15.155 70.789 15.195 Z " fill="rgb(38,50,56)"/><path d=" M 62.088 16.64 C 62.095 17.022 61.798 17.337 61.426 17.343 C 61.054 17.35 60.747 17.046 60.74 16.664 C 60.734 16.281 61.03 15.966 61.402 15.96 C 61.774 15.953 62.082 16.258 62.088 16.64 Z " fill="rgb(38,50,56)"/><path d=" M 62.743 15.334 C 62.658 15.425 62.151 14.999 61.426 14.972 C 60.7 14.933 60.16 15.313 60.083 15.214 C 60.045 15.17 60.132 15.004 60.368 14.832 C 60.599 14.661 60.992 14.502 61.445 14.522 C 61.897 14.542 62.275 14.736 62.491 14.928 C 62.711 15.12 62.784 15.294 62.743 15.334 Z " fill="rgb(38,50,56)"/><path d=" M 65.471 21.581 C 65.468 21.536 65.921 21.471 66.654 21.4 C 66.84 21.387 67.017 21.355 67.049 21.22 C 67.096 21.078 67.022 20.861 66.936 20.626 C 66.768 20.139 66.593 19.627 66.41 19.092 C 65.682 16.907 65.158 15.114 65.24 15.085 C 65.322 15.056 65.978 16.804 66.707 18.988 C 66.882 19.526 67.049 20.04 67.208 20.531 C 67.275 20.76 67.392 21.02 67.292 21.315 C 67.24 21.461 67.102 21.563 66.983 21.593 C 66.863 21.627 66.759 21.625 66.667 21.627 C 65.93 21.64 65.472 21.625 65.471 21.581 Z " fill="rgb(38,50,56)"/><path d=" M 63.085 22.327 C 62.342 21.84 65.135 23.531 66.616 23.506 C 66.616 23.506 65.726 24.869 64.222 24.248 C 62.661 23.604 63.085 22.327 63.085 22.327 Z " fill="rgb(255,255,255)"/><path d=" M 65.828 30.807 C 65.828 30.807 62.282 30.909 58.808 28.509 C 58.808 28.509 60.458 32.451 65.736 32.135 L 65.828 30.807 Z " fill="rgb(235,153,110)"/><path d=" M 45.098 15.96 L 45.098 15.96 C 45.079 20.643 43.853 33.027 52.39 34.745 L 52.08 17.689 C 52.08 17.689 60.346 13.791 61.742 5.673 L 61.792 5.719 C 62.322 6.944 63.265 9.576 62.692 11.719 L 70.432 13.627 L 71.324 14.442 C 71.324 14.442 74.08 8.403 68.762 2.923 C 63.443 -2.556 58.899 1.414 56.049 1.072 C 54.152 0.845 47.576 0.888 44.898 12.212 L 45.098 15.96 Z " fill="rgb(38,50,56)"/><path d=" M 52.292 17.879 C 51.571 17.434 50.585 17.801 50.013 18.426 C 49.111 19.409 48.955 20.998 49.646 22.139 C 50.337 23.28 51.818 23.876 53.107 23.532" fill="rgb(255,190,157)"/><path d=" M 52.126 21.91 C 52.124 21.948 51.883 21.99 51.505 21.888 C 51.146 21.793 50.587 21.504 50.373 20.884 C 50.269 20.584 50.288 20.255 50.405 20.001 C 50.52 19.747 50.701 19.573 50.867 19.463 C 51.207 19.244 51.467 19.26 51.47 19.295 C 51.483 19.342 51.258 19.41 51.003 19.64 C 50.745 19.858 50.498 20.303 50.672 20.783 C 50.832 21.262 51.267 21.538 51.581 21.679 C 51.903 21.822 52.13 21.862 52.126 21.91 Z " fill="rgb(235,153,110)"/><path d=" M 51.419 22.976 C 51.026 23.069 50.826 23.61 51.062 23.936 C 51.299 24.263 51.875 24.239 52.086 23.895 C 52.295 23.55 52.051 23.028 51.653 22.967" fill="rgb(232,80,91)"/><path d=" M 67.106 62.528 L 67.106 53.633 C 67.106 53.633 53.898 56.373 53.656 62.422 L 67.106 62.528 Z " fill="rgb(255,190,157)"/><path d=" M 65.732 34.39 C 65.948 37.099 67.205 39.712 69.185 41.573 C 71.166 43.434 73.853 44.525 76.57 44.573 C 78.52 44.607 80.575 44.143 82.355 44.94 C 83.904 45.633 84.899 47.133 86.119 48.312 C 88.98 51.079 93.421 52.083 97.193 50.816 C 98.792 50.279 101.334 49.13 101.631 47.47 C 101.858 46.204 100.312 44.947 99.4 44.041 C 98.489 43.135 97.312 42.554 96.148 42.007 C 86.739 37.588 76.639 34.374 66.26 33.825" fill="rgb(38,50,56)"/></g></g></g></svg>