<?xml version="1.0" encoding="UTF-8" standalone="no"?><!-- Generator: Gravit.io --><svg xmlns="http://www.w3.org/2000/svg" xmlns:xlink="http://www.w3.org/1999/xlink" style="isolation:isolate" viewBox="0 0 120 120" width="120pt" height="120pt"><defs><clipPath id="_clipPath_f2XGrsvvoGMmW80VeuJtmR6mbgxYGSuu"><rect width="120" height="120"/></clipPath></defs><g clip-path="url(#_clipPath_f2XGrsvvoGMmW80VeuJtmR6mbgxYGSuu)"><rect width="120" height="120" style="fill:rgb(0,0,0)" fill-opacity="0"/><g><defs><filter id="7n1H19LaDLEj40Bl0VTkGhlHK2BRcf2y" x="-200%" y="-200%" width="400%" height="400%" filterUnits="objectBoundingBox" color-interpolation-filters="sRGB"><feOffset xmlns="http://www.w3.org/2000/svg" in="SourceGraphic" dx="0" dy="0"/><feGaussianBlur xmlns="http://www.w3.org/2000/svg" stdDeviation="2.146804531419514" result="pf_100_offsetBlur"/><feComposite xmlns="http://www.w3.org/2000/svg" in="SourceGraphic" in2="pf_100_offsetBlur" result="pf_100_inverse" operator="out"/><feFlood xmlns="http://www.w3.org/2000/svg" flood-color="#000000" flood-opacity="0.5" result="pf_100_color"/><feComposite xmlns="http://www.w3.org/2000/svg" in="pf_100_color" in2="pf_100_inverse" operator="in" result="pf_100_shadow"/><feComposite xmlns="http://www.w3.org/2000/svg" in="pf_100_shadow" in2="SourceGraphic" operator="over"/></filter></defs><g filter="url(#7n1H19LaDLEj40Bl0VTkGhlHK2BRcf2y)"><path d=" M 6.841 59.13 C 6.36 83.829 25.994 104.241 50.692 104.722 C 75.391 105.202 95.804 85.569 96.284 60.87 C 96.764 36.171 77.131 15.759 52.432 15.278 C 27.733 14.798 7.321 34.432 6.841 59.13 Z " fill="rgb(224,224,224)"/></g><g><path d=" M 98.107 99.519 L 90.406 99.519 L 90.406 60.524 L 98.107 60.524 L 98.107 99.519 Z " fill="rgb(122,152,197)"/><path d=" M 100.528 95.419 L 88.189 95.419 C 86.137 95.419 84.474 97.06 84.474 99.085 L 84.474 99.519 L 104.243 99.519 L 104.243 99.085 C 104.243 97.06 102.58 95.419 100.528 95.419 Z " fill="rgb(122,152,197)"/><path d=" M 95.913 99.519 L 88.212 99.519 L 88.212 60.524 L 95.913 60.524 L 95.913 99.519 Z " fill="rgb(47,48,82)"/><path d=" M 98.334 95.419 L 85.994 95.419 C 83.943 95.419 82.28 97.06 82.28 99.085 L 82.28 99.519 L 102.049 99.519 L 102.049 99.085 C 102.049 97.06 100.386 95.419 98.334 95.419 Z " fill="rgb(47,48,82)"/><g style="mix-blend-mode:multiply;"><path d=" M 88.212 60.524 L 88.212 65.572 L 98.107 62.28 L 98.107 60.524 L 88.212 60.524 Z " fill="rgb(172,172,172)"/></g><path d=" M 17.019 99.519 L 9.319 99.519 L 9.319 60.524 L 17.019 60.524 L 17.019 99.519 Z " fill="rgb(122,152,197)"/><path d=" M 19.441 95.419 L 7.101 95.419 C 5.049 95.419 3.386 97.06 3.386 99.085 L 3.386 99.519 L 23.155 99.519 L 23.155 99.085 C 23.155 97.06 21.492 95.419 19.441 95.419 Z " fill="rgb(122,152,197)"/><path d=" M 14.825 99.519 L 7.124 99.519 L 7.124 60.524 L 14.825 60.524 L 14.825 99.519 Z " fill="rgb(47,48,82)"/><path d=" M 17.246 95.419 L 4.906 95.419 C 2.855 95.419 1.192 97.06 1.192 99.085 L 1.192 99.519 L 20.961 99.519 L 20.961 99.085 C 20.961 97.06 19.298 95.419 17.246 95.419 Z " fill="rgb(47,48,82)"/><g style="mix-blend-mode:multiply;"><path d=" M 7.124 60.524 L 7.124 65.572 L 17.019 62.28 L 17.019 60.524 L 7.124 60.524 Z " fill="rgb(172,172,172)"/></g><path d=" M 82.691 29.442 L 102.772 29.442 C 104.403 29.442 105.907 30.309 106.707 31.711 L 112.589 42.138 C 113.315 43.41 112.383 44.983 110.904 44.983 L 89.516 44.983 L 82.691 29.442 Z " fill="rgb(47,48,82)"/><g style="mix-blend-mode:multiply;"><path d=" M 92.499 29.442 L 101.343 44.983 L 94.257 44.983 L 85.668 29.442 L 92.499 29.442 Z " fill="rgb(172,172,172)"/></g><path d=" M 96.921 33.245 L 97.919 34.98 L 103.216 34.98 L 102.19 33.245 L 96.921 33.245 Z " fill="rgb(122,152,197)"/><path d=" M 98.235 35.551 L 98.53 36.07 L 103.828 36.07 L 103.505 35.551 L 98.235 35.551 Z " fill="rgb(243,226,217)"/><path d=" M 98.771 36.485 L 99.066 37.003 L 104.363 37.003 L 104.041 36.485 L 98.771 36.485 Z " fill="rgb(243,226,217)"/><path d=" M 99.212 37.413 L 99.506 37.931 L 104.804 37.931 L 104.481 37.413 L 99.212 37.413 Z " fill="rgb(243,226,217)"/><path d=" M 100.543 39.657 L 100.838 40.175 L 106.135 40.175 L 105.813 39.657 L 100.543 39.657 Z " fill="rgb(243,226,217)"/><path d=" M 101.079 40.59 L 101.374 41.108 L 106.671 41.108 L 106.348 40.59 L 101.079 40.59 Z " fill="rgb(243,226,217)"/><path d=" M 99.734 38.36 L 100.189 39.161 L 108.373 39.161 L 107.875 38.36 L 99.734 38.36 Z " fill="rgb(122,152,197)"/><path d=" M 103.216 33.245 L 105.901 37.833 L 107.729 37.833 L 105.016 33.245 L 103.216 33.245 Z " fill="rgb(122,152,197)"/><path d=" M 106.671 39.657 L 107.554 41.108 L 109.382 41.108 L 108.471 39.657 L 106.671 39.657 Z " fill="rgb(122,152,197)"/><path d=" M 7.233 60.524 L 102.003 60.524 L 102.003 54.629 C 102.003 52.443 101.453 50.292 100.404 48.368 L 91.553 32.141 C 90.646 30.479 88.888 29.442 86.974 29.442 L 7.233 29.442 L 7.233 60.524 Z " fill="rgb(122,152,197)"/><path d=" M 0 60.524 L 22.999 60.524 L 22.999 54.629 C 22.999 52.443 22.45 50.292 21.4 48.368 L 12.503 32.056 C 11.624 30.446 9.921 29.442 8.068 29.442 L 0 29.442 L 0 60.524 Z " fill="rgb(47,48,82)"/><path d=" M 33.195 44.026 L 27.885 34.714 L 78.491 34.714 L 85.227 45.911" fill="none" vector-effect="non-scaling-stroke" stroke-width="1.062" stroke="rgb(47,48,82)" stroke-linejoin="miter" stroke-linecap="square" stroke-miterlimit="3"/><line x1="30.347" y1="39.023" x2="81.128" y2="39.023" vector-effect="non-scaling-stroke" stroke-width="2.123" stroke="rgb(47,48,82)" stroke-linejoin="miter" stroke-linecap="square" stroke-miterlimit="3"/><path d=" M 32.279 42.416 L 83.143 42.416 L 85.227 45.911 L 33.195 44.026 L 32.279 42.416 Z " fill="rgb(47,48,82)"/><path d=" M 37.768 83.043 L 37.768 83.044 C 37.768 88.216 42.016 92.409 47.257 92.409 L 68.068 92.409 L 68.068 83.043 L 37.768 83.043 Z " fill="rgb(255,255,255)"/><path d=" M 33.195 44.026 L 81.473 44.026 C 81.473 44.026 88.196 44.557 88.196 53.051 L 88.196 83.043 L 37.768 83.043 L 37.768 53.483 C 37.768 50.696 36.739 48.004 34.874 45.911 L 33.195 44.026 Z " fill="rgb(253,255,255)"/><g style="mix-blend-mode:multiply;"><path d=" M 72.461 60.992 C 72.461 65.393 68.845 68.96 64.386 68.96 C 59.927 68.96 56.312 65.393 56.312 60.992 C 56.312 56.591 59.927 53.023 64.386 53.023 C 68.845 53.023 72.461 56.591 72.461 60.992 Z " fill="rgb(97,171,235)"/></g><g style="mix-blend-mode:multiply;"><path d=" M 67.133 69.93 C 67.133 74.33 63.517 77.898 59.058 77.898 C 54.599 77.898 50.984 74.33 50.984 69.93 C 50.984 65.529 54.599 61.961 59.058 61.961 C 63.517 61.961 67.133 65.529 67.133 69.93 Z " fill="rgb(200,7,136)"/></g><g style="mix-blend-mode:multiply;"><path d=" M 78.608 69.93 C 78.608 74.33 74.993 77.898 70.533 77.898 C 66.074 77.898 62.459 74.33 62.459 69.93 C 62.459 65.529 66.074 61.961 70.533 61.961 C 74.993 61.961 78.608 65.529 78.608 69.93 Z " fill="rgb(248,240,57)"/></g><path d=" M 64.519 83.043 C 64.519 83.043 60.056 82.656 60.056 87.313 C 60.056 91.97 56.227 92.409 56.227 92.409 L 68.068 92.409 L 68.068 83.043 L 64.519 83.043 Z " fill="rgb(95,112,161)"/><path d=" M 64.519 83.043 L 115.268 83.043 C 115.268 83.043 120 83.289 120 88.426 L 120 94.497 L 68.068 94.497 L 68.068 88.099 C 68.068 88.099 68.041 83.043 64.519 83.043 Z " fill="rgb(154,189,231)"/></g></g></g></svg>