<?xml version="1.0" encoding="UTF-8" standalone="no"?><!-- Generator: Gravit.io --><svg xmlns="http://www.w3.org/2000/svg" xmlns:xlink="http://www.w3.org/1999/xlink" style="isolation:isolate" viewBox="0 0 300.1 249" width="300.1pt" height="249pt"><defs><clipPath id="_clipPath_96HqjZ9FIrekctxvTQjmH4PwssJOa20A"><rect width="300.1" height="249"/></clipPath></defs><g clip-path="url(#_clipPath_96HqjZ9FIrekctxvTQjmH4PwssJOa20A)"><rect width="300.1" height="249" style="fill:rgb(0,0,0)" fill-opacity="0"/><g><defs><filter id="4XDNAohJ0KMBBkHPcBNLbrvPhaYQ6VdY" x="-200%" y="-200%" width="400%" height="400%" filterUnits="objectBoundingBox" color-interpolation-filters="sRGB"><feOffset xmlns="http://www.w3.org/2000/svg" in="SourceGraphic" dx="0" dy="0"/><feGaussianBlur xmlns="http://www.w3.org/2000/svg" stdDeviation="2.146804531419514" result="pf_100_offsetBlur"/><feComposite xmlns="http://www.w3.org/2000/svg" in="SourceGraphic" in2="pf_100_offsetBlur" result="pf_100_inverse" operator="out"/><feFlood xmlns="http://www.w3.org/2000/svg" flood-color="#000000" flood-opacity="0.5" result="pf_100_color"/><feComposite xmlns="http://www.w3.org/2000/svg" in="pf_100_color" in2="pf_100_inverse" operator="in" result="pf_100_shadow"/><feComposite xmlns="http://www.w3.org/2000/svg" in="pf_100_shadow" in2="SourceGraphic" operator="over"/></filter></defs><g filter="url(#4XDNAohJ0KMBBkHPcBNLbrvPhaYQ6VdY)"><circle vector-effect="non-scaling-stroke" cx="140.4432884393388" cy="164.28614905118866" r="84.71385094881128" fill="rgb(235,235,235)"/></g><g><path d=" M 237.089 66.822 C 236.178 62.887 240.822 49.294 237.824 48.993 C 234.005 48.607 233.359 64.064 233.222 65.449 C 233.091 66.796 231.082 66.635 231.272 65.392 C 231.546 63.605 234.09 46.116 230.235 46.074 C 228.097 46.051 228.008 49.94 228.008 49.94 C 228.008 49.94 226.569 67.175 224.747 67.092 C 222.898 67.011 224.231 57.204 224.415 53.557 C 224.593 50.059 222.842 48.05 221.546 49.561 C 219.649 51.778 219.658 60.66 219.425 64.16 C 219.192 67.66 218.252 77.713 214.639 72.683 C 211.028 67.655 206.402 65.111 204.695 65.285 C 202.989 65.461 202.671 67.917 204.327 68.881 C 205.667 69.659 207.513 71.643 208.842 73.189 C 209.938 74.462 210.664 75.979 211.443 77.463 C 212 78.523 212.91 80.628 213.336 83.557 C 213.831 86.947 215.788 89.953 218.651 91.832 L 218.449 119.444 L 217.592 133.102 L 239.088 140.56 L 236.263 91.844 C 237.317 82.48 241.44 70.639 242.945 65.15 C 245.343 56.397 244.222 56.017 243.151 55.969 C 240.786 55.866 237.977 70.662 237.089 66.822 Z " fill="rgb(163,105,87)"/><path d=" M 234.335 78.699 C 234.335 78.787 233.291 78.69 231.698 79.142 C 230.123 79.576 227.995 80.69 226.438 82.73 C 226.018 83.273 225.685 83.857 225.399 84.429 L 225.259 84.713 L 225.05 84.496 C 223.632 83.032 222.106 82.081 220.974 81.519 C 219.839 80.951 219.105 80.722 219.124 80.66 C 219.134 80.618 219.902 80.751 221.095 81.256 C 222.28 81.759 223.881 82.686 225.36 84.179 L 225.009 84.247 C 225.302 83.642 225.65 83.026 226.091 82.454 C 226.902 81.393 227.886 80.569 228.855 79.973 C 229.832 79.382 230.8 79.027 231.626 78.83 C 232.455 78.623 233.145 78.614 233.612 78.606 C 234.082 78.632 234.337 78.668 234.335 78.699 Z " fill="rgb(124,59,41)"/><path d=" M 233.274 91.633 C 233.309 91.738 231.261 92.402 228.626 92.479 C 225.993 92.573 223.906 92.042 223.933 91.934 C 223.957 91.802 226.037 92.129 228.612 92.039 C 231.187 91.963 233.244 91.504 233.274 91.633 Z " fill="rgb(124,59,41)"/><path d=" M 103.32 19.606 C 103.752 12.544 109.552 6.175 116.544 5.086 C 118.377 4.801 120.3 4.831 121.994 4.073 C 123.381 3.452 124.492 2.354 125.775 1.538 C 129.891 -1.08 135.847 -0.275 139.122 3.341 C 142.203 6.745 142.991 1.644 149.932 5.126 C 155.684 8.01 153.133 12.778 153.133 12.778 C 158.808 12.128 164.654 16.141 166.087 21.672 C 166.997 25.182 166.584 29.565 169.523 31.689 C 170.947 32.718 172.842 32.896 174.308 33.867 C 177.032 35.674 177.396 39.512 177.043 42.76 C 176.693 46.008 175.934 49.466 177.341 52.415 C 179.651 57.248 186.872 58.715 188.126 63.923 C 188.716 66.383 187.883 69.441 189.749 71.15 C 190.498 71.836 191.523 72.109 192.465 72.491 C 196.281 74.034 199.094 77.816 199.475 81.916 C 199.857 86.016 197.788 90.251 194.321 92.473 C 193.354 93.093 192.193 93.682 191.884 94.79 C 191.541 96.024 192.43 97.216 193.084 98.319 C 195.475 102.351 194.844 107.941 191.614 111.338 C 188.384 114.736 182.835 115.65 178.685 113.466 C 176.836 117.411 173.387 120.578 169.298 122.087 C 167.416 122.781 165.347 123.132 163.396 122.666 C 161.832 122.291 160.436 121.417 159.151 120.45 C 153.03 115.843 144.398 108.743 143.321 101.158" fill="rgb(38,50,56)"/><path d=" M 103.182 31.417 L 102.907 25.986 L 135.35 18.766 C 145.379 17.39 156.574 27.137 157.523 37.217 C 158.578 48.414 159.425 62.127 158.355 70.54 C 156.204 87.456 143.368 89.999 143.368 89.999 L 143.816 106.712 L 106.602 108.334 L 103.182 31.417 Z " fill="rgb(163,105,87)"/><path d=" M 151.416 49.448 C 151.491 50.586 150.588 51.589 149.401 51.69 C 148.215 51.791 147.191 50.952 147.116 49.812 C 147.04 48.674 147.941 47.67 149.126 47.569 C 150.316 47.468 151.34 48.309 151.416 49.448 Z " fill="rgb(38,50,56)"/><path d=" M 154.186 44.477 C 153.926 44.767 152.253 43.607 149.93 43.686 C 147.608 43.73 145.942 44.979 145.681 44.701 C 145.553 44.579 145.808 44.063 146.535 43.5 C 147.248 42.939 148.478 42.377 149.927 42.337 C 151.374 42.301 152.607 42.796 153.325 43.319 C 154.056 43.846 154.312 44.347 154.186 44.477 Z " fill="rgb(38,50,56)"/><path d=" M 129.73 50.536 C 129.805 51.674 128.902 52.678 127.715 52.779 C 126.529 52.88 125.504 52.04 125.43 50.901 C 125.354 49.763 126.256 48.758 127.441 48.657 C 128.63 48.556 129.654 49.397 129.73 50.536 Z " fill="rgb(38,50,56)"/><path d=" M 131.363 45.619 C 131.103 45.909 129.428 44.75 127.107 44.828 C 124.786 44.873 123.119 46.12 122.857 45.843 C 122.73 45.721 122.983 45.206 123.712 44.642 C 124.426 44.08 125.657 43.519 127.103 43.48 C 128.551 43.443 129.785 43.938 130.502 44.461 C 131.232 44.988 131.489 45.489 131.363 45.619 Z " fill="rgb(38,50,56)"/><path d=" M 140.328 62.586 C 140.313 62.454 141.751 62.16 144.08 61.789 C 144.672 61.709 145.23 61.573 145.317 61.166 C 145.443 60.733 145.176 60.101 144.867 59.419 C 144.265 58.001 143.634 56.515 142.972 54.957 C 140.336 48.6 138.409 43.367 138.665 43.263 C 138.923 43.159 141.268 48.227 143.903 54.583 C 144.538 56.15 145.146 57.645 145.724 59.075 C 145.97 59.742 146.38 60.495 146.105 61.393 C 145.96 61.841 145.533 62.177 145.156 62.292 C 144.78 62.418 144.447 62.436 144.153 62.462 C 141.803 62.662 140.342 62.719 140.328 62.586 Z " fill="rgb(38,50,56)"/><path d=" M 143.362 90.044 C 143.362 90.044 131.484 91.109 120.055 84.713 C 120.055 84.713 126.107 96.323 143.483 94.241 L 143.362 90.044 Z " fill="rgb(124,59,41)"/><path d=" M 139.52 68.216 C 138.65 67.137 137.168 66.575 135.719 66.777 C 134.713 66.917 133.71 67.435 133.124 68.275 C 132.536 69.114 132.445 70.284 133.025 71.05 C 133.679 71.912 134.997 72.074 136.095 71.725 C 137.194 71.376 138.125 70.616 139.009 69.86 C 139.254 69.651 139.503 69.434 139.651 69.154 C 139.799 68.873 139.822 68.511 139.621 68.289" fill="rgb(124,59,41)"/><path d=" M 133.541 64.406 C 133.918 64.372 134.002 66.894 136.216 68.616 C 138.425 70.345 141.106 69.978 141.136 70.33 C 141.176 70.488 140.552 70.838 139.419 70.904 C 138.307 70.978 136.671 70.67 135.316 69.616 C 133.965 68.56 133.354 67.113 133.236 66.08 C 133.107 65.03 133.369 64.397 133.541 64.406 Z " fill="rgb(38,50,56)"/><path d=" M 131.68 36.496 C 131.47 37.136 129.141 36.907 126.428 37.32 C 123.703 37.68 121.53 38.546 121.151 37.99 C 120.981 37.724 121.346 37.118 122.215 36.479 C 123.076 35.841 124.464 35.216 126.096 34.984 C 127.726 34.754 129.233 34.968 130.238 35.341 C 131.251 35.713 131.769 36.193 131.68 36.496 Z " fill="rgb(38,50,56)"/><path d=" M 153.123 37.781 C 152.73 38.32 151.113 37.823 149.187 37.856 C 147.261 37.824 145.645 38.322 145.252 37.781 C 145.079 37.517 145.32 36.981 146.016 36.46 C 146.703 35.94 147.863 35.497 149.186 35.497 C 150.51 35.497 151.672 35.94 152.358 36.459 C 153.054 36.981 153.294 37.517 153.123 37.781 Z " fill="rgb(38,50,56)"/><path d=" M 160.379 16.568 C 158.1 22.635 152.666 31.81 146.28 32.903 C 139.892 33.996 133.007 31.47 128.841 26.507 C 128.102 31.346 122.909 34.149 118.123 35.176 C 114.738 35.902 111.142 36.112 107.869 34.984 C 104.597 33.856 101.71 31.194 101.026 27.801 C 100.341 24.407 104.795 15.773 108.161 14.972" fill="rgb(38,50,56)"/><path d=" M 114.152 106.111 C 114.232 111.554 110.476 116.837 105.308 118.547 C 105.793 122.94 102.732 127.458 98.472 128.636 C 94.213 129.815 89.266 127.512 87.424 123.495 C 86.941 122.441 86.635 121.27 85.853 120.414 C 84.06 118.452 80.884 119.093 78.302 118.457 C 73.652 117.311 71.283 111.881 71.456 107.094 C 71.49 106.149 71.593 105.192 71.388 104.27 C 70.968 102.384 69.373 101.034 68.149 99.539 C 63.114 93.388 64.345 83.841 68.975 77.378 C 70.52 75.223 72.499 72.946 72.156 70.318 C 71.964 68.849 71.058 67.59 70.421 66.253 C 68.358 61.921 69.321 56.335 72.716 52.943 C 73.237 52.423 73.84 51.899 73.982 51.176 C 74.072 50.718 73.96 50.246 73.873 49.787 C 72.546 42.825 77.683 35.285 84.648 33.971 C 85.068 33.892 85.504 33.828 85.867 33.604 C 86.905 32.964 86.832 31.476 86.887 30.257 C 87.033 27.038 89.073 20.898 91.367 18.635 C 97.728 12.363 104.633 16.602 107.132 18.635 C 107.132 18.635 113.418 41.297 112.828 45.643 C 112.238 49.989 109.857 60.895 111.45 65.654 C 113.045 70.413 115.8 80.2 114.153 84.713 C 112.508 89.226 114.152 106.111 114.152 106.111 Z " fill="rgb(38,50,56)"/><path d=" M 114.747 103.7 L 89.401 110.803 L 97.64 189.657 C 97.64 189.657 92.902 217.811 92.902 225.209 C 92.902 234.821 100.383 238.432 100.383 238.432 C 144.604 262.926 190.156 236.011 189.749 232.754 L 173.151 107.94 L 144.964 101.827 L 114.747 103.7 Z " fill="rgb(232,80,91)"/><path d=" M 97.737 189.563 C 97.72 189.565 97.668 189.358 97.586 188.965 C 97.499 188.523 97.385 187.95 97.245 187.239 C 96.959 185.681 96.562 183.521 96.077 180.876 C 95.128 175.447 93.833 168.038 92.401 159.854 C 91.022 151.657 89.775 144.239 88.86 138.805 C 88.435 136.15 88.09 133.981 87.84 132.417 C 87.735 131.7 87.651 131.122 87.586 130.675 C 87.533 130.276 87.512 130.064 87.528 130.062 C 87.544 130.06 87.595 130.264 87.679 130.657 C 87.766 131.1 87.88 131.672 88.02 132.384 C 88.305 133.94 88.701 136.101 89.187 138.746 C 90.137 144.176 91.432 151.584 92.865 159.773 C 94.242 167.969 95.49 175.385 96.406 180.821 C 96.83 183.477 97.176 185.645 97.426 187.209 C 97.53 187.926 97.615 188.504 97.68 188.95 C 97.732 189.348 97.753 189.559 97.737 189.563 Z " fill="rgb(38,50,56)"/><path d=" M 148.522 103.264 C 148.541 103.29 148.126 103.618 147.355 104.189 C 146.964 104.467 146.456 104.761 145.878 105.125 C 145.27 105.43 144.6 105.835 143.803 106.154 C 142.234 106.855 140.279 107.503 138.051 107.948 C 135.824 108.397 133.332 108.649 130.719 108.71 C 128.102 108.773 125.614 108.656 123.358 108.482 C 121.106 108.317 119.07 108.077 117.393 107.702 C 115.713 107.332 114.404 106.833 113.538 106.415 C 113.108 106.201 112.78 106.025 112.569 105.887 C 112.355 105.752 112.247 105.676 112.255 105.661 C 112.276 105.625 112.738 105.882 113.614 106.248 C 114.491 106.61 115.795 107.052 117.459 107.376 C 119.125 107.705 121.14 107.909 123.391 108.05 C 125.637 108.199 128.113 108.303 130.706 108.24 C 133.3 108.178 135.763 107.942 137.967 107.522 C 140.173 107.108 142.109 106.5 143.672 105.849 C 146.827 104.572 148.454 103.159 148.522 103.264 Z " fill="rgb(38,50,56)"/><path d=" M 174.701 224.873 C 174.703 224.889 174.513 224.927 174.15 224.984 C 173.736 225.043 173.209 225.12 172.557 225.214 C 171.865 225.314 171.015 225.423 170.027 225.508 C 169.037 225.598 167.912 225.728 166.663 225.787 C 164.168 225.966 161.187 226.045 157.88 225.997 C 154.572 225.921 150.937 225.704 147.145 225.26 C 143.352 224.796 139.768 224.151 136.536 223.445 C 133.31 222.71 130.433 221.931 128.049 221.17 C 126.849 220.816 125.788 220.425 124.848 220.103 C 123.906 219.786 123.107 219.481 122.457 219.221 C 121.847 218.976 121.351 218.778 120.963 218.623 C 120.623 218.481 120.448 218.4 120.455 218.383 C 120.461 218.37 120.648 218.421 120.997 218.534 C 121.393 218.668 121.898 218.838 122.52 219.048 C 123.179 219.283 123.984 219.563 124.931 219.855 C 125.877 220.151 126.943 220.52 128.147 220.851 C 130.534 221.57 133.411 222.312 136.629 223.021 C 139.854 223.701 143.424 224.331 147.2 224.794 C 150.979 225.235 154.596 225.465 157.889 225.564 C 161.184 225.634 164.154 225.591 166.644 225.455 C 167.89 225.418 169.015 225.311 170.002 225.245 C 170.992 225.186 171.842 225.104 172.537 225.032 C 173.191 224.974 173.722 224.927 174.138 224.891 C 174.505 224.862 174.699 224.857 174.701 224.873 Z " fill="rgb(38,50,56)"/><path d=" M 184.091 157.269 C 184.061 157.277 183.924 156.886 183.706 156.174 C 183.487 155.459 183.191 154.421 182.839 153.134 C 182.137 150.559 181.237 146.984 180.351 143.009 C 179.468 139.032 178.767 135.412 178.311 132.782 C 178.081 131.468 177.911 130.402 177.806 129.663 C 177.702 128.924 177.659 128.513 177.69 128.507 C 177.724 128.501 177.827 128.902 177.986 129.63 C 178.16 130.453 178.377 131.487 178.637 132.721 C 179.177 135.332 179.928 138.936 180.811 142.906 C 181.695 146.876 182.543 150.458 183.162 153.051 C 183.45 154.277 183.691 155.308 183.882 156.126 C 184.047 156.854 184.123 157.26 184.091 157.269 Z " fill="rgb(38,50,56)"/><g opacity="0.300003"><path d=" M 123.593 107.283 C 124.606 110.806 123.664 115.942 124.161 119.096 C 126.152 131.725 127.109 144.56 126.191 157.312 C 126.141 158.007 126.089 158.725 126.323 159.383 C 126.534 159.983 126.964 160.475 127.348 160.982 C 129.912 164.375 130.576 168.906 130.058 173.125 C 129.542 177.346 127.959 181.351 126.389 185.302 C 126.299 181.898 126.479 176.806 126.748 173.41 C 126.803 172.733 127.148 173.167 127.167 172.488 C 127.283 168.406 126.599 164.617 123.731 161.707 C 123.157 161.125 122.499 160.598 122.108 159.879 C 121.747 159.217 121.647 158.448 121.555 157.699 C 119.797 143.443 118.594 129.118 117.952 114.769 C 117.915 113.956 117.906 113.061 118.416 112.426 C 118.819 111.926 119.46 111.698 119.996 111.345 C 121.095 110.62 121.78 109.34 122.968 108.778" fill="rgb(0,0,0)"/></g><path d=" M 89.401 110.803 C 89.401 110.803 66.261 116.256 71.874 150.941 C 73.845 163.133 77.639 181.251 85.681 200.189 C 89.471 209.115 98.063 215.256 107.678 213.997 C 111.878 213.447 116.039 214.114 118.852 212.418 C 123.121 209.844 124.979 201.166 125.784 191.803 C 126.332 185.428 126.102 178.783 126.947 173.339 C 128.327 164.452 124.248 160.265 119.032 159.225 L 98.577 155.149 L 97.4 165.968 L 89.401 110.803 Z " fill="rgb(232,80,91)"/><path d=" M 105.7 179.833 C 105.758 179.788 106.086 180.251 106.88 180.844 C 107.659 181.436 108.957 182.128 110.7 182.361 C 112.434 182.613 114.559 182.31 116.755 181.499 C 118.941 180.67 121.35 179.564 123.294 177.731 C 125.224 175.893 126.345 173.467 126.692 171.189 C 127.054 168.896 126.636 166.775 125.965 165.154 C 124.577 161.866 122.572 160.565 122.71 160.45 C 122.738 160.414 123.235 160.693 123.988 161.389 C 124.735 162.082 125.72 163.24 126.496 164.924 C 127.268 166.591 127.781 168.844 127.435 171.298 C 127.109 173.733 125.935 176.343 123.858 178.323 C 121.767 180.286 119.27 181.392 117.006 182.208 C 114.717 183.011 112.45 183.277 110.61 182.932 C 108.767 182.608 107.43 181.788 106.677 181.089 C 105.91 180.388 105.668 179.853 105.7 179.833 Z " fill="rgb(38,50,56)"/><path d=" M 84.439 197.147 C 84.511 197.123 84.873 198.239 85.823 200.114 C 86.767 201.98 88.401 204.594 91.094 207.194 C 93.768 209.785 97.623 212.278 102.421 213.457 C 107.169 214.639 112.881 214.54 118.093 212.358 C 120.713 211.297 121.658 208.387 122.662 205.958 C 123.586 203.434 124.2 200.897 124.613 198.452 C 125.446 193.555 125.64 189.053 125.92 185.288 C 126.19 181.608 126.41 178.588 126.574 176.362 C 126.662 175.385 126.734 174.585 126.793 173.938 C 126.853 173.385 126.897 173.095 126.925 173.096 C 126.954 173.098 126.964 173.392 126.958 173.949 C 126.94 174.596 126.918 175.4 126.891 176.381 C 126.793 178.61 126.659 181.636 126.495 185.322 C 126.29 189.09 126.156 193.607 125.356 198.576 C 124.956 201.058 124.349 203.646 123.413 206.234 C 122.92 207.522 122.403 208.812 121.689 210.077 C 120.998 211.343 119.833 212.51 118.438 213.099 C 112.973 215.386 107.132 215.439 102.238 214.187 C 97.305 212.933 93.367 210.308 90.693 207.608 C 87.99 204.896 86.404 202.185 85.538 200.253 C 85.09 199.289 84.815 198.508 84.649 197.975 C 84.484 197.441 84.412 197.157 84.439 197.147 Z " fill="rgb(38,50,56)"/><path d=" M 92.148 182.108 C 92.036 182.099 92.064 180.507 92.199 177.94 C 92.335 175.374 92.579 171.833 92.898 167.926 C 93.069 165.968 93.2 164.123 93.404 162.408 C 93.619 160.7 94.111 159.119 94.98 158.056 C 95.829 156.994 96.87 156.483 97.604 156.345 C 98.348 156.195 98.758 156.347 98.749 156.383 C 98.748 156.457 98.339 156.421 97.686 156.651 C 97.041 156.868 96.152 157.404 95.442 158.404 C 93.923 160.41 94.106 164.117 93.713 167.993 C 93.392 171.899 93.058 175.433 92.775 177.987 C 92.492 180.541 92.261 182.117 92.148 182.108 Z " fill="rgb(38,50,56)"/><path d=" M 99.371 145.264 C 99.164 144.165 98.84 142.58 98.423 140.626 C 97.586 136.716 96.377 131.327 94.991 125.386 C 94.288 122.424 93.682 119.567 92.793 117.04 C 91.919 114.513 90.735 112.348 89.401 110.803 L 88.953 111.166 C 90.18 112.701 91.265 114.802 92.081 117.283 C 92.91 119.758 93.492 122.603 94.195 125.571 C 95.581 131.513 96.88 136.88 97.859 140.756 C 98.35 142.694 98.76 144.259 99.061 145.336 C 99.363 146.414 99.555 147.004 99.61 146.991 C 99.664 146.978 99.577 146.363 99.371 145.264 Z " fill="rgb(38,50,56)"/><g opacity="0.300003"><path d=" M 99.585 152.727 C 97.723 152.668 95.925 153.448 94.378 154.485 C 91.002 156.751 88.565 160.317 87.488 164.238 C 86.411 168.158 86.669 172.401 88.024 176.236 C 88.446 177.43 89.264 178.783 90.53 178.733 C 92.019 178.674 92.62 176.817 92.826 175.341 C 93.398 171.254 93.969 167.165 94.54 163.078 C 94.735 161.689 94.942 160.262 95.628 159.036 C 96.313 157.813 97.597 156.818 98.998 156.895 C 99.125 155.44 99.252 153.985 99.378 152.528" fill="rgb(0,0,0)"/></g><path d=" M 237.316 171.38 C 237.316 171.38 241.644 164.891 242.096 155.329 C 242.55 145.767 239.826 137.682 239.826 137.682 L 215.242 130.062 L 215.086 138.27 L 237.316 171.38 Z " fill="rgb(232,80,91)"/><path d=" M 215.086 138.27 L 173.15 107.94 L 173.15 110.042 L 177.681 157.258 C 177.681 157.258 212.347 172.789 221.531 175.075 C 230.714 177.362 237.316 171.38 237.316 171.38 L 215.086 138.27 Z " fill="rgb(232,80,91)"/><path d=" M 227.52 161.201 C 227.499 161.233 227.155 161.069 226.571 160.699 C 225.985 160.333 225.176 159.736 224.262 158.9 C 222.422 157.242 220.288 154.489 218.661 151.079 C 217.032 147.669 216.093 144.379 215.464 142.011 C 215.154 140.821 214.927 139.855 214.783 139.183 C 214.639 138.512 214.58 138.136 214.621 138.124 C 214.704 138.102 215.157 139.553 215.876 141.892 C 216.607 144.226 217.603 147.465 219.206 150.816 C 220.806 154.167 222.832 156.888 224.559 158.592 C 226.276 160.315 227.582 161.111 227.52 161.201 Z " fill="rgb(38,50,56)"/><path d=" M 239.702 143.626 C 239.698 143.666 239.313 143.67 238.614 143.64 C 237.917 143.617 236.91 143.512 235.675 143.318 C 233.207 142.935 229.83 142.055 226.356 140.448 C 222.887 138.829 220.037 136.816 218.152 135.176 C 217.207 134.358 216.477 133.656 216.011 133.137 C 215.539 132.623 215.291 132.327 215.322 132.297 C 215.396 132.224 216.487 133.31 218.424 134.847 C 220.357 136.384 223.195 138.307 226.612 139.901 C 230.03 141.482 233.331 142.412 235.753 142.898 C 238.176 143.389 239.71 143.521 239.702 143.626 Z " fill="rgb(38,50,56)"/><path d=" M 216.935 157.259 C 216.879 157.289 216.264 156.35 215.63 154.658 C 214.986 152.973 214.427 150.518 214.235 147.778 C 214.044 145.037 214.162 142.557 214.291 140.774 C 214.424 138.991 214.571 137.894 214.652 137.898 C 214.737 137.902 214.741 139.009 214.717 140.793 C 214.698 142.576 214.648 145.036 214.838 147.734 C 215.027 150.431 215.508 152.834 216.035 154.522 C 216.553 156.213 217.026 157.212 216.935 157.259 Z " fill="rgb(38,50,56)"/><path d=" M 172.521 126.074 C 172.561 126.063 172.714 126.522 172.957 127.357 C 173.201 128.194 173.528 129.41 173.913 130.919 C 174.684 133.935 175.673 138.122 176.646 142.77 C 177.619 147.421 178.393 151.653 178.895 154.724 C 179.147 156.262 179.335 157.507 179.447 158.37 C 179.56 159.234 179.604 159.714 179.562 159.721 C 179.522 159.728 179.401 159.262 179.217 158.41 C 179.016 157.433 178.767 156.226 178.475 154.802 C 177.827 151.62 176.986 147.476 176.054 142.893 C 175.07 138.325 174.181 134.191 173.498 131.017 C 173.194 129.593 172.936 128.39 172.728 127.413 C 172.556 126.56 172.48 126.084 172.521 126.074 Z " fill="rgb(38,50,56)"/><path d=" M 98.32 159.423 L 103.46 102.565 L 120.489 109.289 L 122.681 167.122 C 122.681 167.122 117.23 175.368 108.026 171.984 C 98.823 168.6 98.32 159.423 98.32 159.423 Z " fill="rgb(163,105,87)"/><path d=" M 101.634 52.769 L 133.474 80.773 L 127.709 101.685 L 125.399 102.369 L 97.563 73.88 L 99.323 53.454 L 101.634 52.769 Z " fill="rgb(38,50,56)"/><path d=" M 99.323 53.454 L 131.163 81.459 L 125.399 102.369 L 95.252 74.565 L 99.323 53.454 Z " fill="rgb(69,90,100)"/><path d=" M 121.207 111.111 C 121.207 111.111 124.48 107.681 124.406 103.285 C 124.333 98.999 123.15 88.686 123.15 88.686 C 123.15 88.686 128.68 77.043 128.541 75.495 C 128.403 73.947 128.148 73.971 126.163 74.595 C 124.177 75.219 118.013 85.834 118.013 85.834 L 115.998 77.963 C 115.998 77.963 121.126 69.699 121.533 68.548 C 121.94 67.396 122.62 66.444 121.333 66.337 C 120.047 66.229 110.419 75.567 110.419 75.567 L 111.195 84.191 C 111.195 84.191 111.004 84.877 109.618 83.664 C 108.231 82.451 108.582 72.166 108.582 72.166 C 108.582 72.166 111.864 66.075 111.784 65.19 C 111.705 64.306 112.383 63.353 111.738 61.851 C 111.092 60.348 109.204 62.079 109.204 62.079 L 102.811 70.457 L 100.534 62.166 C 100.534 62.166 100.629 60.399 98.33 60.384 L 99.22 87.275 L 105.045 107.966 L 121.207 111.111 Z " fill="rgb(163,105,87)"/><path d=" M 122.681 167.122 C 122.681 167.122 122.633 166.778 122.591 166.11 C 122.554 165.4 122.501 164.413 122.434 163.147 C 122.318 160.506 122.147 156.701 121.932 151.859 C 121.544 142.064 120.989 128.087 120.317 111.173 L 120.31 111.01 L 120.448 110.893 C 121.75 109.775 122.864 108.248 123.527 106.54 C 124.224 104.817 124.294 102.919 124.172 100.944 C 123.97 97.005 123.48 92.909 122.934 88.723 L 122.918 88.612 L 122.966 88.508 C 124.007 86.293 125.048 84.013 126.061 81.673 C 126.565 80.502 127.066 79.317 127.528 78.112 C 127.754 77.509 127.976 76.9 128.152 76.293 L 128.265 75.845 C 128.282 75.706 128.3 75.616 128.302 75.471 C 128.274 75.161 128.226 74.824 128.143 74.659 C 128.206 74.473 127.329 74.664 126.765 74.86 C 126.398 74.969 126.257 75.043 126.011 75.243 C 125.778 75.431 125.553 75.652 125.336 75.898 C 124.462 76.86 123.678 77.961 122.908 79.067 C 121.378 81.294 119.929 83.638 118.525 86.023 L 118.024 86.873 L 117.779 85.919 C 117.141 83.427 116.455 80.749 115.762 78.049 L 115.719 77.883 L 115.811 77.733 C 116.634 76.387 117.52 74.937 118.41 73.48 C 119.401 71.805 120.49 70.081 121.291 68.436 C 121.457 67.974 121.685 67.498 121.795 67.109 C 121.856 66.897 121.821 66.804 121.816 66.823 C 121.814 66.803 121.559 66.709 121.43 66.748 C 121.38 66.759 121.153 66.869 120.967 66.981 C 120.777 67.085 120.584 67.238 120.392 67.365 C 120.012 67.639 119.633 67.928 119.264 68.229 C 116.312 70.653 113.549 73.27 110.858 75.841 L 110.979 75.517 C 111.24 78.433 111.495 81.309 111.749 84.14 L 111.756 84.22 L 111.735 84.283 C 111.6 84.696 111.198 84.784 110.972 84.76 C 110.733 84.739 110.571 84.659 110.412 84.585 C 110.11 84.425 109.862 84.237 109.631 84.039 C 109.054 83.522 108.949 82.839 108.801 82.286 C 108.559 81.121 108.483 79.978 108.414 78.842 C 108.295 76.571 108.298 74.343 108.362 72.139 L 108.364 72.053 L 108.407 71.971 C 109.527 69.831 110.707 67.681 111.492 65.558 C 111.53 65.434 111.567 65.292 111.568 65.24 C 111.579 65.145 111.559 64.904 111.583 64.759 C 111.619 64.431 111.69 64.142 111.739 63.868 C 111.841 63.323 111.847 62.813 111.684 62.318 C 111.51 61.754 111.336 61.523 110.903 61.602 C 110.472 61.683 109.985 62.003 109.606 62.328 L 109.65 62.282 C 107.423 65.189 105.292 67.968 103.24 70.646 L 102.825 71.188 L 102.645 70.532 C 101.866 67.661 101.112 64.896 100.388 62.235 L 100.377 62.195 L 100.377 62.134 C 100.38 61.7 100.149 61.247 99.794 61.016 C 99.434 60.77 98.962 60.679 98.488 60.676 L 98.797 60.359 C 99.113 71.299 99.376 80.371 99.576 87.254 L 99.569 87.211 C 100.846 92.151 101.832 95.976 102.511 98.609 C 102.826 99.876 103.07 100.855 103.244 101.557 C 103.404 102.219 103.46 102.565 103.46 102.565 C 103.46 102.565 103.336 102.238 103.143 101.583 C 102.945 100.887 102.67 99.918 102.312 98.662 C 101.591 96.04 100.544 92.232 99.19 87.312 L 99.184 87.291 L 99.183 87.267 C 98.926 80.386 98.59 71.316 98.183 60.38 L 98.171 60.06 L 98.492 60.062 C 99.033 60.065 99.622 60.154 100.147 60.502 C 100.67 60.858 101.015 61.47 101.008 62.169 L 100.998 62.068 C 101.734 64.726 102.5 67.485 103.296 70.352 L 102.703 70.237 C 104.745 67.55 106.864 64.762 109.079 61.847 L 109.102 61.817 L 109.122 61.8 C 109.6 61.4 110.082 61.041 110.778 60.889 C 111.117 60.814 111.594 60.89 111.889 61.19 C 112.193 61.486 112.282 61.817 112.383 62.104 C 112.587 62.711 112.578 63.399 112.463 63.997 C 112.41 64.298 112.343 64.578 112.317 64.833 C 112.301 64.98 112.313 65.034 112.307 65.232 C 112.299 65.474 112.244 65.615 112.202 65.774 C 111.358 68.073 110.208 70.146 109.077 72.331 L 109.122 72.164 C 109.066 74.34 109.067 76.565 109.189 78.799 C 109.259 79.912 109.34 81.043 109.566 82.12 C 109.698 82.651 109.826 83.179 110.136 83.437 C 110.343 83.613 110.562 83.774 110.77 83.883 C 110.87 83.93 110.979 83.973 111.03 83.974 L 111.051 83.973 C 111.052 83.984 111.068 84.046 111.076 84.056 L 111.09 84.077 L 111.099 84.082 L 111.125 84.096 L 111.171 84.117 L 111.184 84.122 C 111.376 84.193 110.939 84.028 110.981 84.049 L 110.975 84.07 L 110.961 84.211 C 110.705 81.38 110.444 78.506 110.179 75.589 L 110.162 75.396 L 110.3 75.264 C 113.004 72.675 115.755 70.062 118.754 67.596 C 119.131 67.288 119.519 66.991 119.921 66.7 C 120.132 66.56 120.319 66.411 120.551 66.28 C 120.79 66.158 120.971 65.995 121.409 65.934 C 121.744 65.921 122.014 65.947 122.38 66.234 C 122.749 66.602 122.648 67.083 122.583 67.318 C 122.422 67.864 122.217 68.265 122.055 68.721 C 121.155 70.587 120.122 72.181 119.111 73.903 C 118.218 75.363 117.33 76.814 116.505 78.163 L 116.554 77.846 C 117.243 80.546 117.929 83.225 118.567 85.719 L 117.822 85.615 C 119.241 83.208 120.693 80.863 122.246 78.611 C 123.03 77.487 123.817 76.379 124.749 75.354 C 124.977 75.097 125.228 74.847 125.517 74.616 C 125.776 74.38 126.257 74.163 126.529 74.099 C 126.855 74.001 127.175 73.9 127.539 73.831 C 127.717 73.796 127.922 73.769 128.169 73.803 C 128.423 73.822 128.74 74.051 128.842 74.281 C 129.045 74.717 129.048 75.055 129.09 75.396 C 129.095 75.577 129.073 75.818 129.041 76.001 L 128.914 76.507 C 128.722 77.16 128.495 77.779 128.263 78.393 C 127.792 79.617 127.284 80.806 126.776 81.983 C 125.753 84.332 124.706 86.612 123.654 88.836 L 123.687 88.621 C 124.228 92.829 124.705 96.924 124.896 100.911 C 125.016 102.88 124.938 104.965 124.184 106.796 C 123.454 108.628 122.313 110.199 120.866 111.43 L 120.997 111.149 C 121.548 128.069 122.004 142.047 122.323 151.844 C 122.46 156.689 122.565 160.497 122.639 163.14 C 122.663 164.407 122.683 165.394 122.697 166.105 C 122.704 166.776 122.681 167.122 122.681 167.122 Z " fill="rgb(124,59,41)"/><path d=" M 104.145 85.046 C 103.921 85.07 103.479 81.778 103.156 77.694 C 102.835 73.61 102.757 70.29 102.982 70.278 C 103.207 70.267 103.651 73.559 103.971 77.629 C 104.291 81.7 104.369 85.022 104.145 85.046 Z " fill="rgb(124,59,41)"/></g></g></g></svg>