<?xml version="1.0" encoding="UTF-8" standalone="no"?><!-- Generator: Gravit.io --><svg xmlns="http://www.w3.org/2000/svg" xmlns:xlink="http://www.w3.org/1999/xlink" style="isolation:isolate" viewBox="0 0 120 120" width="120pt" height="120pt"><defs><clipPath id="_clipPath_dEr0kuCIkSHNyhwjBBU987enpdBGNDw2"><rect width="120" height="120"/></clipPath></defs><g clip-path="url(#_clipPath_dEr0kuCIkSHNyhwjBBU987enpdBGNDw2)"><rect width="120" height="120" style="fill:rgb(0,0,0)" fill-opacity="0"/><g><defs><filter id="e2bp1wl4uiXPR77dT02fQK2LOrk5f9Gx" x="-200%" y="-200%" width="400%" height="400%" filterUnits="objectBoundingBox" color-interpolation-filters="sRGB"><feOffset xmlns="http://www.w3.org/2000/svg" in="SourceGraphic" dx="0" dy="0"/><feGaussianBlur xmlns="http://www.w3.org/2000/svg" stdDeviation="2.146804531419514" result="pf_100_offsetBlur"/><feComposite xmlns="http://www.w3.org/2000/svg" in="SourceGraphic" in2="pf_100_offsetBlur" result="pf_100_inverse" operator="out"/><feFlood xmlns="http://www.w3.org/2000/svg" flood-color="#000000" flood-opacity="0.5" result="pf_100_color"/><feComposite xmlns="http://www.w3.org/2000/svg" in="pf_100_color" in2="pf_100_inverse" operator="in" result="pf_100_shadow"/><feComposite xmlns="http://www.w3.org/2000/svg" in="pf_100_shadow" in2="SourceGraphic" operator="over"/></filter></defs><g filter="url(#e2bp1wl4uiXPR77dT02fQK2LOrk5f9Gx)"><path d=" M 23.038 78.909 C 24.563 103.079 45.394 121.436 69.565 119.911 C 93.736 118.386 112.093 97.555 110.568 73.384 C 109.043 49.214 88.211 30.856 64.041 32.381 C 39.87 33.907 21.512 54.738 23.038 78.909 Z " fill="rgb(224,224,224)"/></g><path d=" M 83.263 15.695 C 83.491 19.442 83.749 20.579 85.138 23.566 C 85.962 25.338 87.121 26.98 87.579 28.879 C 88.013 30.685 87.78 32.59 88.112 34.417 C 88.656 37.399 90.633 39.878 92.118 42.521 C 93.604 45.162 94.605 48.507 93.13 51.154 L 77.942 49.361 L 76.871 30.504 L 83.263 15.695 Z " fill="rgb(38,50,56)"/><path d=" M 53.065 9.301 C 51.099 13.473 53.833 17.644 51.867 21.815 C 50.892 23.882 49.911 25.969 49.391 28.193 C 48.921 30.199 48.828 32.311 48.011 34.201 C 46.708 37.213 43.75 39.25 42.38 42.232 C 40.351 46.65 42.507 52.185 46.386 55.115 C 50.266 58.046 55.415 58.776 60.266 58.436 C 63.206 58.23 66.187 57.644 68.717 56.132 C 71.247 54.621 73.276 52.066 73.595 49.136" fill="rgb(38,50,56)"/><path d=" M 75.588 1.876 C 85.363 6.21 87.305 22.262 87.354 24.424 C 87.412 27.002 88.786 27.535 90.499 28.883 C 92.212 30.23 93.872 31.864 94.345 33.957 C 94.718 35.603 94.327 37.424 95.115 38.926 C 96.056 40.72 98.285 41.387 100.014 42.494 C 103.283 44.587 104.896 48.524 105.077 52.324 C 105.257 56.125 104.213 59.868 103.176 63.536 C 102.766 64.991 102.255 66.581 100.936 67.375 C 99.919 67.987 98.647 67.979 97.451 67.953 C 91.264 67.814 85.076 67.676 78.889 67.538 C 74.155 67.433 69.295 67.303 64.919 65.543 C 61.364 64.113 58.246 61.591 56.34 58.34 C 54.434 55.091 53.795 51.117 54.795 47.504 C 55.566 44.719 57.257 42.204 57.745 39.36 C 58.35 35.837 55.396 34.33 54.326 30.914 C 53.255 27.498 52.372 19.302 53.838 16.028" fill="rgb(38,50,56)"/><path d=" M 86.76 90.385 L 83.708 80.602 L 83.263 95.54 C 83.263 95.54 87.222 105.745 90.238 113.545 C 84.183 117.157 77.209 119.434 69.688 119.908 C 60.335 120.498 51.463 118.232 43.916 113.868 L 48.617 96.977 L 46.376 77.873 L 40.175 86.742 L 26.945 73.954 C 26.945 73.954 36.63 56.06 37.831 54.428 C 45.487 44.019 58.715 44.268 58.715 44.268 L 77.429 45.305 C 77.429 45.305 87.952 44.715 94.865 53.043 C 94.865 53.043 101.621 63.355 107.17 88.804 L 86.76 90.385 Z " fill="rgb(232,80,91)"/><path d=" M 96.119 55.841 C 96.12 55.847 96.027 55.861 95.848 55.884 C 95.669 55.914 95.398 55.922 95.051 55.992 C 94.353 56.098 93.328 56.336 92.084 56.848 C 90.853 57.376 89.389 58.197 88.004 59.526 C 87.313 60.188 86.641 60.97 86.054 61.884 C 85.481 62.8 84.917 63.834 84.697 65.013 C 84.59 65.597 84.583 66.222 84.756 66.812 C 84.932 67.396 85.313 67.94 85.833 68.306 C 86.345 68.678 87.04 68.834 87.65 68.592 C 88.259 68.364 88.71 67.781 88.909 67.127 C 89.115 66.468 89.083 65.73 88.765 65.086 C 88.461 64.435 87.948 63.878 87.343 63.432 C 86.123 62.543 84.601 61.994 83.007 61.819 C 81.41 61.637 79.737 61.821 78.099 62.257 C 76.465 62.705 74.817 63.32 73.318 64.252 C 71.824 65.185 70.405 66.365 69.36 67.855 C 68.857 68.6 68.436 69.451 68.415 70.344 C 68.408 70.785 68.511 71.228 68.75 71.602 C 68.982 71.979 69.323 72.289 69.706 72.538 L 69.675 72.523 C 70.109 72.684 70.594 72.757 71.013 72.578 C 71.433 72.407 71.752 72.019 71.966 71.578 C 72.395 70.682 72.517 69.621 72.521 68.585 C 72.509 67.562 72.392 66.525 72.03 65.592 C 71.676 64.653 71.085 63.815 70.367 63.13 C 68.926 61.747 67.015 60.948 65.092 60.752 C 63.16 60.541 61.231 60.846 59.439 61.389 C 57.661 61.937 55.881 62.662 54.739 64.02 C 54.198 64.692 53.793 65.527 53.9 66.362 C 53.99 67.19 54.409 67.991 55.045 68.497 C 55.36 68.75 55.732 68.927 56.118 68.965 C 56.503 69.005 56.894 68.908 57.223 68.7 C 57.894 68.287 58.202 67.484 58.27 66.718 C 58.343 65.942 58.238 65.157 58.017 64.432 C 57.898 64.071 57.741 63.721 57.608 63.369 C 57.535 63.196 57.477 63.017 57.394 62.85 L 57.128 62.36 C 56.463 61.037 55.544 59.928 54.586 58.974 C 52.632 57.088 50.414 55.88 48.354 55.243 C 46.292 54.596 44.406 54.416 42.888 54.518 C 41.369 54.619 40.21 54.906 39.449 55.154 C 39.082 55.286 38.796 55.389 38.588 55.463 C 38.393 55.531 38.29 55.558 38.29 55.558 C 38.29 55.558 38.384 55.51 38.575 55.431 C 38.78 55.348 39.063 55.235 39.427 55.089 C 40.185 54.818 41.347 54.507 42.88 54.385 C 44.411 54.262 46.32 54.423 48.411 55.061 C 50.501 55.688 52.757 56.895 54.755 58.801 C 55.734 59.765 56.675 60.89 57.361 62.237 L 57.634 62.735 C 57.72 62.905 57.781 63.088 57.856 63.265 C 57.994 63.624 58.154 63.977 58.278 64.351 C 58.513 65.108 58.626 65.921 58.552 66.746 C 58.483 67.555 58.158 68.462 57.379 68.948 C 57.007 69.185 56.542 69.308 56.088 69.261 C 55.633 69.216 55.209 69.012 54.857 68.732 C 54.15 68.168 53.698 67.31 53.594 66.393 C 53.538 65.936 53.611 65.444 53.789 65.018 C 53.956 64.585 54.2 64.181 54.496 63.82 C 55.714 62.371 57.545 61.638 59.343 61.076 C 61.165 60.521 63.136 60.204 65.129 60.419 C 67.113 60.619 69.101 61.444 70.604 62.884 C 71.352 63.599 71.975 64.479 72.349 65.47 C 72.733 66.464 72.849 67.528 72.862 68.585 C 72.856 69.655 72.74 70.747 72.272 71.729 C 72.038 72.21 71.672 72.676 71.142 72.894 C 70.611 73.117 70.03 73.019 69.553 72.84 L 69.537 72.834 L 69.522 72.824 C 69.107 72.554 68.726 72.211 68.46 71.779 C 68.188 71.351 68.068 70.835 68.077 70.339 C 68.105 69.334 68.561 68.441 69.084 67.665 C 70.173 66.119 71.619 64.925 73.146 63.973 C 74.685 63.021 76.356 62.402 78.019 61.949 C 79.686 61.51 81.398 61.325 83.042 61.517 C 84.684 61.703 86.247 62.27 87.516 63.201 C 88.145 63.669 88.692 64.262 89.019 64.967 C 89.362 65.668 89.398 66.496 89.168 67.208 C 88.947 67.92 88.448 68.575 87.741 68.837 C 87.038 69.112 86.245 68.923 85.688 68.512 C 85.12 68.106 84.714 67.519 84.525 66.88 C 84.341 66.24 84.356 65.581 84.471 64.971 C 84.71 63.742 85.292 62.7 85.88 61.773 C 86.484 60.847 87.174 60.059 87.879 59.395 C 89.296 58.061 90.786 57.248 92.036 56.732 C 93.299 56.233 94.337 56.014 95.041 55.929 C 95.747 55.839 96.119 55.841 96.119 55.841 Z " fill="rgb(250,250,250)"/><path d=" M 104.051 77.231 C 104.067 77.273 103.392 77.422 102.353 78.052 C 101.327 78.666 99.914 79.846 98.997 81.812 C 98.762 82.296 98.59 82.837 98.456 83.406 C 98.311 83.974 98.27 84.584 98.452 85.169 C 98.539 85.457 98.695 85.727 98.929 85.893 C 99.165 86.05 99.482 86.098 99.757 85.985 C 100.317 85.749 100.692 85.091 100.755 84.42 C 100.936 83.055 100.108 81.535 98.76 80.875 C 97.403 80.207 95.629 80.394 94.3 81.295 C 92.955 82.205 92.116 83.687 91.776 85.173 C 91.605 85.909 91.587 86.699 91.95 87.299 C 92.299 87.901 93.039 88.257 93.638 87.965 C 94.238 87.693 94.599 87.037 94.593 86.401 C 94.603 85.755 94.354 85.134 94.028 84.607 C 93.368 83.542 92.365 82.822 91.365 82.462 C 90.359 82.095 89.353 82.091 88.527 82.292 C 87.698 82.492 87.034 82.848 86.554 83.208 C 85.583 83.94 85.281 84.583 85.244 84.55 C 85.238 84.547 85.257 84.509 85.298 84.436 C 85.339 84.365 85.398 84.256 85.494 84.126 C 85.68 83.861 85.987 83.487 86.473 83.102 C 86.953 82.716 87.626 82.332 88.481 82.105 C 89.333 81.879 90.388 81.865 91.446 82.235 C 92.497 82.597 93.559 83.336 94.268 84.457 C 94.617 85.012 94.897 85.673 94.894 86.405 C 94.903 87.129 94.5 87.917 93.765 88.252 C 93.402 88.421 92.951 88.431 92.575 88.266 C 92.195 88.106 91.887 87.816 91.673 87.47 C 91.237 86.751 91.274 85.874 91.449 85.1 C 91.803 83.543 92.673 81.985 94.109 81.012 C 95.534 80.048 97.426 79.844 98.908 80.574 C 100.385 81.31 101.269 82.946 101.068 84.46 C 100.984 85.204 100.587 85.962 99.864 86.265 C 99.498 86.411 99.075 86.349 98.762 86.134 C 98.452 85.908 98.276 85.576 98.181 85.253 C 97.984 84.603 98.045 83.926 98.198 83.347 C 98.344 82.759 98.53 82.205 98.777 81.709 C 99.752 79.7 101.222 78.526 102.286 77.937 C 103.364 77.333 104.051 77.231 104.051 77.231 Z " fill="rgb(250,250,250)"/><path d=" M 83.338 86.674 C 83.336 86.68 83.281 86.67 83.175 86.645 C 83.05 86.614 82.897 86.576 82.708 86.529 C 82.295 86.439 81.685 86.299 80.888 86.223 C 79.309 86.058 76.911 86.078 74.249 87.15 C 73.586 87.414 72.915 87.751 72.257 88.161 C 71.608 88.577 70.969 89.093 70.522 89.778 C 70.069 90.456 69.886 91.339 70.191 92.154 C 70.333 92.552 70.577 92.931 70.925 93.176 C 71.266 93.43 71.716 93.523 72.141 93.439 C 72.997 93.252 73.71 92.425 73.828 91.504 C 73.959 90.561 73.604 89.579 73.067 88.732 C 71.979 87.022 70.156 85.697 68.065 85.181 C 65.97 84.655 63.753 85.067 62.003 86.091 C 61.132 86.601 60.337 87.261 59.77 88.029 C 59.502 88.425 59.29 88.86 59.19 89.312 C 59.085 89.758 59.09 90.236 59.298 90.608 C 59.493 90.989 59.888 91.239 60.3 91.277 C 60.719 91.309 61.148 91.171 61.493 90.931 C 62.22 90.462 62.45 89.554 62.377 88.753 C 62.308 87.937 61.991 87.179 61.612 86.51 C 61.218 85.847 60.759 85.256 60.242 84.769 C 59.212 83.79 58.043 83.179 56.977 82.815 C 55.903 82.45 54.915 82.35 54.12 82.368 C 52.514 82.4 51.684 82.824 51.672 82.763 C 51.67 82.758 51.721 82.735 51.823 82.697 C 51.945 82.654 52.094 82.601 52.279 82.536 C 52.687 82.414 53.304 82.269 54.116 82.235 C 54.925 82.196 55.933 82.279 57.036 82.633 C 58.131 82.988 59.336 83.597 60.408 84.594 C 60.946 85.09 61.427 85.695 61.841 86.378 C 62.238 87.068 62.577 87.851 62.659 88.73 C 62.7 89.166 62.663 89.626 62.511 90.064 C 62.366 90.504 62.059 90.908 61.664 91.179 C 61.272 91.453 60.783 91.62 60.272 91.584 C 59.762 91.54 59.265 91.229 59.021 90.759 C 58.761 90.292 58.763 89.734 58.876 89.242 C 58.987 88.74 59.214 88.273 59.5 87.844 C 60.118 87.006 60.924 86.342 61.834 85.802 C 63.65 84.734 65.958 84.3 68.146 84.849 C 70.325 85.388 72.217 86.764 73.35 88.553 C 73.909 89.441 74.299 90.493 74.151 91.549 C 74.004 92.6 73.223 93.522 72.204 93.747 C 71.696 93.848 71.148 93.729 70.745 93.426 C 70.334 93.132 70.064 92.699 69.907 92.253 C 69.753 91.803 69.705 91.326 69.781 90.868 C 69.851 90.405 70.051 89.996 70.283 89.625 C 70.772 88.889 71.445 88.361 72.116 87.938 C 72.795 87.523 73.481 87.187 74.159 86.926 C 76.882 85.864 79.314 85.883 80.903 86.09 C 82.511 86.301 83.338 86.674 83.338 86.674 Z " fill="rgb(250,250,250)"/><path d=" M 10.003 31.954 C 11.366 32.025 10.977 39.446 11.985 37.876 C 12.992 36.305 11.406 28.771 12.826 28.904 C 14.675 29.078 14.126 36.843 14.128 37.503 C 14.13 38.143 15.083 38.157 15.049 37.562 C 15 36.708 14.715 27.715 16.533 27.868 C 17.541 27.953 17.175 29.755 17.175 29.755 C 17.175 29.755 16.822 38.204 17.683 38.248 C 18.558 38.292 18.932 33.334 18.94 31.655 C 18.948 29.998 19.74 29.307 20.471 29.902 C 20.97 30.307 21.067 35.442 21.02 37.102 C 20.973 38.762 20.764 43.315 22.69 41.107 C 24.619 38.899 26.912 37.908 27.709 38.066 C 28.505 38.225 28.544 39.397 27.721 39.777 C 27.056 40.084 26.096 40.935 25.4 41.605 C 24.827 42.156 24.417 42.839 23.983 43.503 C 23.52 44.211 23.346 44.666 22.969 45.856 L 25.551 76.806 L 27.447 74.438 L 38.264 84.895 L 32.619 91.389 C 28.483 96.147 21.003 96.454 16.801 91.754 C 16.649 91.584 16.501 91.408 16.36 91.227 C 15.311 89.886 14.75 88.227 14.607 86.531 L 11.034 46.403 L 11.002 46.404 C 10.924 41.945 9.714 38.556 9.503 36.257 C 9.113 31.978 9.497 31.928 10.003 31.954 Z " fill="rgb(255,190,157)"/><path d=" M 59.999 48.494 C 60.04 43.827 59.996 38.912 59.996 38.912 C 59.996 38.912 53.995 37.845 52.84 29.986 C 51.739 22.491 53.607 6.372 53.607 6.372 C 62.301 2.943 72.089 4.269 78.179 11.266 L 77.233 49.167 C 77.123 53.567 73.252 56.977 68.542 56.823 C 63.785 56.669 59.962 52.94 59.999 48.494 Z " fill="rgb(255,190,157)"/><path d=" M 55.24 18.749 C 55.216 19.28 55.644 19.739 56.198 19.775 C 56.752 19.811 57.221 19.412 57.246 18.88 C 57.271 18.349 56.842 17.89 56.289 17.854 C 55.735 17.818 55.265 18.218 55.24 18.749 Z " fill="rgb(38,50,56)"/><path d=" M 53.622 17.604 C 53.745 17.736 54.514 17.181 55.597 17.197 C 56.678 17.197 57.466 17.763 57.585 17.631 C 57.643 17.574 57.52 17.335 57.176 17.079 C 56.839 16.825 56.261 16.574 55.586 16.569 C 54.912 16.565 54.342 16.807 54.013 17.057 C 53.677 17.308 53.561 17.545 53.622 17.604 Z " fill="rgb(38,50,56)"/><path d=" M 66.32 19.068 C 66.295 19.6 66.725 20.058 67.279 20.095 C 67.832 20.131 68.302 19.731 68.326 19.2 C 68.351 18.669 67.921 18.209 67.369 18.173 C 66.815 18.137 66.345 18.537 66.32 19.068 Z " fill="rgb(38,50,56)"/><path d=" M 64.914 18.128 C 65.036 18.26 65.806 17.705 66.888 17.721 C 67.969 17.721 68.757 18.286 68.876 18.155 C 68.935 18.097 68.811 17.859 68.467 17.603 C 68.13 17.348 67.552 17.098 66.877 17.093 C 66.204 17.088 65.633 17.331 65.304 17.581 C 64.969 17.832 64.853 18.068 64.914 18.128 Z " fill="rgb(38,50,56)"/><path d=" M 60.892 26.111 C 60.898 26.049 60.226 25.925 59.137 25.773 C 58.861 25.742 58.6 25.683 58.555 25.494 C 58.493 25.293 58.612 24.997 58.749 24.677 C 59.018 24.011 59.297 23.313 59.591 22.581 C 60.761 19.598 61.611 17.143 61.491 17.097 C 61.37 17.051 60.325 19.432 59.155 22.416 C 58.873 23.152 58.603 23.853 58.347 24.524 C 58.238 24.837 58.054 25.192 58.191 25.607 C 58.263 25.815 58.464 25.967 58.641 26.017 C 58.817 26.073 58.972 26.078 59.109 26.088 C 60.206 26.159 60.887 26.172 60.892 26.111 Z " fill="rgb(38,50,56)"/><path d=" M 59.996 38.912 C 59.996 38.912 65.269 39.314 70.534 36.232 C 70.534 36.232 67.922 41.591 60.08 40.766 L 59.996 38.912 Z " fill="rgb(235,153,110)"/><path d=" M 61.32 28.725 C 61.715 28.215 62.4 27.94 63.076 28.02 C 63.546 28.077 64.017 28.309 64.299 28.695 C 64.58 29.081 64.633 29.624 64.37 29.986 C 64.072 30.394 63.461 30.481 62.946 30.328 C 62.431 30.175 61.99 29.83 61.572 29.486 C 61.456 29.391 61.338 29.292 61.266 29.163 C 61.195 29.033 61.182 28.865 61.273 28.76" fill="rgb(235,153,110)"/><path d=" M 64.069 26.896 C 63.893 26.884 63.877 28.059 62.861 28.882 C 61.848 29.707 60.597 29.56 60.586 29.725 C 60.569 29.797 60.862 29.956 61.391 29.976 C 61.909 30 62.668 29.842 63.289 29.339 C 63.909 28.835 64.181 28.156 64.226 27.674 C 64.277 27.183 64.149 26.89 64.069 26.896 Z " fill="rgb(38,50,56)"/><path d=" M 74.773 5.668 C 71.902 9.761 64.303 13.97 58.862 14.948 C 59.497 14.111 62.839 12.051 63.475 11.214 C 61.008 13.056 57.478 15.52 54.206 15.686 C 53.819 15.707 53.4 15.705 53.081 15.512 C 52.647 15.247 52.559 14.734 52.509 14.279 C 52.298 12.361 52.431 9.073 52.736 7.17 C 53.041 5.268 53.915 3.374 55.566 2.099 C 57.663 0.479 60.664 0.079 63.49 0.011 C 65.862 -0.046 68.305 0.095 70.473 0.95 C 72.64 1.806 74.494 3.496 74.811 5.53" fill="rgb(38,50,56)"/><path d=" M 83.002 24.007 C 83.398 21.976 83.712 20.049 83.785 18.763 C 84.017 14.714 82.848 -0.227 68.891 0.976 L 72.249 5.263 C 72.249 5.263 69.491 14.319 75.364 20.565 C 75.364 20.565 75.697 24.22 79.786 28.437 C 79.786 28.437 82.153 28.366 83.002 24.007 Z " fill="rgb(38,50,56)"/><path d=" M 75.198 19.885 C 76.039 19.733 76.926 19.766 77.722 20.076 C 78.518 20.386 79.214 20.989 79.551 21.775 C 79.888 22.562 79.842 23.48 79.543 24.282 C 79.244 25.085 78.707 25.781 78.09 26.375 C 77.646 26.802 77.144 27.191 76.555 27.368 C 75.966 27.545 75.276 27.48 74.811 27.077" fill="rgb(255,190,157)"/><path d=" M 75.603 24.976 C 75.507 25.006 75.865 25.517 76.635 25.32 C 77.005 25.226 77.369 24.907 77.592 24.503 C 77.817 24.093 77.965 23.644 78.026 23.116 C 78.085 22.593 77.972 22.035 77.689 21.635 C 77.418 21.228 76.971 20.984 76.594 20.972 C 75.806 20.945 75.555 21.488 75.644 21.505 C 75.706 21.57 76.015 21.292 76.53 21.422 C 77.024 21.518 77.503 22.206 77.386 23.052 C 77.283 23.915 76.941 24.701 76.48 24.892 C 75.999 25.13 75.657 24.907 75.603 24.976 Z " fill="rgb(235,153,110)"/><path d=" M 85.04 100.142 L 85.04 96.556 L 59.811 96.556 L 52.404 64.126 L 14.647 64.436 L 23.803 100.142 L 85.04 100.142 Z " fill="rgb(38,50,56)"/><path d=" M 32.537 82.154 C 33.095 83.872 34.614 84.917 35.93 84.49 C 37.245 84.062 37.858 82.324 37.3 80.606 C 36.742 78.889 35.224 77.844 33.908 78.27 C 32.593 78.698 31.979 80.437 32.537 82.154 Z " fill="rgb(250,250,250)"/><path d=" M 50.675 99.921 C 50.042 98.71 49.51 97.447 49.098 96.145 C 48.999 95.834 48.907 95.51 48.95 95.187 C 48.993 94.863 49.21 94.541 49.53 94.477 C 50.118 94.357 50.483 95.071 50.714 95.626 C 51.571 97.694 53.48 99.285 55.663 99.781 L 57.192 99.738 L 57.199 99.675 L 90.198 96.733 L 88.625 90.186 L 106.095 88.889 L 107.687 95.334 C 108.547 103.384 102.068 110.325 93.978 110.019 L 56.11 110.028 C 44.065 110.817 41.801 100.17 41.801 100.17 L 50.675 99.921 Z " fill="rgb(255,190,157)"/></g></g></svg>