<?xml version="1.0" encoding="UTF-8" standalone="no"?><!-- Generator: Gravit.io --><svg xmlns="http://www.w3.org/2000/svg" xmlns:xlink="http://www.w3.org/1999/xlink" style="isolation:isolate" viewBox="0 0 200 200" width="200pt" height="200pt"><defs><clipPath id="_clipPath_T9Hz12R7SDk5G7eIvKIqYs0HbwyNcFHm"><rect width="200" height="200"/></clipPath></defs><g clip-path="url(#_clipPath_T9Hz12R7SDk5G7eIvKIqYs0HbwyNcFHm)"><rect width="200" height="200" style="fill:rgb(0,0,0)" fill-opacity="0"/><g><g><defs><filter id="OLLphGGgczexhPB5KCbtt4V6TUPwhc4R" x="-200%" y="-200%" width="400%" height="400%" filterUnits="objectBoundingBox" color-interpolation-filters="sRGB"><feGaussianBlur xmlns="http://www.w3.org/2000/svg" stdDeviation="2.146804531419514"/></filter></defs><g filter="url(#OLLphGGgczexhPB5KCbtt4V6TUPwhc4R)"><linearGradient id="_lgradient_0" x1="0" y1="0" x2="1" y2="0" gradientTransform="matrix(-340.294,292.438,-265.386,-362.025,318.652,-91.097)" gradientUnits="userSpaceOnUse"><stop offset="0%" stop-opacity="1" style="stop-color:rgb(254,254,254)"/><stop offset="14.430801587301586%" stop-opacity="1" style="stop-color:rgb(235,235,236)"/><stop offset="47.02171428571429%" stop-opacity="1" style="stop-color:rgb(190,190,190)"/><stop offset="47.08998412698413%" stop-opacity="1" style="stop-color:rgb(192,191,191)"/><stop offset="49.505071428571426%" stop-opacity="1" style="stop-color:rgb(186,186,186)"/><stop offset="56.12735714285715%" stop-opacity="1" style="stop-color:rgb(163,163,163)"/><stop offset="60.266285714285715%" stop-opacity="1" style="stop-color:rgb(150,150,152)"/><stop offset="68.54414285714286%" stop-opacity="1" style="stop-color:rgb(124,126,128)"/><stop offset="74.33864285714286%" stop-opacity="1" style="stop-color:rgb(107,108,112)"/><stop offset="76.822%" stop-opacity="1" style="stop-color:rgb(105,106,106)"/><stop offset="100%" stop-opacity="1" style="stop-color:rgb(86,86,88)"/></linearGradient><path d=" M 43.509 198 C 35.771 129.175 37.481 70.495 32.409 6.209 C 37.429 7.489 45.414 8.69 55.106 9.774 C 91.721 13.87 152.763 16.308 170.953 15.138 C 164.282 71.911 166.158 125.482 171.474 192.815 C 154.088 191.672 77.924 190.374 43.509 198 Z " fill="url(#_lgradient_0)"/></g><linearGradient id="_lgradient_1" x1="0" y1="0" x2="1" y2="0" gradientTransform="matrix(-173.124,301.957,-277.077,-181.556,166.523,-15.74)" gradientUnits="userSpaceOnUse"><stop offset="0%" stop-opacity="1" style="stop-color:rgb(254,254,254)"/><stop offset="46.13416825396825%" stop-opacity="1" style="stop-color:rgb(242,242,242)"/><stop offset="69.20125238095238%" stop-opacity="1" style="stop-color:rgb(221,221,221)"/><stop offset="84.1270126984127%" stop-opacity="1" style="stop-color:rgb(200,200,200)"/><stop offset="85.25348571428572%" stop-opacity="1" style="stop-color:rgb(199,198,198)"/><stop offset="100%" stop-opacity="1" style="stop-color:rgb(224,224,224)"/></linearGradient><path d=" M 32.691 1 C 58.985 3.941 143.046 4.053 166.05 2.572 C 166.818 63.833 165.949 125.344 171.265 192.676 C 153.88 191.535 59.217 189.808 33.552 192.996 C 33.067 124.053 33.157 67.036 32.691 1 Z " fill-rule="evenodd" fill="url(#_lgradient_1)"/></g><g><path d=" M 89.782 62.711 L 50.313 63.177 C 46.745 63.219 43.818 60.36 43.776 56.792 L 43.31 17.323 C 43.268 13.754 46.126 10.828 49.695 10.786 L 89.164 10.32 C 92.733 10.278 95.659 13.136 95.701 16.704 L 96.167 56.174 C 96.209 59.742 93.351 62.669 89.782 62.711 Z " fill="rgb(255,255,255)"/><path d=" M 58.747 28.68 L 56.926 28.701 L 52.688 28.751 L 50.867 28.773 C 49.532 28.788 48.437 27.719 48.421 26.384 L 48.4 24.563 L 48.35 20.33 L 48.348 20.33 L 48.326 18.508 C 48.311 17.174 49.379 16.079 50.714 16.062 L 58.596 15.966 C 58.597 15.966 58.597 15.966 58.597 15.966 C 59.932 15.95 61.028 17.019 61.043 18.354 L 61.065 20.174 L 61.115 24.413 L 61.136 26.234 C 61.152 27.569 60.082 28.664 58.747 28.68 Z  M 53.14 20.268 C 52.835 20.271 52.591 20.521 52.595 20.826 L 52.632 23.961 C 52.635 24.266 52.885 24.51 53.19 24.506 L 56.325 24.469 C 56.63 24.466 56.873 24.216 56.87 23.911 L 56.833 20.776 C 56.829 20.471 56.58 20.227 56.275 20.231 L 53.14 20.268 Z " fill="rgb(47,55,68)"/><path d=" M 68.708 24.323 L 66.237 24.352 C 65.75 24.358 65.349 23.967 65.343 23.479 L 65.303 20.124 L 65.264 16.77 C 65.258 16.282 65.65 15.881 66.137 15.875 L 69.492 15.836 L 72.847 15.796 C 73.334 15.79 73.735 16.182 73.741 16.67 L 73.77 19.14 C 73.776 19.628 73.384 20.029 72.897 20.035 L 70.426 20.064 C 69.937 20.07 69.547 20.47 69.552 20.958 L 69.582 23.429 C 69.587 23.917 69.196 24.317 68.708 24.323 Z " fill="rgb(47,55,68)"/><path d=" M 51.843 58.434 L 49.995 58.456 C 49.335 58.464 48.794 57.935 48.786 57.275 L 48.764 55.426 C 48.756 54.767 49.285 54.225 49.945 54.218 L 51.793 54.196 C 52.453 54.188 52.995 54.717 53.002 55.376 L 53.024 57.225 C 53.032 57.885 52.503 58.426 51.843 58.434 Z " fill="rgb(47,55,68)"/><path d=" M 72.941 32.751 L 69.692 32.789 L 66.443 32.828 C 65.897 32.834 65.448 32.396 65.442 31.85 L 65.415 29.591 C 65.409 29.044 65.847 28.596 66.393 28.589 L 68.652 28.563 C 69.198 28.556 69.637 28.108 69.63 27.561 L 69.604 25.302 C 69.597 24.756 70.034 24.308 70.582 24.301 L 72.841 24.274 C 73.387 24.268 73.836 24.706 73.842 25.252 L 73.881 28.501 L 73.919 31.75 C 73.925 32.296 73.487 32.745 72.941 32.751 Z " fill="rgb(47,55,68)"/><path d=" M 51.593 37.242 L 49.744 37.264 C 49.085 37.272 48.543 36.743 48.536 36.083 L 48.514 34.234 C 48.506 33.574 49.035 33.033 49.694 33.025 L 51.543 33.004 C 52.203 32.996 52.744 33.524 52.752 34.184 L 52.774 36.033 C 52.782 36.693 52.253 37.234 51.593 37.242 Z " fill="rgb(47,55,68)"/><path d=" M 64.358 41.33 L 62.51 41.352 C 61.85 41.36 61.309 40.832 61.301 40.172 L 61.279 38.323 C 61.271 37.663 60.73 37.134 60.07 37.142 L 58.221 37.164 C 57.561 37.172 57.02 36.643 57.012 35.983 L 56.99 34.134 C 56.983 33.474 57.511 32.933 58.171 32.925 L 61.215 32.89 L 64.258 32.854 C 64.918 32.846 65.46 33.374 65.468 34.034 L 65.503 37.078 L 65.539 40.122 C 65.547 40.782 65.018 41.323 64.358 41.33 Z " fill="rgb(47,55,68)"/><path d=" M 89.789 41.03 L 86.745 41.066 L 83.702 41.102 C 83.042 41.11 82.5 40.582 82.493 39.922 L 82.471 38.073 C 82.463 37.413 81.922 36.884 81.262 36.892 L 79.413 36.914 C 78.754 36.922 78.213 36.393 78.205 35.733 L 78.183 33.884 C 78.176 33.224 78.704 32.683 79.363 32.675 L 82.407 32.639 L 85.45 32.604 C 86.11 32.596 86.651 33.124 86.659 33.784 L 86.681 35.633 C 86.689 36.293 87.23 36.822 87.89 36.814 L 89.739 36.792 C 90.399 36.784 90.94 37.313 90.948 37.973 L 90.97 39.822 C 90.977 40.481 90.449 41.023 89.789 41.03 Z " fill="rgb(47,55,68)"/><path d=" M 55.882 41.43 L 54.033 41.452 C 53.373 41.46 52.832 40.932 52.824 40.272 L 52.802 38.423 C 52.794 37.763 53.323 37.222 53.983 37.214 L 55.832 37.192 C 56.491 37.184 57.033 37.713 57.04 38.373 L 57.062 40.222 C 57.07 40.882 56.541 41.423 55.882 41.43 Z " fill="rgb(47,55,68)"/><path d=" M 77.074 41.18 L 74.031 41.216 L 70.987 41.252 C 70.327 41.26 69.786 40.732 69.778 40.072 L 69.756 38.223 C 69.748 37.563 70.277 37.022 70.937 37.014 L 73.981 36.978 L 77.024 36.942 C 77.684 36.934 78.226 37.463 78.233 38.123 L 78.255 39.972 C 78.263 40.632 77.734 41.173 77.074 41.18 Z " fill="rgb(47,55,68)"/><path d=" M 55.982 49.907 L 52.938 49.943 L 49.895 49.979 C 49.235 49.987 48.694 49.458 48.686 48.799 L 48.664 46.95 C 48.656 46.29 49.185 45.749 49.845 45.741 L 52.888 45.705 L 55.932 45.669 C 56.591 45.661 57.133 46.19 57.14 46.85 L 57.162 48.698 C 57.17 49.358 56.641 49.9 55.982 49.907 Z " fill="rgb(47,55,68)"/><path d=" M 64.459 49.807 L 62.61 49.829 C 61.95 49.837 61.409 49.308 61.401 48.648 L 61.379 46.8 C 61.371 46.14 61.9 45.599 62.56 45.591 L 64.408 45.569 C 65.068 45.561 65.61 46.09 65.618 46.75 L 65.639 48.598 C 65.647 49.258 65.118 49.799 64.459 49.807 Z " fill="rgb(47,55,68)"/><path d=" M 72.968 49.707 L 71.12 49.729 C 70.46 49.736 69.918 49.208 69.91 48.548 L 69.889 46.699 C 69.881 46.039 70.41 45.498 71.07 45.49 L 72.918 45.468 C 73.578 45.461 74.119 45.989 74.127 46.649 L 74.149 48.498 C 74.157 49.158 73.628 49.699 72.968 49.707 Z " fill="rgb(47,55,68)"/><path d=" M 60.27 54.096 L 58.421 54.118 C 57.761 54.125 57.22 53.597 57.212 52.937 L 57.19 51.088 C 57.183 50.428 57.711 49.887 58.371 49.879 L 60.22 49.857 C 60.88 49.849 61.421 50.378 61.429 51.038 L 61.451 52.887 C 61.459 53.547 60.93 54.088 60.27 54.096 Z " fill="rgb(47,55,68)"/><path d=" M 73.036 58.184 L 69.992 58.22 L 65.754 58.27 L 62.71 58.306 C 62.05 58.314 61.509 57.785 61.501 57.125 L 61.479 55.276 C 61.471 54.617 62 54.075 62.66 54.068 L 64.509 54.046 C 65.169 54.038 65.697 53.497 65.689 52.837 L 65.668 50.988 C 65.66 50.328 66.188 49.787 66.848 49.779 L 68.697 49.757 C 69.357 49.749 69.898 50.278 69.906 50.938 L 69.928 52.787 C 69.936 53.447 70.477 53.975 71.137 53.968 L 72.986 53.946 C 73.646 53.938 74.187 54.467 74.195 55.126 L 74.217 56.975 C 74.224 57.635 73.696 58.176 73.036 58.184 Z " fill="rgb(47,55,68)"/><path d=" M 88.769 57.998 L 86.948 58.019 L 82.709 58.069 L 80.888 58.091 C 79.553 58.107 78.458 57.037 78.442 55.702 L 78.421 53.881 L 78.371 49.649 L 78.369 49.649 L 78.348 47.826 C 78.332 46.492 79.401 45.397 80.734 45.381 L 88.618 45.284 C 88.618 45.284 88.619 45.284 88.619 45.284 C 89.954 45.268 91.049 46.337 91.065 47.672 L 91.086 49.493 L 91.136 53.731 L 91.158 55.552 C 91.174 56.887 90.104 57.982 88.769 57.998 Z  M 83.16 49.586 C 82.855 49.59 82.612 49.84 82.616 50.144 L 82.653 53.279 C 82.656 53.584 82.905 53.828 83.21 53.825 L 86.345 53.788 C 86.65 53.784 86.895 53.534 86.891 53.229 L 86.854 50.094 C 86.851 49.79 86.6 49.545 86.295 49.549 L 83.16 49.586 Z " fill="rgb(47,55,68)"/><path d=" M 88.419 28.329 L 86.598 28.35 L 82.359 28.4 L 80.538 28.422 C 79.203 28.438 78.108 27.368 78.092 26.033 L 78.07 24.212 L 78.02 19.98 L 78.019 19.98 L 77.998 18.157 C 77.982 16.823 79.05 15.728 80.384 15.712 L 88.268 15.615 C 88.268 15.615 88.268 15.615 88.269 15.615 C 89.604 15.599 90.699 16.668 90.715 18.003 L 90.736 19.824 L 90.786 24.062 L 90.808 25.883 C 90.823 27.218 89.754 28.313 88.419 28.329 Z  M 82.81 19.917 C 82.505 19.921 82.262 20.171 82.266 20.475 L 82.303 23.61 C 82.306 23.915 82.555 24.159 82.86 24.156 L 85.995 24.119 C 86.3 24.115 86.545 23.865 86.541 23.56 L 86.504 20.425 C 86.501 20.121 86.25 19.876 85.945 19.88 L 82.81 19.917 Z " fill="rgb(47,55,68)"/></g><g><path d=" M 149.432 62.528 L 109.963 62.994 C 106.394 63.036 103.468 60.177 103.426 56.609 L 102.96 17.14 C 102.918 13.571 105.776 10.645 109.344 10.603 L 148.814 10.137 C 152.382 10.095 155.309 12.953 155.351 16.521 L 155.817 55.991 C 155.859 59.559 153 62.486 149.432 62.528 Z " fill="rgb(255,255,255)"/><path d=" M 118.397 28.497 L 116.576 28.518 L 112.338 28.568 L 110.516 28.59 C 109.181 28.605 108.087 27.536 108.071 26.201 L 108.049 24.38 L 107.999 20.147 L 107.997 20.147 L 107.976 18.325 C 107.96 16.99 109.029 15.896 110.363 15.879 L 118.246 15.782 C 118.247 15.782 118.247 15.782 118.247 15.782 C 119.582 15.767 120.677 16.836 120.693 18.171 L 120.714 19.991 L 120.764 24.23 L 120.786 26.051 C 120.802 27.386 119.732 28.481 118.397 28.497 Z  M 112.789 20.085 C 112.485 20.088 112.241 20.338 112.244 20.643 L 112.281 23.778 C 112.285 24.083 112.535 24.327 112.839 24.323 L 115.975 24.286 C 116.28 24.283 116.523 24.033 116.519 23.728 L 116.482 20.593 C 116.479 20.288 116.23 20.044 115.925 20.048 L 112.789 20.085 Z " fill="rgb(47,55,68)"/><path d=" M 128.358 24.14 L 125.887 24.169 C 125.399 24.175 124.998 23.784 124.993 23.296 L 124.953 19.941 L 124.913 16.587 C 124.908 16.099 125.299 15.698 125.787 15.692 L 129.142 15.653 L 132.496 15.613 C 132.984 15.607 133.385 15.999 133.391 16.487 L 133.42 18.957 C 133.426 19.445 133.034 19.846 132.546 19.852 L 130.075 19.881 C 129.587 19.887 129.196 20.287 129.202 20.775 L 129.231 23.246 C 129.237 23.734 128.845 24.134 128.358 24.14 Z " fill="rgb(47,55,68)"/><path d=" M 111.493 58.251 L 109.644 58.273 C 108.984 58.281 108.443 57.752 108.435 57.092 L 108.414 55.243 C 108.406 54.584 108.934 54.042 109.594 54.035 L 111.443 54.013 C 112.103 54.005 112.644 54.534 112.652 55.193 L 112.674 57.042 C 112.682 57.702 112.153 58.243 111.493 58.251 Z " fill="rgb(47,55,68)"/><path d=" M 132.59 32.568 L 129.342 32.606 L 126.093 32.645 C 125.547 32.651 125.098 32.213 125.091 31.667 L 125.065 29.408 C 125.058 28.861 125.497 28.413 126.043 28.406 L 128.302 28.38 C 128.848 28.373 129.286 27.925 129.28 27.378 L 129.253 25.119 C 129.247 24.573 129.684 24.125 130.232 24.118 L 132.49 24.091 C 133.036 24.085 133.485 24.523 133.492 25.069 L 133.53 28.318 L 133.569 31.567 C 133.575 32.113 133.137 32.562 132.59 32.568 Z " fill="rgb(47,55,68)"/><path d=" M 111.243 37.059 L 109.394 37.081 C 108.734 37.089 108.193 36.56 108.185 35.9 L 108.163 34.051 C 108.156 33.391 108.684 32.85 109.344 32.842 L 111.193 32.821 C 111.853 32.813 112.394 33.341 112.402 34.001 L 112.424 35.85 C 112.431 36.51 111.903 37.051 111.243 37.059 Z " fill="rgb(47,55,68)"/><path d=" M 124.008 41.147 L 122.159 41.169 C 121.499 41.177 120.958 40.649 120.95 39.989 L 120.929 38.14 C 120.921 37.48 120.379 36.951 119.72 36.959 L 117.871 36.981 C 117.211 36.989 116.67 36.46 116.662 35.8 L 116.64 33.951 C 116.632 33.291 117.161 32.75 117.821 32.742 L 120.864 32.706 L 123.908 32.671 C 124.568 32.663 125.109 33.191 125.117 33.851 L 125.153 36.895 L 125.189 39.939 C 125.197 40.599 124.668 41.14 124.008 41.147 Z " fill="rgb(47,55,68)"/><path d=" M 149.438 40.847 L 146.395 40.883 L 143.351 40.919 C 142.691 40.927 142.15 40.398 142.142 39.739 L 142.12 37.89 C 142.113 37.23 141.571 36.701 140.911 36.709 L 139.063 36.731 C 138.404 36.739 137.863 36.21 137.855 35.55 L 137.833 33.701 C 137.825 33.041 138.354 32.5 139.013 32.492 L 142.056 32.456 L 145.1 32.42 C 145.76 32.413 146.301 32.941 146.309 33.601 L 146.331 35.45 C 146.339 36.11 146.88 36.639 147.54 36.631 L 149.388 36.609 C 150.048 36.601 150.59 37.13 150.598 37.79 L 150.619 39.638 C 150.627 40.298 150.098 40.84 149.438 40.847 Z " fill="rgb(47,55,68)"/><path d=" M 115.532 41.247 L 113.683 41.269 C 113.023 41.277 112.481 40.749 112.474 40.089 L 112.452 38.24 C 112.444 37.58 112.973 37.039 113.633 37.031 L 115.482 37.009 C 116.141 37.001 116.682 37.53 116.69 38.19 L 116.712 40.039 C 116.72 40.699 116.191 41.24 115.532 41.247 Z " fill="rgb(47,55,68)"/><path d=" M 136.724 40.997 L 133.68 41.033 L 130.637 41.069 C 129.977 41.077 129.435 40.549 129.428 39.889 L 129.406 38.04 C 129.398 37.38 129.927 36.839 130.587 36.831 L 133.63 36.795 L 136.674 36.759 C 137.334 36.751 137.875 37.28 137.883 37.94 L 137.905 39.789 C 137.913 40.449 137.384 40.99 136.724 40.997 Z " fill="rgb(47,55,68)"/><path d=" M 115.632 49.724 L 112.588 49.76 L 109.544 49.796 C 108.884 49.804 108.343 49.275 108.335 48.615 L 108.314 46.767 C 108.306 46.107 108.834 45.566 109.494 45.558 L 112.538 45.522 L 115.582 45.486 C 116.241 45.478 116.782 46.007 116.79 46.667 L 116.812 48.515 C 116.82 49.175 116.291 49.716 115.632 49.724 Z " fill="rgb(47,55,68)"/><path d=" M 124.108 49.624 L 122.259 49.646 C 121.599 49.654 121.058 49.125 121.05 48.465 L 121.029 46.617 C 121.021 45.957 121.549 45.415 122.209 45.408 L 124.058 45.386 C 124.718 45.378 125.259 45.907 125.267 46.567 L 125.289 48.415 C 125.297 49.075 124.768 49.616 124.108 49.624 Z " fill="rgb(47,55,68)"/><path d=" M 132.618 49.524 L 130.769 49.546 C 130.109 49.553 129.568 49.025 129.56 48.365 L 129.538 46.516 C 129.531 45.856 130.059 45.315 130.719 45.307 L 132.568 45.285 C 133.228 45.278 133.769 45.806 133.777 46.466 L 133.799 48.315 C 133.806 48.975 133.278 49.516 132.618 49.524 Z " fill="rgb(47,55,68)"/><path d=" M 119.92 53.913 L 118.071 53.935 C 117.411 53.942 116.87 53.414 116.862 52.754 L 116.84 50.905 C 116.832 50.245 117.361 49.704 118.021 49.696 L 119.87 49.674 C 120.53 49.666 121.071 50.195 121.079 50.855 L 121.1 52.704 C 121.108 53.364 120.58 53.905 119.92 53.913 Z " fill="rgb(47,55,68)"/><path d=" M 132.685 58.001 L 129.642 58.037 L 125.403 58.087 L 122.36 58.123 C 121.7 58.131 121.158 57.602 121.15 56.942 L 121.129 55.093 C 121.121 54.434 121.65 53.892 122.309 53.885 L 124.158 53.863 C 124.818 53.855 125.347 53.314 125.339 52.654 L 125.317 50.805 C 125.309 50.145 125.838 49.604 126.498 49.596 L 128.347 49.574 C 129.007 49.566 129.548 50.095 129.556 50.755 L 129.578 52.604 C 129.585 53.264 130.127 53.792 130.787 53.784 L 132.635 53.763 C 133.295 53.755 133.837 54.284 133.844 54.943 L 133.866 56.792 C 133.874 57.452 133.345 57.993 132.685 58.001 Z " fill="rgb(47,55,68)"/><path d=" M 148.419 57.815 L 146.597 57.836 L 142.359 57.886 L 140.538 57.908 C 139.203 57.924 138.107 56.854 138.092 55.519 L 138.07 53.698 L 138.02 49.466 L 138.019 49.466 L 137.997 47.643 C 137.982 46.309 139.05 45.214 140.384 45.198 L 148.267 45.101 C 148.267 45.101 148.269 45.101 148.269 45.101 C 149.603 45.085 150.699 46.154 150.714 47.489 L 150.736 49.309 L 150.786 53.548 L 150.807 55.369 C 150.823 56.704 149.754 57.799 148.419 57.815 Z  M 142.81 49.403 C 142.505 49.407 142.262 49.657 142.265 49.961 L 142.302 53.096 C 142.306 53.401 142.555 53.645 142.86 53.641 L 145.995 53.605 C 146.3 53.601 146.544 53.351 146.541 53.046 L 146.504 49.911 C 146.5 49.607 146.25 49.362 145.945 49.366 L 142.81 49.403 Z " fill="rgb(47,55,68)"/><path d=" M 148.068 28.146 L 146.247 28.167 L 142.009 28.217 L 140.187 28.239 C 138.853 28.255 137.757 27.185 137.742 25.85 L 137.72 24.029 L 137.67 19.797 L 137.669 19.797 L 137.647 17.974 C 137.632 16.64 138.7 15.545 140.034 15.528 L 147.917 15.432 C 147.917 15.432 147.917 15.432 147.918 15.432 C 149.253 15.416 150.349 16.485 150.364 17.82 L 150.386 19.641 L 150.436 23.879 L 150.457 25.7 C 150.473 27.035 149.403 28.13 148.068 28.146 Z  M 142.46 19.734 C 142.155 19.738 141.912 19.988 141.915 20.292 L 141.952 23.427 C 141.956 23.732 142.205 23.976 142.51 23.973 L 145.645 23.936 C 145.95 23.932 146.194 23.682 146.191 23.377 L 146.154 20.242 C 146.15 19.938 145.9 19.693 145.595 19.697 L 142.46 19.734 Z " fill="rgb(47,55,68)"/></g><g><path d=" M 90.495 123.083 L 51.025 123.549 C 47.457 123.591 44.53 120.732 44.488 117.164 L 44.023 77.694 C 43.98 74.126 46.839 71.2 50.407 71.157 L 89.876 70.692 C 93.445 70.65 96.371 73.508 96.414 77.076 L 96.879 116.546 C 96.921 120.114 94.063 123.041 90.495 123.083 Z " fill="rgb(255,255,255)"/><path d=" M 59.46 89.051 L 57.639 89.073 L 53.401 89.123 L 51.579 89.144 C 50.244 89.16 49.149 88.091 49.134 86.756 L 49.112 84.935 L 49.062 80.702 L 49.06 80.702 L 49.039 78.88 C 49.023 77.545 50.092 76.45 51.426 76.434 L 59.309 76.337 C 59.31 76.337 59.31 76.337 59.31 76.337 C 60.645 76.322 61.74 77.391 61.756 78.726 L 61.777 80.546 L 61.827 84.785 L 61.849 86.606 C 61.864 87.941 60.795 89.036 59.46 89.051 Z  M 53.852 80.64 C 53.547 80.643 53.303 80.893 53.307 81.198 L 53.344 84.333 C 53.348 84.637 53.598 84.882 53.902 84.878 L 57.037 84.841 C 57.342 84.837 57.586 84.587 57.582 84.283 L 57.545 81.148 C 57.542 80.843 57.292 80.599 56.987 80.603 L 53.852 80.64 Z " fill="rgb(47,55,68)"/><path d=" M 69.421 84.695 L 66.95 84.724 C 66.462 84.73 66.061 84.339 66.055 83.85 L 66.016 80.496 L 65.976 77.142 C 65.97 76.653 66.362 76.253 66.849 76.247 L 70.204 76.208 L 73.559 76.168 C 74.047 76.162 74.448 76.553 74.453 77.042 L 74.483 79.512 C 74.488 80 74.097 80.401 73.609 80.406 L 71.138 80.436 C 70.649 80.441 70.259 80.842 70.265 81.33 L 70.294 83.8 C 70.3 84.289 69.908 84.689 69.421 84.695 Z " fill="rgb(47,55,68)"/><path d=" M 52.556 118.806 L 50.707 118.828 C 50.047 118.836 49.506 118.307 49.498 117.647 L 49.476 115.798 C 49.469 115.138 49.997 114.597 50.657 114.589 L 52.506 114.568 C 53.166 114.56 53.707 115.088 53.715 115.748 L 53.737 117.597 C 53.744 118.257 53.216 118.798 52.556 118.806 Z " fill="rgb(47,55,68)"/><path d=" M 73.653 93.123 L 70.404 93.161 L 67.156 93.2 C 66.61 93.206 66.161 92.768 66.154 92.221 L 66.128 89.963 C 66.121 89.416 66.56 88.968 67.106 88.961 L 69.364 88.935 C 69.911 88.928 70.349 88.48 70.343 87.933 L 70.316 85.674 C 70.31 85.128 70.747 84.679 71.294 84.673 L 73.553 84.646 C 74.099 84.64 74.548 85.078 74.555 85.624 L 74.593 88.873 L 74.631 92.121 C 74.638 92.668 74.199 93.116 73.653 93.123 Z " fill="rgb(47,55,68)"/><path d=" M 52.306 97.614 L 50.457 97.636 C 49.797 97.643 49.256 97.115 49.248 96.455 L 49.226 94.606 C 49.218 93.946 49.747 93.405 50.407 93.397 L 52.256 93.375 C 52.916 93.368 53.457 93.896 53.465 94.556 L 53.486 96.405 C 53.494 97.065 52.966 97.606 52.306 97.614 Z " fill="rgb(47,55,68)"/><path d=" M 65.071 101.702 L 63.222 101.724 C 62.562 101.732 62.021 101.203 62.013 100.543 L 61.991 98.695 C 61.984 98.035 61.442 97.506 60.782 97.514 L 58.934 97.536 C 58.274 97.543 57.732 97.015 57.725 96.355 L 57.703 94.506 C 57.695 93.846 58.224 93.305 58.884 93.297 L 61.927 93.261 L 64.971 93.225 C 65.631 93.218 66.172 93.746 66.18 94.406 L 66.216 97.45 L 66.252 100.493 C 66.26 101.153 65.731 101.694 65.071 101.702 Z " fill="rgb(47,55,68)"/><path d=" M 90.501 101.402 L 87.458 101.438 L 84.414 101.474 C 83.754 101.482 83.213 100.953 83.205 100.293 L 83.183 98.445 C 83.175 97.785 82.634 97.256 81.974 97.264 L 80.125 97.286 C 79.467 97.293 78.925 96.765 78.918 96.105 L 78.896 94.256 C 78.888 93.596 79.417 93.055 80.075 93.047 L 83.119 93.011 L 86.163 92.975 C 86.823 92.967 87.364 93.496 87.372 94.156 L 87.394 96.005 C 87.401 96.665 87.943 97.193 88.603 97.186 L 90.451 97.164 C 91.111 97.156 91.653 97.684 91.66 98.344 L 91.682 100.193 C 91.69 100.853 91.161 101.394 90.501 101.402 Z " fill="rgb(47,55,68)"/><path d=" M 56.594 101.802 L 54.745 101.824 C 54.085 101.832 53.544 101.303 53.536 100.643 L 53.515 98.795 C 53.507 98.135 54.035 97.593 54.695 97.586 L 56.544 97.564 C 57.204 97.556 57.745 98.085 57.753 98.745 L 57.775 100.593 C 57.782 101.253 57.254 101.794 56.594 101.802 Z " fill="rgb(47,55,68)"/><path d=" M 77.787 101.552 L 74.743 101.588 L 71.699 101.624 C 71.039 101.632 70.498 101.103 70.49 100.443 L 70.469 98.595 C 70.461 97.935 70.989 97.393 71.649 97.386 L 74.693 97.35 L 77.737 97.314 C 78.397 97.306 78.938 97.835 78.946 98.495 L 78.968 100.343 C 78.975 101.003 78.447 101.544 77.787 101.552 Z " fill="rgb(47,55,68)"/><path d=" M 56.694 110.279 L 53.651 110.315 L 50.607 110.351 C 49.947 110.359 49.406 109.83 49.398 109.17 L 49.376 107.321 C 49.369 106.661 49.897 106.12 50.557 106.113 L 53.601 106.077 L 56.644 106.041 C 57.304 106.033 57.845 106.561 57.853 107.221 L 57.875 109.07 C 57.882 109.73 57.354 110.271 56.694 110.279 Z " fill="rgb(47,55,68)"/><path d=" M 65.171 110.179 L 63.322 110.201 C 62.662 110.209 62.121 109.68 62.113 109.02 L 62.091 107.171 C 62.084 106.511 62.612 105.97 63.272 105.962 L 65.121 105.941 C 65.781 105.933 66.322 106.461 66.33 107.121 L 66.352 108.97 C 66.36 109.63 65.831 110.171 65.171 110.179 Z " fill="rgb(47,55,68)"/><path d=" M 73.681 110.079 L 71.832 110.1 C 71.172 110.108 70.631 109.58 70.623 108.92 L 70.601 107.071 C 70.593 106.411 71.122 105.87 71.782 105.862 L 73.631 105.84 C 74.291 105.832 74.832 106.361 74.84 107.021 L 74.862 108.87 C 74.869 109.53 74.341 110.071 73.681 110.079 Z " fill="rgb(47,55,68)"/><path d=" M 60.982 114.468 L 59.134 114.489 C 58.474 114.497 57.932 113.968 57.925 113.309 L 57.903 111.46 C 57.895 110.8 58.424 110.259 59.084 110.251 L 60.932 110.229 C 61.592 110.221 62.134 110.75 62.141 111.41 L 62.163 113.259 C 62.171 113.918 61.642 114.46 60.982 114.468 Z " fill="rgb(47,55,68)"/><path d=" M 73.748 118.556 L 70.705 118.592 L 66.466 118.642 L 63.422 118.678 C 62.762 118.686 62.221 118.157 62.213 117.497 L 62.191 115.648 C 62.184 114.988 62.712 114.447 63.372 114.439 L 65.221 114.417 C 65.881 114.41 66.41 113.868 66.402 113.209 L 66.38 111.36 C 66.372 110.7 66.901 110.159 67.561 110.151 L 69.41 110.129 C 70.07 110.121 70.611 110.65 70.619 111.31 L 70.64 113.159 C 70.648 113.818 71.19 114.347 71.849 114.339 L 73.698 114.317 C 74.358 114.31 74.899 114.838 74.907 115.498 L 74.929 117.347 C 74.937 118.007 74.408 118.548 73.748 118.556 Z " fill="rgb(47,55,68)"/><path d=" M 89.481 118.37 L 87.66 118.391 L 83.422 118.441 L 81.6 118.463 C 80.265 118.478 79.17 117.409 79.154 116.074 L 79.133 114.253 L 79.083 110.02 L 79.082 110.02 L 79.06 108.198 C 79.045 106.863 80.113 105.769 81.447 105.752 L 89.33 105.655 C 89.33 105.655 89.331 105.655 89.331 105.655 C 90.666 105.64 91.762 106.709 91.777 108.044 L 91.799 109.864 L 91.849 114.103 L 91.87 115.924 C 91.886 117.259 90.816 118.354 89.481 118.37 Z  M 83.873 109.958 C 83.568 109.961 83.324 110.211 83.328 110.516 L 83.365 113.651 C 83.369 113.956 83.618 114.2 83.923 114.196 L 87.058 114.159 C 87.363 114.156 87.607 113.906 87.604 113.601 L 87.567 110.466 C 87.563 110.161 87.313 109.917 87.008 109.921 L 83.873 109.958 Z " fill="rgb(47,55,68)"/><path d=" M 89.131 88.701 L 87.31 88.722 L 83.071 88.772 L 81.25 88.794 C 79.915 88.809 78.82 87.74 78.804 86.405 L 78.783 84.584 L 78.733 80.352 L 78.732 80.352 L 78.71 78.529 C 78.694 77.195 79.763 76.1 81.097 76.083 L 88.98 75.987 C 88.98 75.987 88.98 75.987 88.981 75.987 C 90.316 75.971 91.411 77.04 91.427 78.375 L 91.449 80.195 L 91.499 84.434 L 91.52 86.255 C 91.536 87.59 90.466 88.685 89.131 88.701 Z  M 83.523 80.289 C 83.218 80.292 82.974 80.542 82.978 80.847 L 83.015 83.982 C 83.019 84.287 83.268 84.531 83.573 84.527 L 86.708 84.49 C 87.013 84.487 87.257 84.237 87.254 83.932 L 87.217 80.797 C 87.213 80.492 86.963 80.248 86.658 80.252 L 83.523 80.289 Z " fill="rgb(47,55,68)"/></g><g><path d=" M 150.144 122.9 L 110.675 123.366 C 107.107 123.408 104.18 120.549 104.138 116.981 L 103.672 77.511 C 103.63 73.943 106.488 71.016 110.057 70.974 L 149.526 70.509 C 153.095 70.466 156.021 73.325 156.063 76.893 L 156.529 116.363 C 156.571 119.931 153.713 122.858 150.144 122.9 Z " fill="rgb(255,255,255)"/><path d=" M 119.109 88.868 L 117.288 88.89 L 113.05 88.94 L 111.229 88.961 C 109.894 88.977 108.799 87.908 108.783 86.573 L 108.762 84.752 L 108.712 80.519 L 108.71 80.519 L 108.688 78.697 C 108.673 77.362 109.741 76.267 111.076 76.251 L 118.958 76.154 C 118.959 76.154 118.959 76.154 118.959 76.154 C 120.294 76.138 121.39 77.208 121.405 78.543 L 121.427 80.363 L 121.477 84.602 L 121.498 86.423 C 121.514 87.758 120.444 88.853 119.109 88.868 Z  M 113.502 80.457 C 113.197 80.46 112.953 80.71 112.957 81.015 L 112.994 84.15 C 112.997 84.454 113.247 84.699 113.552 84.695 L 116.687 84.658 C 116.992 84.654 117.235 84.404 117.232 84.1 L 117.195 80.965 C 117.191 80.66 116.942 80.416 116.637 80.42 L 113.502 80.457 Z " fill="rgb(47,55,68)"/><path d=" M 129.07 84.512 L 126.599 84.541 C 126.112 84.547 125.711 84.156 125.705 83.667 L 125.665 80.313 L 125.626 76.959 C 125.62 76.47 126.012 76.07 126.499 76.064 L 129.854 76.025 L 133.209 75.985 C 133.696 75.979 134.097 76.37 134.103 76.859 L 134.132 79.329 C 134.138 79.817 133.746 80.218 133.259 80.223 L 130.788 80.253 C 130.299 80.258 129.909 80.659 129.914 81.147 L 129.944 83.617 C 129.949 84.106 129.558 84.506 129.07 84.512 Z " fill="rgb(47,55,68)"/><path d=" M 112.205 118.623 L 110.357 118.645 C 109.697 118.653 109.156 118.124 109.148 117.464 L 109.126 115.615 C 109.118 114.955 109.647 114.414 110.307 114.406 L 112.155 114.385 C 112.815 114.377 113.357 114.905 113.364 115.565 L 113.386 117.414 C 113.394 118.074 112.865 118.615 112.205 118.623 Z " fill="rgb(47,55,68)"/><path d=" M 133.303 92.94 L 130.054 92.978 L 126.805 93.017 C 126.259 93.023 125.81 92.585 125.804 92.038 L 125.777 89.78 C 125.771 89.233 126.209 88.785 126.755 88.778 L 129.014 88.752 C 129.56 88.745 129.999 88.297 129.992 87.75 L 129.966 85.491 C 129.959 84.945 130.397 84.496 130.944 84.49 L 133.203 84.463 C 133.749 84.457 134.198 84.895 134.204 85.441 L 134.243 88.69 L 134.281 91.938 C 134.287 92.485 133.849 92.933 133.303 92.94 Z " fill="rgb(47,55,68)"/><path d=" M 111.955 97.431 L 110.107 97.453 C 109.447 97.46 108.906 96.932 108.898 96.272 L 108.876 94.423 C 108.868 93.763 109.397 93.222 110.057 93.214 L 111.905 93.192 C 112.565 93.185 113.106 93.713 113.114 94.373 L 113.136 96.222 C 113.144 96.882 112.615 97.423 111.955 97.431 Z " fill="rgb(47,55,68)"/><path d=" M 124.721 101.519 L 122.872 101.541 C 122.212 101.549 121.671 101.02 121.663 100.36 L 121.641 98.512 C 121.633 97.852 121.092 97.323 120.432 97.331 L 118.583 97.353 C 117.923 97.36 117.382 96.832 117.374 96.172 L 117.352 94.323 C 117.345 93.663 117.873 93.122 118.533 93.114 L 121.577 93.078 L 124.621 93.042 C 125.281 93.035 125.822 93.563 125.83 94.223 L 125.866 97.267 L 125.901 100.31 C 125.909 100.97 125.381 101.511 124.721 101.519 Z " fill="rgb(47,55,68)"/><path d=" M 150.151 101.219 L 147.107 101.255 L 144.064 101.291 C 143.404 101.299 142.862 100.77 142.855 100.11 L 142.833 98.261 C 142.825 97.601 142.284 97.073 141.624 97.081 L 139.775 97.103 C 139.116 97.11 138.575 96.582 138.567 95.922 L 138.545 94.073 C 138.538 93.413 139.066 92.872 139.725 92.864 L 142.769 92.828 L 145.812 92.792 C 146.472 92.784 147.014 93.313 147.021 93.973 L 147.043 95.822 C 147.051 96.482 147.592 97.01 148.252 97.003 L 150.101 96.981 C 150.761 96.973 151.302 97.501 151.31 98.161 L 151.332 100.01 C 151.34 100.67 150.811 101.211 150.151 101.219 Z " fill="rgb(47,55,68)"/><path d=" M 116.244 101.619 L 114.395 101.641 C 113.735 101.649 113.194 101.12 113.186 100.46 L 113.164 98.612 C 113.157 97.952 113.685 97.41 114.345 97.403 L 116.194 97.381 C 116.853 97.373 117.395 97.902 117.402 98.562 L 117.424 100.41 C 117.432 101.07 116.903 101.611 116.244 101.619 Z " fill="rgb(47,55,68)"/><path d=" M 137.436 101.369 L 134.393 101.405 L 131.349 101.441 C 130.689 101.449 130.148 100.92 130.14 100.26 L 130.118 98.412 C 130.11 97.752 130.639 97.21 131.299 97.203 L 134.343 97.167 L 137.386 97.131 C 138.046 97.123 138.588 97.652 138.595 98.311 L 138.617 100.16 C 138.625 100.82 138.096 101.361 137.436 101.369 Z " fill="rgb(47,55,68)"/><path d=" M 116.344 110.096 L 113.3 110.132 L 110.257 110.168 C 109.597 110.176 109.056 109.647 109.048 108.987 L 109.026 107.138 C 109.018 106.478 109.547 105.937 110.207 105.929 L 113.25 105.894 L 116.294 105.858 C 116.953 105.85 117.495 106.378 117.502 107.038 L 117.524 108.887 C 117.532 109.547 117.003 110.088 116.344 110.096 Z " fill="rgb(47,55,68)"/><path d=" M 124.821 109.996 L 122.972 110.018 C 122.312 110.026 121.771 109.497 121.763 108.837 L 121.741 106.988 C 121.733 106.328 122.262 105.787 122.922 105.779 L 124.771 105.758 C 125.431 105.75 125.972 106.278 125.98 106.938 L 126.001 108.787 C 126.009 109.447 125.481 109.988 124.821 109.996 Z " fill="rgb(47,55,68)"/><path d=" M 133.33 109.896 L 131.482 109.917 C 130.822 109.925 130.28 109.396 130.273 108.737 L 130.251 106.888 C 130.243 106.228 130.772 105.687 131.432 105.679 L 133.28 105.657 C 133.94 105.649 134.482 106.178 134.489 106.838 L 134.511 108.687 C 134.519 109.346 133.99 109.888 133.33 109.896 Z " fill="rgb(47,55,68)"/><path d=" M 120.632 114.284 L 118.783 114.306 C 118.123 114.314 117.582 113.785 117.574 113.126 L 117.552 111.277 C 117.545 110.617 118.073 110.076 118.733 110.068 L 120.582 110.046 C 121.242 110.038 121.783 110.567 121.791 111.227 L 121.813 113.076 C 121.821 113.735 121.292 114.277 120.632 114.284 Z " fill="rgb(47,55,68)"/><path d=" M 133.398 118.373 L 130.354 118.409 L 126.116 118.459 L 123.072 118.495 C 122.412 118.503 121.871 117.974 121.863 117.314 L 121.841 115.465 C 121.833 114.805 122.362 114.264 123.022 114.256 L 124.871 114.234 C 125.531 114.227 126.059 113.685 126.051 113.026 L 126.03 111.177 C 126.022 110.517 126.551 109.976 127.211 109.968 L 129.059 109.946 C 129.719 109.938 130.26 110.467 130.268 111.127 L 130.29 112.976 C 130.298 113.635 130.839 114.164 131.499 114.156 L 133.348 114.134 C 134.008 114.127 134.549 114.655 134.557 115.315 L 134.579 117.164 C 134.586 117.824 134.058 118.365 133.398 118.373 Z " fill="rgb(47,55,68)"/><path d=" M 149.131 118.187 L 147.31 118.208 L 143.071 118.258 L 141.25 118.28 C 139.915 118.295 138.82 117.226 138.804 115.891 L 138.783 114.07 L 138.733 109.837 L 138.731 109.837 L 138.71 108.015 C 138.694 106.68 139.763 105.586 141.096 105.569 L 148.98 105.472 C 148.98 105.472 148.981 105.472 148.981 105.472 C 150.316 105.457 151.411 106.526 151.427 107.861 L 151.448 109.681 L 151.498 113.92 L 151.52 115.741 C 151.536 117.076 150.466 118.171 149.131 118.187 Z  M 143.522 109.775 C 143.217 109.778 142.974 110.028 142.978 110.333 L 143.015 113.468 C 143.018 113.773 143.267 114.017 143.572 114.013 L 146.707 113.976 C 147.012 113.973 147.257 113.723 147.253 113.418 L 147.216 110.283 C 147.213 109.978 146.962 109.734 146.657 109.738 L 143.522 109.775 Z " fill="rgb(47,55,68)"/><path d=" M 148.781 88.518 L 146.96 88.539 L 142.721 88.589 L 140.9 88.611 C 139.565 88.626 138.47 87.557 138.454 86.222 L 138.433 84.401 L 138.383 80.168 L 138.381 80.168 L 138.36 78.346 C 138.344 77.011 139.412 75.917 140.746 75.9 L 148.63 75.803 C 148.63 75.803 148.63 75.803 148.631 75.803 C 149.966 75.788 151.061 76.857 151.077 78.192 L 151.098 80.012 L 151.148 84.251 L 151.17 86.072 C 151.186 87.407 150.116 88.502 148.781 88.518 Z  M 143.172 80.106 C 142.867 80.109 142.624 80.359 142.628 80.664 L 142.665 83.799 C 142.668 84.104 142.917 84.348 143.222 84.344 L 146.357 84.307 C 146.662 84.304 146.907 84.054 146.903 83.749 L 146.866 80.614 C 146.863 80.309 146.612 80.065 146.307 80.069 L 143.172 80.106 Z " fill="rgb(47,55,68)"/></g><g><path d=" M 91.203 183.145 L 51.734 183.611 C 48.166 183.653 45.239 180.795 45.197 177.226 L 44.731 137.757 C 44.689 134.189 47.548 131.262 51.116 131.22 L 90.585 130.754 C 94.154 130.712 97.08 133.57 97.122 137.139 L 97.588 176.608 C 97.63 180.176 94.772 183.103 91.203 183.145 Z " fill="rgb(255,255,255)"/><path d=" M 60.169 149.114 L 58.347 149.135 L 54.109 149.185 L 52.288 149.207 C 50.953 149.223 49.858 148.153 49.842 146.818 L 49.821 144.997 L 49.771 140.765 L 49.769 140.765 L 49.747 138.942 C 49.732 137.608 50.801 136.513 52.135 136.497 L 60.017 136.4 C 60.019 136.4 60.019 136.4 60.019 136.4 C 61.354 136.384 62.449 137.453 62.464 138.788 L 62.486 140.609 L 62.536 144.847 L 62.557 146.668 C 62.573 148.003 61.504 149.098 60.169 149.114 Z  M 54.561 140.702 C 54.256 140.706 54.012 140.956 54.016 141.26 L 54.053 144.395 C 54.056 144.7 54.306 144.944 54.611 144.941 L 57.746 144.904 C 58.051 144.9 58.294 144.65 58.291 144.345 L 58.254 141.21 C 58.25 140.906 58.001 140.662 57.696 140.665 L 54.561 140.702 Z " fill="rgb(47,55,68)"/><path d=" M 70.129 144.757 L 67.658 144.787 C 67.171 144.792 66.77 144.401 66.764 143.913 L 66.725 140.559 L 66.685 137.204 C 66.679 136.716 67.071 136.315 67.558 136.31 L 70.913 136.27 L 74.268 136.231 C 74.756 136.225 75.156 136.616 75.162 137.104 L 75.191 139.575 C 75.197 140.063 74.806 140.463 74.318 140.469 L 71.847 140.498 C 71.358 140.504 70.968 140.904 70.974 141.393 L 71.003 143.863 C 71.009 144.351 70.617 144.752 70.129 144.757 Z " fill="rgb(47,55,68)"/><path d=" M 53.265 178.869 L 51.416 178.89 C 50.756 178.898 50.215 178.369 50.207 177.71 L 50.185 175.861 C 50.177 175.201 50.706 174.66 51.366 174.652 L 53.215 174.63 C 53.874 174.622 54.416 175.151 54.424 175.811 L 54.445 177.66 C 54.453 178.319 53.924 178.861 53.265 178.869 Z " fill="rgb(47,55,68)"/><path d=" M 74.362 153.185 L 71.113 153.224 L 67.865 153.262 C 67.318 153.269 66.869 152.831 66.863 152.284 L 66.836 150.025 C 66.83 149.479 67.268 149.03 67.815 149.024 L 70.073 148.997 C 70.619 148.991 71.058 148.542 71.052 147.996 L 71.025 145.737 C 71.018 145.19 71.456 144.742 72.003 144.735 L 74.262 144.709 C 74.808 144.702 75.257 145.14 75.263 145.687 L 75.302 148.935 L 75.34 152.184 C 75.347 152.731 74.908 153.179 74.362 153.185 Z " fill="rgb(47,55,68)"/><path d=" M 53.015 157.676 L 51.166 157.698 C 50.506 157.706 49.965 157.177 49.957 156.517 L 49.935 154.669 C 49.927 154.009 50.456 153.468 51.116 153.46 L 52.964 153.438 C 53.624 153.43 54.166 153.959 54.173 154.619 L 54.195 156.467 C 54.203 157.127 53.674 157.669 53.015 157.676 Z " fill="rgb(47,55,68)"/><path d=" M 65.78 161.765 L 63.931 161.787 C 63.271 161.794 62.73 161.266 62.722 160.606 L 62.7 158.757 C 62.692 158.097 62.151 157.569 61.491 157.576 L 59.642 157.598 C 58.982 157.606 58.441 157.077 58.433 156.417 L 58.412 154.569 C 58.404 153.909 58.932 153.367 59.592 153.36 L 62.636 153.324 L 65.68 153.288 C 66.34 153.28 66.881 153.809 66.889 154.469 L 66.925 157.512 L 66.961 160.556 C 66.968 161.216 66.44 161.757 65.78 161.765 Z " fill="rgb(47,55,68)"/><path d=" M 91.21 161.465 L 88.166 161.501 L 85.123 161.536 C 84.463 161.544 83.922 161.016 83.914 160.356 L 83.892 158.507 C 83.884 157.847 83.343 157.319 82.683 157.326 L 80.834 157.348 C 80.175 157.356 79.634 156.827 79.626 156.167 L 79.605 154.319 C 79.597 153.659 80.125 153.117 80.784 153.11 L 83.828 153.074 L 86.871 153.038 C 87.531 153.03 88.073 153.559 88.08 154.219 L 88.102 156.067 C 88.11 156.727 88.651 157.256 89.311 157.248 L 91.16 157.226 C 91.82 157.218 92.361 157.747 92.369 158.407 L 92.391 160.256 C 92.399 160.916 91.87 161.457 91.21 161.465 Z " fill="rgb(47,55,68)"/><path d=" M 57.303 161.865 L 55.454 161.887 C 54.794 161.894 54.253 161.366 54.245 160.706 L 54.223 158.857 C 54.216 158.197 54.744 157.656 55.404 157.648 L 57.253 157.626 C 57.912 157.619 58.454 158.147 58.462 158.807 L 58.483 160.656 C 58.491 161.316 57.962 161.857 57.303 161.865 Z " fill="rgb(47,55,68)"/><path d=" M 78.496 161.615 L 75.452 161.651 L 72.408 161.686 C 71.748 161.694 71.207 161.166 71.199 160.506 L 71.177 158.657 C 71.17 157.997 71.698 157.456 72.358 157.448 L 75.402 157.412 L 78.445 157.376 C 79.105 157.369 79.647 157.897 79.655 158.557 L 79.676 160.406 C 79.684 161.066 79.155 161.607 78.496 161.615 Z " fill="rgb(47,55,68)"/><path d=" M 57.403 170.342 L 54.359 170.377 L 51.316 170.413 C 50.656 170.421 50.115 169.893 50.107 169.233 L 50.085 167.384 C 50.077 166.724 50.606 166.183 51.266 166.175 L 54.309 166.139 L 57.353 166.103 C 58.012 166.095 58.554 166.624 58.562 167.284 L 58.583 169.133 C 58.591 169.792 58.063 170.334 57.403 170.342 Z " fill="rgb(47,55,68)"/><path d=" M 65.88 170.242 L 64.031 170.263 C 63.371 170.271 62.83 169.742 62.822 169.083 L 62.8 167.234 C 62.792 166.574 63.321 166.033 63.981 166.025 L 65.83 166.003 C 66.49 165.995 67.031 166.524 67.039 167.184 L 67.061 169.033 C 67.068 169.692 66.54 170.234 65.88 170.242 Z " fill="rgb(47,55,68)"/><path d=" M 74.389 170.141 L 72.541 170.163 C 71.881 170.171 71.339 169.642 71.332 168.982 L 71.31 167.134 C 71.302 166.474 71.831 165.932 72.491 165.925 L 74.339 165.903 C 74.999 165.895 75.541 166.424 75.548 167.083 L 75.57 168.932 C 75.578 169.592 75.049 170.133 74.389 170.141 Z " fill="rgb(47,55,68)"/><path d=" M 61.691 174.53 L 59.842 174.552 C 59.182 174.56 58.641 174.031 58.633 173.371 L 58.612 171.522 C 58.604 170.862 59.132 170.321 59.792 170.313 L 61.641 170.292 C 62.301 170.284 62.842 170.812 62.85 171.472 L 62.872 173.321 C 62.88 173.981 62.351 174.522 61.691 174.53 Z " fill="rgb(47,55,68)"/><path d=" M 74.457 178.618 L 71.413 178.654 L 67.175 178.704 L 64.131 178.74 C 63.471 178.748 62.93 178.219 62.922 177.56 L 62.9 175.711 C 62.892 175.051 63.421 174.51 64.081 174.502 L 65.93 174.48 C 66.59 174.472 67.118 173.931 67.111 173.271 L 67.089 171.422 C 67.081 170.762 67.61 170.221 68.27 170.213 L 70.118 170.192 C 70.778 170.184 71.32 170.712 71.327 171.372 L 71.349 173.221 C 71.357 173.881 71.898 174.41 72.558 174.402 L 74.407 174.38 C 75.067 174.372 75.608 174.901 75.616 175.561 L 75.638 177.41 C 75.646 178.069 75.117 178.611 74.457 178.618 Z " fill="rgb(47,55,68)"/><path d=" M 90.19 178.432 L 88.369 178.454 L 84.13 178.504 L 82.309 178.525 C 80.974 178.541 79.879 177.472 79.863 176.137 L 79.842 174.315 L 79.792 170.083 L 79.791 170.083 L 79.769 168.26 C 79.753 166.926 80.822 165.831 82.155 165.815 L 90.039 165.718 C 90.039 165.718 90.04 165.718 90.04 165.718 C 91.375 165.702 92.47 166.772 92.486 168.106 L 92.508 169.927 L 92.558 174.165 L 92.579 175.986 C 92.595 177.322 91.525 178.416 90.19 178.432 Z  M 84.582 170.02 C 84.277 170.024 84.033 170.274 84.037 170.578 L 84.074 173.714 C 84.077 174.018 84.327 174.262 84.632 174.259 L 87.766 174.222 C 88.071 174.218 88.316 173.968 88.312 173.664 L 88.275 170.528 C 88.272 170.224 88.021 169.98 87.716 169.983 L 84.582 170.02 Z " fill="rgb(47,55,68)"/><path d=" M 89.84 148.763 L 88.019 148.785 L 83.78 148.835 L 81.959 148.856 C 80.624 148.872 79.529 147.803 79.513 146.468 L 79.492 144.646 L 79.442 140.414 L 79.44 140.414 L 79.419 138.591 C 79.403 137.257 80.472 136.162 81.805 136.146 L 89.689 136.049 C 89.689 136.049 89.689 136.049 89.69 136.049 C 91.025 136.033 92.12 137.103 92.136 138.438 L 92.157 140.258 L 92.207 144.496 L 92.229 146.318 C 92.245 147.652 91.175 148.747 89.84 148.763 Z  M 84.231 140.351 C 83.926 140.355 83.683 140.605 83.687 140.91 L 83.724 144.045 C 83.727 144.349 83.976 144.593 84.281 144.59 L 87.416 144.553 C 87.721 144.549 87.966 144.299 87.962 143.995 L 87.925 140.86 C 87.922 140.555 87.671 140.311 87.366 140.314 L 84.231 140.351 Z " fill="rgb(47,55,68)"/></g><g><path d=" M 150.853 182.962 L 111.384 183.428 C 107.816 183.47 104.889 180.612 104.847 177.043 L 104.381 137.574 C 104.339 134.006 107.197 131.079 110.766 131.037 L 150.235 130.571 C 153.803 130.529 156.73 133.387 156.772 136.956 L 157.238 176.425 C 157.28 179.993 154.422 182.92 150.853 182.962 Z " fill="rgb(255,255,255)"/><path d=" M 119.818 148.931 L 117.997 148.952 L 113.759 149.002 L 111.938 149.024 C 110.603 149.04 109.508 147.97 109.492 146.635 L 109.471 144.814 L 109.421 140.582 L 109.419 140.582 L 109.397 138.759 C 109.381 137.425 110.45 136.33 111.785 136.314 L 119.667 136.217 C 119.668 136.217 119.668 136.217 119.668 136.217 C 121.003 136.201 122.098 137.27 122.114 138.605 L 122.136 140.426 L 122.186 144.664 L 122.207 146.485 C 122.223 147.82 121.153 148.915 119.818 148.931 Z  M 114.211 140.519 C 113.906 140.523 113.662 140.773 113.665 141.077 L 113.702 144.212 C 113.706 144.517 113.956 144.761 114.261 144.758 L 117.396 144.721 C 117.701 144.717 117.944 144.467 117.941 144.162 L 117.904 141.027 C 117.9 140.723 117.651 140.479 117.346 140.482 L 114.211 140.519 Z " fill="rgb(47,55,68)"/><path d=" M 129.779 144.574 L 127.308 144.604 C 126.82 144.609 126.42 144.218 126.414 143.73 L 126.374 140.376 L 126.335 137.021 C 126.329 136.533 126.72 136.132 127.208 136.127 L 130.563 136.087 L 133.918 136.047 C 134.405 136.042 134.806 136.433 134.812 136.921 L 134.841 139.392 C 134.847 139.88 134.455 140.28 133.968 140.286 L 131.497 140.315 C 131.008 140.321 130.618 140.721 130.623 141.21 L 130.652 143.68 C 130.658 144.168 130.267 144.569 129.779 144.574 Z " fill="rgb(47,55,68)"/><path d=" M 112.914 178.685 L 111.065 178.707 C 110.406 178.715 109.864 178.186 109.857 177.527 L 109.835 175.678 C 109.827 175.018 110.356 174.477 111.015 174.469 L 112.864 174.447 C 113.524 174.439 114.065 174.968 114.073 175.628 L 114.095 177.477 C 114.103 178.136 113.574 178.678 112.914 178.685 Z " fill="rgb(47,55,68)"/><path d=" M 134.012 153.002 L 130.763 153.041 L 127.514 153.079 C 126.968 153.086 126.519 152.648 126.513 152.101 L 126.486 149.842 C 126.479 149.295 126.918 148.847 127.464 148.841 L 129.723 148.814 C 130.269 148.808 130.708 148.359 130.701 147.813 L 130.675 145.554 C 130.668 145.007 131.105 144.559 131.653 144.552 L 133.911 144.526 C 134.458 144.519 134.907 144.957 134.913 145.504 L 134.951 148.752 L 134.99 152.001 C 134.996 152.548 134.558 152.996 134.012 153.002 Z " fill="rgb(47,55,68)"/><path d=" M 112.664 157.493 L 110.815 157.515 C 110.155 157.523 109.614 156.994 109.607 156.334 L 109.585 154.486 C 109.577 153.826 110.105 153.284 110.765 153.277 L 112.614 153.255 C 113.274 153.247 113.815 153.776 113.823 154.436 L 113.845 156.284 C 113.853 156.944 113.324 157.486 112.664 157.493 Z " fill="rgb(47,55,68)"/><path d=" M 125.429 161.582 L 123.581 161.603 C 122.921 161.611 122.379 161.083 122.372 160.423 L 122.35 158.574 C 122.342 157.914 121.801 157.386 121.141 157.393 L 119.292 157.415 C 118.632 157.423 118.091 156.894 118.083 156.234 L 118.061 154.386 C 118.053 153.726 118.582 153.184 119.242 153.177 L 122.286 153.141 L 125.329 153.105 C 125.989 153.097 126.531 153.626 126.538 154.286 L 126.574 157.329 L 126.61 160.373 C 126.618 161.033 126.089 161.574 125.429 161.582 Z " fill="rgb(47,55,68)"/><path d=" M 150.86 161.282 L 147.816 161.317 L 144.772 161.353 C 144.112 161.361 143.571 160.833 143.563 160.173 L 143.542 158.324 C 143.534 157.664 142.992 157.135 142.332 157.143 L 140.484 157.165 C 139.825 157.173 139.284 156.644 139.276 155.984 L 139.254 154.136 C 139.246 153.476 139.775 152.934 140.434 152.927 L 143.477 152.891 L 146.521 152.855 C 147.181 152.847 147.722 153.376 147.73 154.035 L 147.752 155.884 C 147.76 156.544 148.301 157.073 148.961 157.065 L 150.81 157.043 C 151.47 157.035 152.011 157.564 152.019 158.224 L 152.041 160.073 C 152.048 160.733 151.52 161.274 150.86 161.282 Z " fill="rgb(47,55,68)"/><path d=" M 116.953 161.682 L 115.104 161.704 C 114.444 161.711 113.903 161.183 113.895 160.523 L 113.873 158.674 C 113.865 158.014 114.394 157.473 115.054 157.465 L 116.903 157.443 C 117.562 157.436 118.103 157.964 118.111 158.624 L 118.133 160.473 C 118.141 161.133 117.612 161.674 116.953 161.682 Z " fill="rgb(47,55,68)"/><path d=" M 138.145 161.432 L 135.102 161.468 L 132.058 161.503 C 131.398 161.511 130.857 160.983 130.849 160.323 L 130.827 158.474 C 130.819 157.814 131.348 157.273 132.008 157.265 L 135.051 157.229 L 138.095 157.193 C 138.755 157.185 139.296 157.714 139.304 158.374 L 139.326 160.223 C 139.334 160.883 138.805 161.424 138.145 161.432 Z " fill="rgb(47,55,68)"/><path d=" M 117.053 170.159 L 114.009 170.194 L 110.965 170.23 C 110.306 170.238 109.764 169.709 109.757 169.05 L 109.735 167.201 C 109.727 166.541 110.256 166 110.915 165.992 L 113.959 165.956 L 117.003 165.92 C 117.662 165.912 118.203 166.441 118.211 167.101 L 118.233 168.95 C 118.241 169.609 117.712 170.151 117.053 170.159 Z " fill="rgb(47,55,68)"/><path d=" M 125.529 170.058 L 123.681 170.08 C 123.021 170.088 122.479 169.559 122.472 168.9 L 122.45 167.051 C 122.442 166.391 122.971 165.85 123.631 165.842 L 125.479 165.82 C 126.139 165.812 126.681 166.341 126.688 167.001 L 126.71 168.85 C 126.718 169.509 126.189 170.051 125.529 170.058 Z " fill="rgb(47,55,68)"/><path d=" M 134.039 169.958 L 132.19 169.98 C 131.53 169.988 130.989 169.459 130.981 168.799 L 130.96 166.95 C 130.952 166.29 131.48 165.749 132.14 165.742 L 133.989 165.72 C 134.649 165.712 135.19 166.24 135.198 166.9 L 135.22 168.749 C 135.228 169.409 134.699 169.95 134.039 169.958 Z " fill="rgb(47,55,68)"/><path d=" M 121.341 174.347 L 119.492 174.369 C 118.832 174.377 118.291 173.848 118.283 173.188 L 118.261 171.339 C 118.253 170.679 118.782 170.138 119.442 170.13 L 121.291 170.109 C 121.951 170.101 122.492 170.629 122.5 171.289 L 122.522 173.138 C 122.529 173.798 122.001 174.339 121.341 174.347 Z " fill="rgb(47,55,68)"/><path d=" M 134.107 178.435 L 131.063 178.471 L 126.824 178.521 L 123.781 178.557 C 123.121 178.565 122.579 178.036 122.572 177.377 L 122.55 175.528 C 122.542 174.868 123.071 174.327 123.731 174.319 L 125.579 174.297 C 126.239 174.289 126.768 173.748 126.76 173.088 L 126.738 171.239 C 126.731 170.579 127.259 170.038 127.919 170.03 L 129.768 170.008 C 130.428 170.001 130.969 170.529 130.977 171.189 L 130.999 173.038 C 131.007 173.698 131.548 174.227 132.208 174.219 L 134.057 174.197 C 134.717 174.189 135.258 174.718 135.266 175.378 L 135.287 177.226 C 135.295 177.886 134.767 178.428 134.107 178.435 Z " fill="rgb(47,55,68)"/><path d=" M 149.84 178.249 L 148.019 178.271 L 143.78 178.321 L 141.959 178.342 C 140.624 178.358 139.529 177.289 139.513 175.953 L 139.491 174.132 L 139.441 169.9 L 139.44 169.9 L 139.419 168.077 C 139.403 166.743 140.471 165.648 141.805 165.632 L 149.689 165.535 C 149.689 165.535 149.69 165.535 149.69 165.535 C 151.025 165.519 152.12 166.589 152.136 167.923 L 152.157 169.744 L 152.207 173.982 L 152.229 175.803 C 152.244 177.139 151.175 178.233 149.84 178.249 Z  M 144.231 169.837 C 143.926 169.841 143.683 170.091 143.687 170.395 L 143.724 173.531 C 143.727 173.835 143.976 174.079 144.281 174.076 L 147.416 174.039 C 147.721 174.035 147.966 173.785 147.962 173.481 L 147.925 170.345 C 147.922 170.041 147.671 169.797 147.366 169.8 L 144.231 169.837 Z " fill="rgb(47,55,68)"/><path d=" M 149.49 148.58 L 147.669 148.602 L 143.43 148.652 L 141.609 148.673 C 140.274 148.689 139.179 147.619 139.163 146.285 L 139.141 144.463 L 139.091 140.231 L 139.09 140.231 L 139.069 138.408 C 139.053 137.074 140.121 135.979 141.455 135.963 L 149.338 135.866 C 149.338 135.866 149.338 135.866 149.34 135.866 C 150.675 135.85 151.77 136.92 151.786 138.255 L 151.807 140.075 L 151.857 144.313 L 151.879 146.135 C 151.894 147.469 150.825 148.564 149.49 148.58 Z  M 143.881 140.168 C 143.576 140.172 143.333 140.422 143.336 140.727 L 143.373 143.862 C 143.377 144.166 143.626 144.41 143.931 144.407 L 147.066 144.37 C 147.371 144.366 147.616 144.116 147.612 143.812 L 147.575 140.677 C 147.571 140.372 147.321 140.128 147.016 140.131 L 143.881 140.168 Z " fill="rgb(47,55,68)"/></g></g></g></svg>