<?xml version="1.0" encoding="UTF-8" standalone="no"?><!-- Generator: Gravit.io --><svg xmlns="http://www.w3.org/2000/svg" xmlns:xlink="http://www.w3.org/1999/xlink" style="isolation:isolate" viewBox="0 0 120 120" width="120pt" height="120pt"><defs><clipPath id="_clipPath_8VEQnYd2ZoFMCdSLhotfrLhZfMeSPulk"><rect width="120" height="120"/></clipPath></defs><g clip-path="url(#_clipPath_8VEQnYd2ZoFMCdSLhotfrLhZfMeSPulk)"><rect width="120" height="120" style="fill:rgb(0,0,0)" fill-opacity="0"/><g><defs><filter id="WRMhGJhwDMkOwQA0mb9T1RGbJ5PLO9bO" x="-200%" y="-200%" width="400%" height="400%" filterUnits="objectBoundingBox" color-interpolation-filters="sRGB"><feOffset xmlns="http://www.w3.org/2000/svg" in="SourceGraphic" dx="0" dy="0"/><feGaussianBlur xmlns="http://www.w3.org/2000/svg" stdDeviation="2.146804531419514" result="pf_100_offsetBlur"/><feComposite xmlns="http://www.w3.org/2000/svg" in="SourceGraphic" in2="pf_100_offsetBlur" result="pf_100_inverse" operator="out"/><feFlood xmlns="http://www.w3.org/2000/svg" flood-color="#000000" flood-opacity="0.5" result="pf_100_color"/><feComposite xmlns="http://www.w3.org/2000/svg" in="pf_100_color" in2="pf_100_inverse" operator="in" result="pf_100_shadow"/><feComposite xmlns="http://www.w3.org/2000/svg" in="pf_100_shadow" in2="SourceGraphic" operator="over"/></filter></defs><g filter="url(#WRMhGJhwDMkOwQA0mb9T1RGbJ5PLO9bO)"><path d=" M 105.682 68.024 C 106.229 96.177 83.851 119.443 55.699 119.99 C 27.546 120.538 4.28 98.16 3.733 70.007 C 3.185 41.854 25.563 18.589 53.716 18.041 C 81.869 17.493 105.135 39.872 105.682 68.024 Z " fill="rgb(224,224,224)"/></g><path d=" M 22.43 108.478 C 22.346 108.013 22.244 107.396 22.139 106.764 C 20.336 95.854 17.194 80.082 16.244 69.579 C 14.621 51.636 33.328 49.408 33.328 49.408 L 43.839 49.408 L 46.255 49.408 C 53.389 49.408 59.445 54.637 60.486 61.694 L 64.245 102.977 L 68.549 118.098 C 64.712 119.177 60.688 119.82 56.533 119.967 L 52.952 119.971 C 41.41 119.583 30.811 115.345 22.43 108.478 Z " fill-rule="evenodd" fill="rgb(232,80,91)"/><g><g><g><path d=" M 93.318 81.724 C 93.318 81.724 95.558 78.43 98.844 79.918 C 102.131 81.406 102.946 81.723 104.467 82.107 C 105.99 82.49 108.915 81.619 109.338 82.41 C 109.762 83.201 108.948 84.243 107.36 84.833 C 105.773 85.422 103.47 85.348 103.47 85.348 L 107.474 87.756 C 107.474 87.756 112.141 87.197 112.907 87.913 C 113.673 88.63 113.21 89.606 113.21 89.606 C 113.21 89.606 115.095 89.509 115.301 90.321 C 115.508 91.132 115.453 91.599 114.858 91.785 C 114.858 91.785 115.27 91.607 116.008 92.177 C 116.638 92.664 116.066 93.953 115.276 94.053 L 115.007 94.094 C 115.007 94.094 107.566 95.23 107.37 95.182 C 106.241 94.907 99.798 92.078 96.486 90.609 C 95.267 90.068 93.855 90.225 92.782 91.018 L 83.998 97.515 L 80.613 88.062 L 93.318 81.724 Z " fill="rgb(255,190,157)"/><path d=" M 103.571 87.992 C 103.559 88.011 103.897 88.235 104.478 88.598 C 105.06 88.961 105.884 89.463 106.846 90.039 L 106.871 90.053 L 106.901 90.052 C 107.407 90.022 107.952 89.99 108.519 89.957 C 110.007 89.864 111.351 89.78 112.388 89.715 C 112.85 89.681 113.241 89.652 113.561 89.628 C 113.837 89.603 113.99 89.583 113.989 89.569 C 113.988 89.555 113.835 89.55 113.557 89.551 C 113.237 89.557 112.844 89.565 112.382 89.575 C 111.87 89.592 111.283 89.613 110.64 89.635 C 109.979 89.673 109.261 89.715 108.507 89.758 C 107.941 89.795 107.394 89.83 106.888 89.862 L 106.942 89.875 C 105.974 89.31 105.137 88.83 104.539 88.496 C 103.941 88.161 103.582 87.973 103.571 87.992 Z " fill="rgb(170,101,80)"/><path d=" M 104.447 90.188 C 104.409 90.237 105.048 90.691 105.517 91.506 C 105.997 92.315 106.079 93.095 106.139 93.085 C 106.188 93.093 106.194 92.261 105.688 91.406 C 105.192 90.545 104.464 90.142 104.447 90.188 Z " fill="rgb(170,101,80)"/><path d=" M 99.461 82.413 C 99.439 82.402 99.337 82.618 99.08 82.929 C 98.825 83.237 98.391 83.64 97.757 83.881 L 97.59 83.945 L 97.743 84.04 C 98.215 84.333 98.727 84.718 99.216 85.183 C 100.052 85.98 100.641 86.86 100.996 87.528 C 101.356 88.195 101.507 88.645 101.54 88.633 C 101.553 88.629 101.525 88.514 101.463 88.308 C 101.396 88.104 101.288 87.811 101.122 87.463 C 100.793 86.769 100.209 85.855 99.353 85.039 C 98.853 84.564 98.324 84.176 97.835 83.888 L 97.822 84.047 C 98.489 83.775 98.925 83.331 99.164 82.994 C 99.405 82.652 99.475 82.418 99.461 82.413 Z " fill="rgb(170,101,80)"/><path d=" M 103.081 85.003 C 103.045 85.049 103.954 85.785 105.175 86.542 C 105.786 86.921 106.354 87.238 106.773 87.451 C 107.193 87.665 107.461 87.779 107.473 87.756 C 107.501 87.704 106.493 87.129 105.281 86.373 C 104.716 86.014 104.204 85.687 103.737 85.391 C 103.343 85.138 103.098 84.981 103.081 85.003 Z " fill="rgb(170,101,80)"/><path d=" M 106.943 91.971 C 106.946 92.001 107.394 91.975 108.117 91.961 C 108.841 91.944 109.84 91.954 110.946 91.984 C 112.052 92.014 113.057 92.03 113.784 92.005 C 114.511 91.983 114.959 91.934 114.957 91.908 C 114.956 91.879 114.507 91.879 113.783 91.865 C 112.997 91.843 112.026 91.815 110.951 91.785 C 109.844 91.756 108.838 91.767 108.111 91.82 C 107.385 91.871 106.94 91.947 106.943 91.971 Z " fill="rgb(170,101,80)"/><path d=" M 105.454 91.225 C 105.419 91.263 105.893 91.714 106.607 92.075 C 107.318 92.438 107.962 92.554 107.973 92.504 C 107.988 92.448 107.386 92.25 106.696 91.897 C 106.004 91.549 105.49 91.179 105.454 91.225 Z " fill="rgb(170,101,80)"/></g></g><path d=" M 60.88 58.614 L 72.573 86.149 L 93.843 84.698 L 95.252 94.573 C 95.252 94.573 70.288 103.127 65.476 100.144 C 62.239 98.137 54.726 78.783 54.726 78.783 L 60.88 58.614 Z " fill="rgb(232,80,91)"/><path d=" M 69.053 119.653 C 69.044 119.656 69.002 119.546 68.931 119.332 C 68.861 119.108 68.761 118.793 68.634 118.39 C 68.384 117.554 68.025 116.355 67.577 114.856 C 66.689 111.84 65.46 107.602 64.061 102.722 L 64.058 102.712 L 64.056 102.701 C 63.794 100.93 63.528 99.042 63.295 97.094 C 62.91 93.896 62.626 90.841 62.37 88.064 C 62.116 85.288 61.879 82.79 61.651 80.694 C 61.429 78.598 61.218 76.905 61.076 75.735 C 61.007 75.157 60.952 74.705 60.914 74.387 C 60.881 74.078 60.868 73.915 60.881 73.913 C 60.892 73.911 60.926 74.071 60.982 74.377 C 61.035 74.693 61.111 75.143 61.208 75.716 C 61.39 76.882 61.638 78.572 61.891 80.666 C 62.15 82.76 62.412 85.26 62.683 88.035 C 62.956 90.81 63.25 93.861 63.634 97.053 C 63.867 98.999 64.128 100.883 64.384 102.652 L 64.379 102.631 C 65.76 107.516 66.948 111.766 67.781 114.798 C 68.189 116.308 68.516 117.517 68.744 118.358 C 68.848 118.768 68.93 119.089 68.988 119.316 C 69.04 119.535 69.063 119.65 69.053 119.653 Z " fill="rgb(38,50,56)"/><path d=" M 69.713 89.967 C 69.631 89.932 70.04 88.861 70.872 87.73 C 71.698 86.594 72.595 85.881 72.653 85.948 C 72.722 86.021 71.95 86.827 71.147 87.931 C 70.338 89.031 69.803 90.01 69.713 89.967 Z " fill="rgb(38,50,56)"/><path d=" M 72.517 91.146 C 72.435 91.176 72.027 90.066 72.035 88.627 C 72.033 87.188 72.445 86.081 72.527 86.111 C 72.625 86.136 72.373 87.244 72.376 88.628 C 72.368 90.012 72.615 91.121 72.517 91.146 Z " fill="rgb(38,50,56)"/><path d=" M 46.647 68.225 C 46.647 68.237 46.494 68.255 46.216 68.276 C 45.905 68.295 45.51 68.32 45.04 68.35 C 44.046 68.405 42.673 68.469 41.155 68.529 C 39.637 68.59 38.263 68.635 37.268 68.659 C 36.797 68.667 36.402 68.673 36.09 68.679 C 35.812 68.68 35.658 68.674 35.657 68.663 C 35.657 68.651 35.811 68.633 36.088 68.613 C 36.4 68.593 36.794 68.568 37.265 68.538 C 38.259 68.483 39.632 68.419 41.15 68.359 C 42.666 68.299 44.04 68.253 45.035 68.229 C 45.506 68.221 45.901 68.215 46.213 68.209 C 46.492 68.208 46.646 68.214 46.647 68.225 Z " fill="rgb(250,250,250)"/><path d=" M 23.105 87.846 C 23.108 87.895 22.239 87.983 21.177 88.147 C 20.114 88.308 19.259 88.483 19.247 88.436 C 19.236 88.392 20.079 88.14 21.151 87.978 C 22.222 87.813 23.103 87.801 23.105 87.846 Z " fill="rgb(250,250,250)"/><path d=" M 61.298 85.796 C 61.299 85.843 59.993 85.905 58.382 85.934 C 56.77 85.963 55.463 85.948 55.462 85.901 C 55.461 85.854 56.767 85.792 58.379 85.763 C 59.99 85.735 61.297 85.749 61.298 85.796 Z " fill="rgb(250,250,250)"/><path d=" M 67.01 74.836 C 67.027 74.881 65.906 75.346 64.507 75.875 C 63.108 76.404 61.96 76.798 61.943 76.754 C 61.926 76.71 63.047 76.245 64.447 75.715 C 65.846 75.186 66.994 74.793 67.01 74.836 Z " fill="rgb(250,250,250)"/><path d=" M 72.232 86.184 C 72.239 86.194 72.119 86.276 71.898 86.417 C 71.678 86.559 71.35 86.749 70.937 86.969 C 70.111 87.412 68.928 87.951 67.565 88.39 C 66.2 88.826 64.924 89.077 63.996 89.197 C 63.531 89.258 63.154 89.294 62.892 89.307 C 62.631 89.322 62.486 89.325 62.485 89.313 C 62.484 89.301 62.627 89.276 62.886 89.241 C 63.144 89.208 63.518 89.154 63.978 89.078 C 64.897 88.927 66.159 88.661 67.513 88.227 C 68.865 87.792 70.046 87.275 70.882 86.862 C 71.299 86.656 71.635 86.483 71.865 86.359 C 72.096 86.237 72.226 86.174 72.232 86.184 Z " fill="rgb(250,250,250)"/><path d=" M 76.488 99.453 C 76.477 99.457 76.398 99.284 76.264 98.965 C 76.196 98.806 76.116 98.611 76.036 98.379 C 75.955 98.147 75.854 97.886 75.768 97.589 C 75.579 97.001 75.395 96.286 75.232 95.485 C 75.08 94.681 74.954 93.789 74.89 92.847 C 74.834 91.904 74.846 91.003 74.896 90.186 C 74.955 89.37 75.047 88.638 75.161 88.031 C 75.208 87.725 75.275 87.453 75.326 87.214 C 75.376 86.973 75.43 86.769 75.478 86.603 C 75.571 86.27 75.627 86.088 75.638 86.091 C 75.65 86.094 75.615 86.282 75.543 86.618 C 75.505 86.787 75.461 86.992 75.42 87.233 C 75.378 87.473 75.319 87.745 75.28 88.051 C 75.182 88.657 75.103 89.385 75.053 90.196 C 75.012 91.007 75.005 91.9 75.061 92.836 C 75.124 93.771 75.244 94.656 75.387 95.455 C 75.54 96.252 75.71 96.964 75.884 97.554 C 75.962 97.852 76.054 98.114 76.126 98.347 C 76.197 98.581 76.267 98.78 76.326 98.942 C 76.44 99.266 76.499 99.448 76.488 99.453 Z " fill="rgb(250,250,250)"/><path d=" M 87.32 96.632 C 87.31 96.639 87.22 96.512 87.064 96.276 C 86.985 96.16 86.892 96.014 86.795 95.838 C 86.697 95.664 86.578 95.468 86.47 95.24 C 86.237 94.792 85.999 94.238 85.773 93.608 C 85.557 92.976 85.359 92.266 85.218 91.507 C 85.083 90.747 85.018 90.013 84.997 89.345 C 84.986 88.677 85.014 88.074 85.074 87.572 C 85.095 87.321 85.138 87.096 85.168 86.898 C 85.197 86.699 85.232 86.53 85.265 86.393 C 85.328 86.118 85.368 85.968 85.379 85.97 C 85.411 85.977 85.277 86.586 85.194 87.584 C 85.15 88.082 85.135 88.679 85.155 89.34 C 85.183 90.001 85.252 90.726 85.386 91.477 C 85.525 92.227 85.716 92.929 85.922 93.557 C 86.137 94.183 86.361 94.736 86.578 95.187 C 87.008 96.092 87.348 96.615 87.32 96.632 Z " fill="rgb(250,250,250)"/><path d=" M 27.478 100.405 C 27.483 100.427 27.145 100.532 26.589 100.662 C 26.033 100.792 25.258 100.942 24.394 101.056 C 23.529 101.169 22.741 101.224 22.171 101.242 C 21.6 101.26 21.246 101.245 21.246 101.223 C 21.245 101.198 21.597 101.17 22.163 101.122 C 22.73 101.073 23.512 100.999 24.372 100.887 C 25.231 100.774 26.005 100.644 26.565 100.544 C 27.125 100.444 27.472 100.381 27.478 100.405 Z " fill="rgb(250,250,250)"/><path d=" M 63.155 99.492 C 63.154 99.539 60.511 99.535 57.253 99.482 C 53.993 99.429 51.351 99.348 51.352 99.301 C 51.353 99.254 53.995 99.258 57.255 99.311 C 60.514 99.364 63.156 99.445 63.155 99.492 Z " fill="rgb(250,250,250)"/><path d=" M 66.447 110.498 C 66.447 110.502 66.409 110.505 66.335 110.508 C 66.252 110.511 66.144 110.515 66.007 110.519 C 65.708 110.525 65.286 110.534 64.747 110.545 C 64.2 110.551 63.531 110.572 62.754 110.594 C 61.977 110.612 61.092 110.642 60.115 110.68 C 56.204 110.817 50.805 111.122 44.843 111.457 C 38.878 111.794 33.474 112.041 29.56 112.13 C 27.603 112.175 26.019 112.198 24.924 112.191 C 24.385 112.188 23.962 112.185 23.663 112.184 C 23.527 112.181 23.419 112.179 23.336 112.178 C 23.262 112.175 23.224 112.172 23.224 112.17 C 23.224 112.167 23.262 112.163 23.336 112.16 C 23.418 112.157 23.527 112.154 23.663 112.149 C 23.962 112.143 24.384 112.135 24.923 112.124 C 26.017 112.111 27.601 112.07 29.556 112.01 C 33.468 111.89 38.869 111.624 44.833 111.286 C 50.796 110.952 56.197 110.665 60.111 110.559 C 61.089 110.529 61.974 110.507 62.752 110.498 C 63.529 110.486 64.199 110.474 64.747 110.479 C 65.286 110.481 65.708 110.483 66.007 110.485 C 66.144 110.487 66.252 110.489 66.335 110.491 C 66.409 110.493 66.447 110.495 66.447 110.498 Z " fill="rgb(250,250,250)"/><path d=" M 33.2 53.273 C 33.204 53.298 32.756 53.388 32.035 53.542 C 31.314 53.696 30.32 53.923 29.235 54.216 C 28.149 54.511 27.178 54.817 26.477 55.048 C 25.777 55.279 25.345 55.429 25.335 55.405 C 25.331 55.394 25.434 55.343 25.624 55.26 C 25.813 55.177 26.091 55.065 26.437 54.935 C 27.13 54.674 28.1 54.348 29.19 54.052 C 30.281 53.757 31.282 53.548 32.012 53.423 C 32.376 53.361 32.673 53.317 32.878 53.293 C 33.084 53.269 33.198 53.261 33.2 53.273 Z " fill="rgb(250,250,250)"/><path d=" M 53.891 53.283 C 53.873 53.332 53.085 53.059 52.074 52.937 C 51.064 52.808 50.233 52.88 50.229 52.828 C 50.22 52.786 51.06 52.636 52.095 52.768 C 53.131 52.893 53.909 53.245 53.891 53.283 Z " fill="rgb(250,250,250)"/><path d=" M 18.064 70.919 C 18.064 70.919 26.762 98.591 32.274 103.62 C 37.786 108.648 47.093 106.157 48.846 102.676 C 50.598 99.195 62.733 62.683 62.733 62.683 L 49.457 57.98 L 39.952 86.918 L 33.221 61.055 C 33.221 61.055 28.182 52.172 21.381 56.429 C 14.579 60.687 18.064 70.919 18.064 70.919 Z " fill="rgb(232,80,91)"/><path d=" M 19.135 74.205 C 19.138 74.204 19.152 74.241 19.176 74.315 C 19.201 74.391 19.236 74.501 19.281 74.645 C 19.373 74.941 19.506 75.376 19.681 75.946 C 20.034 77.092 20.553 78.777 21.221 80.947 C 21.898 83.116 22.736 85.767 23.761 88.826 C 24.274 90.356 24.835 91.987 25.468 93.703 C 26.106 95.416 26.781 97.231 27.779 98.991 C 28.768 100.748 30.019 102.491 31.673 103.947 C 33.302 105.413 35.375 106.57 37.706 106.958 C 38.867 107.154 40.084 107.147 41.288 106.958 C 42.492 106.768 43.687 106.386 44.787 105.78 C 45.891 105.179 46.928 104.411 47.871 103.523 C 48.346 103.082 48.793 102.605 49.208 102.097 C 49.629 101.594 50.007 101.052 50.335 100.478 C 50.668 99.9 50.931 99.309 51.118 98.649 C 51.324 98.001 51.531 97.35 51.739 96.694 C 52.155 95.383 52.576 94.057 53.002 92.717 C 53.853 90.038 54.723 87.302 55.608 84.516 C 57.38 78.946 59.215 73.178 61.093 67.272 C 61.589 65.715 62.082 64.167 62.571 62.632 L 62.673 62.843 C 58.489 61.269 54.389 59.728 50.402 58.229 L 50.62 58.121 C 49.807 60.693 48.839 63.152 47.889 65.561 C 46.922 67.962 45.974 70.315 45.047 72.614 C 43.201 77.213 41.454 81.606 40.09 85.83 L 39.934 86.315 L 39.812 85.821 C 38.296 79.653 37.006 73.987 35.637 69.03 C 35.298 67.79 34.946 66.598 34.593 65.451 C 34.239 64.305 33.868 63.211 33.445 62.187 C 32.606 60.146 31.496 58.381 30.076 57.219 C 28.673 56.039 27.048 55.515 25.644 55.373 C 24.229 55.212 23.011 55.429 22.077 55.707 C 21.138 55.995 20.476 56.368 20.044 56.632 C 19.831 56.768 19.679 56.886 19.571 56.957 C 19.464 57.03 19.407 57.063 19.407 57.063 C 19.407 57.063 19.455 57.019 19.557 56.939 C 19.661 56.862 19.809 56.737 20.02 56.594 C 20.446 56.317 21.106 55.928 22.051 55.623 C 22.99 55.328 24.22 55.095 25.658 55.245 C 27.082 55.375 28.741 55.895 30.183 57.09 C 31.639 58.265 32.776 60.055 33.633 62.109 C 34.064 63.139 34.442 64.238 34.803 65.386 C 35.162 66.533 35.52 67.727 35.864 68.967 C 37.255 73.926 38.563 79.591 40.093 85.751 L 39.815 85.742 C 41.173 81.5 42.914 77.099 44.753 72.496 C 45.677 70.196 46.621 67.842 47.585 65.44 C 48.532 63.034 49.496 60.574 50.3 58.023 L 50.354 57.854 L 50.519 57.916 C 54.508 59.413 58.608 60.952 62.793 62.524 L 62.945 62.581 L 62.896 62.735 C 62.407 64.271 61.914 65.818 61.419 67.375 C 59.537 73.283 57.7 79.05 55.926 84.62 C 55.038 87.405 54.166 90.14 53.312 92.819 C 52.884 94.159 52.461 95.484 52.043 96.795 C 51.834 97.45 51.627 98.101 51.42 98.749 L 51.263 99.234 L 51.073 99.718 C 50.929 100.031 50.784 100.342 50.608 100.634 C 50.269 101.226 49.879 101.781 49.449 102.295 C 49.023 102.813 48.566 103.299 48.081 103.747 C 47.119 104.651 46.062 105.43 44.929 106.044 C 43.797 106.665 42.567 107.055 41.333 107.246 C 40.099 107.437 38.855 107.442 37.66 107.237 C 35.265 106.832 33.149 105.64 31.498 104.144 C 29.821 102.658 28.56 100.887 27.568 99.108 C 26.566 97.325 25.894 95.494 25.265 93.777 C 24.638 92.056 24.084 90.42 23.58 88.887 C 22.571 85.819 21.752 83.161 21.094 80.986 C 20.437 78.811 19.944 77.116 19.615 75.966 C 19.454 75.391 19.332 74.953 19.248 74.655 C 19.209 74.509 19.18 74.397 19.16 74.319 C 19.141 74.244 19.133 74.205 19.135 74.205 Z " fill="rgb(38,50,56)"/><path d=" M 34.503 64.79 C 34.502 64.796 34.443 64.797 34.332 64.794 C 34.201 64.788 34.04 64.781 33.844 64.772 C 33.422 64.746 32.81 64.721 32.053 64.707 C 30.541 64.675 28.448 64.729 26.158 65.014 C 23.868 65.303 21.826 65.767 20.369 66.171 C 19.639 66.372 19.052 66.547 18.649 66.676 C 18.462 66.733 18.308 66.78 18.182 66.818 C 18.075 66.849 18.018 66.862 18.016 66.857 C 18.014 66.851 18.067 66.827 18.171 66.786 C 18.294 66.739 18.445 66.682 18.628 66.613 C 19.025 66.464 19.608 66.272 20.336 66.055 C 21.789 65.62 23.836 65.136 26.137 64.845 C 28.437 64.559 30.541 64.524 32.057 64.586 C 32.815 64.616 33.428 64.659 33.849 64.705 C 34.044 64.727 34.204 64.745 34.335 64.759 C 34.445 64.774 34.503 64.784 34.503 64.79 Z " fill="rgb(250,250,250)"/><path d=" M 37.046 73.913 C 37.056 73.959 33.301 74.766 28.662 75.714 C 24.02 76.663 20.251 77.394 20.242 77.348 C 20.232 77.302 23.986 76.496 28.627 75.547 C 33.267 74.598 37.037 73.867 37.046 73.913 Z " fill="rgb(250,250,250)"/><path d=" M 55.914 82.178 C 55.907 82.188 55.748 82.095 55.464 81.918 C 55.183 81.74 54.77 81.489 54.256 81.188 C 53.229 80.586 51.773 79.812 50.099 79.107 C 48.422 78.405 46.851 77.908 45.701 77.596 C 45.126 77.439 44.658 77.321 44.334 77.244 C 44.01 77.166 43.831 77.117 43.834 77.105 C 43.836 77.093 44.019 77.12 44.348 77.179 C 44.678 77.236 45.151 77.337 45.731 77.479 C 46.893 77.762 48.479 78.244 50.165 78.95 C 51.848 79.659 53.303 80.454 54.318 81.085 C 54.826 81.4 55.23 81.667 55.501 81.863 C 55.773 82.057 55.921 82.168 55.914 82.178 Z " fill="rgb(250,250,250)"/><path d=" M 58.957 72.357 C 58.946 72.364 58.838 72.221 58.635 71.969 C 58.433 71.718 58.124 71.367 57.705 70.972 C 56.875 70.175 55.548 69.258 53.927 68.571 C 52.306 67.882 50.75 67.491 49.629 67.209 C 49.089 67.076 48.641 66.966 48.297 66.881 C 47.983 66.802 47.81 66.753 47.812 66.741 C 47.815 66.73 47.992 66.757 48.311 66.816 C 48.63 66.875 49.09 66.967 49.656 67.091 C 50.786 67.344 52.356 67.719 53.994 68.414 C 55.633 69.108 56.971 70.055 57.789 70.885 C 58.202 71.297 58.5 71.663 58.688 71.929 C 58.786 72.059 58.849 72.169 58.896 72.241 C 58.941 72.314 58.962 72.353 58.957 72.357 Z " fill="rgb(250,250,250)"/><path d=" M 39.756 84.523 C 39.757 84.529 39.701 84.544 39.593 84.567 C 39.466 84.593 39.31 84.624 39.121 84.662 C 38.685 84.747 38.097 84.861 37.383 85 C 35.917 85.294 33.901 85.742 31.702 86.344 C 29.503 86.948 27.54 87.591 26.129 88.086 C 25.443 88.331 24.88 88.532 24.462 88.681 C 24.28 88.745 24.13 88.798 24.007 88.841 C 23.903 88.876 23.847 88.892 23.845 88.886 C 23.843 88.881 23.894 88.854 23.995 88.809 C 24.114 88.758 24.26 88.695 24.438 88.619 C 24.823 88.456 25.387 88.234 26.088 87.972 C 27.49 87.448 29.452 86.785 31.657 86.18 C 33.861 85.576 35.887 85.145 37.36 84.882 C 38.097 84.749 38.695 84.653 39.11 84.596 C 39.301 84.571 39.459 84.55 39.588 84.533 C 39.697 84.521 39.755 84.517 39.756 84.523 Z " fill="rgb(250,250,250)"/><path d=" M 39.314 107.371 C 39.309 107.374 39.268 107.307 39.195 107.177 C 39.115 107.03 39.01 106.84 38.881 106.602 C 38.813 106.476 38.738 106.336 38.658 106.185 C 38.581 106.03 38.51 105.856 38.427 105.672 C 38.27 105.3 38.065 104.886 37.91 104.401 C 37.825 104.16 37.737 103.909 37.645 103.647 C 37.555 103.385 37.491 103.102 37.408 102.815 C 37.233 102.242 37.122 101.611 36.989 100.951 C 36.773 99.623 36.648 98.142 36.698 96.588 C 36.767 95.034 37.005 93.567 37.322 92.259 C 37.505 91.611 37.664 90.991 37.883 90.432 C 37.987 90.152 38.073 89.875 38.183 89.62 C 38.294 89.366 38.402 89.122 38.504 88.889 C 38.696 88.417 38.932 88.02 39.118 87.662 C 39.214 87.484 39.298 87.316 39.386 87.168 C 39.478 87.023 39.563 86.89 39.641 86.769 C 39.788 86.542 39.906 86.36 39.998 86.22 C 40.08 86.096 40.126 86.032 40.131 86.035 C 40.136 86.039 40.1 86.109 40.026 86.239 C 39.943 86.383 39.833 86.57 39.698 86.803 C 39.624 86.926 39.544 87.061 39.457 87.208 C 39.374 87.358 39.294 87.528 39.202 87.706 C 39.025 88.068 38.798 88.466 38.615 88.938 C 38.516 89.171 38.413 89.415 38.305 89.669 C 38.199 89.924 38.117 90.2 38.016 90.479 C 37.804 91.035 37.652 91.653 37.475 92.296 C 37.169 93.597 36.937 95.052 36.869 96.594 C 36.819 98.136 36.938 99.605 37.144 100.925 C 37.272 101.58 37.376 102.208 37.545 102.778 C 37.624 103.065 37.685 103.346 37.771 103.608 C 37.859 103.869 37.943 104.12 38.024 104.36 C 38.171 104.845 38.366 105.26 38.515 105.633 C 38.593 105.819 38.659 105.994 38.731 106.15 C 38.807 106.303 38.876 106.444 38.94 106.572 C 39.058 106.815 39.152 107.01 39.225 107.16 C 39.288 107.296 39.319 107.368 39.314 107.371 Z " fill="rgb(250,250,250)"/><path d=" M 53.385 92.052 C 53.385 92.058 53.331 92.059 53.23 92.055 C 53.108 92.047 52.962 92.039 52.786 92.029 C 52.593 92.018 52.358 92 52.087 91.955 C 51.816 91.912 51.504 91.882 51.169 91.801 C 50.83 91.731 50.459 91.653 50.071 91.534 C 49.676 91.434 49.268 91.284 48.837 91.132 C 47.985 90.802 47.069 90.378 46.168 89.828 C 45.269 89.272 44.473 88.653 43.792 88.042 C 43.465 87.723 43.142 87.43 42.877 87.122 C 42.741 86.971 42.605 86.829 42.484 86.685 C 42.366 86.538 42.254 86.397 42.145 86.261 C 41.923 85.996 41.754 85.733 41.597 85.507 C 41.437 85.285 41.314 85.083 41.22 84.914 C 41.133 84.761 41.061 84.634 41 84.528 C 40.952 84.439 40.929 84.391 40.934 84.388 C 40.939 84.385 40.972 84.427 41.03 84.511 C 41.097 84.611 41.179 84.733 41.276 84.879 C 41.378 85.041 41.508 85.237 41.675 85.453 C 41.838 85.671 42.013 85.928 42.24 86.185 C 42.35 86.318 42.464 86.456 42.584 86.599 C 42.706 86.74 42.843 86.878 42.98 87.026 C 43.248 87.327 43.571 87.613 43.898 87.926 C 44.577 88.524 45.368 89.132 46.257 89.683 C 47.149 90.227 48.053 90.651 48.893 90.985 C 49.319 91.14 49.721 91.293 50.11 91.398 C 50.494 91.523 50.859 91.606 51.194 91.683 C 51.525 91.771 51.834 91.809 52.102 91.861 C 52.369 91.914 52.602 91.942 52.793 91.963 C 52.967 91.985 53.112 92.004 53.232 92.02 C 53.332 92.035 53.385 92.046 53.385 92.052 Z " fill="rgb(250,250,250)"/><g opacity="0.399994"><path d=" M 35.618 69.415 C 35.618 69.421 35.558 69.429 35.444 69.439 C 35.311 69.448 35.146 69.46 34.946 69.473 C 34.514 69.497 33.888 69.542 33.117 69.611 C 31.575 69.747 29.451 70.019 27.141 70.516 C 24.832 71.017 22.784 71.645 21.323 72.157 C 20.593 72.412 20.004 72.629 19.6 72.786 C 19.412 72.856 19.258 72.914 19.133 72.96 C 19.025 72.998 18.967 73.016 18.965 73.01 C 18.963 73.005 19.016 72.977 19.119 72.929 C 19.241 72.874 19.392 72.807 19.576 72.725 C 19.972 72.549 20.555 72.314 21.283 72.044 C 22.737 71.501 24.787 70.851 27.105 70.349 C 29.423 69.851 31.559 69.596 33.107 69.49 C 33.882 69.437 34.509 69.41 34.944 69.407 C 35.144 69.406 35.31 69.405 35.443 69.405 C 35.557 69.406 35.618 69.409 35.618 69.415 Z " fill="rgb(0,0,0)"/></g><g opacity="0.399994"><path d=" M 37.884 80.032 C 37.885 80.038 37.831 80.051 37.728 80.071 C 37.606 80.092 37.458 80.118 37.278 80.148 C 36.861 80.217 36.302 80.31 35.623 80.422 C 34.226 80.658 32.302 81.018 30.196 81.503 C 28.09 81.99 26.202 82.509 24.843 82.908 C 24.183 83.105 23.64 83.267 23.235 83.387 C 23.06 83.438 22.915 83.48 22.796 83.515 C 22.695 83.542 22.641 83.554 22.64 83.548 C 22.638 83.543 22.688 83.52 22.785 83.482 C 22.902 83.439 23.043 83.387 23.214 83.324 C 23.587 83.19 24.131 83.007 24.808 82.793 C 26.16 82.363 28.047 81.824 30.157 81.336 C 32.268 80.851 34.2 80.509 35.604 80.303 C 36.305 80.199 36.875 80.125 37.27 80.082 C 37.45 80.064 37.6 80.049 37.724 80.037 C 37.828 80.028 37.883 80.026 37.884 80.032 Z " fill="rgb(0,0,0)"/></g><g opacity="0.199997"><path d=" M 21.635 82.513 C 22.815 88.802 25.002 97.244 27.461 103.151 C 28.462 105.557 29.691 107.55 31.801 109.081 C 34.3 110.895 37.043 111.304 40.131 111.334 C 42.338 111.356 44.307 111.013 46.453 110.498 C 48.6 109.984 50.379 107.86 51.72 106.107 C 53.339 103.99 54.033 99.688 54.323 97.039 C 55.072 90.184 55.164 91.378 55.914 84.523 C 54.688 87.957 54.098 89.698 53.021 93.652 C 51.944 97.607 51.375 99.451 48.846 102.676 C 46.317 105.901 41.958 107.694 37.884 107.248 C 32.97 106.711 29.31 102.657 27.369 98.11 C 25.427 93.564 23.732 87.288 21.716 82.774" fill="rgb(0,0,0)"/></g><g opacity="0.399994"><path d=" M 39.097 86.467 C 39.1 86.472 39.054 86.511 38.965 86.58 C 38.858 86.659 38.726 86.757 38.566 86.875 C 38.217 87.126 37.72 87.502 37.119 87.98 C 36.515 88.456 35.818 89.05 35.069 89.736 C 34.325 90.428 33.532 91.215 32.743 92.082 C 31.959 92.953 31.255 93.821 30.641 94.63 C 30.033 95.445 29.511 96.197 29.098 96.845 C 28.682 97.491 28.358 98.023 28.143 98.396 C 28.041 98.567 27.957 98.707 27.889 98.821 C 27.829 98.918 27.795 98.967 27.79 98.964 C 27.785 98.961 27.808 98.907 27.859 98.805 C 27.919 98.687 27.994 98.541 28.085 98.363 C 28.282 97.98 28.592 97.437 28.996 96.781 C 29.398 96.122 29.911 95.359 30.515 94.536 C 31.125 93.718 31.829 92.843 32.617 91.967 C 33.409 91.096 34.21 90.309 34.963 89.62 C 35.721 88.938 36.429 88.35 37.044 87.885 C 37.658 87.417 38.166 87.056 38.528 86.821 C 38.696 86.713 38.833 86.624 38.945 86.552 C 39.042 86.491 39.094 86.462 39.097 86.467 Z " fill="rgb(0,0,0)"/></g><g opacity="0.399994"><path d=" M 49.156 102.548 C 49.153 102.553 49.096 102.516 48.99 102.444 C 48.87 102.359 48.719 102.252 48.532 102.12 C 48.333 101.98 48.092 101.803 47.829 101.578 C 47.563 101.356 47.249 101.115 46.936 100.812 C 46.776 100.663 46.609 100.507 46.435 100.346 C 46.261 100.182 46.095 99.998 45.916 99.815 C 45.551 99.453 45.201 99.031 44.824 98.594 C 44.097 97.697 43.359 96.662 42.691 95.509 C 42.033 94.348 41.513 93.187 41.107 92.107 C 40.92 91.56 40.733 91.045 40.605 90.547 C 40.538 90.299 40.463 90.063 40.41 89.831 C 40.358 89.599 40.309 89.376 40.261 89.163 C 40.158 88.739 40.109 88.346 40.051 88.005 C 39.991 87.664 39.959 87.367 39.94 87.124 C 39.92 86.896 39.904 86.712 39.891 86.565 C 39.883 86.438 39.881 86.37 39.887 86.37 C 39.892 86.369 39.906 86.436 39.926 86.562 C 39.947 86.707 39.973 86.891 40.006 87.116 C 40.035 87.357 40.076 87.651 40.145 87.989 C 40.212 88.328 40.268 88.717 40.379 89.136 C 40.43 89.348 40.483 89.569 40.537 89.799 C 40.594 90.029 40.671 90.263 40.741 90.508 C 40.874 91.001 41.065 91.511 41.255 92.052 C 41.666 93.121 42.186 94.272 42.839 95.424 C 43.502 96.568 44.231 97.598 44.946 98.494 C 45.317 98.931 45.66 99.354 46.018 99.717 C 46.194 99.902 46.357 100.087 46.527 100.252 C 46.698 100.415 46.861 100.573 47.018 100.723 C 47.324 101.031 47.631 101.277 47.89 101.505 C 48.146 101.736 48.379 101.92 48.572 102.067 C 48.751 102.209 48.896 102.325 49.01 102.417 C 49.109 102.498 49.16 102.543 49.156 102.548 Z " fill="rgb(0,0,0)"/></g><g opacity="0.399994"><path d=" M 54.4 86.008 C 54.4 86.02 54.206 86.024 53.855 86.023 C 53.679 86.025 53.464 86.021 53.215 85.999 C 52.967 85.979 52.682 85.968 52.371 85.92 C 52.059 85.881 51.717 85.834 51.355 85.757 C 50.989 85.695 50.607 85.592 50.204 85.49 C 49.403 85.263 48.538 84.957 47.665 84.553 C 46.797 84.139 46.009 83.667 45.323 83.196 C 44.987 82.95 44.664 82.722 44.383 82.48 C 44.092 82.251 43.839 82.017 43.609 81.802 C 43.373 81.593 43.183 81.381 43.009 81.202 C 42.833 81.025 42.693 80.862 42.582 80.725 C 42.357 80.455 42.237 80.303 42.247 80.295 C 42.255 80.288 42.392 80.426 42.632 80.681 C 42.75 80.81 42.896 80.965 43.077 81.136 C 43.257 81.307 43.452 81.512 43.691 81.713 C 43.924 81.921 44.18 82.148 44.472 82.37 C 44.754 82.605 45.077 82.827 45.412 83.066 C 46.097 83.527 46.878 83.989 47.738 84.398 C 48.601 84.799 49.456 85.105 50.247 85.339 C 50.645 85.443 51.022 85.551 51.383 85.618 C 51.741 85.701 52.078 85.754 52.387 85.8 C 52.694 85.856 52.976 85.875 53.223 85.904 C 53.47 85.935 53.683 85.948 53.858 85.957 C 54.207 85.978 54.4 85.996 54.4 86.008 Z " fill="rgb(0,0,0)"/></g><g opacity="0.399994"><path d=" M 58.072 76.455 C 58.055 76.499 55.225 75.41 51.753 74.022 C 48.28 72.634 45.479 71.474 45.496 71.43 C 45.514 71.387 48.343 72.476 51.817 73.864 C 55.289 75.251 58.09 76.412 58.072 76.455 Z " fill="rgb(0,0,0)"/></g><g opacity="0.399994"><path d=" M 61.049 67.244 C 61.043 67.254 60.88 67.177 60.59 67.027 C 60.274 66.862 59.861 66.648 59.364 66.39 C 58.329 65.851 56.892 65.123 55.283 64.363 C 53.673 63.604 52.197 62.958 51.124 62.501 C 50.609 62.282 50.181 62.1 49.852 61.96 C 49.553 61.831 49.389 61.755 49.393 61.744 C 49.397 61.733 49.569 61.788 49.877 61.898 C 50.185 62.007 50.627 62.174 51.17 62.389 C 52.256 62.818 53.743 63.448 55.356 64.209 C 56.968 64.97 58.399 65.717 59.421 66.283 C 59.932 66.566 60.342 66.801 60.622 66.969 C 60.903 67.136 61.055 67.234 61.049 67.244 Z " fill="rgb(0,0,0)"/></g><g opacity="0.399994"><path d=" M 67.342 115.588 C 67.344 115.636 57.637 116.077 45.664 116.576 C 33.686 117.074 23.978 117.439 23.976 117.393 C 23.974 117.345 33.679 116.904 45.657 116.405 C 57.63 115.907 67.34 115.541 67.342 115.588 Z " fill="rgb(0,0,0)"/></g><g opacity="0.399994"><path d=" M 70.276 81.416 C 70.288 81.461 68.435 81.981 66.137 82.577 C 63.839 83.173 61.967 83.619 61.955 83.573 C 61.943 83.527 63.796 83.007 66.094 82.411 C 68.392 81.816 70.265 81.37 70.276 81.416 Z " fill="rgb(0,0,0)"/></g><g opacity="0.399994"><path d=" M 69 100.729 C 68.994 100.73 68.982 100.679 68.966 100.58 C 68.947 100.461 68.925 100.319 68.899 100.148 C 68.87 99.96 68.84 99.73 68.821 99.461 C 68.8 99.192 68.766 98.886 68.761 98.547 C 68.728 97.868 68.742 97.057 68.811 96.161 C 68.891 95.265 69.031 94.285 69.262 93.273 C 69.5 92.262 69.806 91.32 70.128 90.481 C 70.462 89.646 70.806 88.912 71.135 88.317 C 71.288 88.014 71.454 87.755 71.591 87.522 C 71.727 87.289 71.855 87.095 71.964 86.94 C 72.063 86.798 72.145 86.68 72.214 86.581 C 72.272 86.501 72.305 86.46 72.31 86.463 C 72.315 86.466 72.291 86.513 72.242 86.601 C 72.181 86.703 72.108 86.827 72.02 86.975 C 71.92 87.136 71.8 87.334 71.674 87.571 C 71.545 87.806 71.387 88.068 71.241 88.373 C 70.928 88.972 70.598 89.706 70.276 90.537 C 69.963 91.373 69.665 92.309 69.428 93.312 C 69.199 94.316 69.055 95.287 68.967 96.175 C 68.891 97.063 68.864 97.868 68.882 98.543 C 68.879 98.881 68.905 99.186 68.916 99.454 C 68.926 99.722 68.947 99.953 68.965 100.141 C 68.979 100.313 68.99 100.456 69 100.575 C 69.006 100.675 69.006 100.728 69 100.729 Z " fill="rgb(0,0,0)"/></g><g opacity="0.399994"><path d=" M 81.736 97.416 C 81.725 97.422 81.646 97.274 81.511 97.003 C 81.373 96.733 81.198 96.329 81.008 95.822 C 80.814 95.315 80.624 94.696 80.453 93.998 C 80.291 93.299 80.153 92.52 80.075 91.695 C 80.004 90.869 79.999 90.077 80.033 89.36 C 80.076 88.643 80.152 88 80.251 87.467 C 80.348 86.933 80.446 86.505 80.534 86.215 C 80.618 85.924 80.669 85.764 80.68 85.767 C 80.692 85.771 80.662 85.936 80.598 86.23 C 80.531 86.525 80.451 86.954 80.37 87.486 C 80.287 88.018 80.224 88.657 80.19 89.367 C 80.165 90.078 80.174 90.861 80.245 91.679 C 80.322 92.496 80.454 93.268 80.606 93.963 C 80.768 94.656 80.944 95.273 81.122 95.781 C 81.296 96.29 81.453 96.698 81.571 96.975 C 81.687 97.254 81.746 97.411 81.736 97.416 Z " fill="rgb(0,0,0)"/></g><g opacity="0.399994"><path d=" M 90.701 95.386 C 90.691 95.392 90.613 95.273 90.48 95.052 C 90.345 94.832 90.172 94.5 89.982 94.079 C 89.789 93.658 89.597 93.141 89.422 92.555 C 89.255 91.966 89.11 91.308 89.02 90.606 C 88.937 89.904 88.919 89.23 88.938 88.619 C 88.967 88.007 89.028 87.459 89.113 87.004 C 89.196 86.55 89.283 86.186 89.361 85.94 C 89.437 85.693 89.483 85.558 89.495 85.562 C 89.526 85.57 89.366 86.118 89.232 87.023 C 89.163 87.476 89.115 88.02 89.096 88.623 C 89.085 89.228 89.108 89.893 89.19 90.586 C 89.278 91.278 89.416 91.928 89.573 92.512 C 89.738 93.093 89.916 93.609 90.093 94.031 C 90.442 94.878 90.729 95.371 90.701 95.386 Z " fill="rgb(0,0,0)"/></g><path d=" M 53.084 55.721 L 58.492 47.287 C 58.492 47.287 67.218 44.172 67.724 45.125 C 68.231 46.077 67.21 47.2 67.21 47.2 C 67.21 47.2 69.117 47.743 68.854 49.257 C 68.59 50.771 68.282 50.996 68.282 50.996 C 68.282 50.996 69.74 51.356 69.412 52.016 C 69.084 52.677 68.441 53.477 68.441 53.477 C 68.441 53.477 69.494 54.077 69.271 54.807 C 69.048 55.536 66.908 57.713 66.908 57.713 L 60.955 59.84 L 61.002 61.66 L 52.663 58.706 L 53.084 55.721 Z " fill="rgb(255,190,157)"/><path d=" M 49.746 42.269 C 49.746 42.269 44.649 43.057 39.297 40.458 C 39.297 40.458 42.31 45.455 49.874 44.061 L 49.746 42.269 Z " fill="rgb(235,153,110)"/><path d=" M 31.565 27.07 C 31.811 27.658 31.673 28.386 31.229 28.843 C 30.785 29.3 30.061 29.459 29.466 29.23 C 28.336 28.794 28.05 27.326 28.141 26.119 C 28.232 24.912 28.506 23.605 27.898 22.559 C 27.432 21.759 26.554 21.311 25.844 20.715 C 24.608 19.679 23.841 18.063 23.952 16.453 C 24.064 14.843 25.106 13.301 26.608 12.712 C 28.141 12.11 30.135 12.397 31.194 11.135 C 31.961 10.221 31.876 8.859 32.434 7.804 C 33.301 6.165 35.439 5.702 37.291 5.767 C 39.144 5.83 41.063 6.228 42.807 5.601 C 44.263 5.077 45.384 3.909 46.719 3.126 C 49.614 1.429 53.57 1.787 56.114 3.976 C 58.657 6.164 59.6 10.023 58.354 13.139 C 57.906 14.257 57.1 17.442 53.668 17.749" fill="rgb(38,50,56)"/><path d=" M 29.708 14.303 L 29.976 16.759 L 33.759 53.543 C 34.199 57.813 38.22 60.836 42.789 60.331 L 42.789 60.331 C 47.403 59.821 50.839 55.907 50.466 51.586 C 50.075 47.051 49.747 42.269 49.747 42.269 C 49.747 42.269 55.501 40.777 56.031 33.048 C 56.294 29.204 55.548 23.008 54.775 17.956 C 54.078 13.41 49.741 10.358 45.228 11.247 L 29.708 14.303 Z " fill="rgb(255,190,157)"/><path d=" M 47.908 29.888 C 47.898 29.829 48.542 29.657 49.589 29.427 C 49.855 29.375 50.105 29.299 50.133 29.112 C 50.179 28.912 50.041 28.633 49.883 28.332 C 49.572 27.705 49.247 27.047 48.906 26.358 C 47.543 23.545 46.531 21.222 46.645 21.168 C 46.759 21.114 47.956 23.351 49.318 26.164 C 49.648 26.858 49.963 27.52 50.263 28.153 C 50.392 28.449 50.598 28.78 50.497 29.195 C 50.442 29.402 50.258 29.565 50.09 29.627 C 49.922 29.695 49.772 29.711 49.64 29.731 C 48.578 29.883 47.918 29.947 47.908 29.888 Z " fill="rgb(38,50,56)"/><path d=" M 42.893 19.108 C 42.815 19.403 41.753 19.361 40.532 19.62 C 39.306 19.855 38.344 20.305 38.157 20.063 C 38.073 19.947 38.223 19.662 38.6 19.349 C 38.974 19.037 39.587 18.718 40.32 18.569 C 41.054 18.422 41.743 18.479 42.208 18.622 C 42.678 18.764 42.926 18.968 42.893 19.108 Z " fill="rgb(38,50,56)"/><path d=" M 53.057 18.3 C 52.893 18.556 52.147 18.372 51.274 18.439 C 50.4 18.474 49.68 18.743 49.487 18.508 C 49.402 18.393 49.497 18.144 49.799 17.889 C 50.096 17.635 50.612 17.404 51.212 17.368 C 51.812 17.333 52.35 17.504 52.675 17.721 C 53.005 17.939 53.128 18.176 53.057 18.3 Z " fill="rgb(38,50,56)"/><path d=" M 54.726 14.553 C 54.726 14.553 51.016 16.939 45.577 15.001 C 42.007 13.729 37.984 13.384 37.201 14.166 C 36.418 14.947 36.656 18.438 33.445 19.854 C 33.445 19.854 34.476 26.444 31.809 26.528 C 29.142 26.612 28.355 13.272 28.355 13.272 L 35.621 12.228 L 42.502 10.044 L 49.252 10.175 L 54.557 10.958 L 54.726 14.553 Z " fill="rgb(38,50,56)"/><path d=" M 28.007 11.394 C 27.961 11.297 28.564 11.006 29.32 11.207 C 30.078 11.401 30.462 11.951 30.374 12.013 C 30.292 12.093 29.854 11.752 29.219 11.594 C 28.588 11.421 28.039 11.504 28.007 11.394 Z " fill="rgb(38,50,56)"/><path d=" M 30.004 8.955 C 30.128 8.954 30.156 9.736 30.374 10.622 C 30.586 11.514 31.037 12.13 30.949 12.206 C 30.881 12.288 30.228 11.716 29.986 10.722 C 29.749 9.742 29.909 8.949 30.004 8.955 Z " fill="rgb(38,50,56)"/><path d=" M 31.72 23.78 C 31.606 23.737 27.179 22.665 27.53 27.115 C 27.882 31.564 32.276 30.294 32.274 30.165 C 32.272 30.037 31.72 23.78 31.72 23.78 Z " fill="rgb(255,190,157)"/><path d=" M 30.781 28.587 C 30.761 28.574 30.708 28.648 30.582 28.718 C 30.459 28.786 30.242 28.844 30.004 28.776 C 29.52 28.64 29.066 27.925 28.981 27.125 C 28.937 26.721 28.992 26.329 29.11 25.998 C 29.22 25.662 29.413 25.418 29.646 25.357 C 29.877 25.284 30.056 25.413 30.12 25.534 C 30.19 25.653 30.168 25.744 30.193 25.75 C 30.206 25.76 30.282 25.668 30.232 25.487 C 30.206 25.4 30.146 25.299 30.035 25.222 C 29.921 25.144 29.761 25.112 29.597 25.143 C 29.256 25.194 28.972 25.534 28.842 25.896 C 28.693 26.262 28.622 26.704 28.671 27.158 C 28.771 28.052 29.296 28.855 29.953 28.99 C 30.273 29.047 30.526 28.932 30.653 28.816 C 30.782 28.695 30.798 28.594 30.781 28.587 Z " fill="rgb(235,153,110)"/><path d=" M 49.813 2.002 C 49.813 1.999 49.846 1.999 49.911 2.003 C 49.975 2.011 50.073 2.008 50.197 2.035 C 50.447 2.073 50.814 2.175 51.239 2.408 C 51.66 2.641 52.136 3.024 52.518 3.601 C 52.901 4.167 53.18 4.964 53.065 5.84 C 52.96 6.71 52.473 7.613 51.665 8.254 C 51.259 8.571 50.766 8.81 50.224 8.919 C 49.676 9.02 49.086 8.944 48.554 8.695 C 48.03 8.454 47.531 7.974 47.448 7.328 C 47.404 7.015 47.458 6.686 47.6 6.398 C 47.74 6.109 47.956 5.863 48.203 5.662 C 48.703 5.263 49.314 5.014 49.953 4.896 C 50.587 4.779 51.248 4.752 51.907 4.82 C 53.225 4.956 54.481 5.527 55.343 6.45 C 56.211 7.356 56.701 8.572 56.644 9.734 C 56.593 10.899 56.073 11.93 55.421 12.705 C 54.763 13.488 53.96 14.038 53.173 14.391 C 51.584 15.092 50.155 15.163 49.206 15.191 C 48.727 15.2 48.355 15.182 48.104 15.169 C 47.989 15.16 47.895 15.153 47.818 15.147 C 47.753 15.141 47.72 15.136 47.72 15.132 C 47.721 15.129 47.754 15.126 47.819 15.125 C 47.896 15.125 47.99 15.126 48.105 15.126 C 48.357 15.125 48.727 15.129 49.204 15.108 C 50.146 15.055 51.561 14.959 53.11 14.253 C 53.876 13.899 54.651 13.357 55.284 12.591 C 55.912 11.834 56.404 10.836 56.447 9.726 C 56.495 8.622 56.026 7.463 55.191 6.594 C 54.363 5.713 53.16 5.166 51.884 5.034 C 50.622 4.918 49.279 5.076 48.336 5.826 C 47.871 6.188 47.567 6.745 47.651 7.301 C 47.719 7.856 48.153 8.29 48.639 8.517 C 49.13 8.75 49.684 8.824 50.19 8.734 C 50.699 8.634 51.167 8.412 51.556 8.114 C 52.33 7.509 52.806 6.648 52.914 5.82 C 53.033 4.988 52.779 4.221 52.418 3.666 C 52.057 3.102 51.602 2.718 51.197 2.48 C 50.369 2.003 49.801 2.04 49.813 2.002 Z " fill="rgb(162,162,162)"/><path d=" M 43.823 31.151 C 43.777 31.113 43.923 30.863 44.148 30.594 C 44.373 30.325 44.592 30.138 44.638 30.176 C 44.683 30.214 44.537 30.463 44.312 30.732 C 44.087 31.001 43.868 31.189 43.823 31.151 Z " fill="rgb(38,50,56)"/><path d=" M 44.779 31.367 C 44.731 31.332 44.847 31.086 45.039 30.817 C 45.231 30.549 45.425 30.359 45.474 30.393 C 45.522 30.427 45.405 30.673 45.214 30.942 C 45.022 31.211 44.827 31.401 44.779 31.367 Z " fill="rgb(38,50,56)"/><path d=" M 45.644 31.81 C 45.588 31.794 45.632 31.48 45.799 31.133 C 45.965 30.784 46.181 30.553 46.229 30.586 C 46.279 30.62 46.15 30.893 45.992 31.225 C 45.833 31.556 45.701 31.828 45.644 31.81 Z " fill="rgb(38,50,56)"/><path d=" M 46.723 31.757 C 46.665 31.745 46.674 31.468 46.743 31.139 C 46.813 30.81 46.916 30.553 46.974 30.565 C 47.032 30.578 47.023 30.854 46.954 31.184 C 46.884 31.512 46.781 31.769 46.723 31.757 Z " fill="rgb(38,50,56)"/><path d=" M 47.609 32.151 C 47.55 32.14 47.558 31.827 47.625 31.45 C 47.692 31.074 47.794 30.778 47.852 30.788 C 47.91 30.798 47.903 31.112 47.836 31.488 C 47.769 31.864 47.667 32.161 47.609 32.151 Z " fill="rgb(38,50,56)"/><path d=" M 48.674 32.148 C 48.614 32.146 48.573 31.892 48.582 31.579 C 48.59 31.267 48.645 31.015 48.704 31.017 C 48.763 31.018 48.804 31.273 48.796 31.585 C 48.788 31.898 48.733 32.15 48.674 32.148 Z " fill="rgb(38,50,56)"/><path d=" M 49.569 32.502 C 49.509 32.502 49.458 32.148 49.396 31.717 C 49.334 31.286 49.283 30.932 49.341 30.916 C 49.397 30.899 49.544 31.239 49.608 31.687 C 49.673 32.134 49.627 32.502 49.569 32.502 Z " fill="rgb(38,50,56)"/><path d=" M 50.413 32.165 C 50.354 32.175 50.265 31.924 50.213 31.605 C 50.161 31.286 50.166 31.019 50.225 31.01 C 50.283 31 50.373 31.251 50.425 31.571 C 50.476 31.889 50.471 32.156 50.413 32.165 Z " fill="rgb(38,50,56)"/><path d=" M 51.347 32.039 C 51.289 32.051 51.206 31.879 51.162 31.655 C 51.118 31.431 51.129 31.24 51.187 31.229 C 51.245 31.217 51.328 31.389 51.373 31.613 C 51.417 31.837 51.405 32.028 51.347 32.039 Z " fill="rgb(38,50,56)"/><path d=" M 50.145 37.121 C 50.126 37.148 49.938 37.033 49.611 36.919 C 49.288 36.803 48.813 36.702 48.294 36.758 C 47.775 36.815 47.334 37.016 47.043 37.199 C 46.749 37.381 46.589 37.534 46.565 37.511 C 46.546 37.495 46.668 37.301 46.956 37.074 C 47.24 36.849 47.708 36.607 48.271 36.545 C 48.834 36.484 49.343 36.619 49.669 36.778 C 49.999 36.937 50.16 37.101 50.145 37.121 Z " fill="rgb(235,153,110)"/><path d=" M 43.834 22.261 C 43.852 22.254 43.912 22.331 43.957 22.495 C 44.002 22.657 44.032 22.91 43.966 23.212 C 43.899 23.511 43.742 23.865 43.432 24.15 C 43.126 24.444 42.654 24.604 42.193 24.616 C 41.267 24.635 40.475 24.372 39.946 24.114 C 39.416 23.851 39.146 23.601 39.17 23.567 C 39.198 23.523 39.511 23.697 40.041 23.892 C 40.566 24.083 41.337 24.293 42.178 24.275 C 42.594 24.261 42.963 24.14 43.223 23.914 C 43.49 23.693 43.647 23.401 43.733 23.149 C 43.902 22.63 43.778 22.274 43.834 22.261 Z " fill="rgb(38,50,56)"/><path d=" M 54.012 21.167 C 54.044 21.149 54.23 21.468 54.161 22.028 C 54.125 22.303 54.021 22.631 53.79 22.934 C 53.674 23.084 53.523 23.226 53.334 23.33 C 53.148 23.433 52.933 23.492 52.717 23.514 C 51.854 23.569 51.139 23.284 50.671 23.024 C 50.203 22.755 49.978 22.505 50.004 22.473 C 50.035 22.431 50.308 22.608 50.778 22.807 C 51.239 23.001 51.94 23.223 52.683 23.174 C 53.049 23.142 53.345 22.978 53.546 22.736 C 53.748 22.497 53.864 22.221 53.923 21.984 C 54.044 21.502 53.957 21.18 54.012 21.167 Z " fill="rgb(38,50,56)"/><path d=" M 48.532 33.365 C 48.549 33.403 48.361 33.539 48.003 33.64 C 47.648 33.742 47.12 33.782 46.565 33.649 C 46.01 33.513 45.559 33.235 45.291 32.982 C 45.019 32.729 44.914 32.521 44.947 32.495 C 45.019 32.425 45.625 33.082 46.646 33.317 C 47.66 33.576 48.5 33.269 48.532 33.365 Z " fill="rgb(38,50,56)"/></g><g><path d=" M 115.991 86.906 C 115.991 87.901 115.183 88.708 114.188 88.708 L 44.913 88.708 C 43.917 88.708 43.111 87.901 43.111 86.906 L 43.111 42.658 C 43.111 41.662 43.917 40.856 44.913 40.856 L 114.188 40.856 C 115.183 40.856 115.991 41.662 115.991 42.658 L 115.991 86.906 Z " fill="rgb(254,254,254)"/><path d=" M 115.991 86.906 L 115.704 86.906 C 115.704 87.326 115.535 87.703 115.26 87.978 C 114.985 88.252 114.608 88.421 114.188 88.421 L 44.913 88.421 C 44.493 88.421 44.116 88.252 43.841 87.978 C 43.566 87.703 43.397 87.326 43.397 86.906 L 43.397 42.658 C 43.397 42.238 43.566 41.861 43.841 41.586 C 44.116 41.311 44.493 41.142 44.913 41.142 L 114.188 41.142 C 114.608 41.142 114.985 41.311 115.26 41.586 C 115.535 41.861 115.704 42.238 115.704 42.658 L 115.704 86.906 L 115.991 86.906 L 116.277 86.906 L 116.277 42.658 C 116.277 41.504 115.342 40.569 114.188 40.569 L 44.913 40.569 C 43.759 40.569 42.824 41.504 42.824 42.658 L 42.824 86.906 C 42.824 88.06 43.759 88.994 44.913 88.995 L 114.188 88.995 C 115.342 88.994 116.277 88.06 116.277 86.906 L 115.991 86.906 Z " fill="rgb(133,134,137)"/><path d=" M 114.411 85.698 C 114.411 86.639 113.639 87.402 112.687 87.402 L 46.414 87.402 C 45.462 87.402 44.689 86.639 44.689 85.698 L 44.689 43.865 C 44.689 42.925 45.462 42.162 46.414 42.162 L 112.687 42.162 C 113.639 42.162 114.411 42.925 114.411 43.865 L 114.411 85.698 Z " fill="rgb(210,211,213)"/><path d=" M 110.784 83.301 L 47.716 83.301 L 47.716 45.461 L 110.784 45.461 L 110.784 83.301 Z " fill="rgb(246,151,52)"/><path d=" M 63.458 87.907 L 45.674 87.907 C 44.701 87.907 43.911 87.127 43.911 86.165 L 43.911 43.398 C 43.911 42.436 44.701 41.657 45.674 41.657 L 101.194 41.657 C 101.115 41.825 101.036 41.993 100.956 42.162 L 46.414 42.162 C 45.462 42.162 44.689 42.925 44.689 43.865 L 44.689 85.698 C 44.689 86.639 45.462 87.402 46.414 87.402 L 64.189 87.402 C 63.947 87.572 63.703 87.741 63.458 87.907 Z " fill="rgb(254,254,254)"/><path d=" M 64.189 87.402 L 46.414 87.402 C 45.462 87.402 44.689 86.639 44.689 85.698 L 44.689 43.865 C 44.689 42.925 45.462 42.162 46.414 42.162 L 100.956 42.162 C 100.431 43.269 99.889 44.37 99.331 45.461 L 47.716 45.461 L 47.716 83.301 L 69.519 83.301 C 68.36 84.253 67.182 85.182 65.987 86.087 C 65.397 86.535 64.798 86.975 64.189 87.402 Z " fill="rgb(222,223,224)"/><path d=" M 69.519 83.301 L 47.716 83.301 L 47.716 45.461 L 99.331 45.461 C 96.838 50.339 94.024 55.052 90.955 59.563 C 86.334 66.357 81.021 72.69 75.086 78.373 C 73.295 80.087 71.434 81.727 69.519 83.301 Z " fill="rgb(252,187,47)"/><path d=" M 81.202 43.634 C 81.202 44.173 80.766 44.61 80.226 44.61 C 79.687 44.61 79.25 44.173 79.25 43.634 C 79.25 43.095 79.687 42.658 80.226 42.658 C 80.766 42.658 81.202 43.095 81.202 43.634 Z " fill="rgb(150,152,155)"/><path d=" M 88.661 85.38 C 88.661 85.877 88.257 86.281 87.76 86.281 L 84.756 86.281 C 84.258 86.281 83.856 85.877 83.856 85.38 C 83.856 84.882 84.258 84.479 84.756 84.479 L 87.76 84.479 C 88.257 84.479 88.661 84.882 88.661 85.38 Z " fill="rgb(133,134,137)"/><path d=" M 81.953 85.38 C 81.953 85.877 81.549 86.281 81.052 86.281 L 78.049 86.281 C 77.552 86.281 77.147 85.877 77.147 85.38 C 77.147 84.882 77.552 84.479 78.049 84.479 L 81.052 84.479 C 81.549 84.479 81.953 84.882 81.953 85.38 Z " fill="rgb(133,134,137)"/><path d=" M 75.246 85.38 C 75.246 85.877 74.842 86.281 74.344 86.281 L 71.341 86.281 C 70.844 86.281 70.44 85.877 70.44 85.38 C 70.44 84.882 70.844 84.479 71.341 84.479 L 74.344 84.479 C 74.842 84.479 75.246 84.882 75.246 85.38 Z " fill="rgb(133,134,137)"/><path d=" M 93.061 63.643 L 92.662 63.643 C 92.662 67.289 91.186 70.586 88.796 72.975 C 86.407 75.364 83.11 76.841 79.464 76.841 C 75.818 76.841 72.521 75.364 70.131 72.975 C 67.742 70.586 66.265 67.289 66.265 63.643 C 66.265 59.997 67.742 56.7 70.131 54.31 C 72.521 51.921 75.818 50.444 79.464 50.444 C 83.109 50.444 86.407 51.921 88.796 54.31 C 91.186 56.7 92.662 59.997 92.662 63.643 L 93.061 63.643 L 93.46 63.643 C 93.46 55.912 87.194 49.646 79.464 49.646 C 71.733 49.646 65.467 55.912 65.467 63.643 C 65.467 71.373 71.733 77.639 79.464 77.639 C 87.194 77.639 93.46 71.373 93.46 63.643 L 93.061 63.643 Z " fill="rgb(46,53,79)"/><path d=" M 85.783 63.643 L 85.384 63.643 C 85.385 67.347 84.683 70.699 83.57 73.089 C 83.015 74.285 82.358 75.238 81.655 75.876 C 80.949 76.517 80.216 76.84 79.464 76.841 C 78.711 76.84 77.978 76.517 77.272 75.876 C 76.217 74.919 75.27 73.252 74.605 71.126 C 73.937 69 73.544 66.421 73.544 63.643 C 73.543 59.938 74.245 56.587 75.357 54.196 C 75.912 53 76.57 52.047 77.272 51.409 C 77.978 50.768 78.711 50.445 79.464 50.444 C 80.216 50.445 80.949 50.768 81.655 51.409 C 82.711 52.366 83.658 54.034 84.323 56.16 C 84.99 58.285 85.384 60.864 85.384 63.643 L 85.783 63.643 L 86.182 63.643 C 86.181 59.837 85.469 56.39 84.294 53.859 C 83.705 52.594 83.001 51.556 82.192 50.818 C 81.386 50.082 80.456 49.645 79.464 49.646 C 78.471 49.645 77.542 50.082 76.735 50.818 C 75.523 51.925 74.54 53.706 73.843 55.921 C 73.148 58.136 72.746 60.789 72.746 63.643 C 72.747 67.448 73.459 70.895 74.633 73.426 C 75.222 74.691 75.926 75.729 76.735 76.467 C 77.542 77.203 78.471 77.64 79.464 77.639 C 80.456 77.64 81.386 77.203 82.192 76.467 C 83.404 75.36 84.387 73.579 85.084 71.365 C 85.78 69.15 86.182 66.497 86.182 63.643 L 85.783 63.643 Z " fill="rgb(46,53,79)"/><path d=" M 79.863 77.173 L 79.863 50.045 C 79.863 49.825 79.684 49.646 79.464 49.646 C 79.244 49.646 79.065 49.825 79.065 50.045 L 79.065 77.173 C 79.065 77.393 79.244 77.572 79.464 77.572 C 79.684 77.572 79.863 77.393 79.863 77.173 Z " fill="rgb(46,53,79)"/><path d=" M 69.034 55.319 L 90.211 55.319 L 90.211 54.521 L 69.034 54.521" fill="rgb(46,53,79)"/><path d=" M 69.034 72.834 L 90.211 72.834 L 90.211 72.036 L 69.034 72.036" fill="rgb(46,53,79)"/><path d=" M 95.725 65.974 C 95.725 67.025 94.864 67.885 93.813 67.885 L 63.76 67.885 C 62.708 67.885 61.848 67.025 61.848 65.974 L 61.848 61.901 C 61.848 60.849 62.708 59.989 63.76 59.989 L 93.813 59.989 C 94.864 59.989 95.725 60.849 95.725 61.901 L 95.725 65.974 Z " fill="rgb(254,254,254)"/><path d=" M 95.725 65.974 L 95.438 65.974 C 95.438 66.42 95.256 66.825 94.961 67.121 C 94.665 67.416 94.26 67.598 93.813 67.598 L 63.76 67.598 C 63.313 67.598 62.908 67.416 62.612 67.121 C 62.317 66.825 62.135 66.42 62.135 65.974 L 62.135 61.901 C 62.135 61.454 62.317 61.049 62.612 60.753 C 62.908 60.458 63.313 60.276 63.76 60.276 L 93.813 60.276 C 94.26 60.276 94.665 60.458 94.961 60.753 C 95.256 61.049 95.438 61.454 95.438 61.901 L 95.438 65.974 L 95.725 65.974 L 96.011 65.974 L 96.011 61.901 C 96.01 60.69 95.024 59.704 93.813 59.703 L 63.76 59.703 C 62.549 59.704 61.563 60.69 61.562 61.901 L 61.562 65.974 C 61.563 67.184 62.549 68.171 63.76 68.172 L 93.813 68.172 C 95.024 68.171 96.01 67.184 96.011 65.974 L 95.725 65.974 Z " fill="rgb(46,53,79)"/><path d=" M 66.533 62.581 L 67.173 64.775 L 67.756 62.736 C 67.818 62.522 67.864 62.377 67.894 62.299 C 67.924 62.221 67.981 62.146 68.063 62.076 C 68.146 62.005 68.26 61.97 68.403 61.97 C 68.55 61.97 68.664 62.005 68.747 62.076 C 68.83 62.146 68.888 62.223 68.922 62.306 C 68.955 62.389 69.002 62.532 69.062 62.736 L 69.644 64.775 L 70.292 62.581 C 70.335 62.423 70.37 62.308 70.396 62.238 C 70.423 62.167 70.467 62.104 70.529 62.05 C 70.592 61.996 70.682 61.97 70.799 61.97 C 70.916 61.97 71.018 62.01 71.105 62.092 C 71.191 62.173 71.234 62.269 71.234 62.38 C 71.234 62.48 71.197 62.633 71.123 62.836 L 70.321 65.189 C 70.251 65.388 70.197 65.532 70.159 65.621 C 70.12 65.709 70.06 65.788 69.977 65.858 C 69.894 65.928 69.781 65.962 69.637 65.962 C 69.488 65.962 69.372 65.925 69.286 65.851 C 69.201 65.776 69.138 65.685 69.098 65.577 C 69.057 65.47 69.013 65.329 68.964 65.156 L 68.403 63.243 L 67.86 65.156 C 67.788 65.423 67.71 65.624 67.626 65.759 C 67.542 65.894 67.395 65.962 67.184 65.962 C 67.076 65.962 66.984 65.941 66.909 65.899 C 66.833 65.857 66.77 65.797 66.72 65.719 C 66.67 65.642 66.625 65.549 66.587 65.443 C 66.549 65.336 66.519 65.251 66.497 65.189 L 65.702 62.836 C 65.623 62.616 65.583 62.463 65.583 62.38 C 65.583 62.274 65.625 62.179 65.709 62.095 C 65.793 62.011 65.896 61.97 66.019 61.97 C 66.181 61.97 66.292 62.016 66.35 62.108 C 66.407 62.2 66.468 62.358 66.533 62.581 Z " fill="rgb(46,53,79)"/><path d=" M 72.522 62.581 L 73.162 64.775 L 73.745 62.736 C 73.808 62.522 73.854 62.377 73.884 62.299 C 73.914 62.221 73.97 62.146 74.053 62.076 C 74.135 62.005 74.249 61.97 74.393 61.97 C 74.539 61.97 74.653 62.005 74.736 62.076 C 74.819 62.146 74.877 62.223 74.911 62.306 C 74.944 62.389 74.991 62.532 75.051 62.736 L 75.634 64.775 L 76.281 62.581 C 76.324 62.423 76.359 62.308 76.385 62.238 C 76.412 62.167 76.456 62.104 76.519 62.05 C 76.581 61.996 76.671 61.97 76.788 61.97 C 76.906 61.97 77.008 62.01 77.094 62.092 C 77.18 62.173 77.224 62.269 77.224 62.38 C 77.224 62.48 77.186 62.633 77.112 62.836 L 76.31 65.189 C 76.24 65.388 76.186 65.532 76.148 65.621 C 76.11 65.709 76.049 65.788 75.966 65.858 C 75.884 65.928 75.77 65.962 75.626 65.962 C 75.478 65.962 75.361 65.925 75.276 65.851 C 75.19 65.776 75.128 65.685 75.087 65.577 C 75.046 65.47 75.002 65.329 74.954 65.156 L 74.393 63.243 L 73.849 65.156 C 73.778 65.423 73.699 65.624 73.616 65.759 C 73.532 65.894 73.384 65.962 73.173 65.962 C 73.065 65.962 72.974 65.941 72.898 65.899 C 72.822 65.857 72.759 65.797 72.709 65.719 C 72.659 65.642 72.614 65.549 72.576 65.443 C 72.538 65.336 72.508 65.251 72.486 65.189 L 71.691 62.836 C 71.612 62.616 71.573 62.463 71.573 62.38 C 71.573 62.274 71.615 62.179 71.698 62.095 C 71.782 62.011 71.885 61.97 72.008 61.97 C 72.171 61.97 72.281 62.016 72.339 62.108 C 72.396 62.2 72.457 62.358 72.522 62.581 Z " fill="rgb(46,53,79)"/><path d=" M 78.511 62.581 L 79.152 64.775 L 79.735 62.736 C 79.797 62.522 79.843 62.377 79.873 62.299 C 79.903 62.221 79.959 62.146 80.042 62.076 C 80.125 62.005 80.238 61.97 80.382 61.97 C 80.528 61.97 80.643 62.005 80.726 62.076 C 80.808 62.146 80.866 62.223 80.9 62.306 C 80.933 62.389 80.98 62.532 81.04 62.736 L 81.623 64.775 L 82.27 62.581 C 82.314 62.423 82.348 62.308 82.375 62.238 C 82.401 62.167 82.445 62.104 82.508 62.05 C 82.57 61.996 82.66 61.97 82.778 61.97 C 82.895 61.97 82.997 62.01 83.083 62.092 C 83.17 62.173 83.213 62.269 83.213 62.38 C 83.213 62.48 83.176 62.633 83.101 62.836 L 82.299 65.189 C 82.23 65.388 82.176 65.532 82.137 65.621 C 82.099 65.709 82.038 65.788 81.956 65.858 C 81.873 65.928 81.759 65.962 81.616 65.962 C 81.467 65.962 81.35 65.925 81.265 65.851 C 81.18 65.776 81.117 65.685 81.076 65.577 C 81.035 65.47 80.991 65.329 80.943 65.156 L 80.382 63.243 L 79.839 65.156 C 79.767 65.423 79.689 65.624 79.605 65.759 C 79.521 65.894 79.374 65.962 79.162 65.962 C 79.054 65.962 78.963 65.941 78.887 65.899 C 78.812 65.857 78.749 65.797 78.698 65.719 C 78.648 65.642 78.604 65.549 78.565 65.443 C 78.527 65.336 78.497 65.251 78.475 65.189 L 77.68 62.836 C 77.601 62.616 77.562 62.463 77.562 62.38 C 77.562 62.274 77.604 62.179 77.688 62.095 C 77.772 62.011 77.875 61.97 77.997 61.97 C 78.16 61.97 78.27 62.016 78.328 62.108 C 78.385 62.2 78.447 62.358 78.511 62.581 Z " fill="rgb(46,53,79)"/><path d=" M 83.976 61.358 L 83.976 66.707 L 84.549 66.707 L 84.549 61.358" fill="rgb(46,53,79)"/><path d=" M 96.568 68.363 C 97.09 68.245 97.143 67.923 96.685 67.646 L 87.289 61.955 C 86.831 61.677 86.573 61.872 86.717 62.388 L 89.657 72.972 C 89.8 73.488 90.126 73.525 90.379 73.053 L 91.315 71.317 C 91.569 70.846 92.042 70.809 92.365 71.236 L 95.284 75.086 C 95.607 75.513 96.221 75.597 96.647 75.274 L 97.012 74.998 C 97.439 74.674 97.523 74.061 97.2 73.634 L 94.281 69.783 C 93.958 69.357 94.12 68.912 94.643 68.795 L 96.568 68.363 Z " fill="rgb(38,50,56)"/></g></g></g></svg>