<?xml version="1.0" encoding="UTF-8" standalone="no"?><!-- Generator: Gravit.io --><svg xmlns="http://www.w3.org/2000/svg" xmlns:xlink="http://www.w3.org/1999/xlink" style="isolation:isolate" viewBox="0 0 120 120" width="120pt" height="120pt"><defs><clipPath id="_clipPath_MvnMj0bmAqSPi6pke2ohxpQmvhQn3gO9"><rect width="120" height="120"/></clipPath></defs><g clip-path="url(#_clipPath_MvnMj0bmAqSPi6pke2ohxpQmvhQn3gO9)"><rect width="120" height="120" style="fill:rgb(0,0,0)" fill-opacity="0"/><g><defs><filter id="A8igr9OLGj6vnDi6JjenvIM9MVpFyF6x" x="-200%" y="-200%" width="400%" height="400%" filterUnits="objectBoundingBox" color-interpolation-filters="sRGB"><feOffset xmlns="http://www.w3.org/2000/svg" in="SourceGraphic" dx="0" dy="0"/><feGaussianBlur xmlns="http://www.w3.org/2000/svg" stdDeviation="2.146804531419514" result="pf_100_offsetBlur"/><feComposite xmlns="http://www.w3.org/2000/svg" in="SourceGraphic" in2="pf_100_offsetBlur" result="pf_100_inverse" operator="out"/><feFlood xmlns="http://www.w3.org/2000/svg" flood-color="#000000" flood-opacity="0.5" result="pf_100_color"/><feComposite xmlns="http://www.w3.org/2000/svg" in="pf_100_color" in2="pf_100_inverse" operator="in" result="pf_100_shadow"/><feComposite xmlns="http://www.w3.org/2000/svg" in="pf_100_shadow" in2="SourceGraphic" operator="over"/></filter></defs><g filter="url(#A8igr9OLGj6vnDi6JjenvIM9MVpFyF6x)"><path d=" M 1.51 68.188 C 0.964 96.252 23.272 119.445 51.336 119.99 C 79.4 120.536 102.593 98.228 103.138 70.164 C 103.684 42.1 81.376 18.908 53.312 18.362 C 25.248 17.816 2.055 40.124 1.51 68.188 Z " fill="rgb(224,224,224)"/></g><g><path d=" M 89.747 69.701 C 89.747 69.701 90.606 65.966 94.071 66.153 C 97.537 66.34 98.378 66.34 99.876 66.153 C 101.375 65.966 103.694 64.164 104.349 64.726 C 105.005 65.287 104.638 66.506 103.421 67.588 C 102.203 68.671 100.113 69.408 100.113 69.408 L 104.543 70.169 C 104.543 70.169 108.532 68.04 109.469 68.414 C 110.405 68.789 110.331 69.826 110.331 69.826 C 110.331 69.826 111.987 69.081 112.455 69.737 C 112.924 70.393 113.037 70.83 112.569 71.205 C 112.569 71.205 112.877 70.902 113.737 71.155 C 114.472 71.372 114.409 72.727 113.735 73.093 L 113.508 73.223 C 113.508 73.223 107.233 76.838 107.041 76.863 C 105.933 77.011 99.169 76.722 95.687 76.561 C 94.406 76.501 93.194 77.135 92.509 78.221 L 86.901 87.11 L 80.568 79.816 L 89.747 69.701 Z " fill="rgb(255,190,157)"/><path d=" M 101.126 71.743 C 101.122 71.764 101.503 71.847 102.151 71.969 C 102.799 72.092 103.713 72.254 104.776 72.435 L 104.804 72.439 L 104.83 72.427 C 105.274 72.224 105.751 72.005 106.248 71.778 C 107.549 71.175 108.725 70.631 109.632 70.211 C 110.034 70.019 110.375 69.856 110.653 69.724 C 110.893 69.605 111.022 69.533 111.017 69.521 C 111.011 69.509 110.872 69.558 110.623 69.656 C 110.338 69.773 109.989 69.917 109.578 70.087 C 109.125 70.281 108.606 70.505 108.037 70.749 C 107.458 71.014 106.828 71.302 106.168 71.604 C 105.673 71.834 105.195 72.056 104.752 72.262 L 104.806 72.255 C 103.741 72.086 102.823 71.947 102.17 71.856 C 101.517 71.765 101.129 71.721 101.126 71.743 Z " fill="rgb(170,101,80)"/><path d=" M 102.678 73.406 C 102.66 73.463 103.392 73.647 104.097 74.214 C 104.809 74.772 105.155 75.443 105.206 75.413 C 105.253 75.403 104.968 74.655 104.216 74.065 C 103.47 73.466 102.677 73.358 102.678 73.406 Z " fill="rgb(170,101,80)"/><path d=" M 95.495 68.175 C 95.471 68.173 95.455 68.402 95.333 68.771 C 95.212 69.135 94.964 69.649 94.479 70.086 L 94.352 70.201 L 94.522 70.233 C 95.047 70.332 95.64 70.498 96.242 70.743 C 97.27 71.167 98.104 71.75 98.655 72.225 C 99.211 72.698 99.503 73.049 99.529 73.026 C 99.539 73.018 99.474 72.925 99.346 72.761 C 99.215 72.602 99.016 72.377 98.746 72.123 C 98.209 71.615 97.367 71 96.314 70.567 C 95.7 70.315 95.09 70.152 94.552 70.065 L 94.595 70.212 C 95.098 69.735 95.334 69.185 95.431 68.799 C 95.528 68.409 95.508 68.175 95.495 68.175 Z " fill="rgb(170,101,80)"/><path d=" M 99.644 69.234 C 99.628 69.288 100.699 69.63 102.058 69.882 C 102.738 70.01 103.358 70.096 103.808 70.14 C 104.259 70.186 104.539 70.194 104.542 70.169 C 104.549 70.113 103.445 69.949 102.094 69.694 C 101.462 69.569 100.889 69.456 100.367 69.353 C 99.926 69.263 99.651 69.208 99.644 69.234 Z " fill="rgb(170,101,80)"/><path d=" M 105.538 74.134 C 105.551 74.16 105.943 73.98 106.587 73.714 C 107.23 73.447 108.129 73.108 109.131 72.748 C 110.133 72.389 111.04 72.052 111.683 71.777 C 112.327 71.504 112.711 71.303 112.701 71.281 C 112.69 71.255 112.287 71.411 111.633 71.651 C 110.921 71.906 110.04 72.22 109.067 72.568 C 108.063 72.928 107.165 73.29 106.532 73.59 C 105.899 73.89 105.527 74.113 105.538 74.134 Z " fill="rgb(170,101,80)"/><path d=" M 103.942 73.984 C 103.925 74.03 104.506 74.27 105.272 74.344 C 106.037 74.422 106.655 74.301 106.647 74.252 C 106.641 74.196 106.032 74.229 105.291 74.153 C 104.549 74.082 103.958 73.93 103.942 73.984 Z " fill="rgb(170,101,80)"/><path d=" M 69.022 52.517 C 69.022 52.517 74.624 55.739 75.798 65.588 C 76.409 70.722 78.645 80.27 78.645 80.27 L 83.243 75.1 L 90.197 83.064 C 90.197 83.064 82.683 99.103 78.42 103.477 C 74.159 107.851 65.756 109.197 65.756 109.197 L 64.064 82.391 L 69.022 52.517 Z " fill="rgb(232,80,91)"/><path d=" M 68.631 92.303 C 68.644 92.31 68.759 92.122 68.973 91.791 C 69.198 91.467 69.529 91.001 69.973 90.45 C 70.851 89.341 72.14 87.869 73.573 86.25 C 75.008 84.633 76.304 83.165 77.22 82.082 C 77.676 81.54 78.043 81.099 78.289 80.787 C 78.536 80.477 78.667 80.301 78.657 80.293 C 78.647 80.284 78.496 80.444 78.232 80.739 C 77.947 81.059 77.571 81.482 77.117 81.993 C 76.153 83.074 74.859 84.522 73.43 86.124 C 71.996 87.743 70.721 89.232 69.867 90.367 C 69.435 90.931 69.117 91.412 68.91 91.752 C 68.807 91.922 68.742 92.063 68.693 92.156 C 68.646 92.249 68.625 92.3 68.631 92.303 Z " fill="rgb(38,50,56)"/><g opacity="0.300003"><path d=" M 66.1 109.197 C 65.891 101.776 65.507 94.933 66.18 87.604 C 66.48 94.108 68.849 101.72 71.233 107.778 L 66.1 109.197 Z " fill="rgb(0,0,0)"/></g><path d=" M 68.517 74.66 C 68.528 74.712 70.442 74.334 72.792 73.816 C 75.142 73.298 77.038 72.837 77.026 72.785 C 77.015 72.733 75.101 73.111 72.75 73.629 C 70.401 74.147 68.505 74.608 68.517 74.66 Z " fill="rgb(250,250,250)"/><path d=" M 68.517 72.507 C 68.521 72.532 68.984 72.485 69.727 72.371 C 70.47 72.257 71.492 72.075 72.617 71.861 C 73.714 71.646 74.705 71.452 75.496 71.297 C 76.232 71.148 76.687 71.054 76.683 71.027 C 76.679 71.001 76.215 71.049 75.473 71.163 C 74.73 71.277 73.708 71.459 72.582 71.673 C 71.485 71.888 70.494 72.083 69.703 72.238 C 68.967 72.386 68.512 72.481 68.517 72.507 Z " fill="rgb(250,250,250)"/><path d=" M 82.927 75.864 C 82.916 75.871 82.985 75.997 83.12 76.219 C 83.255 76.441 83.459 76.757 83.721 77.14 C 84.244 77.907 85.009 78.94 85.925 80.022 C 86.843 81.104 87.737 82.028 88.408 82.67 C 88.744 82.991 89.021 83.245 89.218 83.413 C 89.415 83.583 89.528 83.672 89.537 83.663 C 89.546 83.653 89.45 83.545 89.27 83.359 C 89.059 83.144 88.804 82.882 88.504 82.574 C 87.859 81.909 86.985 80.976 86.072 79.898 C 85.159 78.821 84.381 77.806 83.831 77.062 C 83.577 76.714 83.36 76.42 83.182 76.178 C 83.028 75.968 82.938 75.856 82.927 75.864 Z " fill="rgb(250,250,250)"/><path d=" M 66.636 118.124 L 65.061 91.871 L 71.701 79.051 L 69.022 52.517 C 69.722 52.313 55.977 46.639 55.977 46.639 L 39.474 45.82 L 26.528 48.086 C 26.046 48.25 25.406 48.57 24.679 49 C 20.449 51.499 17.352 55.541 15.914 60.238 L 6.389 91.351 C 9.688 98.216 14.485 104.234 20.366 108.972 L 20.861 95.019 L 26.516 77.309 L 23.536 100.185 L 22.254 110.422 C 28.031 114.648 34.739 117.686 42.025 119.17 L 62.438 119.17 C 63.86 118.88 65.26 118.531 66.636 118.124 Z " fill-rule="evenodd" fill="rgb(232,80,91)"/><g><path d=" M 42.689 16.163 C 42.67 16.185 42.902 16.451 43.291 16.862 C 43.68 17.273 44.228 17.829 44.841 18.433 C 45.454 19.037 46.018 19.575 46.433 19.958 C 46.849 20.34 47.117 20.565 47.138 20.545 C 47.159 20.523 46.929 20.259 46.54 19.848 C 46.15 19.437 45.602 18.88 44.987 18.274 C 44.371 17.668 43.807 17.128 43.391 16.746 C 42.975 16.364 42.709 16.14 42.689 16.163 Z " fill="rgb(224,224,224)"/><path d=" M 48.359 54.783 L 48.359 54.783 C 52.697 54.437 56.029 50.795 55.991 46.444 C 55.973 44.379 55.951 42.727 55.951 42.727 C 55.951 42.727 62.604 41.693 62.686 35.041 C 62.769 28.388 61.616 13.113 61.616 13.113 C 53.915 9.804 45.027 10.921 38.384 16.033 L 37.399 16.792 L 39.425 47.071 C 39.734 51.682 43.752 55.151 48.359 54.783 Z " fill="rgb(255,190,157)"/><path d=" M 55.962 42.632 C 55.962 42.632 51.758 42.974 47.289 40.167 C 47.289 40.167 49.339 44.954 55.977 44.355 L 55.962 42.632 Z " fill="rgb(170,101,80)"/><path d=" M 38.218 23.683 C 38.105 23.634 33.647 22.331 33.793 26.879 C 33.938 31.426 38.474 30.343 38.478 30.212 C 38.482 30.081 38.218 23.683 38.218 23.683 Z " fill="rgb(255,190,157)"/><path d=" M 37.033 28.533 C 37.013 28.52 36.956 28.592 36.824 28.657 C 36.695 28.721 36.472 28.769 36.232 28.688 C 35.746 28.527 35.317 27.777 35.269 26.958 C 35.244 26.545 35.318 26.148 35.454 25.817 C 35.583 25.48 35.79 25.24 36.031 25.19 C 36.27 25.126 36.446 25.266 36.505 25.392 C 36.57 25.517 36.545 25.609 36.569 25.616 C 36.582 25.627 36.664 25.537 36.622 25.35 C 36.599 25.26 36.543 25.155 36.433 25.071 C 36.322 24.985 36.16 24.945 35.992 24.969 C 35.642 25.004 35.336 25.337 35.187 25.7 C 35.018 26.066 34.924 26.512 34.952 26.977 C 35.011 27.892 35.507 28.735 36.171 28.904 C 36.493 28.977 36.757 28.872 36.892 28.761 C 37.029 28.644 37.05 28.541 37.033 28.533 Z " fill="rgb(170,101,80)"/><path d=" M 59.201 23.779 C 59.219 24.281 58.809 24.71 58.285 24.738 C 57.762 24.766 57.324 24.383 57.306 23.881 C 57.288 23.38 57.698 22.95 58.221 22.922 C 58.744 22.894 59.183 23.278 59.201 23.779 Z " fill="rgb(38,50,56)"/><path d=" M 60.357 22.471 C 60.239 22.595 59.519 22.063 58.496 22.065 C 57.476 22.053 56.725 22.579 56.614 22.454 C 56.56 22.399 56.68 22.175 57.007 21.937 C 57.328 21.7 57.876 21.47 58.513 21.473 C 59.15 21.476 59.686 21.711 59.994 21.951 C 60.308 22.192 60.414 22.416 60.357 22.471 Z " fill="rgb(38,50,56)"/><path d=" M 49.385 24.002 C 49.403 24.504 48.993 24.932 48.47 24.961 C 47.947 24.989 47.508 24.606 47.49 24.104 C 47.473 23.603 47.883 23.173 48.406 23.145 C 48.929 23.117 49.368 23.501 49.385 24.002 Z " fill="rgb(38,50,56)"/><path d=" M 50.308 22.662 C 50.19 22.786 49.469 22.253 48.448 22.256 C 47.427 22.244 46.677 22.77 46.566 22.645 C 46.511 22.589 46.63 22.366 46.958 22.128 C 47.28 21.891 47.828 21.661 48.464 21.663 C 49.102 21.667 49.637 21.901 49.945 22.141 C 50.258 22.383 50.365 22.607 50.308 22.662 Z " fill="rgb(38,50,56)"/><path d=" M 54.018 30.243 C 54.013 30.185 54.649 30.075 55.678 29.944 C 55.94 29.917 56.186 29.865 56.231 29.687 C 56.292 29.498 56.183 29.217 56.056 28.913 C 55.811 28.281 55.554 27.619 55.284 26.925 C 54.212 24.095 53.436 21.768 53.551 21.726 C 53.665 21.684 54.627 23.943 55.699 26.773 C 55.956 27.471 56.203 28.137 56.438 28.773 C 56.537 29.07 56.707 29.406 56.573 29.798 C 56.503 29.993 56.312 30.135 56.144 30.179 C 55.977 30.23 55.83 30.233 55.701 30.241 C 54.665 30.297 54.022 30.301 54.018 30.243 Z " fill="rgb(38,50,56)"/><path d=" M 50.572 18.656 C 50.471 18.934 49.45 18.802 48.251 18.947 C 47.049 19.067 46.081 19.418 45.923 19.169 C 45.851 19.05 46.02 18.788 46.411 18.519 C 46.798 18.25 47.417 17.995 48.137 17.915 C 48.857 17.836 49.516 17.95 49.953 18.128 C 50.394 18.305 50.615 18.524 50.572 18.656 Z " fill="rgb(38,50,56)"/><path d=" M 59.981 19.513 C 59.801 19.745 59.097 19.504 58.25 19.492 C 57.403 19.451 56.686 19.648 56.521 19.405 C 56.449 19.288 56.561 19.055 56.875 18.835 C 57.184 18.616 57.7 18.437 58.282 18.455 C 58.864 18.473 59.368 18.684 59.663 18.922 C 59.962 19.16 60.06 19.399 59.981 19.513 Z " fill="rgb(38,50,56)"/><path d=" M 64.856 8.914 C 64.928 8.089 64.621 7.204 63.95 6.719 C 63.279 6.235 62.238 6.265 61.693 6.888 C 62.005 5.777 61.097 4.496 59.946 4.423 C 58.861 4.354 57.935 5.174 56.887 5.461 C 55.863 5.742 54.765 5.499 53.781 5.103 C 52.797 4.706 51.876 4.159 50.879 3.795 C 48.801 3.036 46.424 3.131 44.412 4.055 C 42.401 4.978 40.779 6.719 40 8.79 C 38.545 8.335 36.892 9.074 35.995 10.307 C 35.097 11.539 34.867 13.157 35.046 14.671 C 35.166 15.694 35.462 16.682 35.806 17.656 C 35.806 17.741 35.798 17.826 35.799 17.911 C 35.868 21.569 36.282 25.865 37.842 25.889 C 40.563 25.931 39.914 20.806 39.914 20.806 C 43.253 19.516 42.009 14.515 42.844 13.756 C 43.678 12.997 45.424 11.234 52.413 14.806 C 55.127 16.193 58.735 16.15 60.705 15.703 C 60.763 15.69 60.822 15.682 60.879 15.668 C 60.891 15.665 60.907 15.663 60.919 15.66 C 60.941 15.654 60.956 15.642 60.977 15.636 C 61.605 15.473 62.211 15.23 62.769 14.876 C 63.403 14.475 63.978 13.933 64.247 13.233 C 64.515 12.534 64.414 11.661 63.866 11.151 C 64.381 10.504 64.785 9.738 64.856 8.914 Z " fill="rgb(204,125,7)"/><path d=" M 54.886 33.388 C 54.725 33.794 54.561 34.206 54.293 34.55 C 54.024 34.894 53.631 35.166 53.195 35.187 C 52.731 35.209 52.283 34.934 52.024 34.548 C 51.765 34.162 51.677 33.681 51.698 33.216 C 51.716 32.796 51.909 32.294 52.326 32.245 C 52.5 32.225 52.671 32.292 52.833 32.357 C 53.564 32.654 54.296 32.951 55.027 33.247" fill="rgb(170,101,80)"/><path d=" M 54.009 35.193 C 53.998 35.124 53.516 35.32 52.839 35.049 C 52.511 34.917 52.152 34.656 51.954 34.245 C 51.756 33.839 51.718 33.29 51.926 32.809 C 51.974 32.689 52.046 32.579 52.117 32.481 C 52.204 32.39 52.188 32.394 52.282 32.408 C 52.372 32.432 52.516 32.5 52.634 32.546 C 52.756 32.596 52.877 32.645 52.994 32.693 C 53.464 32.883 53.889 33.049 54.248 33.183 C 54.967 33.452 55.422 33.593 55.443 33.543 C 55.464 33.494 55.048 33.262 54.357 32.928 C 54.012 32.762 53.598 32.569 53.136 32.361 C 53.02 32.309 52.901 32.256 52.781 32.202 C 52.653 32.149 52.555 32.092 52.38 32.037 C 52.294 32.013 52.173 31.999 52.055 32.046 C 51.939 32.093 51.866 32.172 51.812 32.238 C 51.715 32.368 51.628 32.503 51.566 32.654 C 51.308 33.254 51.37 33.917 51.633 34.409 C 51.901 34.912 52.358 35.194 52.746 35.31 C 53.142 35.431 53.481 35.402 53.697 35.347 C 53.915 35.289 54.018 35.215 54.009 35.193 Z " fill="rgb(38,50,56)"/><path d=" M 42.623 13.136 C 42.649 13.133 42.554 12.846 42.62 12.331 C 42.684 11.824 42.97 11.084 43.659 10.462 C 44.329 9.824 45.432 9.443 46.654 9.473 C 47.885 9.484 49.193 9.888 50.546 10.344 C 51.225 10.567 51.895 10.781 52.56 10.928 C 53.226 11.072 53.88 11.149 54.505 11.165 C 55.758 11.202 56.878 10.998 57.782 10.733 C 58.686 10.459 59.376 10.123 59.833 9.864 C 60.064 9.736 60.235 9.624 60.349 9.546 C 60.463 9.468 60.521 9.425 60.518 9.419 C 60.507 9.402 60.264 9.561 59.797 9.797 C 59.333 10.033 58.641 10.346 57.744 10.6 C 56.847 10.845 55.741 11.031 54.511 10.984 C 53.897 10.964 53.255 10.885 52.602 10.74 C 51.949 10.594 51.286 10.381 50.607 10.158 C 49.257 9.703 47.922 9.293 46.657 9.293 C 45.402 9.27 44.25 9.682 43.565 10.361 C 42.862 11.019 42.586 11.797 42.544 12.322 C 42.501 12.856 42.623 13.136 42.623 13.136 Z " fill="rgb(170,101,80)"/><path d=" M 37.451 24.378 C 37.457 24.381 37.487 24.333 37.538 24.238 C 37.592 24.144 37.661 24.001 37.745 23.814 C 37.911 23.44 38.119 22.88 38.275 22.161 C 38.426 21.442 38.521 20.562 38.446 19.589 C 38.385 18.611 38.081 17.579 37.853 16.499 C 37.616 15.421 37.561 14.348 37.846 13.441 C 37.983 12.99 38.207 12.594 38.484 12.283 C 38.763 11.978 39.105 11.77 39.44 11.656 C 40.117 11.417 40.727 11.525 41.082 11.698 C 41.439 11.88 41.576 12.073 41.593 12.056 C 41.593 12.056 41.48 11.843 41.117 11.63 C 40.757 11.428 40.115 11.29 39.395 11.525 C 39.039 11.637 38.67 11.849 38.364 12.173 C 38.064 12.498 37.823 12.916 37.674 13.387 C 37.366 14.332 37.421 15.449 37.661 16.538 C 37.893 17.633 38.197 18.649 38.266 19.604 C 38.35 20.556 38.27 21.422 38.139 22.133 C 38.003 22.846 37.818 23.405 37.674 23.785 C 37.531 24.166 37.435 24.37 37.451 24.378 Z " fill="rgb(170,101,80)"/><path d=" M 41.984 12.599 C 41.991 12.598 41.99 12.506 41.982 12.331 C 41.974 12.137 41.965 11.884 41.953 11.568 C 41.946 10.911 41.925 9.935 42.26 8.806 C 42.432 8.247 42.712 7.657 43.149 7.128 C 43.581 6.6 44.188 6.139 44.932 5.95 C 45.673 5.747 46.507 5.818 47.313 6.047 C 48.125 6.276 48.908 6.681 49.694 7.126 C 50.48 7.569 51.25 8.022 52.054 8.34 C 52.862 8.651 53.693 8.813 54.487 8.829 C 55.281 8.847 56.036 8.745 56.715 8.555 C 57.394 8.362 57.998 8.1 58.522 7.81 C 59.564 7.212 60.254 6.507 60.663 5.984 C 60.873 5.724 61.009 5.504 61.097 5.351 C 61.187 5.201 61.231 5.121 61.225 5.118 C 61.219 5.114 61.164 5.187 61.063 5.33 C 60.966 5.475 60.821 5.686 60.604 5.936 C 60.181 6.438 59.487 7.117 58.455 7.69 C 57.936 7.966 57.34 8.216 56.673 8.398 C 56.006 8.577 55.266 8.671 54.492 8.648 C 53.717 8.628 52.911 8.466 52.125 8.162 C 51.34 7.849 50.579 7.401 49.79 6.955 C 49.003 6.509 48.202 6.095 47.366 5.862 C 46.535 5.63 45.666 5.557 44.886 5.775 C 44.101 5.98 43.465 6.473 43.023 7.025 C 42.576 7.579 42.295 8.19 42.128 8.766 C 41.802 9.928 41.848 10.912 41.877 11.572 C 41.896 11.904 41.922 12.161 41.942 12.335 C 41.963 12.508 41.978 12.599 41.984 12.599 Z " fill="rgb(170,101,80)"/></g><g><path d=" M 68.965 65.42 C 68.962 65.419 68.951 65.465 68.933 65.554 C 68.915 65.654 68.89 65.785 68.859 65.953 C 68.796 66.315 68.707 66.831 68.593 67.49 C 68.367 68.825 68.046 70.757 67.676 73.15 C 67.306 75.543 66.89 78.397 66.493 81.574 C 66.101 84.751 65.724 88.254 65.512 91.945 C 65.493 92.289 65.474 92.631 65.456 92.948 L 65.456 92.951 L 65.456 92.955 C 65.65 100.116 65.87 106.552 66.071 111.195 C 66.172 113.517 66.265 115.391 66.345 116.684 C 66.388 117.322 66.421 117.821 66.445 118.172 C 66.459 118.333 66.469 118.461 66.477 118.557 C 66.485 118.644 66.491 118.689 66.494 118.688 C 66.497 118.688 66.498 118.643 66.496 118.556 C 66.492 118.46 66.488 118.331 66.483 118.169 C 66.467 117.818 66.446 117.319 66.418 116.68 C 66.367 115.375 66.294 113.504 66.203 111.19 C 66.037 106.546 65.839 100.11 65.648 92.95 L 65.648 92.957 C 65.665 92.64 65.684 92.299 65.703 91.956 C 65.915 88.272 66.286 84.772 66.668 81.595 C 67.055 78.419 67.457 75.565 67.809 73.171 C 68.17 70.785 68.463 68.851 68.666 67.501 C 68.765 66.84 68.843 66.323 68.897 65.959 C 68.92 65.79 68.939 65.657 68.952 65.557 C 68.964 65.467 68.968 65.42 68.965 65.42 Z " fill="rgb(38,50,56)"/><path d=" M 29.241 66.857 C 29.248 66.858 29.262 66.8 29.282 66.688 C 29.305 66.554 29.332 66.392 29.364 66.197 C 29.381 66.088 29.399 65.969 29.418 65.841 C 29.433 65.711 29.438 65.568 29.449 65.414 C 29.464 65.108 29.504 64.758 29.483 64.37 C 29.479 64.176 29.475 63.973 29.47 63.763 C 29.463 63.551 29.431 63.333 29.411 63.106 C 29.38 62.65 29.281 62.173 29.191 61.669 C 28.969 60.668 28.632 59.587 28.137 58.51 C 27.629 57.439 27.017 56.486 26.393 55.674 C 26.064 55.28 25.761 54.898 25.432 54.582 C 25.271 54.421 25.124 54.256 24.966 54.115 C 24.808 53.976 24.655 53.842 24.509 53.714 C 24.226 53.45 23.933 53.255 23.687 53.07 C 23.562 52.98 23.45 52.892 23.34 52.82 C 23.23 52.752 23.127 52.69 23.032 52.632 C 22.862 52.532 22.721 52.449 22.604 52.379 C 22.505 52.324 22.451 52.297 22.448 52.303 C 22.445 52.309 22.492 52.346 22.584 52.413 C 22.696 52.49 22.83 52.583 22.991 52.695 C 23.083 52.756 23.182 52.823 23.288 52.894 C 23.394 52.971 23.503 53.063 23.623 53.156 C 23.86 53.348 24.145 53.547 24.42 53.816 C 24.562 53.946 24.71 54.081 24.864 54.222 C 25.018 54.364 25.16 54.53 25.317 54.691 C 25.638 55.009 25.932 55.391 26.253 55.782 C 26.863 56.591 27.462 57.534 27.964 58.591 C 28.452 59.654 28.79 60.719 29.019 61.706 C 29.112 62.203 29.216 62.674 29.253 63.124 C 29.276 63.348 29.312 63.563 29.323 63.772 C 29.331 63.98 29.34 64.181 29.348 64.373 C 29.377 64.757 29.348 65.104 29.342 65.408 C 29.336 65.561 29.337 65.703 29.327 65.833 C 29.314 65.961 29.302 66.079 29.29 66.189 C 29.272 66.385 29.257 66.547 29.245 66.682 C 29.236 66.796 29.235 66.856 29.241 66.857 Z " fill="rgb(38,50,56)"/><path d=" M 20.657 94.537 C 20.664 94.539 20.692 94.463 20.741 94.317 C 20.795 94.152 20.864 93.941 20.949 93.679 C 21.131 93.101 21.382 92.302 21.688 91.326 C 22.31 89.338 23.166 86.59 24.149 83.568 C 25.134 80.547 26.045 77.814 26.779 75.87 C 27.16 74.904 27.532 74.147 27.76 73.609 C 27.876 73.341 27.961 73.132 28.016 72.988 C 28.07 72.845 28.096 72.768 28.09 72.766 C 28.084 72.763 28.046 72.835 27.98 72.973 C 27.906 73.13 27.81 73.33 27.692 73.578 C 27.444 74.105 27.053 74.853 26.653 75.819 C 25.883 77.761 24.953 80.485 23.967 83.509 C 22.984 86.533 22.147 89.288 21.558 91.286 C 21.264 92.286 21.033 93.097 20.878 93.658 C 20.806 93.924 20.749 94.139 20.704 94.307 C 20.667 94.456 20.651 94.535 20.657 94.537 Z " fill="rgb(38,50,56)"/><path d=" M 11.106 93.694 C 11.116 93.727 11.598 93.585 12.395 93.461 C 13.191 93.336 14.308 93.258 15.53 93.389 C 16.752 93.525 17.826 93.842 18.576 94.136 C 19.328 94.429 19.768 94.671 19.784 94.641 C 19.791 94.629 19.686 94.56 19.49 94.444 C 19.296 94.325 19.001 94.175 18.628 94.011 C 17.882 93.681 16.794 93.337 15.551 93.199 C 14.308 93.065 13.171 93.166 12.372 93.328 C 11.972 93.408 11.652 93.49 11.436 93.564 C 11.22 93.636 11.102 93.681 11.106 93.694 Z " fill="rgb(38,50,56)"/><g opacity="0.300003"><path d=" M 26.312 76.827 C 26.312 76.827 28.425 72.102 28.282 72.102 C 28.49 80.945 26.69 91.094 23.384 99.3 L 26.312 76.827 Z " fill="rgb(0,0,0)"/></g><path d=" M 32.123 101.89 C 32.12 101.896 32.207 101.952 32.376 102.052 C 32.561 102.159 32.808 102.303 33.119 102.483 C 33.761 102.863 34.691 103.411 35.828 104.11 C 36.968 104.803 38.319 105.64 39.857 106.51 C 41.399 107.371 43.133 108.267 45.055 108.967 C 46.98 109.644 48.901 110.108 50.686 110.113 C 51.576 110.114 52.424 109.994 53.183 109.76 C 53.941 109.525 54.602 109.161 55.129 108.74 C 56.185 107.885 56.709 106.859 56.876 106.13 C 56.966 105.764 56.987 105.471 56.989 105.274 C 56.984 105.076 56.979 104.974 56.972 104.974 C 56.943 104.971 57.002 105.395 56.804 106.111 C 56.618 106.821 56.087 107.812 55.045 108.634 C 54.524 109.039 53.88 109.385 53.136 109.608 C 52.392 109.83 51.562 109.942 50.687 109.936 C 48.933 109.923 47.029 109.459 45.121 108.787 C 43.213 108.093 41.485 107.206 39.943 106.356 C 38.405 105.497 37.047 104.672 35.898 103.994 C 34.751 103.31 33.81 102.778 33.156 102.418 C 32.838 102.251 32.584 102.118 32.394 102.018 C 32.219 101.928 32.126 101.884 32.123 101.89 Z " fill="rgb(38,50,56)"/><path d=" M 32.177 91.128 C 32.165 91.131 32.215 91.359 32.319 91.768 C 32.368 91.973 32.435 92.223 32.533 92.507 C 32.629 92.791 32.724 93.12 32.872 93.468 C 33.008 93.82 33.161 94.205 33.357 94.604 C 33.536 95.012 33.768 95.427 34.005 95.867 C 34.504 96.734 35.114 97.653 35.842 98.549 C 36.579 99.439 37.361 100.216 38.113 100.875 C 38.5 101.193 38.861 101.502 39.226 101.757 C 39.579 102.027 39.927 102.253 40.246 102.455 C 40.558 102.667 40.863 102.825 41.123 102.974 C 41.381 103.126 41.613 103.241 41.805 103.329 C 42.186 103.51 42.399 103.605 42.405 103.593 C 42.41 103.581 42.208 103.463 41.839 103.263 C 41.653 103.165 41.428 103.042 41.176 102.882 C 40.922 102.725 40.625 102.56 40.319 102.342 C 40.007 102.133 39.667 101.903 39.321 101.63 C 38.963 101.372 38.609 101.061 38.23 100.742 C 37.49 100.082 36.72 99.309 35.99 98.427 C 35.269 97.54 34.661 96.633 34.158 95.78 C 33.919 95.346 33.684 94.938 33.501 94.536 C 33.3 94.143 33.14 93.765 32.997 93.418 C 32.843 93.075 32.74 92.752 32.635 92.472 C 32.527 92.194 32.45 91.948 32.391 91.747 C 32.265 91.346 32.19 91.125 32.177 91.128 Z " fill="rgb(38,50,56)"/><path d=" M 29.172 72.303 C 29.173 72.356 37.445 72.337 47.647 72.26 C 57.852 72.183 66.122 72.079 66.122 72.025 C 66.121 71.973 57.85 71.992 47.645 72.069 C 37.444 72.145 29.172 72.25 29.172 72.303 Z " fill="rgb(250,250,250)"/><path d=" M 28.559 74.178 C 28.559 74.231 37.072 74.274 47.57 74.274 C 58.072 74.274 66.582 74.231 66.582 74.178 C 66.582 74.125 58.072 74.082 47.57 74.082 C 37.072 74.082 28.559 74.125 28.559 74.178 Z " fill="rgb(250,250,250)"/><path d=" M 13.068 69.813 C 13.068 69.809 13.053 69.806 13.024 69.804 C 13.04 69.846 13.057 69.818 13.08 69.827 L 13.097 69.828 L 13.106 69.828 L 13.111 69.828 L 13.112 69.828 L 13.113 69.828 L 13.111 69.793 L 13.108 69.792 L 13.067 69.792 L 12.95 69.791 L 13.062 69.832 C 13.741 70.081 16.583 71.044 19.94 72.322 C 21.857 73.059 23.59 73.726 24.886 74.224 C 25.495 74.457 26 74.651 26.386 74.798 C 26.741 74.931 26.94 74.999 26.945 74.986 C 26.95 74.974 26.761 74.883 26.414 74.729 C 26.067 74.576 25.562 74.359 24.936 74.098 C 23.684 73.576 21.945 72.876 20.008 72.143 C 16.648 70.863 13.779 69.96 13.074 69.793 L 13.069 69.833 L 13.11 69.828 L 13.113 69.828 L 13.113 69.828 L 13.111 69.793 L 13.11 69.793 L 13.109 69.793 L 13.105 69.793 L 13.095 69.795 L 13.078 69.796 C 13.057 69.809 13.037 69.781 13.025 69.825 C 13.054 69.82 13.068 69.816 13.068 69.813 Z " fill="rgb(250,250,250)"/><path d=" M 13.368 67.44 C 13.352 67.49 16.578 68.619 20.574 69.962 C 24.572 71.305 27.825 72.353 27.842 72.303 C 27.859 72.253 24.633 71.124 20.635 69.781 C 16.639 68.438 13.385 67.389 13.368 67.44 Z " fill="rgb(250,250,250)"/><path d=" M 37.951 45.613 C 37.944 45.613 37.933 45.715 37.917 45.91 C 37.894 46.105 37.889 46.393 37.895 46.766 C 37.914 47.508 38.061 48.594 38.546 49.841 C 39.042 51.074 39.903 52.472 41.272 53.605 C 42.627 54.748 44.516 55.517 46.557 55.648 C 48.599 55.767 50.568 55.234 52.052 54.264 C 53.55 53.306 54.574 52.022 55.216 50.859 C 55.85 49.68 56.127 48.621 56.237 47.887 C 56.288 47.517 56.318 47.23 56.319 47.034 C 56.327 46.839 56.328 46.736 56.322 46.736 C 56.315 46.736 56.301 46.837 56.281 47.031 C 56.267 47.226 56.226 47.51 56.163 47.874 C 56.033 48.598 55.738 49.64 55.098 50.793 C 54.45 51.932 53.431 53.184 51.958 54.115 C 50.5 55.057 48.571 55.573 46.568 55.457 C 44.568 55.328 42.717 54.581 41.384 53.469 C 40.035 52.366 39.176 50.999 38.672 49.79 C 38.177 48.567 38.011 47.497 37.97 46.762 C 37.952 46.394 37.945 46.107 37.956 45.912 C 37.959 45.717 37.958 45.614 37.951 45.613 Z " fill="rgb(250,250,250)"/><g opacity="0.300003"><path d=" M 41.206 102.929 C 43.062 103.983 45.564 104.151 47.798 104.21 C 48.22 104.222 48.656 104.218 49.041 104.046 C 49.426 103.873 49.746 103.486 49.709 103.066 C 49.664 102.561 49.16 102.236 48.692 102.042 C 46.888 101.295 44.862 101.338 42.968 100.862 C 39.739 100.05 36.445 97.746 33.931 95.562 C 35.849 98.795 37.957 100.983 41.206 102.929 Z " fill="rgb(0,0,0)"/></g></g><g><defs><filter id="DMWntFBgjXwWTQBXO35dt9vApxPjhkGS" x="-200%" y="-200%" width="400%" height="400%" filterUnits="objectBoundingBox" color-interpolation-filters="sRGB"><feGaussianBlur xmlns="http://www.w3.org/2000/svg" in="SourceGraphic" stdDeviation="2.146804531419514"/><feOffset xmlns="http://www.w3.org/2000/svg" dx="0" dy="0" result="pf_100_offsetBlur"/><feFlood xmlns="http://www.w3.org/2000/svg" flood-color="#000000" flood-opacity="0.3"/><feComposite xmlns="http://www.w3.org/2000/svg" in2="pf_100_offsetBlur" operator="in" result="pf_100_dropShadow"/><feBlend xmlns="http://www.w3.org/2000/svg" in="SourceGraphic" in2="pf_100_dropShadow" mode="normal"/></filter></defs><g filter="url(#DMWntFBgjXwWTQBXO35dt9vApxPjhkGS)"><path d=" M 71.701 33.021 L 79.536 29.965 C 79.992 26.494 81.382 23.103 83.753 20.187 C 90.572 11.804 102.895 10.535 111.279 17.353 C 119.662 24.17 120.931 36.494 114.113 44.878 C 107.295 53.261 94.971 54.531 86.588 47.712 C 83.087 44.865 80.832 41.058 79.883 36.978 L 79.883 36.989 L 71.701 33.021 Z " fill="rgb(255,255,255)"/></g><path d=" M 86.76 39.72 L 86.76 28.04 L 85.315 27.786 L 85.315 26.575 L 91.252 26.575 L 91.252 27.786 L 89.612 28.04 L 89.612 32.943 L 95.549 32.943 L 95.549 28.04 L 94.045 27.786 L 94.045 26.575 L 99.905 26.575 L 99.905 27.786 L 98.421 28.04 L 98.421 39.72 L 99.905 39.916 L 99.905 41.088 L 94.026 41.088 L 94.026 39.916 L 95.549 39.72 L 95.549 34.427 L 89.612 34.427 L 89.612 39.72 L 91.252 39.916 L 91.252 41.088 L 85.276 41.088 L 85.276 39.916 L 86.76 39.72 Z  M 104.07 28.45 L 104.07 28.45 Q 103.367 28.45 102.957 28.04 L 102.957 28.04 L 102.957 28.04 Q 102.547 27.63 102.547 26.985 L 102.547 26.985 L 102.547 26.985 Q 102.547 26.243 103.016 25.755 L 103.016 25.755 L 103.016 25.755 Q 103.484 25.267 104.266 25.267 L 104.266 25.267 L 104.266 25.267 Q 105.047 25.267 105.457 25.687 L 105.457 25.687 L 105.457 25.687 Q 105.867 26.106 105.867 26.731 L 105.867 26.731 L 105.867 26.731 Q 105.867 27.513 105.398 27.982 L 105.398 27.982 L 105.398 27.982 Q 104.93 28.45 104.09 28.45 L 104.09 28.45 L 104.07 28.45 Z  M 103.035 39.74 L 103.035 32.083 L 101.648 31.712 L 101.648 30.404 L 105.223 29.974 L 105.262 29.974 L 105.809 30.365 L 105.809 39.76 L 107.117 39.916 L 107.117 41.088 L 101.668 41.088 L 101.668 39.916 L 103.035 39.74 Z  M 112.708 23.802 L 111.986 36.205 L 110.306 36.205 L 109.564 23.802 L 112.708 23.802 Z  M 109.564 39.799 L 109.564 39.799 Q 109.564 39.095 110.091 38.627 L 110.091 38.627 L 110.091 38.627 Q 110.619 38.158 111.341 38.158 L 111.341 38.158 L 111.341 38.158 Q 112.064 38.158 112.484 38.597 L 112.484 38.597 L 112.484 38.597 Q 112.904 39.037 112.904 39.642 L 112.904 39.642 L 112.904 39.642 Q 112.904 40.385 112.386 40.824 L 112.386 40.824 L 112.386 40.824 Q 111.869 41.263 111.068 41.263 L 111.068 41.263 L 111.068 41.263 Q 110.462 41.263 110.013 40.853 L 110.013 40.853 L 110.013 40.853 Q 109.564 40.443 109.564 39.799 L 109.564 39.799 Z " fill="rgb(68,68,70)"/></g></g></g></g></svg>