<?xml version="1.0" encoding="UTF-8" standalone="no"?><!-- Generator: Gravit.io --><svg xmlns="http://www.w3.org/2000/svg" xmlns:xlink="http://www.w3.org/1999/xlink" style="isolation:isolate" viewBox="0 0 120 120" width="120pt" height="120pt"><defs><clipPath id="_clipPath_FBf1oDdLo38Y72vpADTeNuZEzfuulP5A"><rect width="120" height="120"/></clipPath></defs><g clip-path="url(#_clipPath_FBf1oDdLo38Y72vpADTeNuZEzfuulP5A)"><rect width="120" height="120" style="fill:rgb(0,0,0)" fill-opacity="0"/><g><defs><filter id="O48e2LjZmeM0qFK6gLPOJvRtHYP34xrc" x="-200%" y="-200%" width="400%" height="400%" filterUnits="objectBoundingBox" color-interpolation-filters="sRGB"><feOffset xmlns="http://www.w3.org/2000/svg" in="SourceGraphic" dx="0" dy="0"/><feGaussianBlur xmlns="http://www.w3.org/2000/svg" stdDeviation="2.146804531419514" result="pf_100_offsetBlur"/><feComposite xmlns="http://www.w3.org/2000/svg" in="SourceGraphic" in2="pf_100_offsetBlur" result="pf_100_inverse" operator="out"/><feFlood xmlns="http://www.w3.org/2000/svg" flood-color="#000000" flood-opacity="0.5" result="pf_100_color"/><feComposite xmlns="http://www.w3.org/2000/svg" in="pf_100_color" in2="pf_100_inverse" operator="in" result="pf_100_shadow"/><feComposite xmlns="http://www.w3.org/2000/svg" in="pf_100_shadow" in2="SourceGraphic" operator="over"/></filter></defs><g filter="url(#O48e2LjZmeM0qFK6gLPOJvRtHYP34xrc)"><path d=" M 12.009 70.802 C 11.51 96.487 31.927 117.714 57.612 118.214 C 83.297 118.714 104.524 98.296 105.024 72.611 C 105.523 46.926 85.106 25.699 59.421 25.199 C 33.735 24.7 12.508 45.117 12.009 70.802 Z " fill="rgb(224,224,224)"/></g><path d=" M 102.282 87.351 L 93.898 74.597 L 79.767 83.475 L 92.578 103.231 C 92.578 103.231 99.627 95.584 102.282 87.351 Z " fill="rgb(235,153,110)"/><path d=" M 49.76 23.566 C 50.452 22.806 49.515 21.615 48.548 21.264 C 47.582 20.913 46.378 20.751 45.916 19.833 C 45.356 18.718 46.346 17.472 46.525 16.237 C 46.715 14.916 45.954 13.66 45.728 12.344 C 45.44 10.671 46.096 8.867 47.391 7.769 C 48.686 6.67 50.573 6.318 52.178 6.875 C 52.28 4.303 54.096 1.884 56.538 1.068 C 58.98 0.252 61.885 1.092 63.514 3.086 C 64.787 2.118 66.08 1.139 67.563 0.541 C 69.047 -0.058 70.769 -0.239 72.232 0.407 C 73.695 1.054 74.781 2.663 74.498 4.237 C 75.605 2.921 77.665 2.663 79.218 3.399 C 80.772 4.135 81.828 5.693 82.281 7.351 C 82.912 9.669 82.362 12.402 80.513 13.936 C 78.665 15.47 75.501 15.327 74.133 13.353" fill="rgb(38,50,56)"/><path d=" M 58.829 62.817 L 58.829 62.817 C 63.907 62.824 68.097 58.879 68.348 53.853 C 68.557 49.667 68.731 45.634 68.731 45.634 C 68.731 45.634 76.505 45.071 77.222 37.472 C 77.94 29.872 78.038 12.297 78.038 12.297 C 69.462 7.795 59.102 8.245 50.96 13.473 L 50.22 13.948 L 49.322 53.277 C 49.264 58.522 53.536 62.808 58.829 62.817 Z " fill="rgb(255,190,157)"/><path d=" M 63.29 23.988 C 63.876 24.18 64.194 24.808 63.999 25.388 C 63.805 25.97 63.172 26.284 62.586 26.091 C 62 25.899 61.682 25.271 61.877 24.69 C 62.071 24.109 62.704 23.795 63.29 23.988 Z " fill="rgb(38,50,56)"/><path d=" M 65.42 24.383 C 65.291 24.508 64.571 23.887 63.513 23.819 C 62.455 23.736 61.653 24.248 61.544 24.106 C 61.491 24.043 61.625 23.812 61.976 23.579 C 62.32 23.348 62.899 23.139 63.559 23.186 C 64.218 23.233 64.761 23.522 65.069 23.8 C 65.382 24.08 65.481 24.328 65.42 24.383 Z " fill="rgb(38,50,56)"/><path d=" M 74.891 23.988 C 75.477 24.18 75.795 24.808 75.601 25.388 C 75.406 25.97 74.774 26.284 74.187 26.091 C 73.601 25.899 73.284 25.271 73.478 24.69 C 73.672 24.109 74.305 23.795 74.891 23.988 Z " fill="rgb(38,50,56)"/><path d=" M 77.163 24.406 C 77.035 24.531 76.315 23.91 75.257 23.843 C 74.199 23.759 73.397 24.271 73.288 24.13 C 73.235 24.066 73.368 23.835 73.719 23.602 C 74.064 23.371 74.643 23.163 75.302 23.21 C 75.961 23.257 76.505 23.545 76.812 23.823 C 77.126 24.104 77.226 24.351 77.163 24.406 Z " fill="rgb(38,50,56)"/><path d=" M 69.179 32.623 C 69.178 32.541 69.843 32.462 70.918 32.402 C 71.197 32.395 71.419 32.35 71.451 32.205 C 71.514 32.043 71.431 31.742 71.317 31.404 C 71.101 30.689 70.884 29.965 70.655 29.208 C 69.749 26.081 69.143 23.511 69.303 23.465 C 69.464 23.419 70.328 25.916 71.235 29.043 C 71.448 29.805 71.651 30.533 71.851 31.252 C 71.927 31.577 72.089 31.962 71.909 32.403 C 71.814 32.623 71.584 32.77 71.397 32.802 C 71.209 32.843 71.054 32.83 70.92 32.825 C 69.845 32.777 69.179 32.706 69.179 32.623 Z " fill="rgb(38,50,56)"/><path d=" M 65.649 33.504 C 67.769 34.532 68.753 34.847 70.712 35.415 C 70.712 35.415 69.318 37.271 67.17 36.29 C 64.941 35.271 65.649 33.504 65.649 33.504 Z " fill="rgb(255,255,255)"/><path d=" M 68.753 45.526 C 68.753 45.526 63.87 45.525 58.977 41.9 C 58.977 41.9 60.895 47.565 68.61 47.498 L 68.753 45.526 Z " fill="rgb(235,153,110)"/><path d=" M 50.034 25.11 C 50.042 24.495 49.567 23.965 48.948 23.936 C 47.515 23.869 45.158 24.387 44.862 28.305 C 44.438 33.901 49.902 32.609 49.924 32.45 C 49.941 32.324 50.006 27.288 50.034 25.11 Z " fill="rgb(255,190,157)"/><path d=" M 48.721 30.224 C 48.698 30.204 48.618 30.285 48.446 30.348 C 48.278 30.409 47.996 30.439 47.71 30.308 C 47.129 30.046 46.698 29.07 46.747 28.06 C 46.772 27.549 46.916 27.072 47.128 26.684 C 47.332 26.287 47.62 26.022 47.924 25.991 C 48.229 25.945 48.428 26.139 48.485 26.302 C 48.549 26.464 48.505 26.573 48.534 26.584 C 48.549 26.599 48.662 26.5 48.635 26.266 C 48.62 26.153 48.563 26.016 48.439 25.898 C 48.311 25.779 48.116 25.708 47.905 25.715 C 47.467 25.712 47.045 26.08 46.812 26.506 C 46.554 26.932 46.38 27.467 46.353 28.04 C 46.304 29.171 46.806 30.27 47.605 30.565 C 47.995 30.696 48.335 30.603 48.516 30.483 C 48.702 30.358 48.74 30.235 48.721 30.224 Z " fill="rgb(235,153,110)"/><path d=" M 61.649 21.264 C 61.888 21.571 62.722 21.427 63.806 21.381 C 64.887 21.294 65.733 21.335 65.93 21.001 C 66.154 20.653 65.107 19.854 63.713 19.968 C 62.315 20.025 61.381 20.945 61.649 21.264 Z " fill="rgb(38,50,56)"/><path d=" M 73.863 21.069 C 73.942 21.456 74.644 21.641 75.436 21.716 C 76.229 21.78 76.952 21.72 77.099 21.352 C 77.247 20.995 76.582 20.394 75.561 20.306 C 74.54 20.215 73.78 20.692 73.863 21.069 Z " fill="rgb(38,50,56)"/><path d=" M 79.118 14.704 C 79.118 14.704 74.507 16.936 68.505 13.941 C 64.568 11.975 59.977 11.015 58.965 11.807 C 57.953 12.598 57.739 16.656 53.838 17.841 C 53.838 17.841 54.106 25.583 51.019 25.307 C 47.932 25.031 49.861 13.039 49.861 13.039 L 57.413 9.351 L 65.654 7.794 L 73.418 8.889 L 79.427 10.534 L 79.118 14.704 Z " fill="rgb(38,50,56)"/><path d=" M 27.436 59.505 C 35.506 51.206 49.71 52.111 49.71 52.111 L 68.16 52.767 C 68.16 52.767 75.176 53.537 81.751 56.973 L 82.204 57.113 L 82.198 57.207 C 87.363 60.011 94.675 66.737 101.641 73.264 L 93.305 81.001 L 84.078 89.192 C 84.078 89.192 84.114 89.251 84.093 89.356 C 83.997 89.852 85.593 99.762 87.005 108.325 C 78.898 114.614 68.669 118.278 57.612 118.063 C 50.571 117.926 43.928 116.229 38.002 113.313 L 37.311 105.397 C 36.683 98.22 36.203 89.334 36.203 89.334" fill="rgb(232,80,91)"/><path d=" M 75.542 54.215 C 75.554 54.211 75.604 54.328 75.687 54.553 C 75.781 54.817 75.895 55.144 76.036 55.543 C 76.334 56.406 76.741 57.66 77.222 59.218 C 78.188 62.333 79.422 66.669 80.592 71.506 C 81.759 76.346 82.64 80.768 83.203 83.979 C 83.484 85.586 83.695 86.888 83.824 87.791 C 83.88 88.21 83.927 88.554 83.965 88.832 C 83.994 89.07 84.002 89.196 83.991 89.198 C 83.979 89.201 83.946 89.078 83.895 88.843 C 83.839 88.569 83.77 88.229 83.687 87.814 C 83.505 86.869 83.257 85.587 82.955 84.026 C 82.33 80.828 81.411 76.423 80.246 71.59 C 79.078 66.76 77.885 62.42 76.982 59.29 C 76.538 57.763 76.173 56.51 75.904 55.585 C 75.789 55.178 75.695 54.844 75.619 54.575 C 75.557 54.343 75.531 54.218 75.542 54.215 Z " fill="rgb(38,50,56)"/><path d=" M 83.123 83.881 C 83.061 83.806 86.592 80.826 91.008 77.228 C 95.425 73.629 99.056 70.774 99.118 70.85 C 99.18 70.927 95.65 73.905 91.232 77.504 C 86.817 81.102 83.185 83.957 83.123 83.881 Z " fill="rgb(38,50,56)"/><g opacity="0.199997"><path d=" M 38.088 70.896 L 30.866 94.656 L 33.553 96.054 L 36.204 89.334 C 36.204 89.334 38.926 75.218 38.088 70.896 Z " fill="rgb(0,0,0)"/></g><g opacity="0.199997"><path d=" M 74.76 54.229 C 78.653 56.281 68.895 61.221 64.488 61.088 L 67.689 52.644 C 67.689 52.644 73.453 53.54 74.76 54.229 Z " fill="rgb(0,0,0)"/></g><path d=" M 48.549 52.644 L 48.549 46.352 C 48.549 46.352 60.839 49.514 61.284 56.867 C 61.284 56.867 62.848 48.739 69.179 48.35 L 70.073 59.783 L 62.706 66.193 L 55.237 66.193 L 49.321 61.09 L 48.549 53.151" fill="rgb(232,80,91)"/><path d=" M 64.05 92.136 C 64.038 92.136 64.031 92.015 64.03 91.785 C 64.034 91.516 64.038 91.185 64.042 90.784 C 64.065 89.915 64.085 88.656 64.092 87.102 C 64.109 83.995 64.016 79.701 63.626 74.976 C 63.231 70.25 62.614 65.998 62.084 62.937 C 61.821 61.405 61.593 60.167 61.428 59.314 C 61.357 58.919 61.298 58.594 61.251 58.328 C 61.214 58.102 61.2 57.981 61.212 57.978 C 61.224 57.976 61.261 58.091 61.32 58.312 C 61.386 58.574 61.466 58.896 61.563 59.285 C 61.771 60.13 62.036 61.362 62.332 62.891 C 62.926 65.948 63.585 70.206 63.981 74.946 C 64.372 79.685 64.426 83.994 64.344 87.106 C 64.304 88.663 64.246 89.922 64.181 90.79 C 64.149 91.19 64.123 91.52 64.102 91.789 C 64.079 92.018 64.062 92.137 64.05 92.136 Z " fill="rgb(38,50,56)"/><path d=" M 60.719 54.751 C 60.716 54.784 60.442 54.635 59.986 54.807 C 59.763 54.892 59.516 55.06 59.309 55.335 C 59.096 55.606 58.923 55.968 58.735 56.38 C 57.974 58.013 57.036 60.371 56.384 63.18 L 56.33 63.413 L 56.124 63.289 C 55.39 62.846 54.637 62.366 53.88 61.851 C 52.413 60.853 51.07 59.835 49.897 58.829 C 49.308 58.324 48.825 57.715 48.546 57.066 C 48.271 56.416 48.162 55.766 48.13 55.179 C 48.079 53.999 48.269 53.066 48.391 52.431 C 48.525 51.795 48.625 51.45 48.647 51.455 C 48.672 51.46 48.619 51.815 48.528 52.455 C 48.447 53.092 48.299 54.025 48.381 55.163 C 48.427 55.728 48.547 56.344 48.815 56.946 C 49.089 57.547 49.536 58.096 50.113 58.583 C 51.277 59.557 52.625 60.568 54.08 61.558 C 54.832 62.068 55.578 62.547 56.305 62.991 L 56.045 63.1 C 56.721 60.265 57.711 57.899 58.532 56.281 C 58.734 55.877 58.929 55.505 59.172 55.223 C 59.41 54.938 59.698 54.764 59.946 54.692 C 60.462 54.544 60.737 54.748 60.719 54.751 Z " fill="rgb(38,50,56)"/><path d=" M 69.179 48.349 C 69.204 48.349 69.237 48.699 69.28 49.332 C 69.329 50.032 69.391 50.932 69.465 52.011 C 69.554 53.141 69.688 54.482 69.917 55.96 C 70.007 56.69 70.26 57.481 70.063 58.361 C 69.813 59.226 69.157 59.879 68.46 60.405 C 67.479 61.135 66.447 61.684 65.751 62.465 L 65.479 62.77 L 65.453 62.363 C 65.279 59.758 64.404 57.616 63.622 56.227 C 62.834 54.826 62.183 54.11 62.228 54.075 C 62.242 54.062 62.414 54.231 62.703 54.568 C 62.99 54.906 63.385 55.422 63.808 56.118 C 64.654 57.498 65.593 59.67 65.794 62.34 L 65.495 62.238 C 66.242 61.392 67.302 60.827 68.245 60.122 C 68.917 59.621 69.514 58.999 69.726 58.275 C 69.903 57.538 69.683 56.752 69.593 56.008 C 69.38 54.516 69.271 53.164 69.214 52.028 C 69.157 50.892 69.143 49.972 69.142 49.337 C 69.141 48.702 69.154 48.35 69.179 48.349 Z " fill="rgb(38,50,56)"/><path d=" M 108.734 49.928 C 108.234 50.517 90.142 74.708 90.142 74.708 L 92.689 76.152 L 111.255 52.267 L 108.734 49.928 Z " fill="rgb(38,50,56)"/><path d=" M 36.054 69.055 C 36.054 69.055 55.087 96.452 56.234 96.991 C 58.492 98.051 84.531 75.55 87.014 73.397 C 87.356 72.939 88.062 71.975 89.449 70.056 C 89.449 70.056 91.503 60.655 93.696 61.377 C 95.888 62.099 92.494 66.154 93.922 69.726 C 95.35 73.297 101.889 64.778 102.15 64.014 L 103.837 61.811 C 103.837 61.811 105.605 66.824 105.485 68.918 C 105.101 75.624 98.756 83.601 98.756 83.601 C 98.756 83.601 70.26 118.9 50.741 119.995 C 45.119 120.311 35.128 104.359 28.449 92.398 C 24.415 85.174 26.428 76.074 33.113 71.199 L 36.054 69.055 Z " fill="rgb(255,190,157)"/><path d=" M 102.282 70.11 C 102.229 70.077 102.847 69.004 103.521 67.637 C 104.2 66.272 104.677 65.13 104.735 65.152 C 104.787 65.171 104.396 66.356 103.713 67.732 C 103.033 69.11 102.329 70.14 102.282 70.11 Z " fill="rgb(235,153,110)"/><path d=" M 32.832 55.685 C 32.832 55.685 12.403 62.947 27.592 97.301 L 51.174 83.068 L 47.82 75.034 L 32.832 55.685 Z " fill="rgb(232,80,91)"/><path d=" M 31.267 56.279 C 31.267 56.273 31.321 56.268 31.429 56.265 C 31.557 56.263 31.713 56.261 31.905 56.259 C 32.323 56.261 32.944 56.318 33.723 56.5 C 34.494 56.7 35.422 57.044 36.394 57.634 C 37.369 58.219 38.38 59.042 39.363 60.076 C 41.341 62.142 43.187 65.025 44.901 68.364 C 46.627 71.704 48.238 75.507 49.891 79.504 C 50.387 80.702 50.875 81.882 51.338 83 L 51.398 83.147 L 51.259 83.223 C 44.436 86.944 38.496 90.431 34.3 93.044 C 32.2 94.347 30.528 95.42 29.382 96.166 C 28.827 96.526 28.388 96.81 28.062 97.021 C 27.76 97.214 27.598 97.311 27.592 97.301 C 27.585 97.292 27.734 97.177 28.025 96.967 C 28.316 96.758 28.745 96.446 29.31 96.06 C 30.436 95.279 32.089 94.175 34.174 92.843 C 38.341 90.175 44.266 86.647 51.09 82.913 L 51.012 83.136 C 50.548 82.018 50.059 80.838 49.563 79.64 C 47.91 75.645 46.311 71.846 44.609 68.514 C 42.919 65.181 41.109 62.309 39.18 60.248 C 38.221 59.218 37.238 58.395 36.29 57.803 C 35.345 57.207 34.442 56.852 33.687 56.633 C 32.159 56.239 31.262 56.334 31.267 56.279 Z " fill="rgb(38,50,56)"/></g></g></svg>