<?xml version="1.0" encoding="UTF-8" standalone="no"?><!-- Generator: Gravit.io --><svg xmlns="http://www.w3.org/2000/svg" xmlns:xlink="http://www.w3.org/1999/xlink" style="isolation:isolate" viewBox="0 0 300.1 249" width="300.1pt" height="249pt"><defs><clipPath id="_clipPath_gDOIf3ioAczviNxAhOksIJyoTjJJm0kC"><rect width="300.1" height="249"/></clipPath></defs><g clip-path="url(#_clipPath_gDOIf3ioAczviNxAhOksIJyoTjJJm0kC)"><rect width="300.1" height="249" style="fill:rgb(0,0,0)" fill-opacity="0"/><g><path d=" M 86.525 247.69 L 44.275 247.69 L 44.275 167.507 L 86.525 167.507 L 86.525 247.69 Z " fill="rgb(224,224,224)"/><path d=" M 66.715 247.69 L 86.525 247.69 L 86.525 167.507 L 66.715 167.507 L 66.715 247.69 Z " fill="rgb(235,235,235)"/><path d=" M 56.933 184.281 L 53.134 184.281 L 53.134 175.051 L 56.933 175.051 L 56.933 184.281 Z " fill="rgb(245,245,245)"/><path d=" M 56.933 220.402 L 53.134 220.402 L 53.134 211.173 L 56.933 211.173 L 56.933 220.402 Z " fill="rgb(245,245,245)"/><path d=" M 66.715 187.903 C 66.715 187.982 61.692 188.047 55.496 188.047 C 49.299 188.047 44.276 187.982 44.276 187.903 C 44.276 187.823 49.299 187.759 55.496 187.759 C 61.692 187.759 66.715 187.823 66.715 187.903 Z " fill="rgb(245,245,245)"/><path d=" M 56.933 202.478 L 53.134 202.478 L 53.134 193.249 L 56.933 193.249 L 56.933 202.478 Z " fill="rgb(245,245,245)"/><path d=" M 66.715 206.101 C 66.715 206.18 61.692 206.244 55.496 206.244 C 49.299 206.244 44.276 206.18 44.276 206.101 C 44.276 206.021 49.299 205.957 55.496 205.957 C 61.692 205.957 66.715 206.021 66.715 206.101 Z " fill="rgb(245,245,245)"/><path d=" M 81.871 184.469 L 78.072 184.469 L 78.072 175.24 L 81.871 175.24 L 81.871 184.469 Z " fill="rgb(224,224,224)"/><path d=" M 90.112 184.469 L 86.313 184.469 L 86.313 175.24 L 90.112 175.24 L 90.112 184.469 Z " fill="rgb(224,224,224)"/><path d=" M 81.871 201.982 L 78.072 201.982 L 78.072 192.753 L 81.871 192.753 L 81.871 201.982 Z " fill="rgb(224,224,224)"/><path d=" M 90.112 201.982 L 86.313 201.982 L 86.313 192.753 L 90.112 192.753 L 90.112 201.982 Z " fill="rgb(224,224,224)"/><path d=" M 81.871 219.495 L 78.072 219.495 L 78.072 210.266 L 81.871 210.266 L 81.871 219.495 Z " fill="rgb(224,224,224)"/><path d=" M 90.112 219.495 L 86.313 219.495 L 86.313 210.266 L 90.112 210.266 L 90.112 219.495 Z " fill="rgb(224,224,224)"/><path d=" M 89.701 167.577 L 41.1 167.577 L 41.1 165.568 L 89.701 165.568 L 89.701 167.577 Z " fill="rgb(224,224,224)"/><path d=" M 86.82 167.765 C 86.82 167.845 77.377 167.909 65.731 167.909 C 54.081 167.909 44.64 167.845 44.64 167.765 C 44.64 167.686 54.081 167.622 65.731 167.622 C 77.377 167.622 86.82 167.686 86.82 167.765 Z " fill="rgb(235,235,235)"/><path d=" M 54.334 247.465 L 16.51 247.465 L 16.51 197.577 L 54.334 197.577 L 54.334 247.465 Z " fill="rgb(235,235,235)"/><path d=" M 36.6 247.465 L 54.335 247.465 L 54.335 197.577 L 36.6 197.577 L 36.6 247.465 Z " fill="rgb(224,224,224)"/><path d=" M 27.842 212.595 L 24.441 212.595 L 24.441 204.332 L 27.842 204.332 L 27.842 212.595 Z " fill="rgb(245,245,245)"/><path d=" M 27.842 244.932 L 24.441 244.932 L 24.441 236.67 L 27.842 236.67 L 27.842 244.932 Z " fill="rgb(245,245,245)"/><path d=" M 36.6 215.837 C 36.6 215.93 32.102 216.005 26.556 216.005 C 21.007 216.005 16.511 215.93 16.511 215.837 C 16.511 215.744 21.007 215.669 26.556 215.669 C 32.102 215.669 36.6 215.744 36.6 215.837 Z " fill="rgb(245,245,245)"/><path d=" M 27.842 228.885 L 24.441 228.885 L 24.441 220.623 L 27.842 220.623 L 27.842 228.885 Z " fill="rgb(245,245,245)"/><path d=" M 36.6 232.129 C 36.6 232.221 32.102 232.296 26.556 232.296 C 21.007 232.296 16.511 232.221 16.511 232.129 C 16.511 232.036 21.007 231.961 26.556 231.961 C 32.102 231.961 36.6 232.036 36.6 232.129 Z " fill="rgb(245,245,245)"/><path d=" M 43.766 212.595 L 40.366 212.595 L 40.366 204.332 L 43.766 204.332 L 43.766 212.595 Z " fill="rgb(245,245,245)"/><path d=" M 51.145 212.595 L 47.744 212.595 L 47.744 204.332 L 51.145 204.332 L 51.145 212.595 Z " fill="rgb(245,245,245)"/><path d=" M 43.766 228.272 L 40.366 228.272 L 40.366 220.01 L 43.766 220.01 L 43.766 228.272 Z " fill="rgb(245,245,245)"/><path d=" M 51.145 228.272 L 47.744 228.272 L 47.744 220.01 L 51.145 220.01 L 51.145 228.272 Z " fill="rgb(245,245,245)"/><path d=" M 43.766 243.951 L 40.366 243.951 L 40.366 235.689 L 43.766 235.689 L 43.766 243.951 Z " fill="rgb(245,245,245)"/><path d=" M 51.145 243.951 L 47.744 243.951 L 47.744 235.689 L 51.145 235.689 L 51.145 243.951 Z " fill="rgb(245,245,245)"/><path d=" M 57.178 197.64 L 13.668 197.64 L 13.668 195.841 L 57.178 195.841 L 57.178 197.64 Z " fill="rgb(224,224,224)"/><path d=" M 54.598 197.81 C 54.598 197.902 46.145 197.977 35.719 197.977 C 25.289 197.977 16.837 197.902 16.837 197.81 C 16.837 197.717 25.289 197.641 35.719 197.641 C 46.145 197.641 54.598 197.717 54.598 197.81 Z " fill="rgb(235,235,235)"/><path d=" M 74.285 81.193 C 74.27 81.179 74.419 80.984 74.702 80.642 C 75.025 80.256 75.428 79.775 75.907 79.203 C 76.923 77.987 78.319 76.301 79.791 74.386 C 81.267 72.472 82.544 70.694 83.457 69.399 C 83.887 68.79 84.25 68.278 84.54 67.867 C 84.799 67.506 84.949 67.311 84.966 67.323 C 84.982 67.334 84.865 67.549 84.635 67.929 C 84.406 68.309 84.064 68.853 83.626 69.515 C 82.755 70.841 81.501 72.644 80.02 74.563 C 78.545 76.484 77.12 78.154 76.063 79.337 C 75.531 79.927 75.097 80.399 74.786 80.717 C 74.477 81.036 74.299 81.206 74.285 81.193 Z " fill="rgb(224,224,224)"/><path d=" M 83.382 102.324 C 83.367 102.311 83.549 102.058 83.892 101.613 C 84.269 101.127 84.762 100.495 85.355 99.733 C 86.588 98.145 88.283 95.945 90.085 93.463 C 91.891 90.984 93.466 88.697 94.596 87.034 C 95.139 86.235 95.589 85.572 95.935 85.064 C 96.253 84.6 96.436 84.348 96.454 84.359 C 96.471 84.37 96.319 84.642 96.03 85.125 C 95.741 85.608 95.312 86.301 94.767 87.147 C 93.681 88.841 92.129 91.151 90.319 93.635 C 88.514 96.12 86.791 98.305 85.516 99.861 C 84.876 100.638 84.352 101.262 83.98 101.684 C 83.609 102.108 83.397 102.337 83.382 102.324 Z " fill="rgb(224,224,224)"/><path d=" M 80.646 145.38 C 80.66 145.384 80.704 145.255 80.775 145.006 C 80.854 144.71 80.951 144.349 81.068 143.912 C 81.318 142.961 81.644 141.576 82.023 139.859 C 82.785 136.425 83.69 131.648 84.615 126.364 C 85.542 121.078 86.399 116.3 87.089 112.855 C 87.429 111.179 87.709 109.801 87.917 108.776 C 88.005 108.332 88.077 107.966 88.136 107.665 C 88.182 107.411 88.2 107.275 88.186 107.271 C 88.173 107.269 88.129 107.397 88.057 107.646 C 87.978 107.942 87.881 108.302 87.764 108.74 C 87.515 109.69 87.189 111.076 86.809 112.793 C 86.046 116.227 85.143 121.004 84.217 126.29 C 83.291 131.574 82.433 136.352 81.744 139.798 C 81.402 141.473 81.123 142.852 80.915 143.875 C 80.827 144.319 80.755 144.686 80.696 144.986 C 80.65 145.241 80.633 145.377 80.646 145.38 Z " fill="rgb(38,50,56)"/><path d=" M 176.285 248.684 L 94.065 248.303 C 84.176 248.259 76.197 239.985 76.24 229.824 L 77.137 18.013 C 77.18 7.846 85.237 -0.361 95.131 -0.315 L 177.351 0.065 C 187.24 0.111 195.219 8.383 195.177 18.544 L 194.28 230.356 C 194.237 240.523 186.179 248.73 176.285 248.684 Z " fill="rgb(38,50,56)"/><path d=" M 188.654 193.174 C 188.654 194.175 187.843 194.985 186.843 194.985 C 185.842 194.985 185.031 194.175 185.031 193.174 C 185.031 192.173 185.842 191.363 186.843 191.363 C 187.843 191.363 188.654 192.173 188.654 193.174 Z " fill="rgb(224,224,224)"/><path d=" M 186.843 197.148 C 186.754 197.148 186.683 196.258 186.683 195.161 C 186.683 194.064 186.754 193.174 186.843 193.174 C 186.932 193.174 187.003 194.064 187.003 195.161 C 187.003 196.258 186.932 197.148 186.843 197.148 Z " fill="rgb(224,224,224)"/><path d=" M 178.995 7.058 L 162.552 6.982 C 160.348 6.972 158.552 8.833 158.542 11.138 L 158.529 14.12 C 158.52 16.425 156.724 18.286 154.519 18.276 L 122.468 18.128 C 120.264 18.118 118.484 16.241 118.493 13.935 L 118.506 10.953 C 118.516 8.648 116.736 6.771 114.531 6.761 L 108.748 6.733 L 94.356 6.667 C 87.209 6.635 81.389 12.404 81.359 19.551 L 80.482 227.078 C 80.451 234.222 86.216 240.039 93.36 240.072 L 177.998 240.463 C 185.145 240.496 190.965 234.727 190.995 227.579 L 191.873 20.051 C 191.903 12.907 186.139 7.092 178.995 7.058 Z " fill="rgb(250,250,250)"/><path d=" M 86.102 170.823 C 86.823 170.281 122.221 154.687 122.221 154.687 L 80.875 134.065 L 80.734 167.279 L 86.102 170.823 Z " fill="rgb(235,235,235)"/><path d=" M 88.262 133.422 L 118.421 118.093 L 86.011 100.124 L 81.013 101.376 L 80.89 130.452 L 88.262 133.422 Z " fill="rgb(232,80,91)"/><g opacity="0.699997"><path d=" M 88.262 133.422 L 118.422 118.093 L 86.011 100.124 L 81.013 101.376 L 80.89 130.452 L 88.262 133.422 Z " fill="rgb(255,255,255)"/></g><path d=" M 82.103 98.036 L 175.075 54.611 L 82.96 24.512 L 82.103 98.036 Z " fill="rgb(235,235,235)"/><path d=" M 81.023 211.119 L 123.505 189.314 L 186.748 226.525 L 171.682 239.732 L 117.712 239.732 L 81.023 217.307 L 81.023 211.119 Z " fill="rgb(235,235,235)"/><path d=" M 131.87 186.96 L 184.408 218.108 L 190.264 217.443 L 190.264 187.489 L 161.474 172.253 L 131.87 186.96 Z " fill="rgb(235,235,235)"/><path d=" M 140.505 157.214 L 190.039 185.08 L 190.039 148.651 L 172.118 140.971 L 140.505 157.214 Z " fill="rgb(235,235,235)"/><path d=" M 87.599 172.566 L 116.657 188.511 L 151.92 170.247 L 123.905 155.995 L 87.599 172.566 Z " fill="rgb(235,235,235)"/><path d=" M 131.218 117.893 L 172.385 138.292 L 191.471 128.54 L 191.596 114.872 L 163.787 101.375 L 131.218 117.893 Z " fill="rgb(235,235,235)"/><path d=" M 89.12 135.686 L 130.286 156.084 L 149.372 146.333 L 149.498 132.665 L 121.688 119.168 L 89.12 135.686 Z " fill="rgb(235,235,235)"/><path d=" M 94.825 99.023 L 128.371 115.825 L 159.655 99.023 L 127.24 84.233 L 94.825 99.023 Z " fill="rgb(235,235,235)"/><mask id="_mask_qes6kegcZzIcf4MJgbmzCnhH6gJHb8au"><path d=" M 159.656 206.369 C 159.647 206.383 159.443 206.28 159.05 206.065 C 158.654 205.842 158.074 205.515 157.314 205.088 C 155.791 204.207 153.551 202.912 150.655 201.237 C 144.869 197.845 136.47 192.921 125.987 186.774 L 125.474 186.473 L 126.006 186.203 C 135.182 181.537 146.161 175.954 158.361 169.75 L 158.352 170.495 C 150.872 166.509 142.723 162.165 134.192 157.618 L 133.427 157.211 L 134.195 156.808 C 144.697 151.295 156.028 145.347 167.758 139.191 L 167.764 140.043 C 166.498 139.403 165.131 138.711 163.759 138.017 C 135.637 123.749 109.615 110.547 88.584 99.877 L 87.878 99.519 L 88.591 99.178 C 105.228 91.244 118.933 84.707 128.485 80.151 C 133.266 77.9 137.006 76.138 139.558 74.936 C 140.832 74.35 141.809 73.901 142.473 73.596 C 142.801 73.453 143.051 73.343 143.226 73.266 C 143.395 73.196 143.484 73.164 143.488 73.173 C 143.492 73.182 143.412 73.231 143.251 73.32 C 143.083 73.409 142.842 73.536 142.524 73.703 C 141.871 74.032 140.911 74.515 139.658 75.146 C 137.128 76.392 133.419 78.219 128.678 80.553 C 119.161 85.18 105.506 91.82 88.93 99.881 L 88.936 99.181 C 109.99 109.806 136.04 122.954 164.193 137.16 C 165.564 137.855 166.931 138.547 168.197 139.188 L 169.028 139.608 L 168.203 140.04 C 156.467 146.184 145.128 152.12 134.621 157.62 L 134.624 156.81 C 143.143 161.381 151.279 165.746 158.748 169.755 L 159.462 170.137 L 158.74 170.5 C 146.508 176.64 135.499 182.167 126.299 186.785 L 126.319 186.214 C 136.739 192.468 145.087 197.479 150.836 200.931 C 153.694 202.67 155.906 204.015 157.408 204.929 C 158.148 205.391 158.712 205.744 159.097 205.984 C 159.475 206.226 159.664 206.357 159.656 206.369 Z " fill="white" stroke="none"/></mask><path d=" M 159.656 206.369 C 159.647 206.383 159.443 206.28 159.05 206.065 C 158.654 205.842 158.074 205.515 157.314 205.088 C 155.791 204.207 153.551 202.912 150.655 201.237 C 144.869 197.845 136.47 192.921 125.987 186.774 L 125.474 186.473 L 126.006 186.203 C 135.182 181.537 146.161 175.954 158.361 169.75 L 158.352 170.495 C 150.872 166.509 142.723 162.165 134.192 157.618 L 133.427 157.211 L 134.195 156.808 C 144.697 151.295 156.028 145.347 167.758 139.191 L 167.764 140.043 C 166.498 139.403 165.131 138.711 163.759 138.017 C 135.637 123.749 109.615 110.547 88.584 99.877 L 87.878 99.519 L 88.591 99.178 C 105.228 91.244 118.933 84.707 128.485 80.151 C 133.266 77.9 137.006 76.138 139.558 74.936 C 140.832 74.35 141.809 73.901 142.473 73.596 C 142.801 73.453 143.051 73.343 143.226 73.266 C 143.395 73.196 143.484 73.164 143.488 73.173 C 143.492 73.182 143.412 73.231 143.251 73.32 C 143.083 73.409 142.842 73.536 142.524 73.703 C 141.871 74.032 140.911 74.515 139.658 75.146 C 137.128 76.392 133.419 78.219 128.678 80.553 C 119.161 85.18 105.506 91.82 88.93 99.881 L 88.936 99.181 C 109.99 109.806 136.04 122.954 164.193 137.16 C 165.564 137.855 166.931 138.547 168.197 139.188 L 169.028 139.608 L 168.203 140.04 C 156.467 146.184 145.128 152.12 134.621 157.62 L 134.624 156.81 C 143.143 161.381 151.279 165.746 158.748 169.755 L 159.462 170.137 L 158.74 170.5 C 146.508 176.64 135.499 182.167 126.299 186.785 L 126.319 186.214 C 136.739 192.468 145.087 197.479 150.836 200.931 C 153.694 202.67 155.906 204.015 157.408 204.929 C 158.148 205.391 158.712 205.744 159.097 205.984 C 159.475 206.226 159.664 206.357 159.656 206.369 Z " fill="rgb(232,80,91)"/><path d=" M 159.656 206.369 C 159.647 206.383 159.443 206.28 159.05 206.065 C 158.654 205.842 158.074 205.515 157.314 205.088 C 155.791 204.207 153.551 202.912 150.655 201.237 C 144.869 197.845 136.47 192.921 125.987 186.774 L 125.474 186.473 L 126.006 186.203 C 135.182 181.537 146.161 175.954 158.361 169.75 L 158.352 170.495 C 150.872 166.509 142.723 162.165 134.192 157.618 L 133.427 157.211 L 134.195 156.808 C 144.697 151.295 156.028 145.347 167.758 139.191 L 167.764 140.043 C 166.498 139.403 165.131 138.711 163.759 138.017 C 135.637 123.749 109.615 110.547 88.584 99.877 L 87.878 99.519 L 88.591 99.178 C 105.228 91.244 118.933 84.707 128.485 80.151 C 133.266 77.9 137.006 76.138 139.558 74.936 C 140.832 74.35 141.809 73.901 142.473 73.596 C 142.801 73.453 143.051 73.343 143.226 73.266 C 143.395 73.196 143.484 73.164 143.488 73.173 C 143.492 73.182 143.412 73.231 143.251 73.32 C 143.083 73.409 142.842 73.536 142.524 73.703 C 141.871 74.032 140.911 74.515 139.658 75.146 C 137.128 76.392 133.419 78.219 128.678 80.553 C 119.161 85.18 105.506 91.82 88.93 99.881 L 88.936 99.181 C 109.99 109.806 136.04 122.954 164.193 137.16 C 165.564 137.855 166.931 138.547 168.197 139.188 L 169.028 139.608 L 168.203 140.04 C 156.467 146.184 145.128 152.12 134.621 157.62 L 134.624 156.81 C 143.143 161.381 151.279 165.746 158.748 169.755 L 159.462 170.137 L 158.74 170.5 C 146.508 176.64 135.499 182.167 126.299 186.785 L 126.319 186.214 C 136.739 192.468 145.087 197.479 150.836 200.931 C 153.694 202.67 155.906 204.015 157.408 204.929 C 158.148 205.391 158.712 205.744 159.097 205.984 C 159.475 206.226 159.664 206.357 159.656 206.369 Z " fill="rgb(232,80,91)" mask="url(#_mask_qes6kegcZzIcf4MJgbmzCnhH6gJHb8au)" vector-effect="non-scaling-stroke" stroke-width="2" stroke="rgb(232,80,91)" stroke-linejoin="miter" stroke-linecap="square" stroke-miterlimit="3"/><path d=" M 142.638 120.483 L 142.49 113.246 L 161.35 122.382 L 161.35 129.896 L 142.638 120.483 Z " fill="rgb(245,245,245)"/><path d=" M 161.35 122.382 L 184.778 110.741 L 184.778 118.846 L 161.35 129.897 L 161.35 122.382 Z " fill="rgb(224,224,224)"/><path d=" M 142.489 113.246 L 165.475 101.753 L 184.778 110.741 L 161.35 122.382 L 142.489 113.246 Z " fill="rgb(245,245,245)"/><path d=" M 144.953 116.372 L 144.953 119.881 L 146.797 120.714 L 146.797 117.359 L 144.953 116.372 Z " fill="rgb(250,250,250)"/><path d=" M 147.902 117.673 L 147.902 121.182 L 149.745 122.015 L 149.745 118.66 L 147.902 117.673 Z " fill="rgb(250,250,250)"/><path d=" M 83.294 74.833 L 83.294 65.414 L 105.621 76.229 L 105.621 85.125 L 83.294 74.833 Z " fill="rgb(224,224,224)"/><path d=" M 105.621 76.229 L 133.355 62.449 L 133.355 72.043 L 105.621 85.125 L 105.621 76.229 Z " fill="rgb(245,245,245)"/><path d=" M 83.294 65.414 L 110.505 51.809 L 133.355 62.449 L 105.621 76.229 L 83.294 65.414 Z " fill="rgb(250,250,250)"/><path d=" M 86.21 69.114 L 86.21 73.268 L 88.393 74.254 L 88.393 70.282 L 86.21 69.114 Z " fill="rgb(250,250,250)"/><path d=" M 89.701 70.655 L 89.701 74.809 L 91.884 75.794 L 91.884 71.823 L 89.701 70.655 Z " fill="rgb(250,250,250)"/><path d=" M 150.594 153.53 L 150.594 160.952 L 158.55 164.877 L 158.55 157.214 L 150.594 153.53 Z " fill="rgb(224,224,224)"/><path d=" M 168.717 152.352 L 158.55 157.214 L 158.55 164.877 L 168.717 159.203 L 168.717 152.352 Z " fill="rgb(224,224,224)"/><path d=" M 150.594 153.53 L 160.67 148.651 L 168.718 152.352 L 158.55 157.214 L 150.594 153.53 Z " fill="rgb(245,245,245)"/><path d=" M 153.42 158.857 L 153.42 162.366 L 155.264 163.199 L 155.264 159.843 L 153.42 158.857 Z " fill="rgb(250,250,250)"/><path d=" M 86.321 149.693 L 86.321 157.114 L 94.278 161.039 L 94.278 153.376 L 86.321 149.693 Z " fill="rgb(224,224,224)"/><path d=" M 104.445 148.513 L 94.278 153.376 L 94.278 161.039 L 104.445 155.365 L 104.445 148.513 Z " fill="rgb(224,224,224)"/><path d=" M 86.321 149.693 L 96.399 144.813 L 104.445 148.513 L 94.278 153.376 L 86.321 149.693 Z " fill="rgb(245,245,245)"/><path d=" M 89.148 155.019 L 89.148 158.528 L 90.992 159.361 L 90.992 156.006 L 89.148 155.019 Z " fill="rgb(250,250,250)"/><path d=" M 119.309 100.722 L 119.309 108.144 L 127.265 112.068 L 127.265 104.406 L 119.309 100.722 Z " fill="rgb(245,245,245)"/><path d=" M 137.433 99.543 L 127.265 104.405 L 127.265 112.067 L 137.433 106.395 L 137.433 99.543 Z " fill="rgb(224,224,224)"/><path d=" M 119.309 100.722 L 129.386 95.842 L 137.433 99.543 L 127.265 104.406 L 119.309 100.722 Z " fill="rgb(245,245,245)"/><path d=" M 122.136 106.048 L 122.136 109.557 L 123.98 110.39 L 123.98 107.035 L 122.136 106.048 Z " fill="rgb(224,224,224)"/><path d=" M 110.465 164.307 L 110.465 171.728 L 118.422 175.653 L 118.422 167.991 L 110.465 164.307 Z " fill="rgb(224,224,224)"/><path d=" M 128.589 163.128 L 118.422 167.991 L 118.422 175.653 L 128.589 169.979 L 128.589 163.128 Z " fill="rgb(235,235,235)"/><path d=" M 110.465 164.307 L 120.543 159.428 L 128.589 163.128 L 118.422 167.991 L 110.465 164.307 Z " fill="rgb(245,245,245)"/><path d=" M 113.292 169.633 L 113.292 173.142 L 115.136 173.974 L 115.136 170.62 L 113.292 169.633 Z " fill="rgb(250,250,250)"/><path d=" M 143.313 182.231 L 143.313 191.538 L 160.082 201.412 L 160.082 191.804 L 143.313 182.231 Z " fill="rgb(245,245,245)"/><path d=" M 172.831 184.936 L 160.082 191.804 L 160.082 201.411 L 172.831 194.298 L 172.831 184.936 Z " fill="rgb(224,224,224)"/><path d=" M 143.313 182.231 L 155.95 176.112 L 172.832 184.936 L 160.082 191.804 L 143.313 182.231 Z " fill="rgb(250,250,250)"/><path d=" M 149.645 190.837 L 149.645 195.237 L 151.957 196.627 L 151.957 192.274 L 149.645 190.837 Z " fill="rgb(250,250,250)"/><path d=" M 102.978 201.384 L 102.978 210.691 L 119.746 220.564 L 119.746 210.956 L 102.978 201.384 Z " fill="rgb(224,224,224)"/><path d=" M 139.753 200.114 L 119.746 210.956 L 119.746 220.564 L 139.813 209.445 L 139.753 200.114 Z " fill="rgb(250,250,250)"/><path d=" M 102.978 201.384 L 124.141 191.136 L 139.813 200.148 L 119.746 210.956 L 102.978 201.384 Z " fill="rgb(245,245,245)"/><path d=" M 109.309 209.989 L 109.309 214.39 L 111.621 215.78 L 111.621 211.426 L 109.309 209.989 Z " fill="rgb(250,250,250)"/><path d=" M 166.451 166.593 L 166.451 203.756 L 176.914 209.168 L 176.914 171.533 L 166.451 166.593 Z " fill="rgb(245,245,245)"/><path d=" M 174.18 163.025 L 166.451 166.593 L 176.914 171.533 L 183.955 167.568 L 174.18 163.025 Z " fill="rgb(250,250,250)"/><path d=" M 176.914 171.533 L 176.914 209.168 L 183.283 205.739 L 183.955 167.568 L 176.914 171.533 Z " fill="rgb(224,224,224)"/><path d=" M 122.221 136.491 L 122.221 173.654 L 132.685 179.066 L 132.685 141.431 L 122.221 136.491 Z " fill="rgb(245,245,245)"/><path d=" M 129.95 132.923 L 122.221 136.491 L 132.684 141.431 L 139.725 137.466 L 129.95 132.923 Z " fill="rgb(250,250,250)"/><path d=" M 132.685 141.431 L 132.685 179.066 L 139.049 175.925 L 139.725 137.467 L 132.685 141.431 Z " fill="rgb(224,224,224)"/><path d=" M 126.971 207.165 L 126.971 216.472 L 143.74 226.346 L 143.74 216.737 L 126.971 207.165 Z " fill="rgb(224,224,224)"/><path d=" M 156.489 209.87 L 143.74 216.738 L 143.74 226.345 L 156.489 219.231 L 156.489 209.87 Z " fill="rgb(250,250,250)"/><path d=" M 126.971 207.165 L 139.753 200.115 L 156.489 209.87 L 143.74 216.737 L 126.971 207.165 Z " fill="rgb(245,245,245)"/><path d=" M 133.302 215.771 L 133.302 220.171 L 135.615 221.561 L 135.615 217.208 L 133.302 215.771 Z " fill="rgb(250,250,250)"/><path d=" M 164.264 96.224 L 133.723 82.459 L 176.251 60.815 L 190.204 81.623 L 164.264 96.224 Z " fill="rgb(235,235,235)"/><path d=" M 191.443 108.863 L 191.654 85.033 L 167.981 98.507 L 191.443 108.863 Z " fill="rgb(235,235,235)"/><path d=" M 173.453 132.728 C 173.453 133.729 172.643 134.539 171.642 134.539 C 170.642 134.539 169.831 133.729 169.831 132.728 C 169.831 131.728 170.642 130.917 171.642 130.917 C 172.643 130.917 173.453 131.728 173.453 132.728 Z " fill="rgb(224,224,224)"/><path d=" M 171.642 136.702 C 171.554 136.702 171.482 135.812 171.482 134.716 C 171.482 133.618 171.554 132.728 171.642 132.728 C 171.73 132.728 171.802 133.618 171.802 134.716 C 171.802 135.812 171.73 136.702 171.642 136.702 Z " fill="rgb(224,224,224)"/><path d=" M 124.033 128.29 C 124.033 129.29 123.221 130.101 122.221 130.101 C 121.22 130.101 120.41 129.29 120.41 128.29 C 120.41 127.289 121.22 126.478 122.221 126.478 C 123.221 126.478 124.033 127.289 124.033 128.29 Z " fill="rgb(224,224,224)"/><path d=" M 122.221 132.263 C 122.132 132.263 122.061 131.374 122.061 130.276 C 122.061 129.179 122.132 128.29 122.221 128.29 C 122.309 128.29 122.381 129.179 122.381 130.276 C 122.381 131.374 122.309 132.263 122.221 132.263 Z " fill="rgb(224,224,224)"/><path d=" M 99.822 153.581 C 99.822 154.581 99.011 155.392 98.01 155.392 C 97.01 155.392 96.199 154.581 96.199 153.581 C 96.199 152.58 97.01 151.769 98.01 151.769 C 99.011 151.769 99.822 152.58 99.822 153.581 Z " fill="rgb(224,224,224)"/><path d=" M 98.01 157.554 C 97.922 157.554 97.851 156.665 97.851 155.567 C 97.851 154.47 97.922 153.58 98.01 153.58 C 98.099 153.58 98.17 154.47 98.17 155.567 C 98.17 156.665 98.099 157.554 98.01 157.554 Z " fill="rgb(224,224,224)"/><path d=" M 101.633 134.065 C 101.633 135.066 100.823 135.876 99.822 135.876 C 98.822 135.876 98.01 135.066 98.01 134.065 C 98.01 133.065 98.822 132.254 99.822 132.254 C 100.823 132.254 101.633 133.065 101.633 134.065 Z " fill="rgb(224,224,224)"/><path d=" M 99.822 138.039 C 99.733 138.039 99.662 137.149 99.662 136.052 C 99.662 134.955 99.733 134.065 99.822 134.065 C 99.91 134.065 99.982 134.955 99.982 136.052 C 99.982 137.149 99.91 138.039 99.822 138.039 Z " fill="rgb(224,224,224)"/><path d=" M 146.344 132.273 C 146.344 133.273 145.533 134.084 144.533 134.084 C 143.532 134.084 142.721 133.273 142.721 132.273 C 142.721 131.272 143.532 130.462 144.533 130.462 C 145.533 130.462 146.344 131.272 146.344 132.273 Z " fill="rgb(224,224,224)"/><path d=" M 144.533 136.246 C 144.444 136.246 144.373 135.357 144.373 134.26 C 144.373 133.163 144.444 132.273 144.533 132.273 C 144.621 132.273 144.692 133.163 144.692 134.26 C 144.692 135.357 144.621 136.246 144.533 136.246 Z " fill="rgb(224,224,224)"/><path d=" M 174.959 145.844 C 174.959 146.844 174.148 147.655 173.148 147.655 C 172.147 147.655 171.336 146.844 171.336 145.844 C 171.336 144.843 172.147 144.033 173.148 144.033 C 174.148 144.033 174.959 144.843 174.959 145.844 Z " fill="rgb(224,224,224)"/><path d=" M 173.148 149.817 C 173.058 149.817 172.987 148.928 172.987 147.831 C 172.987 146.734 173.058 145.844 173.148 145.844 C 173.236 145.844 173.307 146.734 173.307 147.831 C 173.307 148.928 173.236 149.817 173.148 149.817 Z " fill="rgb(224,224,224)"/><path d=" M 176.118 156.499 C 176.118 157.5 175.307 158.31 174.306 158.31 C 173.306 158.31 172.495 157.5 172.495 156.499 C 172.495 155.499 173.306 154.688 174.306 154.688 C 175.307 154.688 176.118 155.499 176.118 156.499 Z " fill="rgb(224,224,224)"/><path d=" M 174.306 160.473 C 174.217 160.473 174.146 159.583 174.146 158.486 C 174.146 157.389 174.217 156.499 174.306 156.499 C 174.395 156.499 174.466 157.389 174.466 158.486 C 174.466 159.583 174.395 160.473 174.306 160.473 Z " fill="rgb(224,224,224)"/><path d=" M 125.317 178.607 C 125.317 179.608 124.506 180.419 123.505 180.419 C 122.505 180.419 121.694 179.608 121.694 178.607 C 121.694 177.607 122.505 176.796 123.505 176.796 C 124.506 176.796 125.317 177.607 125.317 178.607 Z " fill="rgb(224,224,224)"/><path d=" M 123.505 182.581 C 123.417 182.581 123.346 181.692 123.346 180.595 C 123.346 179.497 123.417 178.607 123.505 178.607 C 123.594 178.607 123.665 179.497 123.665 180.595 C 123.665 181.692 123.594 182.581 123.505 182.581 Z " fill="rgb(224,224,224)"/><path d=" M 184.834 210.199 C 184.834 211.2 184.024 212.011 183.023 212.011 C 182.023 212.011 181.212 211.2 181.212 210.199 C 181.212 209.199 182.023 208.388 183.023 208.388 C 184.024 208.388 184.834 209.199 184.834 210.199 Z " fill="rgb(224,224,224)"/><path d=" M 183.023 214.173 C 182.935 214.173 182.863 213.283 182.863 212.186 C 182.863 211.089 182.935 210.199 183.023 210.199 C 183.112 210.199 183.183 211.089 183.183 212.186 C 183.183 213.283 183.112 214.173 183.023 214.173 Z " fill="rgb(224,224,224)"/><path d=" M 150.214 230.014 C 150.214 231.014 149.404 231.825 148.403 231.825 C 147.403 231.825 146.592 231.014 146.592 230.014 C 146.592 229.013 147.403 228.202 148.403 228.202 C 149.404 228.202 150.214 229.013 150.214 230.014 Z " fill="rgb(224,224,224)"/><path d=" M 148.403 233.988 C 148.315 233.988 148.243 233.098 148.243 232.001 C 148.243 230.904 148.315 230.014 148.403 230.014 C 148.492 230.014 148.563 230.904 148.563 232.001 C 148.563 233.098 148.492 233.988 148.403 233.988 Z " fill="rgb(224,224,224)"/><path d=" M 136.27 224.538 C 136.27 225.539 135.459 226.35 134.458 226.35 C 133.457 226.35 132.647 225.539 132.647 224.538 C 132.647 223.537 133.457 222.727 134.458 222.727 C 135.459 222.727 136.27 223.537 136.27 224.538 Z " fill="rgb(224,224,224)"/><path d=" M 134.458 228.512 C 134.37 228.512 134.298 227.622 134.298 226.525 C 134.298 225.428 134.37 224.538 134.458 224.538 C 134.547 224.538 134.618 225.428 134.618 226.525 C 134.618 227.622 134.547 228.512 134.458 228.512 Z " fill="rgb(224,224,224)"/><path d=" M 168.262 220.564 C 168.262 221.565 167.451 222.376 166.451 222.376 C 165.45 222.376 164.639 221.565 164.639 220.564 C 164.639 219.564 165.45 218.753 166.451 218.753 C 167.451 218.753 168.262 219.564 168.262 220.564 Z " fill="rgb(224,224,224)"/><path d=" M 166.451 224.538 C 166.362 224.538 166.29 223.648 166.29 222.551 C 166.29 221.454 166.362 220.564 166.451 220.564 C 166.539 220.564 166.61 221.454 166.61 222.551 C 166.61 223.648 166.539 224.538 166.451 224.538 Z " fill="rgb(224,224,224)"/><path d=" M 140.984 185.675 C 140.984 186.675 140.173 187.487 139.172 187.487 C 138.172 187.487 137.361 186.675 137.361 185.675 C 137.361 184.674 138.172 183.864 139.172 183.864 C 140.173 183.864 140.984 184.674 140.984 185.675 Z " fill="rgb(224,224,224)"/><path d=" M 139.172 189.648 C 139.084 189.648 139.013 188.759 139.013 187.662 C 139.013 186.565 139.084 185.675 139.172 185.675 C 139.261 185.675 139.333 186.565 139.333 187.662 C 139.333 188.759 139.261 189.648 139.172 189.648 Z " fill="rgb(224,224,224)"/><path d=" M 145.551 167.991 C 145.551 168.991 144.74 169.802 143.74 169.802 C 142.739 169.802 141.928 168.991 141.928 167.991 C 141.928 166.99 142.739 166.179 143.74 166.179 C 144.74 166.179 145.551 166.99 145.551 167.991 Z " fill="rgb(224,224,224)"/><path d=" M 143.74 171.964 C 143.651 171.964 143.579 171.075 143.579 169.978 C 143.579 168.88 143.651 167.99 143.74 167.99 C 143.828 167.99 143.899 168.88 143.899 169.978 C 143.899 171.075 143.828 171.964 143.74 171.964 Z " fill="rgb(224,224,224)"/><path d=" M 101.633 169.979 C 101.633 170.98 100.823 171.791 99.822 171.791 C 98.822 171.791 98.01 170.98 98.01 169.979 C 98.01 168.979 98.822 168.168 99.822 168.168 C 100.823 168.168 101.633 168.979 101.633 169.979 Z " fill="rgb(224,224,224)"/><path d=" M 99.822 173.953 C 99.733 173.953 99.662 173.064 99.662 171.967 C 99.662 170.869 99.733 169.979 99.822 169.979 C 99.91 169.979 99.982 170.869 99.982 171.967 C 99.982 173.064 99.91 173.953 99.822 173.953 Z " fill="rgb(224,224,224)"/><path d=" M 185.298 153.581 C 185.298 154.581 184.486 155.392 183.486 155.392 C 182.485 155.392 181.674 154.581 181.674 153.581 C 181.674 152.58 182.485 151.769 183.486 151.769 C 184.486 151.769 185.298 152.58 185.298 153.581 Z " fill="rgb(224,224,224)"/><path d=" M 183.486 157.554 C 183.397 157.554 183.326 156.665 183.326 155.567 C 183.326 154.47 183.397 153.58 183.486 153.58 C 183.575 153.58 183.646 154.47 183.646 155.567 C 183.646 156.665 183.575 157.554 183.486 157.554 Z " fill="rgb(224,224,224)"/><path d=" M 180.437 126.478 C 180.437 127.479 179.626 128.29 178.626 128.29 C 177.625 128.29 176.814 127.479 176.814 126.478 C 176.814 125.477 177.625 124.666 178.626 124.666 C 179.626 124.666 180.437 125.477 180.437 126.478 Z " fill="rgb(224,224,224)"/><path d=" M 178.625 130.452 C 178.537 130.452 178.465 129.562 178.465 128.465 C 178.465 127.367 178.537 126.478 178.625 126.478 C 178.714 126.478 178.786 127.367 178.786 128.465 C 178.786 129.562 178.714 130.452 178.625 130.452 Z " fill="rgb(224,224,224)"/><path d=" M 143.751 102.526 C 143.751 103.526 142.94 104.338 141.94 104.338 C 140.939 104.338 140.128 103.526 140.128 102.526 C 140.128 101.525 140.939 100.715 141.94 100.715 C 142.94 100.715 143.751 101.525 143.751 102.526 Z " fill="rgb(224,224,224)"/><path d=" M 141.939 106.5 C 141.851 106.5 141.78 105.61 141.78 104.513 C 141.78 103.415 141.851 102.526 141.939 102.526 C 142.028 102.526 142.099 103.415 142.099 104.513 C 142.099 105.61 142.028 106.5 141.939 106.5 Z " fill="rgb(224,224,224)"/><path d=" M 109.117 136.702 C 109.117 137.702 108.306 138.513 107.305 138.513 C 106.305 138.513 105.494 137.702 105.494 136.702 C 105.494 135.701 106.305 134.891 107.305 134.891 C 108.306 134.891 109.117 135.701 109.117 136.702 Z " fill="rgb(224,224,224)"/><path d=" M 107.305 140.675 C 107.217 140.675 107.145 139.786 107.145 138.689 C 107.145 137.592 107.217 136.702 107.305 136.702 C 107.394 136.702 107.465 137.592 107.465 138.689 C 107.465 139.786 107.394 140.675 107.305 140.675 Z " fill="rgb(224,224,224)"/><path d=" M 130.4 89.595 C 130.4 90.595 129.59 91.406 128.589 91.406 C 127.589 91.406 126.778 90.595 126.778 89.595 C 126.778 88.594 127.589 87.783 128.589 87.783 C 129.59 87.783 130.4 88.594 130.4 89.595 Z " fill="rgb(224,224,224)"/><path d=" M 128.589 93.568 C 128.5 93.568 128.429 92.679 128.429 91.581 C 128.429 90.484 128.5 89.594 128.589 89.594 C 128.677 89.594 128.749 90.484 128.749 91.581 C 128.749 92.679 128.677 93.568 128.589 93.568 Z " fill="rgb(224,224,224)"/><path d=" M 167.347 85.621 C 167.347 86.622 166.537 87.432 165.536 87.432 C 164.536 87.432 163.725 86.622 163.725 85.621 C 163.725 84.621 164.536 83.809 165.536 83.809 C 166.537 83.809 167.347 84.621 167.347 85.621 Z " fill="rgb(224,224,224)"/><path d=" M 165.536 89.595 C 165.448 89.595 165.376 88.705 165.376 87.608 C 165.376 86.511 165.448 85.621 165.536 85.621 C 165.625 85.621 165.696 86.511 165.696 87.608 C 165.696 88.705 165.625 89.595 165.536 89.595 Z " fill="rgb(224,224,224)"/><path d=" M 177.558 83.951 C 177.558 84.951 176.747 85.762 175.747 85.762 C 174.746 85.762 173.935 84.951 173.935 83.951 C 173.935 82.95 174.746 82.139 175.747 82.139 C 176.747 82.139 177.558 82.95 177.558 83.951 Z " fill="rgb(224,224,224)"/><path d=" M 175.746 87.924 C 175.658 87.924 175.587 87.034 175.587 85.937 C 175.587 84.84 175.658 83.95 175.746 83.95 C 175.835 83.95 175.907 84.84 175.907 85.937 C 175.907 87.034 175.835 87.924 175.746 87.924 Z " fill="rgb(224,224,224)"/><path d=" M 173.453 70.586 C 173.453 71.586 172.643 72.398 171.642 72.398 C 170.642 72.398 169.831 71.586 169.831 70.586 C 169.831 69.585 170.642 68.774 171.642 68.774 C 172.643 68.774 173.453 69.585 173.453 70.586 Z " fill="rgb(224,224,224)"/><path d=" M 171.642 74.559 C 171.554 74.559 171.482 73.67 171.482 72.572 C 171.482 71.476 171.554 70.586 171.642 70.586 C 171.73 70.586 171.802 71.476 171.802 72.572 C 171.802 73.67 171.73 74.559 171.642 74.559 Z " fill="rgb(224,224,224)"/><path d=" M 116.565 101.375 C 116.565 102.376 115.754 103.187 114.753 103.187 C 113.753 103.187 112.942 102.376 112.942 101.375 C 112.942 100.375 113.753 99.564 114.753 99.564 C 115.754 99.564 116.565 100.375 116.565 101.375 Z " fill="rgb(224,224,224)"/><path d=" M 114.753 105.349 C 114.665 105.349 114.594 104.459 114.594 103.363 C 114.594 102.265 114.665 101.376 114.753 101.376 C 114.842 101.376 114.914 102.265 114.914 103.363 C 114.914 104.459 114.842 105.349 114.753 105.349 Z " fill="rgb(224,224,224)"/><path d=" M 158.674 84.233 C 158.674 85.234 157.863 86.045 156.862 86.045 C 155.862 86.045 155.051 85.234 155.051 84.233 C 155.051 83.233 155.862 82.422 156.862 82.422 C 157.863 82.422 158.674 83.233 158.674 84.233 Z " fill="rgb(224,224,224)"/><path d=" M 156.862 88.207 C 156.773 88.207 156.702 87.318 156.702 86.221 C 156.702 85.123 156.773 84.233 156.862 84.233 C 156.951 84.233 157.022 85.123 157.022 86.221 C 157.022 87.318 156.951 88.207 156.862 88.207 Z " fill="rgb(224,224,224)"/><path d=" M 107.8 43.425 C 107.8 44.425 106.989 45.236 105.989 45.236 C 104.988 45.236 104.177 44.425 104.177 43.425 C 104.177 42.424 104.988 41.613 105.989 41.613 C 106.989 41.613 107.8 42.424 107.8 43.425 Z " fill="rgb(224,224,224)"/><path d=" M 105.989 47.398 C 105.9 47.398 105.829 46.509 105.829 45.411 C 105.829 44.315 105.9 43.425 105.989 43.425 C 106.077 43.425 106.148 44.315 106.148 45.411 C 106.148 46.509 106.077 47.398 105.989 47.398 Z " fill="rgb(224,224,224)"/><path d=" M 128.589 53.348 C 128.589 54.349 127.778 55.16 126.778 55.16 C 125.777 55.16 124.966 54.349 124.966 53.348 C 124.966 52.348 125.777 51.536 126.778 51.536 C 127.778 51.536 128.589 52.348 128.589 53.348 Z " fill="rgb(224,224,224)"/><path d=" M 126.778 57.322 C 126.689 57.322 126.617 56.432 126.617 55.335 C 126.617 54.237 126.689 53.348 126.778 53.348 C 126.866 53.348 126.937 54.237 126.937 55.335 C 126.937 56.432 126.866 57.322 126.778 57.322 Z " fill="rgb(224,224,224)"/><path d=" M 95.545 84.681 C 95.545 85.682 94.735 86.492 93.734 86.492 C 92.734 86.492 91.922 85.682 91.922 84.681 C 91.922 83.681 92.734 82.869 93.734 82.869 C 94.735 82.869 95.545 83.681 95.545 84.681 Z " fill="rgb(224,224,224)"/><path d=" M 93.734 88.655 C 93.646 88.655 93.574 87.765 93.574 86.668 C 93.574 85.57 93.646 84.681 93.734 84.681 C 93.822 84.681 93.894 85.57 93.894 86.668 C 93.894 87.765 93.822 88.655 93.734 88.655 Z " fill="rgb(224,224,224)"/><path d=" M 97.357 55.16 C 97.357 56.16 96.546 56.972 95.545 56.972 C 94.545 56.972 93.734 56.16 93.734 55.16 C 93.734 54.159 94.545 53.348 95.545 53.348 C 96.546 53.348 97.357 54.159 97.357 55.16 Z " fill="rgb(224,224,224)"/><path d=" M 95.546 59.133 C 95.457 59.133 95.385 58.244 95.385 57.147 C 95.385 56.049 95.457 55.159 95.546 55.159 C 95.634 55.159 95.705 56.049 95.705 57.147 C 95.705 58.244 95.634 59.133 95.546 59.133 Z " fill="rgb(224,224,224)"/><path d=" M 175.331 139.642 L 190.264 131.724 L 190.204 146.001 L 175.331 139.642 Z " fill="rgb(235,235,235)"/><path d=" M 113.292 190.274 L 80.566 207.165 L 80.566 175.652 L 84.194 174.033 L 113.292 190.274 Z " fill="rgb(235,235,235)"/><path d=" M 162.169 207.165 C 162.169 208.318 161.235 209.252 160.082 209.252 C 158.929 209.252 157.994 208.318 157.994 207.165 C 157.994 206.012 158.929 205.078 160.082 205.078 C 161.235 205.078 162.169 206.012 162.169 207.165 Z " fill="rgb(232,80,91)"/><path d=" M 181.276 58.107 L 191.699 61.274 L 191.699 77.701 L 181.276 58.107 Z " fill="rgb(235,235,235)"/><path d=" M 191.805 36.17 L 191.741 18.247 C 190.888 11.956 185.525 7.088 178.995 7.058 L 162.552 6.982 C 160.347 6.972 158.551 8.833 158.543 11.138 L 158.529 14.121 C 158.52 16.426 156.724 18.286 154.519 18.276 L 122.468 18.128 C 120.263 18.118 118.484 16.24 118.493 13.935 L 118.506 10.953 C 118.515 8.648 116.736 6.771 114.531 6.76 L 108.748 6.733 L 94.356 6.667 C 90.977 6.652 87.904 7.944 85.589 10.056 C 84.146 12.832 82.572 16.783 83.294 19.815 L 191.725 55.111 L 191.805 36.17 Z " fill="rgb(232,80,91)"/><g opacity="0.699997"><path d=" M 191.805 36.17 L 191.741 18.247 C 190.888 11.956 185.525 7.088 178.995 7.058 L 162.552 6.982 C 160.347 6.972 158.551 8.833 158.543 11.138 L 158.529 14.121 C 158.52 16.426 156.724 18.286 154.519 18.276 L 122.468 18.128 C 120.263 18.118 118.484 16.24 118.493 13.935 L 118.506 10.953 C 118.515 8.648 116.736 6.771 114.531 6.76 L 108.748 6.733 L 94.356 6.667 C 90.977 6.652 87.904 7.944 85.589 10.056 C 84.146 12.832 82.572 16.783 83.294 19.815 L 191.725 55.111 L 191.805 36.17 Z " fill="rgb(255,255,255)"/></g><path d=" M 178.995 7.058 C 178.995 7.058 179.144 7.061 179.438 7.074 C 179.73 7.104 180.176 7.071 180.748 7.182 C 181.895 7.323 183.638 7.703 185.593 8.88 C 186.582 9.443 187.585 10.251 188.534 11.283 C 189.479 12.318 190.356 13.61 190.981 15.155 C 191.614 16.696 191.952 18.493 191.927 20.409 C 191.921 22.32 191.914 24.354 191.908 26.508 C 191.847 43.748 191.759 68.69 191.65 99.508 C 191.53 130.33 191.386 167.027 191.227 207.776 C 191.206 212.87 191.186 218.026 191.164 223.243 C 191.159 224.547 191.154 225.855 191.148 227.167 C 191.129 228.48 191.038 229.829 190.637 231.106 C 190.26 232.382 189.727 233.627 188.973 234.74 C 188.223 235.852 187.312 236.857 186.271 237.715 C 184.163 239.391 181.527 240.456 178.8 240.58 C 178.115 240.625 177.443 240.616 176.768 240.611 L 174.74 240.602 C 173.386 240.596 172.029 240.59 170.668 240.584 C 165.227 240.559 159.734 240.534 154.19 240.509 C 143.105 240.459 131.823 240.408 120.374 240.356 C 114.649 240.33 108.883 240.303 103.078 240.276 C 100.175 240.263 97.263 240.25 94.342 240.236 C 91.411 240.374 88.38 239.589 85.938 237.879 C 83.486 236.182 81.682 233.623 80.846 230.787 C 80.397 229.373 80.319 227.868 80.324 226.414 C 80.331 224.957 80.337 223.504 80.343 222.052 C 80.368 216.245 80.393 210.477 80.417 204.751 C 80.466 193.298 80.515 182.013 80.562 170.925 C 80.659 148.748 80.753 127.356 80.842 106.979 C 80.933 86.602 81.02 67.238 81.101 49.116 C 81.143 40.055 81.183 31.305 81.221 22.893 C 81.226 21.841 81.231 20.795 81.236 19.754 C 81.245 19.233 81.285 18.707 81.314 18.187 C 81.408 17.673 81.45 17.15 81.585 16.648 C 82.066 14.626 83.01 12.737 84.325 11.183 C 85.65 9.639 87.308 8.416 89.132 7.62 C 90.954 6.807 92.952 6.525 94.881 6.557 C 98.733 6.576 102.494 6.596 106.16 6.614 C 107.992 6.624 109.801 6.633 111.585 6.642 C 112.478 6.647 113.363 6.651 114.244 6.656 C 115.132 6.616 116.052 6.862 116.78 7.375 C 117.506 7.888 118.064 8.625 118.349 9.453 C 118.676 10.282 118.594 11.177 118.6 12.005 C 118.598 12.426 118.596 12.846 118.594 13.264 C 118.594 13.684 118.577 14.1 118.629 14.499 C 118.73 15.303 119.066 16.074 119.59 16.676 C 120.104 17.287 120.81 17.725 121.57 17.916 C 121.953 18.013 122.336 18.042 122.738 18.036 C 123.138 18.038 123.535 18.04 123.931 18.042 C 125.513 18.051 127.07 18.059 128.6 18.067 C 134.721 18.1 140.417 18.13 145.661 18.159 C 148.282 18.173 150.791 18.187 153.183 18.2 C 153.777 18.192 154.379 18.232 154.946 18.185 C 155.516 18.122 156.062 17.928 156.537 17.633 C 157.49 17.044 158.141 16.064 158.364 15.027 C 158.484 14.509 158.466 13.98 158.471 13.455 C 158.474 12.932 158.477 12.416 158.48 11.907 C 158.488 11.402 158.459 10.895 158.554 10.4 C 158.64 9.908 158.81 9.44 159.047 9.018 C 159.515 8.17 160.274 7.531 161.115 7.204 C 161.964 6.839 162.866 6.954 163.683 6.94 C 167 6.961 169.806 6.98 172.075 6.995 C 174.342 7.012 176.071 7.025 177.237 7.034 C 178.399 7.045 178.995 7.058 178.995 7.058 C 178.995 7.058 178.399 7.066 177.236 7.066 C 176.071 7.065 174.342 7.062 172.075 7.058 C 169.806 7.052 166.999 7.045 163.683 7.035 C 162.858 7.051 161.974 6.942 161.153 7.3 C 160.334 7.62 159.597 8.244 159.143 9.072 C 158.913 9.484 158.749 9.94 158.666 10.419 C 158.575 10.897 158.604 11.399 158.597 11.908 C 158.596 12.416 158.594 12.932 158.592 13.456 C 158.588 13.975 158.609 14.518 158.485 15.055 C 158.258 16.121 157.591 17.134 156.605 17.745 C 156.116 18.051 155.551 18.254 154.961 18.32 C 154.364 18.37 153.783 18.33 153.182 18.339 C 150.79 18.331 148.282 18.321 145.66 18.312 C 140.417 18.291 134.721 18.269 128.6 18.246 C 127.069 18.24 125.512 18.234 123.929 18.227 C 123.534 18.226 123.136 18.224 122.737 18.222 C 122.342 18.23 121.92 18.2 121.524 18.098 C 120.724 17.899 119.984 17.439 119.445 16.801 C 118.895 16.171 118.542 15.365 118.437 14.524 C 118.381 14.099 118.399 13.679 118.398 13.264 C 118.4 12.845 118.401 12.425 118.403 12.004 C 118.395 11.161 118.473 10.307 118.16 9.52 C 117.888 8.73 117.354 8.029 116.663 7.542 C 115.965 7.056 115.114 6.824 114.243 6.862 C 113.363 6.859 112.477 6.855 111.584 6.851 C 109.8 6.844 107.991 6.837 106.158 6.829 C 102.493 6.815 98.732 6.799 94.88 6.783 C 92.966 6.754 91.016 7.032 89.223 7.833 C 87.434 8.617 85.805 9.819 84.506 11.336 C 83.216 12.863 82.292 14.719 81.821 16.703 C 81.688 17.196 81.648 17.709 81.556 18.213 C 81.528 18.726 81.489 19.237 81.48 19.756 C 81.476 20.797 81.472 21.843 81.468 22.894 C 81.435 31.305 81.402 40.056 81.366 49.117 C 81.294 67.239 81.217 86.603 81.136 106.98 C 81.053 127.358 80.966 148.749 80.876 170.926 C 80.829 182.014 80.783 193.299 80.735 204.752 C 80.711 210.479 80.687 216.247 80.662 222.054 C 80.657 223.505 80.651 224.959 80.644 226.415 C 80.64 227.866 80.714 229.312 81.154 230.698 C 81.968 233.463 83.729 235.961 86.121 237.617 C 88.514 239.285 91.435 240.05 94.344 239.917 C 97.265 239.93 100.177 239.944 103.079 239.957 C 108.884 239.984 114.651 240.011 120.376 240.038 C 131.825 240.091 143.106 240.144 154.192 240.196 C 159.735 240.222 165.229 240.248 170.67 240.274 C 172.03 240.28 173.387 240.286 174.741 240.293 L 176.769 240.303 C 177.445 240.308 178.12 240.316 178.782 240.273 C 181.446 240.154 184.02 239.114 186.078 237.477 C 187.095 236.639 187.987 235.658 188.719 234.572 C 189.456 233.485 189.977 232.27 190.346 231.023 C 190.739 229.773 190.826 228.467 190.847 227.165 C 190.852 225.854 190.858 224.546 190.864 223.241 C 190.887 218.025 190.91 212.868 190.932 207.775 C 191.117 167.026 191.284 130.328 191.424 99.507 C 191.576 68.689 191.699 43.748 191.784 26.508 C 191.795 24.353 191.806 22.319 191.817 20.408 C 191.847 18.502 191.517 16.723 190.892 15.191 C 190.276 13.655 189.41 12.369 188.475 11.337 C 187.536 10.308 186.541 9.5 185.56 8.935 C 183.619 7.755 181.886 7.365 180.744 7.215 C 180.174 7.099 179.729 7.126 179.437 7.091 C 179.144 7.072 178.995 7.058 178.995 7.058 Z " fill="rgb(38,50,56)"/><g><path d=" M 197.487 249.135 C 197.487 249.135 196.215 245.001 196.47 243.252 C 196.724 241.503 199.077 239.913 199.077 239.913 L 196.526 173.626 C 196.526 173.626 196.195 144.633 211.54 135.621 L 220.699 133.313 L 243.29 131.976 C 244.021 132.22 270.569 142.206 274.222 146.104 L 262.775 204.558 C 262.775 204.558 264.166 221.831 265.556 234.243 C 265.839 236.78 267.741 249.316 267.741 249.316 L 197.487 249.135 Z " fill="rgb(232,80,91)"/><g opacity="0.300003"><path d=" M 265.134 230.341 C 264.92 231.953 264.309 233.917 262.761 234.416 C 261.213 234.915 259.532 234.771 257.931 234.485 C 252.27 233.477 247.058 230.817 241.943 228.189 C 232.382 223.278 222.733 218.31 214.48 211.425 C 213.32 210.457 212.08 208.947 212.79 207.614 C 213.596 206.102 215.86 206.609 217.416 207.327 C 233.629 214.801 248.921 222.866 265.134 230.341 Z " fill="rgb(0,0,0)"/></g><path d=" M 208.112 137.428 C 208.112 137.428 198 140.802 194.73 150.17 C 191.118 160.522 188.72 180.616 188.72 180.616 L 198.712 181.872 L 208.112 137.428 Z " fill="rgb(232,80,91)"/><path d=" M 274.223 146.103 C 274.223 146.103 279.648 153.236 282.286 161.905 C 284.924 170.574 286.432 195.695 286.432 195.695 L 259.232 195.316 L 257.786 173.213 C 257.786 173.213 255.04 136.332 274.223 146.103 Z " fill="rgb(232,80,91)"/><path d=" M 192.289 159.201 C 192.289 159.201 192.486 158.894 193.04 158.491 C 193.582 158.101 194.606 157.688 195.903 157.942 C 197.22 158.137 198.499 159.172 200.186 159.815 C 201.02 160.137 201.997 160.386 202.989 160.162 C 203.984 159.945 204.846 159.233 205.755 158.541 C 206.214 158.196 206.697 157.838 207.268 157.592 C 207.831 157.339 208.528 157.256 209.148 157.511 C 209.78 157.743 210.247 158.273 210.61 158.815 C 210.983 159.362 211.285 159.955 211.678 160.488 C 212.062 161.021 212.569 161.484 213.213 161.674 C 213.847 161.883 214.559 161.833 215.234 161.657 C 215.914 161.482 216.574 161.177 217.202 160.809 C 217.828 160.44 218.436 159.988 219.085 159.588 C 219.732 159.182 220.422 158.801 221.189 158.565 C 221.95 158.34 222.811 158.285 223.597 158.56 C 224.386 158.818 225.071 159.306 225.69 159.837 C 226.314 160.367 226.895 160.946 227.537 161.446 C 228.172 161.947 228.886 162.38 229.689 162.501 C 230.482 162.656 231.32 162.545 232.1 162.252 C 233.674 161.66 235.061 160.593 236.607 159.74 C 237.381 159.32 238.187 158.923 239.068 158.758 C 239.941 158.591 240.867 158.648 241.69 158.964 C 243.338 159.606 244.559 160.852 246.022 161.549 C 246.383 161.732 246.763 161.858 247.147 161.951 C 247.534 162.032 247.929 162.047 248.319 162.025 C 249.104 161.972 249.86 161.708 250.572 161.38 C 252.005 160.733 253.301 159.827 254.779 159.34 C 255.512 159.099 256.304 158.988 257.063 159.136 C 257.828 159.265 258.498 159.686 259.051 160.152 C 260.161 161.079 261.034 162.256 262.303 162.651 C 262.923 162.847 263.583 162.831 264.207 162.705 C 264.835 162.58 265.434 162.365 266.026 162.16 C 267.192 161.752 268.415 161.328 269.599 161.597 C 270.186 161.713 270.695 162.021 271.135 162.355 C 271.574 162.694 271.959 163.065 272.346 163.404 C 272.73 163.746 273.122 164.051 273.541 164.279 C 273.96 164.505 274.41 164.637 274.851 164.702 C 275.74 164.83 276.59 164.69 277.32 164.45 C 278.056 164.208 278.675 163.852 279.201 163.491 C 280.248 162.758 280.945 162.034 281.428 161.564 C 281.658 161.333 281.839 161.153 281.971 161.02 C 282.095 160.898 282.159 160.837 282.163 160.841 C 282.167 160.845 282.11 160.913 281.995 161.042 C 281.867 161.18 281.694 161.368 281.473 161.608 C 281.004 162.093 280.32 162.833 279.272 163.591 C 278.746 163.964 278.118 164.337 277.368 164.592 C 276.623 164.846 275.751 165 274.827 164.876 C 274.367 164.813 273.895 164.679 273.453 164.446 C 273.012 164.211 272.604 163.898 272.214 163.555 C 271.434 162.892 270.658 162.041 269.551 161.814 C 268.45 161.568 267.273 161.971 266.107 162.389 C 265.517 162.597 264.909 162.819 264.257 162.952 C 263.609 163.087 262.9 163.111 262.224 162.9 C 261.547 162.694 260.963 162.265 260.436 161.801 C 259.908 161.333 259.421 160.815 258.875 160.366 C 258.334 159.915 257.716 159.532 257.009 159.415 C 256.309 159.281 255.572 159.383 254.869 159.616 C 253.45 160.084 252.157 160.988 250.696 161.654 C 249.969 161.99 249.181 162.27 248.342 162.33 C 247.925 162.354 247.498 162.337 247.083 162.251 C 246.672 162.152 246.266 162.018 245.889 161.827 C 244.364 161.095 243.142 159.858 241.579 159.257 C 240.804 158.961 239.954 158.911 239.129 159.066 C 238.3 159.22 237.518 159.604 236.758 160.016 C 235.239 160.85 233.846 161.929 232.207 162.545 C 231.394 162.852 230.488 162.976 229.632 162.807 C 228.761 162.673 227.999 162.204 227.347 161.689 C 226.037 160.666 224.987 159.335 223.505 158.846 C 222.78 158.591 221.994 158.639 221.273 158.849 C 220.548 159.069 219.877 159.435 219.239 159.834 C 218.595 160.228 217.995 160.673 217.345 161.053 C 216.699 161.43 216.018 161.744 215.303 161.926 C 214.595 162.108 213.83 162.162 213.131 161.931 C 212.423 161.721 211.862 161.198 211.469 160.642 C 211.061 160.084 210.761 159.488 210.4 158.956 C 210.05 158.426 209.62 157.945 209.06 157.738 C 208.505 157.507 207.89 157.574 207.359 157.807 C 206.822 158.033 206.347 158.378 205.889 158.719 C 204.982 159.399 204.093 160.132 203.031 160.358 C 201.977 160.586 200.967 160.314 200.122 159.979 C 198.409 159.304 197.154 158.266 195.879 158.062 C 194.62 157.797 193.62 158.177 193.075 158.544 C 192.52 158.922 192.305 159.218 192.289 159.201 Z " fill="rgb(185,40,49)"/><path d=" M 189.083 175.544 C 189.084 175.539 189.174 175.544 189.35 175.56 C 189.541 175.58 189.8 175.606 190.131 175.639 C 190.819 175.681 191.835 175.969 193.106 175.563 C 193.746 175.422 194.466 175.294 195.252 175.159 C 196.035 175.023 196.882 174.83 197.814 174.721 C 198.74 174.611 199.778 174.611 200.803 174.937 C 201.831 175.24 202.827 175.765 203.926 176.134 C 205.02 176.518 206.259 176.565 207.484 176.237 C 208.717 175.946 209.926 175.38 211.235 174.926 C 212.522 174.462 214.016 174.105 215.496 174.513 C 216.96 174.925 218.139 176.004 219.607 176.363 C 219.971 176.449 220.345 176.474 220.719 176.44 C 221.094 176.399 221.466 176.299 221.834 176.173 C 222.571 175.917 223.283 175.543 224.066 175.272 C 224.831 174.988 225.747 174.868 226.571 175.187 C 227.389 175.501 228.022 176.097 228.686 176.591 C 229.018 176.84 229.363 177.069 229.737 177.227 C 230.109 177.386 230.514 177.451 230.922 177.45 C 231.743 177.419 232.546 177.094 233.328 176.73 C 234.113 176.369 234.909 175.963 235.794 175.741 C 236.239 175.646 236.702 175.586 237.167 175.647 C 237.632 175.7 238.077 175.862 238.484 176.076 C 239.301 176.507 239.976 177.105 240.695 177.595 C 241.054 177.84 241.426 178.058 241.819 178.21 C 242.016 178.284 242.215 178.352 242.422 178.379 L 242.731 178.434 L 243.045 178.445 C 243.886 178.466 244.714 178.22 245.511 177.929 C 246.311 177.639 247.096 177.298 247.916 177.053 C 248.729 176.809 249.615 176.656 250.463 176.87 C 251.323 177.054 252.02 177.606 252.61 178.16 C 253.205 178.723 253.745 179.316 254.378 179.758 C 255.006 180.203 255.761 180.408 256.502 180.363 C 257.248 180.316 257.96 180.04 258.63 179.717 C 259.301 179.389 259.939 179.007 260.583 178.651 C 261.855 177.947 263.251 177.295 264.695 177.462 C 266.125 177.63 267.294 178.422 268.323 179.162 C 269.363 179.911 270.309 180.703 271.359 181.195 C 272.395 181.706 273.484 181.97 274.524 182.055 C 275.569 182.119 276.556 182.015 277.46 181.829 C 279.258 181.393 280.682 180.595 281.684 179.768 C 282.693 178.937 283.275 178.092 283.651 177.52 C 283.822 177.222 283.934 176.984 284.021 176.83 C 284.104 176.675 284.15 176.595 284.155 176.598 C 284.16 176.6 284.125 176.683 284.05 176.844 C 283.973 177.003 283.869 177.246 283.705 177.551 C 283.345 178.139 282.772 179.006 281.762 179.862 C 280.76 180.715 279.324 181.542 277.5 182 C 276.582 182.199 275.578 182.313 274.511 182.255 C 273.447 182.176 272.329 181.914 271.26 181.395 C 270.176 180.893 269.218 180.096 268.181 179.359 C 267.155 178.627 266.012 177.872 264.667 177.722 C 263.317 177.569 261.98 178.188 260.718 178.893 C 260.079 179.249 259.44 179.636 258.753 179.972 C 258.07 180.304 257.327 180.598 256.521 180.652 C 255.719 180.706 254.879 180.476 254.21 180.001 C 253.537 179.533 252.989 178.928 252.405 178.379 C 251.823 177.835 251.175 177.331 250.394 177.167 C 249.622 176.972 248.794 177.111 248.004 177.349 C 247.208 177.587 246.428 177.927 245.617 178.222 C 244.81 178.517 243.947 178.779 243.038 178.758 L 242.699 178.746 L 242.362 178.687 C 242.137 178.656 241.917 178.582 241.705 178.503 C 241.28 178.338 240.887 178.106 240.518 177.854 C 239.779 177.349 239.109 176.759 238.339 176.354 C 237.955 176.154 237.549 176.008 237.129 175.959 C 236.709 175.904 236.283 175.959 235.867 176.047 C 235.033 176.256 234.252 176.65 233.458 177.016 C 232.67 177.379 231.833 177.726 230.93 177.761 C 230.481 177.764 230.027 177.688 229.617 177.512 C 229.206 177.339 228.842 177.094 228.5 176.838 C 227.821 176.328 227.205 175.755 226.462 175.473 C 225.724 175.186 224.907 175.284 224.163 175.557 C 223.41 175.814 222.695 176.188 221.931 176.453 C 221.548 176.583 221.155 176.689 220.749 176.732 C 220.341 176.768 219.93 176.739 219.54 176.644 C 217.971 176.245 216.805 175.163 215.42 174.779 C 214.032 174.391 212.598 174.717 211.32 175.172 C 210.026 175.614 208.806 176.18 207.541 176.473 C 206.29 176.806 204.973 176.749 203.856 176.345 C 202.734 175.96 201.746 175.431 200.745 175.129 C 199.75 174.804 198.75 174.797 197.833 174.896 C 196.913 174.996 196.066 175.178 195.277 175.307 C 194.488 175.434 193.772 175.552 193.13 175.683 C 192.809 175.745 192.509 175.817 192.217 175.859 C 191.923 175.902 191.644 175.886 191.392 175.863 C 190.888 175.811 190.466 175.748 190.124 175.703 C 189.794 175.656 189.536 175.619 189.347 175.592 C 189.171 175.566 189.083 175.55 189.083 175.544 Z " fill="rgb(185,40,49)"/><path d=" M 199.147 189.8 C 199.147 189.794 199.209 189.797 199.327 189.807 C 199.463 189.82 199.636 189.837 199.853 189.859 C 200.314 189.909 200.992 189.998 201.863 190.129 C 203.608 190.369 206.112 190.887 209.241 191.146 C 210.808 191.278 212.523 191.266 214.362 191.053 C 215.283 190.97 216.256 190.885 217.257 191.029 C 217.755 191.102 218.257 191.238 218.73 191.463 C 219.205 191.688 219.632 191.998 220.045 192.321 C 220.868 192.956 221.65 193.725 222.654 194.029 C 223.151 194.186 223.684 194.158 224.2 194.018 C 224.717 193.872 225.217 193.627 225.732 193.39 C 226.25 193.157 226.789 192.909 227.395 192.831 C 227.995 192.736 228.647 192.888 229.161 193.214 C 230.205 193.848 230.888 194.905 231.955 195.356 C 233.025 195.824 234.233 195.532 235.328 195.208 C 236.438 194.878 237.543 194.445 238.723 194.42 C 239.308 194.414 239.901 194.522 240.423 194.772 C 240.947 195.018 241.4 195.362 241.82 195.718 C 242.655 196.427 243.392 197.216 244.311 197.638 C 245.227 198.081 246.262 197.952 247.175 197.646 C 248.103 197.355 248.959 196.903 249.89 196.692 C 250.803 196.489 251.783 196.466 252.594 196.892 C 252.993 197.106 253.321 197.442 253.516 197.828 C 253.714 198.212 253.814 198.61 253.94 198.977 C 254.061 199.346 254.22 199.683 254.46 199.945 C 254.699 200.208 255.005 200.392 255.327 200.503 C 255.977 200.723 256.66 200.666 257.239 200.492 C 257.826 200.313 258.304 199.986 258.674 199.608 C 259.049 199.236 259.324 198.832 259.547 198.459 C 259.988 197.702 260.224 197.058 260.399 196.63 C 260.478 196.428 260.542 196.266 260.592 196.139 C 260.636 196.029 260.662 195.974 260.667 195.975 C 260.671 195.977 260.657 196.036 260.622 196.15 C 260.58 196.28 260.526 196.445 260.458 196.652 C 260.302 197.088 260.084 197.742 259.654 198.52 C 259.434 198.905 259.161 199.323 258.78 199.712 C 258.409 200.107 257.904 200.465 257.293 200.66 C 256.686 200.85 255.969 200.921 255.263 200.693 C 254.914 200.577 254.573 200.378 254.305 200.088 C 254.032 199.798 253.857 199.426 253.729 199.05 C 253.597 198.674 253.494 198.285 253.31 197.936 C 253.129 197.588 252.839 197.297 252.48 197.107 C 251.752 196.727 250.822 196.744 249.949 196.947 C 249.069 197.149 248.211 197.604 247.26 197.909 C 246.786 198.066 246.281 198.185 245.756 198.209 C 245.229 198.228 244.683 198.13 244.192 197.902 C 243.198 197.447 242.448 196.637 241.626 195.947 C 241.214 195.601 240.78 195.275 240.294 195.049 C 239.812 194.818 239.275 194.723 238.729 194.728 C 237.626 194.751 236.54 195.171 235.418 195.507 C 234.854 195.676 234.273 195.831 233.664 195.891 C 233.06 195.951 232.412 195.907 231.831 195.646 C 230.651 195.131 229.965 194.056 229 193.482 C 228.526 193.186 227.975 193.058 227.435 193.14 C 226.891 193.207 226.373 193.439 225.862 193.67 C 225.35 193.904 224.836 194.156 224.281 194.312 C 223.728 194.464 223.117 194.494 222.57 194.318 C 221.462 193.973 220.675 193.173 219.866 192.548 C 219.461 192.23 219.051 191.931 218.607 191.72 C 218.165 191.506 217.692 191.375 217.215 191.303 C 216.259 191.16 215.304 191.235 214.386 191.314 C 212.544 191.515 210.794 191.515 209.224 191.368 C 206.076 191.079 203.581 190.526 201.844 190.249 C 200.993 190.11 200.323 190 199.844 189.921 C 199.63 189.887 199.458 189.86 199.323 189.838 C 199.207 189.818 199.146 189.805 199.147 189.8 Z " fill="rgb(185,40,49)"/><path d=" M 198.303 230.114 C 198.301 230.109 198.362 230.085 198.481 230.043 C 198.617 229.996 198.792 229.935 199.011 229.858 C 199.476 229.696 200.161 229.447 201.054 229.157 C 201.948 228.879 203.045 228.508 204.391 228.38 C 205.07 228.306 205.805 228.477 206.514 228.732 C 207.23 228.976 207.967 229.299 208.781 229.378 C 209.596 229.459 210.439 229.194 211.261 228.819 C 212.09 228.454 212.934 227.974 213.926 227.749 C 214.921 227.523 215.987 227.66 217.008 227.928 C 218.034 228.203 219.042 228.605 220.096 228.914 C 221.141 229.225 222.271 229.431 223.378 229.197 C 224.487 228.966 225.523 228.37 226.655 227.92 C 227.222 227.697 227.83 227.513 228.472 227.491 C 229.113 227.462 229.773 227.639 230.323 227.977 C 231.429 228.633 232.22 229.707 233.377 230.136 C 233.949 230.343 234.571 230.328 235.163 230.178 C 235.757 230.031 236.326 229.776 236.892 229.522 C 237.459 229.268 238.028 229.002 238.636 228.831 C 239.238 228.659 239.904 228.599 240.519 228.792 C 241.143 228.969 241.637 229.393 242.057 229.813 C 242.481 230.238 242.855 230.687 243.286 231.052 C 244.124 231.829 245.312 231.932 246.362 231.694 C 247.43 231.485 248.437 231.069 249.462 230.798 C 249.978 230.676 250.495 230.551 251.025 230.562 C 251.548 230.558 252.087 230.658 252.53 230.928 C 252.997 231.159 253.346 231.553 253.625 231.945 C 253.902 232.346 254.12 232.762 254.345 233.158 C 254.78 233.943 255.319 234.672 256.102 234.916 C 256.866 235.173 257.683 235.006 258.339 234.685 C 259.005 234.366 259.562 233.915 259.993 233.424 C 260.84 232.42 261.289 231.339 261.739 230.523 C 262.171 229.689 262.567 229.07 262.876 228.683 C 263.186 228.295 263.388 228.128 263.388 228.128 C 263.4 228.139 263.218 228.325 262.927 228.721 C 262.637 229.118 262.263 229.739 261.848 230.578 C 261.413 231.404 260.988 232.489 260.125 233.54 C 259.686 234.052 259.119 234.525 258.426 234.866 C 257.745 235.206 256.876 235.402 256.031 235.127 C 255.165 234.863 254.576 234.065 254.134 233.278 C 253.677 232.5 253.255 231.592 252.404 231.156 C 251.58 230.666 250.518 230.807 249.533 231.066 C 248.529 231.335 247.526 231.756 246.418 231.979 C 245.868 232.095 245.28 232.15 244.695 232.043 C 244.398 232.014 244.122 231.886 243.84 231.782 C 243.568 231.647 243.321 231.472 243.092 231.281 C 242.634 230.895 242.254 230.439 241.841 230.028 C 241.432 229.62 240.978 229.239 240.43 229.087 C 239.885 228.918 239.29 228.967 238.719 229.131 C 238.146 229.293 237.588 229.551 237.021 229.808 C 236.452 230.063 235.871 230.326 235.238 230.483 C 234.611 230.644 233.908 230.664 233.271 230.433 C 231.992 229.945 231.204 228.851 230.163 228.246 C 229.651 227.933 229.07 227.779 228.483 227.802 C 227.896 227.821 227.32 227.99 226.768 228.208 C 225.663 228.641 224.613 229.247 223.439 229.492 C 222.257 229.738 221.074 229.511 220.013 229.192 C 218.942 228.873 217.939 228.469 216.937 228.195 C 215.938 227.93 214.922 227.796 213.982 228.004 C 213.04 228.211 212.202 228.674 211.36 229.041 C 210.525 229.415 209.631 229.694 208.761 229.6 C 207.897 229.507 207.153 229.169 206.448 228.921 C 205.743 228.66 205.059 228.493 204.403 228.555 C 203.09 228.663 201.985 229.015 201.09 229.273 C 200.212 229.548 199.522 229.765 199.03 229.918 C 198.807 229.982 198.628 230.034 198.491 230.074 C 198.368 230.106 198.304 230.12 198.303 230.114 Z " fill="rgb(185,40,49)"/><path d=" M 232.261 215.142 C 232.266 215.151 232.148 215.227 231.917 215.362 C 231.684 215.492 231.33 215.671 230.852 215.849 C 229.906 216.203 228.414 216.542 226.589 216.288 C 226.137 216.215 225.665 216.118 225.189 215.962 C 224.71 215.809 224.235 215.591 223.751 215.389 C 223.268 215.193 222.748 215.023 222.215 215.075 C 221.681 215.123 221.173 215.389 220.695 215.728 C 220.214 216.066 219.748 216.471 219.197 216.808 C 218.923 216.975 218.619 217.117 218.293 217.204 C 218.129 217.254 217.96 217.27 217.789 217.281 C 217.618 217.307 217.448 217.286 217.278 217.27 C 215.895 217.094 214.795 216.182 213.593 215.573 C 212.996 215.262 212.354 215.021 211.73 215.095 L 211.498 215.125 C 211.423 215.142 211.352 215.176 211.279 215.199 C 211.129 215.242 210.991 215.312 210.859 215.391 C 210.597 215.559 210.366 215.779 210.15 216.011 C 209.714 216.476 209.343 217.013 208.821 217.423 C 208.563 217.625 208.254 217.787 207.919 217.837 C 207.587 217.889 207.244 217.835 206.949 217.695 C 206.356 217.403 205.997 216.886 205.67 216.427 C 205.347 215.957 205.057 215.492 204.709 215.112 C 204.01 214.358 203.005 214.048 202.139 214.088 C 201.252 214.108 200.533 214.549 199.966 214.962 C 199.4 215.387 198.981 215.846 198.71 216.262 C 198.145 217.108 198.264 217.723 198.223 217.71 C 198.223 217.71 198.178 217.571 198.206 217.301 C 198.229 217.033 198.339 216.637 198.606 216.197 C 198.871 215.757 199.286 215.273 199.859 214.823 C 200.425 214.388 201.176 213.904 202.127 213.866 C 203.051 213.81 204.127 214.122 204.899 214.934 C 205.275 215.337 205.574 215.809 205.897 216.268 C 206.22 216.72 206.574 217.195 207.072 217.432 C 207.57 217.674 208.187 217.568 208.637 217.186 C 209.104 216.817 209.473 216.288 209.923 215.802 C 210.149 215.558 210.396 215.32 210.692 215.129 C 210.844 215.036 211.002 214.955 211.174 214.904 C 211.259 214.877 211.342 214.84 211.429 214.82 L 211.697 214.783 C 212.425 214.7 213.121 214.974 213.737 215.293 C 214.972 215.927 216.062 216.809 217.312 216.964 C 217.927 217.041 218.526 216.873 219.043 216.55 C 219.564 216.236 220.031 215.836 220.529 215.489 C 221.024 215.143 221.584 214.848 222.191 214.799 C 222.799 214.747 223.358 214.942 223.851 215.147 C 224.346 215.361 224.803 215.577 225.265 215.731 C 225.725 215.888 226.183 215.989 226.623 216.067 C 228.397 216.344 229.866 216.048 230.812 215.733 C 231.767 215.415 232.245 215.11 232.261 215.142 Z " fill="rgb(185,40,49)"/><path d=" M 198.894 246.265 C 198.897 246.26 198.959 246.277 199.078 246.315 C 199.141 246.336 199.214 246.36 199.297 246.387 C 199.386 246.405 199.493 246.415 199.612 246.432 C 200.091 246.493 200.809 246.354 201.635 245.942 C 202.475 245.572 203.416 244.885 204.734 244.577 C 205.064 244.504 205.417 244.493 205.78 244.526 C 206.14 244.579 206.498 244.703 206.839 244.876 C 207.521 245.227 208.12 245.76 208.783 246.241 C 209.436 246.721 210.224 247.144 211.102 247.063 C 211.977 246.994 212.809 246.524 213.699 246.126 C 214.148 245.926 214.623 245.741 215.138 245.649 C 215.653 245.558 216.19 245.583 216.711 245.683 C 217.757 245.877 218.743 246.326 219.784 246.609 C 220.82 246.921 221.939 246.905 223.042 246.658 C 224.148 246.423 225.234 245.988 226.348 245.563 C 227.461 245.141 228.618 244.704 229.869 244.55 C 231.115 244.358 232.436 244.611 233.597 245.14 C 234.772 245.648 235.842 246.303 236.969 246.758 C 238.087 247.22 239.301 247.405 240.423 247.078 C 242.681 246.43 244.329 244.602 246.476 243.894 C 247.533 243.517 248.705 243.535 249.706 243.877 C 250.723 244.195 251.593 244.75 252.412 245.277 C 253.229 245.813 253.995 246.358 254.775 246.8 C 255.552 247.249 256.351 247.565 257.148 247.75 C 258.752 248.099 260.271 247.93 261.518 247.566 C 262.77 247.193 263.754 246.607 264.48 246.048 C 265.938 244.902 266.368 243.91 266.416 243.954 C 266.421 243.956 266.389 244.012 266.325 244.119 C 266.249 244.24 266.151 244.395 266.028 244.591 C 265.732 244.977 265.293 245.565 264.556 246.144 C 263.832 246.726 262.84 247.338 261.57 247.734 C 260.304 248.122 258.753 248.312 257.1 247.968 C 256.281 247.786 255.448 247.463 254.656 247.011 C 253.858 246.567 253.085 246.023 252.27 245.496 C 251.454 244.978 250.596 244.44 249.623 244.142 C 248.661 243.82 247.576 243.809 246.568 244.169 C 245.549 244.509 244.614 245.135 243.655 245.757 C 242.697 246.38 241.691 247.045 240.504 247.376 C 239.313 247.728 238 247.525 236.852 247.049 C 235.692 246.58 234.621 245.925 233.473 245.428 C 232.334 244.914 231.107 244.68 229.907 244.86 C 228.706 245.007 227.568 245.432 226.457 245.851 C 225.346 246.273 224.246 246.712 223.105 246.952 C 221.973 247.205 220.779 247.216 219.708 246.889 C 218.637 246.592 217.66 246.144 216.66 245.955 C 216.162 245.857 215.661 245.832 215.183 245.915 C 214.704 245.997 214.246 246.17 213.806 246.364 C 212.927 246.748 212.072 247.234 211.12 247.306 C 210.158 247.387 209.309 246.913 208.652 246.421 C 207.98 245.925 207.394 245.394 206.745 245.054 C 206.423 244.885 206.089 244.767 205.754 244.713 C 205.416 244.679 205.084 244.684 204.768 244.749 C 203.501 245.026 202.541 245.695 201.686 246.052 C 200.844 246.453 200.095 246.579 199.604 246.496 C 199.483 246.473 199.375 246.457 199.285 246.433 C 199.202 246.4 199.13 246.371 199.066 246.345 C 198.95 246.297 198.892 246.27 198.894 246.265 Z " fill="rgb(185,40,49)"/><path d=" M 200.389 142.326 C 200.404 142.312 200.566 142.543 200.976 142.87 C 201.384 143.194 202.074 143.583 203.053 143.779 C 204.029 143.991 205.256 143.988 206.673 143.85 C 207.381 143.793 208.144 143.722 208.96 143.732 C 209.771 143.744 210.649 143.847 211.5 144.187 C 212.351 144.52 213.149 145.038 214.003 145.499 C 214.43 145.728 214.875 145.942 215.349 146.096 C 215.822 146.246 216.325 146.325 216.842 146.343 C 217.879 146.384 218.949 146.176 220.053 145.977 C 221.155 145.779 222.324 145.57 223.537 145.713 C 224.761 145.851 225.878 146.474 226.929 147.118 C 227.985 147.755 229.07 148.451 230.317 148.623 C 230.935 148.697 231.571 148.651 232.193 148.497 C 232.814 148.332 233.42 148.087 234.021 147.812 C 235.224 147.267 236.407 146.566 237.769 146.216 C 238.447 146.044 239.16 145.988 239.854 146.091 C 240.546 146.205 241.193 146.478 241.782 146.809 C 242.96 147.476 243.967 148.338 245.118 148.869 C 246.261 149.408 247.538 149.509 248.744 149.317 C 249.957 149.149 251.109 148.754 252.242 148.411 C 253.374 148.059 254.498 147.732 255.63 147.591 C 256.763 147.445 257.886 147.553 258.92 147.797 C 261 148.291 262.768 149.192 264.433 149.834 C 266.074 150.569 267.704 150.707 269.114 150.575 C 270.524 150.448 271.71 150.101 272.619 149.697 C 274.462 148.875 275.058 147.829 275.096 147.884 C 275.096 147.884 274.953 148.127 274.58 148.504 C 274.216 148.89 273.582 149.374 272.669 149.809 C 271.757 150.236 270.56 150.604 269.131 150.751 C 268.417 150.827 267.645 150.827 266.833 150.731 C 266.019 150.646 265.184 150.371 264.353 150.042 C 262.673 149.408 260.901 148.524 258.862 148.052 C 257.847 147.818 256.762 147.72 255.664 147.865 C 254.564 148.008 253.457 148.333 252.329 148.688 C 251.198 149.034 250.038 149.437 248.787 149.615 C 247.549 149.817 246.191 149.715 244.988 149.149 C 243.786 148.593 242.772 147.726 241.628 147.082 C 241.058 146.762 240.447 146.508 239.803 146.401 C 239.159 146.306 238.493 146.357 237.846 146.521 C 236.546 146.853 235.37 147.544 234.152 148.097 C 233.542 148.375 232.919 148.627 232.269 148.798 C 231.617 148.96 230.937 149.01 230.275 148.929 C 228.937 148.738 227.824 148.009 226.773 147.375 C 225.723 146.728 224.656 146.134 223.5 146.001 C 221.174 145.746 218.99 146.71 216.831 146.604 C 216.295 146.583 215.766 146.496 215.271 146.336 C 214.777 146.172 214.32 145.948 213.887 145.713 C 213.023 145.238 212.24 144.722 211.418 144.394 C 209.763 143.734 208.09 143.943 206.685 144.026 C 205.267 144.147 204.014 144.133 203.027 143.899 C 202.035 143.681 201.337 143.265 200.935 142.919 C 200.532 142.571 200.389 142.326 200.389 142.326 Z " fill="rgb(185,40,49)"/><path d=" M 200.8 241.12 C 200.803 241.11 200.914 241.123 201.125 241.158 C 201.37 241.203 201.674 241.259 202.044 241.327 C 202.885 241.486 204.026 241.704 205.416 241.969 C 208.264 242.504 212.208 243.189 216.586 243.801 C 220.966 244.409 224.947 244.828 227.833 245.093 C 229.242 245.218 230.399 245.321 231.252 245.397 C 231.626 245.434 231.934 245.463 232.181 245.487 C 232.394 245.511 232.504 245.528 232.504 245.539 C 232.503 245.55 232.391 245.553 232.177 245.55 C 231.928 245.542 231.619 245.531 231.243 245.519 C 230.433 245.489 229.261 245.419 227.815 245.314 C 224.921 245.107 220.929 244.722 216.542 244.112 C 212.157 243.5 208.213 242.778 205.372 242.187 C 203.953 241.892 202.806 241.637 202.018 241.446 C 201.653 241.356 201.353 241.281 201.112 241.22 C 200.905 241.165 200.798 241.131 200.8 241.12 Z " fill="rgb(38,50,56)"/><path d=" M 214.083 239.545 C 214.086 239.535 214.259 239.572 214.585 239.653 C 214.914 239.724 215.384 239.88 216.011 239.999 C 217.252 240.285 219.077 240.588 221.35 240.686 C 223.62 240.789 226.344 240.617 229.277 239.955 C 232.206 239.298 235.327 238.101 238.277 236.282 C 241.209 234.429 243.656 232.15 245.532 229.807 C 247.416 227.464 248.766 225.091 249.671 223.007 C 250.581 220.922 251.11 219.149 251.398 217.909 C 251.566 217.293 251.633 216.802 251.714 216.476 C 251.784 216.147 251.827 215.976 251.838 215.977 C 251.848 215.979 251.827 216.154 251.776 216.486 C 251.716 216.817 251.668 217.314 251.518 217.936 C 251.265 219.189 250.766 220.983 249.875 223.095 C 248.99 225.206 247.648 227.612 245.759 229.988 C 243.877 232.364 241.409 234.675 238.444 236.548 C 235.46 238.389 232.3 239.59 229.34 240.238 C 226.376 240.892 223.626 241.04 221.339 240.909 C 219.051 240.781 217.22 240.441 215.983 240.118 C 215.358 239.98 214.891 239.805 214.567 239.713 C 214.247 239.613 214.079 239.556 214.083 239.545 Z " fill="rgb(38,50,56)"/><path d=" M 219.441 133.286 C 219.452 133.286 219.456 133.436 219.454 133.722 C 219.452 134.038 219.449 134.453 219.445 134.969 C 219.459 136.044 219.432 137.632 219.905 139.497 C 220.157 140.418 220.535 141.416 221.212 142.312 C 221.864 143.223 222.809 144.003 223.916 144.608 C 225.025 145.215 226.297 145.655 227.647 145.944 C 228.997 146.242 230.43 146.391 231.896 146.353 C 234.827 146.295 237.595 145.479 239.745 144.134 C 241.915 142.804 243.387 140.944 244.254 139.243 C 245.121 137.521 245.377 135.949 245.43 134.88 C 245.469 133.803 245.357 133.208 245.397 133.204 C 245.407 133.202 245.434 133.349 245.474 133.633 C 245.525 133.916 245.548 134.338 245.553 134.884 C 245.537 135.967 245.311 137.574 244.453 139.341 C 243.596 141.088 242.111 143.005 239.899 144.38 C 237.71 145.768 234.886 146.609 231.902 146.668 C 230.411 146.706 228.953 146.552 227.581 146.245 C 226.208 145.947 224.912 145.493 223.776 144.862 C 222.643 144.233 221.668 143.419 221.001 142.466 C 220.309 141.53 219.932 140.496 219.688 139.553 C 219.236 137.641 219.301 136.046 219.322 134.966 C 219.341 134.424 219.369 134.003 219.391 133.719 C 219.413 133.434 219.43 133.285 219.441 133.286 Z " fill="rgb(38,50,56)"/><path d=" M 203.781 188.596 L 196.805 175.727 L 175.587 175.727 L 174.914 177.003 L 192.876 206.868 L 213.211 207.848 L 203.781 188.596 Z " fill="rgb(69,90,100)"/><path d=" M 284.689 195.695 L 284.689 218.186 C 284.689 222.291 282.844 226.18 279.664 228.775 C 275.788 231.938 270.495 232.732 265.862 230.845 L 216.342 208.897 L 221.192 192.38 L 261.032 205.511 L 260.986 195.271 L 284.689 195.695 Z " fill="rgb(255,190,157)"/><path d=" M 203.108 189.872 L 196.133 177.004 L 174.914 177.004 L 192.204 208.145 L 212.539 209.125 L 203.108 189.872 Z " fill="rgb(38,50,56)"/><path d=" M 223.139 194.149 L 219.782 189.984 C 217.572 187.242 214.239 185.648 210.717 185.648 L 207.786 185.648 L 205.786 187.898 C 205.786 187.898 191.435 188.523 190.906 190.293 L 190.894 190.864 L 190.886 191.198 L 203.16 192.023 C 203.16 192.023 192.719 191.991 192.094 192.014 C 191.406 192.04 189.18 191.84 189.225 193.064 C 189.263 194.071 190.455 194.866 192.26 195.13 C 193.002 195.238 202.046 196.025 202.046 196.025 C 202.046 196.025 192.549 195.933 192.091 195.931 C 190.975 195.925 191.116 197.715 191.779 197.94 C 192.303 198.116 205.054 201.838 205.054 201.838 C 205.054 201.838 202.91 203.276 201.16 203.151 C 199.409 203.025 196.409 200.775 195.784 201.838 C 195.159 202.901 195.284 203.526 195.659 203.776 C 196.034 204.026 200.16 206.151 201.535 206.526 C 202.91 206.901 214.136 208.678 214.136 208.678 L 218.19 209.33 L 223.139 194.149 Z " fill="rgb(255,190,157)"/><path d=" M 177.88 182.022 C 177.88 182.022 175.66 182.796 176.789 185.648 C 178.443 189.821 181.293 192.777 181.293 192.777 C 181.293 192.777 180.899 194.251 182.177 195.331 C 182.177 195.331 180.605 195.724 181.587 198.376 C 181.587 198.376 180.507 201.127 183.454 202.306 C 183.454 202.306 182.668 204.565 185.516 205.646 C 188.366 206.726 191.116 204.858 191.116 204.858 L 177.88 182.022 Z " fill="rgb(255,190,157)"/><path d=" M 182.381 192.56 C 184.398 193.104 186.614 193.538 188.479 194.246 C 189.093 194.479 189.7 194.491 190.108 195.007 C 190.515 195.521 190.608 196.342 190.144 196.805 C 189.734 197.213 189.077 197.205 188.503 197.136 C 186.351 196.876 184.29 196.136 182.251 195.403" fill="rgb(255,190,157)"/><path d=" M 183.186 195.926 C 185.203 196.47 187.418 196.904 189.284 197.612 C 189.898 197.845 190.506 197.857 190.913 198.372 C 191.32 198.887 191.414 199.708 190.949 200.171 C 190.538 200.579 189.882 200.571 189.308 200.501 C 187.156 200.241 185.095 199.503 183.056 198.769" fill="rgb(255,190,157)"/><path d=" M 184.332 199.389 C 186.349 199.933 188.565 200.367 190.43 201.076 C 191.044 201.309 191.652 201.321 192.059 201.836 C 192.466 202.351 192.56 203.172 192.095 203.634 C 191.685 204.042 191.028 204.035 190.454 203.965 C 188.303 203.705 186.242 202.966 184.202 202.233" fill="rgb(255,190,157)"/><path d=" M 182.372 195.473 C 182.405 195.388 183.828 195.887 185.615 196.383 C 187.402 196.884 188.877 197.195 188.862 197.285 C 188.85 197.367 187.336 197.193 185.531 196.686 C 183.724 196.184 182.34 195.549 182.372 195.473 Z " fill="rgb(235,153,110)"/><path d=" M 181.997 198.444 C 182.028 198.359 183.659 198.899 185.687 199.492 C 187.717 200.09 189.38 200.515 189.361 200.603 C 189.343 200.685 187.641 200.395 185.599 199.794 C 183.557 199.197 181.967 198.522 181.997 198.444 Z " fill="rgb(235,153,110)"/><path d=" M 183.32 202.262 C 183.341 202.178 184.893 202.493 186.785 202.966 C 188.679 203.439 190.197 203.891 190.175 203.976 C 190.154 204.06 188.603 203.745 186.709 203.272 C 184.817 202.799 183.299 202.347 183.32 202.262 Z " fill="rgb(235,153,110)"/><path d=" M 180.704 192.148 C 180.736 192.062 182.522 192.667 184.77 193.244 C 187.016 193.829 188.871 194.166 188.857 194.257 C 188.851 194.299 188.377 194.268 187.619 194.154 C 186.863 194.043 185.823 193.842 184.691 193.549 C 183.56 193.256 182.553 192.927 181.836 192.659 C 181.119 192.389 180.69 192.187 180.704 192.148 Z " fill="rgb(235,153,110)"/><path d=" M 200.901 188.071 C 200.9 187.984 203.155 187.902 205.936 187.887 C 208.718 187.872 210.973 187.931 210.973 188.017 C 210.974 188.105 208.72 188.187 205.937 188.202 C 203.156 188.216 200.901 188.158 200.901 188.071 Z " fill="rgb(235,153,110)"/><path d=" M 185.686 182.406 C 186.146 182.774 186.816 182.7 187.185 182.241 C 187.552 181.782 187.479 181.111 187.019 180.743 C 186.56 180.375 185.889 180.449 185.521 180.908 C 185.153 181.368 185.227 182.039 185.686 182.406 Z " fill="rgb(235,235,235)"/><path d=" M 258.432 204.927 C 258.437 204.906 258.61 204.926 258.921 204.982 C 259.233 205.033 259.679 205.144 260.219 205.312 C 261.299 205.645 262.752 206.276 264.18 207.263 C 265.604 208.255 266.705 209.395 267.395 210.29 C 267.741 210.737 268.001 211.116 268.158 211.39 C 268.319 211.663 268.399 211.817 268.381 211.83 C 268.336 211.859 267.95 211.279 267.223 210.431 C 266.498 209.584 265.396 208.494 264 207.522 C 262.6 206.555 261.194 205.904 260.147 205.522 C 259.099 205.138 258.42 204.979 258.432 204.927 Z " fill="rgb(235,153,110)"/><path d=" M 231.415 145.341 L 231.415 145.341 C 224.882 144.819 219.946 139.199 220.272 132.653 C 220.5 128.059 220.738 123.917 220.738 123.917 C 220.738 123.917 210.89 122.386 210.768 112.539 C 210.647 102.693 212.353 80.083 212.353 80.083 C 223.751 75.184 236.908 76.838 246.74 84.405 L 248.198 85.529 L 244.468 134.183 C 243.955 140.873 238.104 145.876 231.415 145.341 Z " fill="rgb(255,190,157)"/><path d=" M 220.721 123.775 C 220.721 123.775 226.944 124.281 233.558 120.127 C 233.558 120.127 230.524 127.213 220.699 126.326 L 220.721 123.775 Z " fill="rgb(235,153,110)"/><path d=" M 214.784 94.516 C 214.758 95.258 215.365 95.893 216.14 95.934 C 216.913 95.976 217.563 95.409 217.589 94.667 C 217.616 93.924 217.009 93.288 216.234 93.247 C 215.46 93.205 214.81 93.773 214.784 94.516 Z " fill="rgb(38,50,56)"/><path d=" M 214.217 93.935 C 214.391 94.118 215.457 93.329 216.97 93.334 C 218.481 93.316 219.592 94.094 219.755 93.909 C 219.836 93.827 219.659 93.496 219.175 93.144 C 218.699 92.793 217.888 92.452 216.945 92.457 C 216.003 92.461 215.21 92.808 214.754 93.164 C 214.288 93.521 214.131 93.852 214.217 93.935 Z " fill="rgb(38,50,56)"/><path d=" M 229.052 94.871 C 229.026 95.613 229.633 96.248 230.408 96.29 C 231.181 96.331 231.831 95.764 231.858 95.022 C 231.884 94.279 231.277 93.644 230.502 93.602 C 229.728 93.56 229.078 94.128 229.052 94.871 Z " fill="rgb(38,50,56)"/><path d=" M 229.091 94.217 C 229.265 94.401 230.332 93.612 231.844 93.616 C 233.355 93.598 234.466 94.377 234.63 94.191 C 234.71 94.109 234.534 93.779 234.049 93.427 C 233.573 93.075 232.761 92.735 231.819 92.739 C 230.876 92.744 230.084 93.091 229.627 93.446 C 229.164 93.803 229.005 94.135 229.091 94.217 Z " fill="rgb(38,50,56)"/><path d=" M 223.599 105.438 C 223.606 105.352 222.665 105.19 221.141 104.995 C 220.755 104.955 220.389 104.878 220.324 104.615 C 220.233 104.336 220.395 103.919 220.582 103.469 C 220.945 102.534 221.325 101.554 221.725 100.527 C 223.311 96.338 224.46 92.894 224.291 92.831 C 224.122 92.769 222.699 96.114 221.112 100.302 C 220.73 101.335 220.364 102.32 220.017 103.263 C 219.871 103.702 219.619 104.2 219.816 104.779 C 219.92 105.068 220.204 105.277 220.452 105.344 C 220.699 105.42 220.916 105.424 221.107 105.435 C 222.642 105.517 223.593 105.525 223.599 105.438 Z " fill="rgb(38,50,56)"/><path d=" M 228.052 106.485 C 227.806 106.471 227.803 108.113 226.397 109.279 C 224.993 110.448 223.243 110.264 223.229 110.494 C 223.207 110.597 223.62 110.813 224.359 110.833 C 225.084 110.858 226.143 110.625 227.003 109.912 C 227.861 109.197 228.229 108.243 228.285 107.569 C 228.348 106.882 228.165 106.476 228.052 106.485 Z " fill="rgb(38,50,56)"/><path d=" M 228.7 88.287 C 228.849 88.699 230.36 88.504 232.135 88.718 C 233.914 88.896 235.346 89.416 235.581 89.046 C 235.687 88.87 235.438 88.483 234.859 88.085 C 234.284 87.687 233.37 87.309 232.304 87.191 C 231.237 87.074 230.262 87.243 229.616 87.506 C 228.964 87.768 228.636 88.092 228.7 88.287 Z " fill="rgb(94,11,11)"/><path d=" M 214.773 89.555 C 215.039 89.899 216.081 89.542 217.335 89.526 C 218.588 89.465 219.65 89.757 219.894 89.397 C 220.001 89.222 219.834 88.878 219.37 88.553 C 218.914 88.229 218.149 87.964 217.288 87.99 C 216.426 88.017 215.68 88.328 215.244 88.681 C 214.801 89.034 214.656 89.387 214.773 89.555 Z " fill="rgb(94,11,11)"/><path d=" M 246.985 95.728 C 247.152 95.655 253.751 93.727 253.535 100.459 C 253.32 107.19 246.607 105.586 246.601 105.392 C 246.595 105.199 246.985 95.728 246.985 95.728 Z " fill="rgb(255,190,157)"/><path d=" M 248.739 102.908 C 248.769 102.887 248.853 102.994 249.049 103.091 C 249.239 103.185 249.569 103.257 249.925 103.136 C 250.644 102.899 251.279 101.788 251.35 100.576 C 251.387 99.964 251.277 99.376 251.076 98.887 C 250.886 98.387 250.578 98.034 250.222 97.958 C 249.869 97.865 249.608 98.071 249.52 98.258 C 249.424 98.443 249.462 98.579 249.427 98.589 C 249.407 98.606 249.285 98.472 249.349 98.196 C 249.381 98.063 249.464 97.907 249.627 97.782 C 249.793 97.656 250.033 97.597 250.281 97.632 C 250.799 97.684 251.251 98.176 251.472 98.714 C 251.723 99.255 251.861 99.916 251.819 100.603 C 251.732 101.959 250.997 103.206 250.016 103.456 C 249.538 103.564 249.148 103.409 248.949 103.244 C 248.746 103.071 248.715 102.919 248.739 102.908 Z " fill="rgb(235,153,110)"/><path d=" M 208.584 71.577 C 210.014 68.752 212.799 66.653 215.907 66.055 C 219.016 65.457 222.38 66.374 224.756 68.466 C 226.245 65.502 229.264 63.36 232.553 62.933 C 235.844 62.506 239.309 63.807 241.506 66.293 C 243.393 68.431 244.371 71.337 246.582 73.138 C 248.496 74.696 251.091 75.213 253.016 76.758 C 255.135 78.458 256.191 81.384 255.646 84.045 C 255.101 86.707 252.98 88.983 250.363 89.713 C 252.474 93.522 250.495 98.985 246.435 100.557 L 245.453 100.15 C 241.728 96.06 240.877 89.607 243.414 84.691 C 243.294 84.698 243.18 84.679 243.061 84.676 C 241.765 85.383 240.273 85.738 238.798 85.651 C 236.444 85.514 234.179 84.258 232.816 82.334 C 230.128 84.273 226.275 84.435 223.434 82.729 C 222.986 82.46 222.54 82.141 222.02 82.085 C 221.401 82.02 220.816 82.339 220.258 82.613 C 218.78 83.339 217.12 83.812 215.492 83.576 C 213.972 83.355 212.513 82.411 211.913 81.015 C 211.875 81.009 211.839 81.009 211.801 81.002 C 209.904 80.658 208.381 79.039 207.859 77.182 C 207.337 75.326 207.713 73.297 208.584 71.577 Z " fill="rgb(94,11,11)"/></g><path d="M 123.666 9.01 L 145.724 9.01 C 146.522 9.01 147.17 9.642 147.17 10.42 L 147.17 10.42 C 147.17 11.198 146.522 11.83 145.724 11.83 L 123.666 11.83 C 122.868 11.83 122.22 11.198 122.22 10.42 L 122.22 10.42 C 122.22 9.642 122.868 9.01 123.666 9.01 Z" style="stroke:none;fill:#455A64;stroke-miterlimit:10;"/><circle vector-effect="non-scaling-stroke" cx="153.61363094137187" cy="10.419233558344615" r="1.7602792804973433" fill="rgb(4,1,195)"/><g><circle vector-effect="non-scaling-stroke" cx="148.2057221182689" cy="59.133278971652544" r="20.056419951870623" fill="rgb(255,255,255)" stroke-width="2" stroke="rgb(232,80,91)" stroke-linejoin="miter" stroke-linecap="square" stroke-miterlimit="3"/><path d=" M 162.102 65.726 C 161.603 66.775 160.989 67.76 160.276 68.662 L 163.608 71.928 L 161.064 74.523 L 157.704 71.23 C 155.086 73.292 151.782 74.523 148.193 74.523 C 139.699 74.523 132.803 67.627 132.803 59.133 C 132.803 50.639 139.699 43.743 148.193 43.743 C 154.102 43.743 159.237 47.08 161.816 51.97 L 157.182 52.423 C 155.906 52.548 154.684 51.879 154.102 50.736 L 154.102 50.736 C 153.383 49.322 151.846 48.373 149.016 48.373 C 144.723 48.373 139.097 51.143 139.097 53.233 C 139.097 55.432 144.723 58.091 149.016 58.091 C 151.846 58.091 153.383 57.143 154.102 55.728 C 154.684 54.586 155.907 53.916 157.182 54.041 L 162.904 54.601 C 163.346 56.034 163.583 57.556 163.583 59.133 C 163.583 60.486 163.408 61.799 163.08 63.049 L 157.181 63.627 C 155.906 63.752 154.683 63.082 154.102 61.94 L 154.102 61.94 C 153.382 60.525 151.846 59.577 149.016 59.577 L 139.757 59.577 C 139.393 59.577 139.097 59.872 139.097 60.238 C 139.097 60.622 139.409 60.934 139.794 60.934 L 148.377 60.934 C 148.764 60.934 149.078 61.247 149.078 61.634 C 149.078 62.021 148.764 62.335 148.377 62.335 L 139.794 62.335 C 139.409 62.335 139.097 62.647 139.097 63.031 L 139.097 63.039 C 139.097 63.423 139.409 63.735 139.794 63.735 L 148.377 63.735 C 148.764 63.735 149.078 64.049 149.078 64.436 C 149.078 64.823 148.764 65.136 148.377 65.136 L 139.794 65.136 C 139.409 65.136 139.097 65.448 139.097 65.832 L 139.097 65.841 C 139.097 66.225 139.409 66.537 139.794 66.537 L 148.377 66.537 C 148.764 66.537 149.078 66.85 149.078 67.237 C 149.078 67.625 148.764 67.937 148.377 67.937 L 139.794 67.937 C 139.409 67.937 139.097 68.25 139.097 68.634 C 139.097 68.999 139.393 69.295 139.757 69.295 L 149.016 69.295 C 151.846 69.295 153.382 68.346 154.102 66.932 C 154.683 65.789 155.906 65.12 157.181 65.244 L 162.102 65.726 Z " fill-rule="evenodd" fill="rgb(232,80,91)"/></g></g></g></svg>