<?xml version="1.0" encoding="UTF-8" standalone="no"?><!-- Generator: Gravit.io --><svg xmlns="http://www.w3.org/2000/svg" xmlns:xlink="http://www.w3.org/1999/xlink" style="isolation:isolate" viewBox="0 0 250 250" width="250pt" height="250pt"><defs><clipPath id="_clipPath_2Y7YoIsQoiRbK4XOOykZBXHsntQOtITO"><rect width="250" height="250"/></clipPath></defs><g clip-path="url(#_clipPath_2Y7YoIsQoiRbK4XOOykZBXHsntQOtITO)"><rect width="250" height="250" style="fill:rgb(0,0,0)" fill-opacity="0"/><g><path d=" M 35.992 188.73 L 35.992 221.223 C 35.992 237.117 48.876 250 64.769 250 L 184.474 250 C 200.369 250 213.253 237.116 213.253 221.223 L 213.253 188.73 L 35.992 188.73 Z " fill-rule="evenodd" fill="rgb(129,130,132)"/><path d=" M 37.332 189.752 L 37.332 219.565 C 37.332 235.459 50.216 248.342 66.11 248.342 L 183.5 248.342 C 199.393 248.342 212.277 235.459 212.277 219.565 L 212.277 189.752 L 37.332 189.752 Z " fill="rgb(38,50,56)"/><path d=" M 35.992 215.617 L 35.992 28.778 C 35.992 12.885 48.876 0 64.769 0 L 184.474 0 C 200.369 0 213.253 12.885 213.253 28.779 L 213.253 215.617 L 35.992 215.617 Z " fill-rule="evenodd" fill="rgb(129,130,132)"/><path d=" M 37.332 215.617 L 37.332 30.718 C 37.332 14.823 50.217 1.939 66.11 1.939 L 183.5 1.939 C 199.393 1.939 212.277 14.822 212.277 30.717 L 212.277 215.617 L 37.332 215.617 Z " fill="rgb(38,50,56)"/><path d=" M 207.018 216.439 L 42.391 216.439 L 42.391 30.718 L 207.018 30.718 L 207.018 216.439 Z " fill="rgb(250,250,250)"/><g><path d="M 103.831 14.88 L 136.189 14.88 C 137.36 14.88 138.31 15.808 138.31 16.95 L 138.31 16.95 C 138.31 18.092 137.36 19.02 136.189 19.02 L 103.831 19.02 C 102.66 19.02 101.71 18.092 101.71 16.95 L 101.71 16.95 C 101.71 15.808 102.66 14.88 103.831 14.88 Z" style="stroke:none;fill:#455A64;stroke-miterlimit:10;"/><circle vector-effect="non-scaling-stroke" cx="147.75545657981394" cy="16.95174092777335" r="2.5821418867543287" fill="rgb(27,81,255)"/></g><circle vector-effect="non-scaling-stroke" cx="124.9999999999998" cy="232.64949503942663" r="13.284449297573758" fill="rgb(46,59,66)"/><path d="M 120.281 225.5 L 129.719 225.5 C 131.061 225.5 132.15 226.589 132.15 227.931 L 132.15 237.369 C 132.15 238.711 131.061 239.8 129.719 239.8 L 120.281 239.8 C 118.939 239.8 117.85 238.711 117.85 237.369 L 117.85 227.931 C 117.85 226.589 118.939 225.5 120.281 225.5 Z" style="stroke:none;fill:#334148;stroke-miterlimit:10;"/><path d="M 120.281 225.5 L 129.719 225.5 C 131.061 225.5 132.15 226.589 132.15 227.931 L 132.15 237.369 C 132.15 238.711 131.061 239.8 129.719 239.8 L 120.281 239.8 C 118.939 239.8 117.85 238.711 117.85 237.369 L 117.85 227.931 C 117.85 226.589 118.939 225.5 120.281 225.5 Z" style="fill:none;stroke:#000000;stroke-width:4;stroke-linecap:square;stroke-miterlimit:2;"/><path d=" M 148.348 173.697 L 148.348 173.697 L 148.348 173.697 Q 143.603 173.697 139.87 171.464 L 139.87 171.464 L 139.87 171.464 Q 136.137 169.231 134.671 164.276 L 134.671 164.276 L 134.671 164.276 Q 130.554 169.301 125.948 171.464 L 125.948 171.464 L 125.948 171.464 Q 121.342 173.627 116.039 173.627 L 116.039 173.627 L 116.039 173.627 Q 111.643 173.627 108.398 172.092 L 108.398 172.092 L 108.398 172.092 Q 105.153 170.557 102.955 167.87 L 102.955 167.87 L 102.955 167.87 Q 100.757 165.184 99.676 161.52 L 99.676 161.52 L 99.676 161.52 Q 98.594 157.857 98.594 153.53 L 98.594 153.53 L 98.594 153.53 Q 98.594 149.553 99.606 145.47 L 99.606 145.47 L 99.606 145.47 Q 100.618 141.388 102.641 137.585 L 102.641 137.585 L 102.641 137.585 Q 104.665 133.782 107.7 130.468 L 107.7 130.468 L 107.7 130.468 Q 110.736 127.152 114.853 124.676 L 114.853 124.676 L 114.853 124.676 Q 118.97 122.198 124.064 120.768 L 124.064 120.768 L 124.064 120.768 Q 129.158 119.337 135.368 119.337 L 135.368 119.337 L 135.368 119.337 Q 140.742 119.337 144.58 120.175 L 144.58 120.175 L 144.58 120.175 Q 148.418 121.012 151.977 122.547 L 151.977 122.547 L 145.278 148.436 L 145.278 148.436 Q 144.161 152.902 144.161 155.903 L 144.161 155.903 L 144.161 155.903 Q 144.161 157.996 144.685 159.392 L 144.685 159.392 L 144.685 159.392 Q 145.208 160.788 146.08 161.625 L 146.08 161.625 L 146.08 161.625 Q 146.953 162.462 148.208 162.777 L 148.208 162.777 L 148.208 162.777 Q 149.465 163.09 150.93 163.09 L 150.93 163.09 L 150.93 163.09 Q 153.861 163.09 156.477 161.241 L 156.477 161.241 L 156.477 161.241 Q 159.095 159.392 161.048 156.042 L 161.048 156.042 L 161.048 156.042 Q 163.002 152.693 164.154 148.088 L 164.154 148.088 L 164.154 148.088 Q 165.305 143.482 165.305 138.039 L 165.305 138.039 L 165.305 138.039 Q 165.305 128.967 162.479 122.059 L 162.479 122.059 L 162.479 122.059 Q 159.653 115.15 154.593 110.51 L 154.593 110.51 L 154.593 110.51 Q 149.534 105.87 142.486 103.531 L 142.486 103.531 L 142.486 103.531 Q 135.439 101.194 127.065 101.194 L 127.065 101.194 L 127.065 101.194 Q 117.923 101.194 110.073 104.648 L 110.073 104.648 L 110.073 104.648 Q 102.222 108.102 96.466 114.104 L 96.466 114.104 L 96.466 114.104 Q 90.709 120.105 87.464 128.269 L 87.464 128.269 L 87.464 128.269 Q 84.219 136.434 84.219 145.854 L 84.219 145.854 L 84.219 145.854 Q 84.219 157.299 87.778 165.987 L 87.778 165.987 L 87.778 165.987 Q 91.337 174.674 97.547 180.501 L 97.547 180.501 L 97.547 180.501 Q 103.758 186.327 112.166 189.258 L 112.166 189.258 L 112.166 189.258 Q 120.575 192.189 130.345 192.189 L 130.345 192.189 L 130.345 192.189 Q 135.718 192.189 140.393 191.596 L 140.393 191.596 L 140.393 191.596 Q 145.069 191.003 148.976 189.991 L 148.976 189.991 L 148.976 189.991 Q 152.884 188.979 156.094 187.688 L 156.094 187.688 L 156.094 187.688 Q 159.304 186.397 161.816 184.932 L 161.816 184.932 L 161.816 184.932 Q 163.212 184.164 164.189 184.164 L 164.189 184.164 L 164.189 184.164 Q 166.212 184.164 167.049 186.397 L 167.049 186.397 L 169.422 192.608 L 169.422 192.608 Q 162.165 197.353 152.465 200.353 L 152.465 200.353 L 152.465 200.353 Q 142.766 203.354 130.345 203.354 L 130.345 203.354 L 130.345 203.354 Q 117.714 203.354 106.968 199.377 L 106.968 199.377 L 106.968 199.377 Q 96.221 195.399 88.371 187.967 L 88.371 187.967 L 88.371 187.967 Q 80.52 180.536 76.089 169.859 L 76.089 169.859 L 76.089 169.859 Q 71.658 159.183 71.658 145.854 L 71.658 145.854 L 71.658 145.854 Q 71.658 138.387 73.577 131.34 L 73.577 131.34 L 73.577 131.34 Q 75.496 124.292 79.055 118.116 L 79.055 118.116 L 79.055 118.116 Q 82.614 111.94 87.638 106.777 L 87.638 106.777 L 87.638 106.777 Q 92.662 101.613 98.803 97.914 L 98.803 97.914 L 98.803 97.914 Q 104.944 94.216 112.097 92.157 L 112.097 92.157 L 112.097 92.157 Q 119.249 90.099 127.065 90.099 L 127.065 90.099 L 127.065 90.099 Q 136.973 90.099 146.08 93.413 L 146.08 93.413 L 146.08 93.413 Q 155.187 96.728 162.2 102.904 L 162.2 102.904 L 162.2 102.904 Q 169.213 109.08 173.4 117.976 L 173.4 117.976 L 173.4 117.976 Q 177.586 126.874 177.586 138.039 L 177.586 138.039 L 177.586 138.039 Q 177.586 145.505 175.389 152.03 L 175.389 152.03 L 175.389 152.03 Q 173.19 158.554 169.248 163.369 L 169.248 163.369 L 169.248 163.369 Q 165.305 168.184 159.967 170.941 L 159.967 170.941 L 159.967 170.941 Q 154.628 173.697 148.348 173.697 Z  M 119.458 162.532 L 119.458 162.532 L 119.458 162.532 Q 121.273 162.532 123.122 161.974 L 123.122 161.974 L 123.122 161.974 Q 124.971 161.416 126.646 159.985 L 126.646 159.985 L 126.646 159.985 Q 128.321 158.554 129.717 156.182 L 129.717 156.182 L 129.717 156.182 Q 131.112 153.81 132.019 150.25 L 132.019 150.25 L 137.113 130.572 L 137.113 130.572 Q 134.88 130.153 132.508 130.153 L 132.508 130.153 L 132.508 130.153 Q 128.181 130.153 124.413 132.038 L 124.413 132.038 L 124.413 132.038 Q 120.645 133.922 117.888 137.132 L 117.888 137.132 L 117.888 137.132 Q 115.132 140.342 113.527 144.494 L 113.527 144.494 L 113.527 144.494 Q 111.922 148.645 111.922 153.111 L 111.922 153.111 L 111.922 153.111 Q 111.922 157.578 113.841 160.055 L 113.841 160.055 L 113.841 160.055 Q 115.76 162.532 119.458 162.532 Z " fill="rgb(232,232,232)"/><g><path d=" M 86.444 82.36 C 86.444 99.812 69.178 113.961 47.892 113.961 C 26.596 113.961 9.332 99.812 9.332 82.36 L 86.444 82.36 Z " fill-rule="evenodd" fill="rgb(206,58,68)"/><path d=" M 163.556 82.36 C 163.556 99.812 146.291 113.961 125.004 113.961 C 103.711 113.961 86.444 99.812 86.444 82.36 L 163.556 82.36 Z " fill-rule="evenodd" fill="rgb(223,224,224)"/><path d=" M 240.668 82.36 C 240.668 99.812 223.403 113.961 202.118 113.961 C 180.822 113.961 163.556 99.812 163.556 82.36 L 240.668 82.36 Z " fill-rule="evenodd" fill="rgb(206,58,68)"/><path d=" M 86.444 82.36 L 96.228 30.718 L 41.715 30.718 L 9.332 82.36 L 86.444 82.36 Z " fill="rgb(232,80,91)"/><path d=" M 163.556 82.36 L 153.774 30.718 L 208.286 30.718 L 240.668 82.36 L 163.556 82.36 Z " fill="rgb(232,80,91)"/><path d=" M 96.228 30.718 L 86.444 82.36 L 163.556 82.36 L 153.774 30.718 L 96.228 30.718 Z " fill="rgb(254,254,254)"/></g></g></g></svg>