<?xml version="1.0" encoding="UTF-8" standalone="no"?><!-- Generator: Gravit.io --><svg xmlns="http://www.w3.org/2000/svg" xmlns:xlink="http://www.w3.org/1999/xlink" style="isolation:isolate" viewBox="0 0 261.91 177.588" width="261.91pt" height="177.588pt"><defs><clipPath id="_clipPath_8iqzZTgNV1TQg9vvpulHiDIuIK4beAnY"><rect width="261.91" height="177.588"/></clipPath></defs><g clip-path="url(#_clipPath_8iqzZTgNV1TQg9vvpulHiDIuIK4beAnY)"><rect width="261.91" height="177.588" style="fill:rgb(0,0,0)" fill-opacity="0"/><g><path d=" M 261.91 136.722 C 261.91 136.934 203.275 137.104 130.962 137.104 C 58.623 137.104 0 136.934 0 136.722 C 0 136.511 58.623 136.341 130.962 136.341 C 203.275 136.341 261.91 136.511 261.91 136.722 Z " fill="rgb(38,50,56)"/><g><path d=" M 148.356 161.59 C 147.154 160.186 147.032 159.001 149.739 158.757 C 155.709 158.22 160.106 155.613 160.799 154.106 C 161.493 152.596 159.602 151.122 157.982 152.029 C 156.675 152.763 154.114 153.326 152.17 153.674 C 150.568 153.961 148.93 153.993 147.327 153.741 C 145.937 153.522 144.715 153.288 143.621 153.057 C 143.621 153.057 137.304 151.695 134.576 149.567 L 121.217 163.844 L 127.484 170.926 C 127.484 170.926 130.475 175.399 135.851 174.868 C 141.227 174.339 148.457 170.48 148.457 170.48 C 149.433 168.98 158.089 174.317 160.877 176.318 C 163.631 178.296 165.726 177.816 165.62 175.892 C 165.548 174.579 157.162 168.25 154.36 166.334 C 152.828 165.286 149.806 163.281 148.356 161.59 Z " fill="rgb(255,190,157)"/><path d=" M 140.504 173.995 C 140.518 174.077 140.119 174.247 139.428 174.229 C 138.744 174.215 137.786 173.945 136.939 173.306 C 136.094 172.666 135.573 171.818 135.374 171.163 C 135.168 170.504 135.224 170.073 135.306 170.065 C 135.496 170.021 135.823 171.636 137.355 172.757 C 138.85 173.925 140.494 173.801 140.504 173.995 Z " fill="rgb(235,153,110)"/><path d=" M 145.797 171.91 C 145.807 171.993 145.417 172.138 144.758 172.097 C 144.106 172.058 143.199 171.776 142.398 171.157 C 141.598 170.533 141.102 169.723 140.906 169.099 C 140.703 168.47 140.747 168.057 140.83 168.047 C 141.022 168.001 141.375 169.523 142.82 170.613 C 144.23 171.745 145.794 171.714 145.797 171.91 Z " fill="rgb(235,153,110)"/><path d=" M 160.201 23.395 C 160.759 35.119 175.058 51.178 185.695 53.775 C 191.286 55.142 197.718 54.499 202.148 58.255 C 209.745 64.698 205.302 78.052 210.426 86.694 C 213.578 92.007 219.834 94.613 223.378 99.657 C 229.267 108.041 225.315 120.714 217.279 126.957 C 209.241 133.201 198.538 134.395 188.465 134.135 C 166.31 133.561 143.623 126.52 127.608 110.817 C 120.086 103.44 90.65 80.661 100.915 26.678" fill="rgb(204,125,7)"/><path d=" M 240.167 107.279 L 155.932 82.271 C 148.951 79.305 143.664 78.58 143.664 78.58 L 115.226 78.769 C 111.362 78.769 107.728 79.6 104.316 81.051 L 27.643 106.518 C 21.969 108.313 18.049 114.133 18.049 120.761 C 18.049 128.933 23.94 135.557 31.206 135.557 L 66.612 135.557 C 66.511 135.889 66.457 136.076 66.457 136.076 L 189.604 136.538 C 189.604 136.522 189.603 136.507 189.603 136.491 L 236.606 136.596 C 243.871 136.596 249.761 129.908 249.761 121.658 C 249.761 114.967 245.841 109.091 240.167 107.279 Z " fill="rgb(232,80,91)"/><path d=" M 223.286 116.385 C 223.282 116.408 223.019 116.394 222.522 116.345 C 221.95 116.28 221.232 116.199 220.352 116.099 C 218.472 115.861 215.747 115.558 212.376 115.232 C 205.635 114.576 196.287 113.995 185.953 114.124 C 175.62 114.265 166.289 115.092 159.567 115.924 C 156.206 116.337 153.489 116.711 151.616 117 C 150.739 117.123 150.023 117.222 149.454 117.301 C 148.958 117.364 148.696 117.385 148.691 117.361 C 148.687 117.338 148.942 117.271 149.43 117.165 C 149.995 117.051 150.703 116.91 151.572 116.735 C 153.433 116.366 156.143 115.916 159.503 115.441 C 166.223 114.483 175.577 113.577 185.946 113.434 C 196.31 113.306 205.684 113.966 212.426 114.748 C 215.798 115.136 218.518 115.513 220.39 115.833 C 221.264 115.985 221.975 116.109 222.543 116.207 C 223.034 116.301 223.289 116.361 223.286 116.385 Z " fill="rgb(38,50,56)"/><g opacity="0.600006"><path d=" M 203.519 95.918 C 203.529 95.926 203.448 96.022 203.284 96.201 C 203.089 96.406 202.845 96.663 202.543 96.984 C 201.878 97.659 200.897 98.656 199.565 99.871 C 198.233 101.085 196.559 102.534 194.445 103.993 C 192.327 105.426 189.741 106.922 186.58 107.743 C 183.438 108.624 179.734 108.534 176.054 107.532 C 172.351 106.54 168.704 104.669 164.973 102.639 C 161.225 100.649 157.362 98.342 152.974 97.013 C 148.638 95.577 143.656 95.623 139.253 97.718 C 134.821 99.716 131.049 102.764 126.928 104.959 C 125.908 105.528 124.829 105.966 123.784 106.439 C 122.702 106.822 121.646 107.252 120.55 107.518 C 118.39 108.151 116.2 108.474 114.061 108.637 C 105.446 109.253 97.753 106.458 92.511 102.709 C 89.861 100.819 87.85 98.68 86.002 96.93 C 84.169 95.158 82.482 93.751 80.963 92.809 C 77.894 90.912 75.753 91.002 75.801 90.875 C 75.801 90.875 76.304 90.865 77.239 91.045 C 78.176 91.212 79.537 91.661 81.102 92.58 C 82.666 93.499 84.4 94.898 86.267 96.649 C 88.148 98.381 90.175 100.485 92.792 102.312 C 97.986 105.95 105.564 108.645 114.016 108.003 C 116.113 107.835 118.259 107.511 120.372 106.884 C 121.445 106.622 122.475 106.197 123.535 105.82 C 124.555 105.353 125.607 104.927 126.61 104.365 C 130.658 102.203 134.426 99.145 138.973 97.09 C 143.495 94.924 148.75 94.879 153.171 96.368 C 157.666 97.741 161.54 100.08 165.276 102.08 C 168.992 104.126 172.59 105.988 176.207 106.982 C 179.802 107.982 183.384 108.098 186.458 107.272 C 189.549 106.502 192.115 105.062 194.229 103.674 C 196.342 102.26 198.033 100.85 199.386 99.671 C 200.74 98.492 201.749 97.528 202.445 96.885 C 202.768 96.585 203.027 96.343 203.234 96.151 C 203.415 95.988 203.511 95.91 203.519 95.918 Z " fill="rgb(255,255,255)"/></g><g opacity="0.199997"><path d=" M 72.625 116.215 L 125.871 126.252 L 119.72 136.271 L 118.101 136.295 L 72.625 116.215 Z " fill="rgb(0,0,0)"/></g><g opacity="0.600006"><path d=" M 233.8 105.693 C 233.825 105.693 233.832 105.974 233.828 106.51 C 233.814 107.044 233.757 107.834 233.594 108.839 C 233.258 110.836 232.443 113.757 230.386 116.806 C 228.367 119.839 224.948 122.92 220.331 124.521 C 218.044 125.329 215.488 125.784 212.838 125.692 C 210.189 125.592 207.509 124.989 204.85 124.231 C 202.184 123.48 199.623 122.65 197.093 122.141 C 194.57 121.592 192.076 121.486 189.733 121.758 C 185.037 122.321 181.071 124.275 178.254 126.46 C 175.375 128.615 173.618 131.005 172.549 132.693 C 172.297 133.115 172.068 133.496 171.861 133.84 C 171.697 134.169 171.55 134.46 171.422 134.717 C 171.179 135.19 171.041 135.435 171.019 135.427 C 170.996 135.418 171.093 135.155 171.295 134.66 C 171.408 134.391 171.536 134.09 171.679 133.747 C 171.871 133.39 172.084 132.993 172.319 132.555 C 173.33 130.803 175.056 128.324 177.955 126.075 C 180.791 123.797 184.827 121.742 189.658 121.127 C 192.063 120.828 194.656 120.929 197.225 121.479 C 199.808 121.99 202.388 122.822 205.036 123.568 C 207.68 124.322 210.299 124.912 212.863 125.017 C 215.42 125.116 217.897 124.689 220.122 123.921 C 224.612 122.4 227.961 119.455 229.985 116.531 C 232.043 113.589 232.919 110.745 233.331 108.791 C 233.732 106.818 233.73 105.689 233.8 105.693 Z " fill="rgb(255,255,255)"/></g><path d=" M 27.715 133.849 C 27.715 133.849 123.972 176.321 123.476 175.358 C 122.98 174.394 138.76 146.537 138.76 146.537 L 60.769 107.994 L 27.715 133.849 Z " fill="rgb(232,80,91)"/><path d=" M 71.9 113.494 C 71.921 113.45 72.626 113.749 73.884 114.325 C 75.243 114.965 77.026 115.806 79.18 116.82 C 83.641 118.955 89.78 121.946 96.543 125.288 C 103.307 128.631 109.414 131.693 113.821 133.94 C 115.936 135.036 117.688 135.942 119.023 136.634 C 120.245 137.283 120.911 137.663 120.891 137.705 C 120.871 137.749 120.166 137.451 118.909 136.876 C 117.549 136.236 115.765 135.396 113.612 134.381 C 109.153 132.246 103.012 129.254 96.245 125.91 C 89.482 122.567 83.374 119.505 78.968 117.259 C 76.854 116.163 75.101 115.257 73.766 114.565 C 72.545 113.916 71.878 113.536 71.9 113.494 Z " fill="rgb(38,50,56)"/><g opacity="0.600006"><path d=" M 93.038 126.378 C 93.038 126.378 92.985 127.475 92.142 129.233 C 91.329 130.984 89.463 133.281 86.402 134.971 C 84.878 135.805 83.077 136.511 81.056 136.874 C 79.034 137.238 76.821 137.258 74.546 136.951 C 69.969 136.364 65.248 134.456 60.509 132.241 C 55.767 130.021 51.247 127.882 46.856 126.857 C 44.672 126.329 42.539 126.076 40.552 126.125 C 38.561 126.177 36.72 126.534 35.108 127.045 C 31.872 128.082 29.616 129.818 28.39 131.253 C 27.139 132.688 26.72 133.687 26.647 133.645 C 26.647 133.645 26.971 132.601 28.186 131.08 C 29.374 129.557 31.651 127.706 34.956 126.583 C 36.601 126.027 38.485 125.632 40.532 125.554 C 42.58 125.48 44.769 125.718 47.001 126.239 C 51.489 127.252 56.066 129.402 60.799 131.616 C 65.524 133.825 70.169 135.717 74.632 136.323 C 76.85 136.639 79.001 136.639 80.957 136.312 C 82.917 135.984 84.676 135.325 86.171 134.542 C 89.172 132.956 91.038 130.782 91.906 129.108 C 92.801 127.431 92.955 126.353 93.038 126.378 Z " fill="rgb(255,255,255)"/></g><g opacity="0.600006"><path d=" M 133.906 155.49 C 133.886 155.62 131.77 155.266 128.332 155.21 C 126.613 155.172 124.568 155.27 122.312 155.517 C 120.062 155.797 117.605 156.249 115.082 156.95 C 112.566 157.675 110.236 158.581 108.172 159.522 C 106.123 160.494 104.329 161.484 102.886 162.418 C 99.987 164.268 98.372 165.679 98.288 165.579 C 98.257 165.544 98.64 165.169 99.365 164.522 C 100.078 163.865 101.188 162.997 102.619 162.011 C 104.043 161.014 105.836 159.966 107.9 158.947 C 109.98 157.962 112.338 157.024 114.894 156.287 C 117.456 155.574 119.956 155.135 122.244 154.885 C 124.535 154.67 126.611 154.621 128.346 154.723 C 130.082 154.813 131.482 154.969 132.436 155.156 C 133.391 155.328 133.913 155.444 133.906 155.49 Z " fill="rgb(255,255,255)"/></g><g opacity="0.199997"><path d=" M 145.774 78.4 C 144.182 82.853 146.573 87.65 148.89 91.77 C 150.503 94.638 152.146 97.545 154.472 99.872 C 156.799 102.199 159.937 103.914 163.225 103.805 C 167.547 103.664 171.417 100.471 175.734 100.721 C 178.668 100.891 181.248 102.625 183.685 104.271 C 187.909 107.125 192.24 109.911 197.028 111.662 C 201.815 113.414 207.146 114.074 212.027 112.604 C 216.908 111.134 221.221 107.286 222.407 102.327" fill="rgb(0,0,0)"/></g><path d=" M 146.137 77.171 C 146.359 71.989 146.638 67.301 146.638 67.301 C 146.638 67.301 158.219 65.839 158.718 54.019 C 159.218 42.196 158.041 14.976 158.041 14.976 L 136.725 4.74 L 113.79 23.215 L 117.387 77.508 C 117.906 85.33 124.587 91.3 132.417 90.937 C 139.864 90.593 145.818 84.62 146.137 77.171 Z " fill="rgb(255,190,157)"/><path d=" M 156.043 36.352 C 156.058 37.187 155.41 37.873 154.596 37.888 C 153.784 37.902 153.112 37.238 153.097 36.403 C 153.084 35.567 153.732 34.879 154.543 34.865 C 155.357 34.852 156.029 35.517 156.043 36.352 Z " fill="rgb(38,50,56)"/><path d=" M 157.474 33.195 C 157.287 33.393 156.182 32.463 154.595 32.404 C 153.01 32.319 151.831 33.147 151.662 32.931 C 151.58 32.836 151.77 32.472 152.285 32.097 C 152.79 31.724 153.648 31.376 154.636 31.419 C 155.627 31.464 156.452 31.888 156.923 32.306 C 157.405 32.726 157.564 33.106 157.474 33.195 Z " fill="rgb(204,125,7)"/><path d=" M 138.468 36.352 C 138.482 37.187 137.834 37.873 137.02 37.888 C 136.208 37.902 135.537 37.238 135.521 36.403 C 135.508 35.567 136.155 34.879 136.967 34.865 C 137.781 34.852 138.453 35.517 138.468 36.352 Z " fill="rgb(38,50,56)"/><path d=" M 139.898 33.499 C 139.711 33.698 138.605 32.767 137.02 32.708 C 135.434 32.623 134.255 33.451 134.086 33.236 C 134.004 33.141 134.193 32.777 134.709 32.401 C 135.214 32.028 136.072 31.68 137.061 31.724 C 138.049 31.769 138.875 32.192 139.347 32.611 C 139.828 33.031 139.988 33.41 139.898 33.499 Z " fill="rgb(204,125,7)"/><path d=" M 145.856 47.144 C 145.85 47.048 146.839 46.905 148.441 46.75 C 148.849 46.721 149.234 46.651 149.305 46.357 C 149.407 46.047 149.244 45.573 149.056 45.059 C 148.691 43.994 148.309 42.878 147.908 41.707 C 146.318 36.935 145.172 33.017 145.352 32.954 C 145.531 32.892 146.965 36.709 148.556 41.481 C 148.939 42.657 149.304 43.779 149.652 44.852 C 149.797 45.352 150.053 45.92 149.836 46.563 C 149.722 46.884 149.42 47.106 149.16 47.171 C 148.899 47.245 148.67 47.241 148.47 47.246 C 146.859 47.274 145.86 47.241 145.856 47.144 Z " fill="rgb(38,50,56)"/><path d=" M 140.645 48.775 C 139.022 47.71 145.123 51.405 148.358 51.35 C 148.358 51.35 146.413 54.329 143.128 52.972 C 139.719 51.564 140.645 48.775 140.645 48.775 Z " fill="rgb(255,255,255)"/><path d=" M 146.638 67.3 C 146.638 67.3 138.89 67.522 131.301 62.281 C 131.301 62.281 134.906 70.891 146.437 70.201 L 146.638 67.3 Z " fill="rgb(235,153,110)"/><path d=" M 101.351 34.865 L 101.351 34.865 C 101.31 45.097 98.631 72.151 117.281 75.904 L 116.602 38.642 C 116.602 38.642 134.661 30.128 137.711 12.393 L 137.82 12.494 C 138.978 15.17 141.038 20.92 139.786 25.602 L 156.695 29.769 L 158.643 31.55 C 158.643 31.55 164.665 18.356 153.046 6.386 C 141.427 -5.585 131.501 3.089 125.273 2.343 C 121.13 1.845 106.765 1.94 100.915 26.679 L 101.351 34.865 Z " fill="rgb(204,125,7)"/><path d=" M 117.067 39.059 C 115.491 38.087 113.339 38.887 112.087 40.252 C 110.118 42.401 109.776 45.871 111.285 48.363 C 112.796 50.856 116.032 52.158 118.847 51.406" fill="rgb(255,190,157)"/><path d=" M 116.703 47.864 C 116.7 47.948 116.174 48.039 115.348 47.817 C 114.562 47.608 113.341 46.978 112.874 45.623 C 112.647 44.967 112.689 44.247 112.944 43.694 C 113.195 43.139 113.591 42.759 113.953 42.518 C 114.696 42.039 115.264 42.074 115.27 42.151 C 115.299 42.255 114.807 42.402 114.25 42.905 C 113.688 43.381 113.147 44.353 113.528 45.402 C 113.877 46.448 114.827 47.052 115.514 47.359 C 116.216 47.673 116.714 47.76 116.703 47.864 Z " fill="rgb(235,153,110)"/><path d=" M 115.159 50.193 C 114.302 50.396 113.864 51.577 114.38 52.29 C 114.897 53.003 116.157 52.952 116.616 52.2 C 117.073 51.447 116.54 50.306 115.67 50.173" fill="rgb(232,80,91)"/><path d=" M 149.43 136.596 L 149.43 117.164 C 149.43 117.164 120.574 123.151 120.047 136.366 L 149.43 136.596 Z " fill="rgb(255,190,157)"/><path d=" M 146.427 75.126 C 146.9 81.045 149.645 86.754 153.971 90.819 C 158.298 94.885 164.167 97.269 170.103 97.372 C 174.363 97.447 178.853 96.434 182.742 98.175 C 186.124 99.689 188.299 102.966 190.964 105.541 C 197.214 111.585 206.915 113.778 215.156 111.012 C 218.65 109.838 224.202 107.327 224.852 103.701 C 225.347 100.936 221.97 98.19 219.978 96.211 C 217.987 94.231 215.415 92.961 212.874 91.768 C 192.319 82.114 170.255 75.093 147.58 73.893" fill="rgb(204,125,7)"/></g><path d=" M 175.72 69.429 C 175.759 69.488 176.337 68.904 177.666 68.425 C 178.973 67.953 181.122 67.73 183.481 68.631 C 185.857 69.464 188.145 71.665 189.585 74.665 C 191.084 77.66 191.724 81.331 192.293 85.172 C 192.592 87.096 192.904 88.982 193.371 90.776 C 193.846 92.567 194.469 94.25 195.205 95.783 C 196.665 98.864 198.545 101.327 200.307 103.191 C 202.092 105.041 203.759 106.298 204.953 107.085 C 205.547 107.485 206.03 107.761 206.362 107.939 C 206.691 108.121 206.868 108.208 206.878 108.192 C 206.907 108.145 206.22 107.754 205.071 106.913 C 203.922 106.081 202.308 104.792 200.581 102.933 C 198.879 101.062 197.059 98.612 195.65 95.574 C 194.938 94.06 194.336 92.406 193.876 90.645 C 193.424 88.882 193.119 87.012 192.82 85.09 C 192.25 81.256 191.59 77.512 190.025 74.447 C 188.528 71.377 186.102 69.095 183.611 68.278 C 181.146 67.387 178.918 67.683 177.593 68.23 C 176.246 68.786 175.72 69.429 175.72 69.429 Z " fill="rgb(125,78,6)"/><path d=" M 176.231 67.216 C 176.241 67.232 176.462 67.115 176.875 66.879 C 177.336 66.621 177.938 66.285 178.688 65.865 C 180.272 65.036 182.612 63.776 185.764 63.19 C 187.329 62.915 189.107 62.863 190.93 63.267 C 192.744 63.66 194.613 64.56 195.993 66.129 C 197.4 67.674 198.259 69.782 198.704 72.02 C 199.155 74.271 199.142 76.669 199.036 79.124 C 198.935 81.579 198.791 84.004 199.015 86.348 C 199.263 88.689 199.898 90.905 200.843 92.848 C 201.782 94.794 202.964 96.497 204.264 97.908 C 205.571 99.314 206.956 100.454 208.306 101.366 C 211.045 103.149 213.609 103.948 215.382 104.291 C 216.272 104.48 216.974 104.537 217.452 104.56 C 217.928 104.592 218.177 104.601 218.177 104.581 C 218.179 104.563 217.932 104.519 217.462 104.453 C 216.991 104.395 216.299 104.307 215.426 104.088 C 213.685 103.687 211.18 102.844 208.516 101.053 C 207.202 100.138 205.859 99.002 204.592 97.612 C 203.332 96.216 202.191 94.541 201.287 92.637 C 200.376 90.733 199.77 88.58 199.535 86.299 C 199.322 84.008 199.467 81.611 199.568 79.146 C 199.675 76.686 199.686 74.233 199.217 71.918 C 198.752 69.618 197.853 67.423 196.358 65.801 C 194.888 64.152 192.907 63.222 191.024 62.834 C 189.127 62.435 187.299 62.513 185.696 62.819 C 182.478 63.469 180.148 64.797 178.586 65.685 C 177.805 66.144 177.215 66.524 176.818 66.788 C 176.424 67.053 176.222 67.201 176.231 67.216 Z " fill="rgb(125,78,6)"/><path d=" M 102.064 38.303 C 102.076 38.317 102.2 38.225 102.426 38.038 C 102.657 37.854 102.975 37.563 103.377 37.175 C 104.175 36.398 105.266 35.192 106.385 33.532 C 107.492 31.87 108.623 29.742 109.414 27.207 C 110.248 24.675 110.521 21.76 111.035 18.799 C 111.525 15.837 112.47 13.07 114.106 11.067 C 114.908 10.065 115.873 9.29 116.887 8.783 C 117.9 8.295 118.973 8.115 119.936 8.164 C 121.888 8.245 123.322 9.134 124.042 9.928 C 124.761 10.749 124.913 11.375 124.972 11.348 C 124.972 11.348 124.901 10.697 124.199 9.792 C 123.494 8.917 122.012 7.922 119.956 7.788 C 118.941 7.712 117.796 7.876 116.694 8.385 C 115.609 8.903 114.577 9.716 113.727 10.756 C 111.992 12.833 111.005 15.71 110.51 18.705 C 109.991 21.706 109.735 24.581 108.946 27.062 C 108.194 29.554 107.12 31.662 106.069 33.326 C 105.007 34.988 103.973 36.216 103.228 37.031 C 102.482 37.849 102.032 38.268 102.064 38.303 Z " fill="rgb(125,78,6)"/></g></g></svg>