<?xml version="1.0" encoding="UTF-8" standalone="no"?><!-- Generator: Gravit.io --><svg xmlns="http://www.w3.org/2000/svg" xmlns:xlink="http://www.w3.org/1999/xlink" style="isolation:isolate" viewBox="0 0 300.085 249" width="300.085pt" height="249pt"><defs><clipPath id="_clipPath_G0vLWIN5PZlFYU9D4WJXe0tvXNb2jJ2x"><rect width="300.085" height="249"/></clipPath></defs><g clip-path="url(#_clipPath_G0vLWIN5PZlFYU9D4WJXe0tvXNb2jJ2x)"><rect width="300.085" height="249" style="fill:rgb(0,0,0)" fill-opacity="0"/><g><path d=" M 73.217 33.189 C 73.907 33.057 74.597 32.949 75.286 32.853 C 83.079 31.767 90.777 32.758 98.82 32.217 C 99.165 32.194 99.426 31.895 99.403 31.55 C 99.38 31.205 99.081 30.947 98.736 30.971 C 90.854 31.508 83.124 30.509 75.114 31.613 C 74.407 31.711 73.697 31.821 72.985 31.957 C 72.646 32.022 72.422 32.346 72.486 32.686 C 72.55 33.025 72.878 33.254 73.217 33.189 Z " fill="rgb(209,209,209)"/><path d=" M 65.288 22.672 C 66.185 22.529 67.078 22.399 67.968 22.276 C 82.633 20.243 96.364 20.813 110.613 25.996 C 110.938 26.116 111.297 25.944 111.416 25.622 C 111.534 25.294 111.366 24.939 111.041 24.819 C 96.573 19.551 82.593 18.978 67.796 21.036 C 66.898 21.16 65.996 21.291 65.092 21.435 C 64.751 21.488 64.517 21.808 64.571 22.148 C 64.625 22.489 64.946 22.725 65.288 22.672 Z " fill="rgb(209,209,209)"/><path d=" M 33.481 67.724 C 24.312 65.18 15.388 59.368 7.436 54.058 C 7.151 53.863 6.762 53.94 6.569 54.229 C 6.376 54.518 6.456 54.903 6.74 55.098 C 14.706 60.412 23.711 66.303 33.147 68.93 C 33.48 69.022 33.826 68.826 33.917 68.495 C 34.011 68.159 33.814 67.816 33.481 67.724 Z " fill="rgb(209,209,209)"/><path d=" M 34.461 79.533 C 26.095 75.714 18.858 69.687 10.959 64.747 C 10.667 64.562 10.278 64.655 10.096 64.946 C 9.911 65.242 10 65.627 10.296 65.808 C 18.102 70.682 25.377 76.75 33.94 80.671 C 34.257 80.814 34.629 80.674 34.77 80.363 C 34.915 80.047 34.777 79.675 34.461 79.533 Z " fill="rgb(209,209,209)"/><defs><filter id="LoxYvK1XtWp7cZn4gFTsVJmtFLOPKd4b" x="-200%" y="-200%" width="400%" height="400%" filterUnits="objectBoundingBox" color-interpolation-filters="sRGB"><feOffset xmlns="http://www.w3.org/2000/svg" in="SourceGraphic" dx="0" dy="0"/><feGaussianBlur xmlns="http://www.w3.org/2000/svg" stdDeviation="2.146804531419514" result="pf_100_offsetBlur"/><feComposite xmlns="http://www.w3.org/2000/svg" in="SourceGraphic" in2="pf_100_offsetBlur" result="pf_100_inverse" operator="out"/><feFlood xmlns="http://www.w3.org/2000/svg" flood-color="#000000" flood-opacity="0.5" result="pf_100_color"/><feComposite xmlns="http://www.w3.org/2000/svg" in="pf_100_color" in2="pf_100_inverse" operator="in" result="pf_100_shadow"/><feComposite xmlns="http://www.w3.org/2000/svg" in="pf_100_shadow" in2="SourceGraphic" operator="over"/></filter></defs><g filter="url(#LoxYvK1XtWp7cZn4gFTsVJmtFLOPKd4b)"><circle vector-effect="non-scaling-stroke" cx="168.42754576704397" cy="164.86355273860306" r="84.13644726139688" fill="rgb(235,235,235)"/></g><g><path d=" M 293.043 99.979 L 297.831 82.705 C 297.831 82.705 299.559 75.687 299.971 74.047 C 300.515 71.879 298.993 71.196 298.097 72.672 C 297.755 73.231 293.965 80.378 293.965 80.378 C 293.965 80.378 296.987 68.68 297.095 68.254 C 298.074 64.435 295.709 64.83 295.016 66.196 C 294.3 67.608 290.022 79.12 290.022 79.12 C 294.038 64.075 292.782 62.751 291.653 62.514 C 290.522 62.277 286.98 76.033 286.98 76.033 C 286.98 76.033 285.707 73.682 283.35 72.061 C 279.716 69.563 273.661 72.057 273.37 73.768 C 273.077 75.479 275.24 75.958 275.24 75.958 C 279.792 73.025 284.46 76.578 283.981 80.921 C 283.504 85.265 278.003 84.661 277.317 81.57 C 275.814 74.787 273.48 76.991 273.48 76.991 L 275.82 91.953 L 273.342 99.477" fill="rgb(255,190,157)"/><path d=" M 120.508 170.39 L 224.065 169.698 L 226.91 240.105 L 119.681 239.048 L 120.508 170.39 Z " fill="rgb(69,90,100)"/><path d=" M 120.508 170.39 L 173.107 127.879 L 224.065 169.698" fill="rgb(38,50,56)"/><mask id="_mask_xM09BrM8ac3EFkU5HtU6Y5Umn63XBQ9z"><path d=" M 119.682 239.048 C 119.553 238.927 127.848 229.881 138.208 218.844 C 148.572 207.805 157.075 198.955 157.204 199.076 C 157.333 199.199 149.04 208.243 138.676 219.283 C 128.315 230.319 119.811 239.169 119.682 239.048 Z " fill="white" stroke="none"/></mask><path d=" M 119.682 239.048 C 119.553 238.927 127.848 229.881 138.208 218.844 C 148.572 207.805 157.075 198.955 157.204 199.076 C 157.333 199.199 149.04 208.243 138.676 219.283 C 128.315 230.319 119.811 239.169 119.682 239.048 Z " fill="rgb(38,50,56)"/><path d=" M 119.682 239.048 C 119.553 238.927 127.848 229.881 138.208 218.844 C 148.572 207.805 157.075 198.955 157.204 199.076 C 157.333 199.199 149.04 208.243 138.676 219.283 C 128.315 230.319 119.811 239.169 119.682 239.048 Z " fill="rgb(38,50,56)" mask="url(#_mask_xM09BrM8ac3EFkU5HtU6Y5Umn63XBQ9z)" vector-effect="non-scaling-stroke" stroke-width="2" stroke="rgb(0,0,0)" stroke-linejoin="miter" stroke-linecap="square" stroke-miterlimit="3"/><mask id="_mask_0SEn8n15khVwJF10VWl9aAxoBbZ7u74w"><path d=" M 226.91 240.105 C 226.778 240.224 218.71 231.349 208.89 220.288 C 199.069 209.223 191.217 200.161 191.349 200.042 C 191.482 199.926 199.549 208.797 209.371 219.863 C 219.189 230.924 227.042 239.987 226.91 240.105 Z " fill="white" stroke="none"/></mask><path d=" M 226.91 240.105 C 226.778 240.224 218.71 231.349 208.89 220.288 C 199.069 209.223 191.217 200.161 191.349 200.042 C 191.482 199.926 199.549 208.797 209.371 219.863 C 219.189 230.924 227.042 239.987 226.91 240.105 Z " fill="rgb(38,50,56)"/><path d=" M 226.91 240.105 C 226.778 240.224 218.71 231.349 208.89 220.288 C 199.069 209.223 191.217 200.161 191.349 200.042 C 191.482 199.926 199.549 208.797 209.371 219.863 C 219.189 230.924 227.042 239.987 226.91 240.105 Z " fill="rgb(38,50,56)" mask="url(#_mask_0SEn8n15khVwJF10VWl9aAxoBbZ7u74w)" vector-effect="non-scaling-stroke" stroke-width="2" stroke="rgb(0,0,0)" stroke-linejoin="miter" stroke-linecap="square" stroke-miterlimit="3"/><path d=" M 224.065 169.698 L 172.04 211.209 L 120.508 170.389" fill="rgb(38,50,56)"/><path d=" M 51.309 91.041 L 51.654 91.032 L 50.265 86.399 L 45.83 68.693 C 45.408 67.086 46.302 65.431 47.912 64.836 L 51.105 64.727 L 62.04 59.612 C 64.107 58.849 66.39 60.146 66.65 62.257 C 67.049 65.512 69.261 74.254 71.618 71.192 C 71.672 71.12 71.731 71.062 71.788 70.991 C 75.098 66.434 79.22 63.976 80.917 64.044 C 82.572 64.111 83.183 66.116 82.075 67.314 C 81.912 67.519 81.717 67.71 81.451 67.854 C 81.341 67.914 81.21 68.02 81.093 68.096 C 79.808 69.128 78.28 70.961 77.157 72.415 C 76.087 73.801 75.273 75.372 74.747 77.023 C 74.164 78.86 73.73 80.469 73.402 81.833 L 74.252 90.872" fill="rgb(255,190,157)"/><path d=" M 89.521 130.663 L 78.093 87.243 L 49.535 87.999 L 58.418 148.589 C 59.553 161.774 67.311 170.405 80.377 172.5 C 88.211 173.755 96.7 166.286 102.992 161.454 C 107.099 158.299 107.83 158.925 112.068 155.071 L 130.464 141.773 L 130.916 143.955 L 130.797 143.96 L 133.923 180.982 L 172.024 210.899 L 217.469 174.487 L 216.432 158.738 C 216.544 158.725 216.655 158.506 216.417 158.511 L 215.241 140.664 L 238.522 167.368 C 243.88 175.193 253.002 179.571 262.46 178.854 C 272.685 178.078 281.551 171.491 285.245 161.926 L 297.241 100.889 L 270.918 95.224 L 258.589 139.208 L 229.176 105.405 C 212.217 83.307 192.413 85.174 192.413 85.174 L 155.904 84.526 C 155.877 84.526 155.85 84.526 155.822 84.527 C 154.739 84.585 134.335 85.203 120.508 99.979 L 89.521 130.663 Z " fill="rgb(232,80,91)"/><path d=" M 230.658 107.814 C 230.641 107.85 230.264 107.627 229.484 107.384 C 228.712 107.134 227.508 106.9 225.963 107.021 C 224.42 107.147 222.563 107.641 220.561 108.57 C 218.542 109.466 216.455 110.891 214.021 112.291 C 211.611 113.648 208.714 115.135 205.298 115.058 C 203.61 115 201.917 114.535 200.277 113.889 C 198.631 113.245 197.013 112.446 195.308 111.771 C 191.933 110.391 187.982 109.929 184.088 110.706 C 180.167 111.454 176.575 113.654 172.897 115.787 C 171.044 116.85 169.174 117.871 167.211 118.632 C 165.253 119.397 163.217 119.884 161.193 120.094 C 157.144 120.529 153.141 119.929 149.685 118.498 C 146.212 117.085 143.302 115.024 140.636 113.11 C 137.972 111.182 135.523 109.347 133.117 107.955 C 130.709 106.57 128.353 105.639 126.215 105.11 C 124.071 104.6 122.155 104.49 120.614 104.645 C 117.506 104.982 116.025 106.059 115.993 105.954 C 115.988 105.945 116.081 105.889 116.266 105.787 C 116.453 105.688 116.727 105.532 117.101 105.353 C 117.861 105.038 119.017 104.597 120.588 104.412 C 122.152 104.219 124.107 104.295 126.292 104.784 C 128.472 105.29 130.874 106.206 133.327 107.586 C 135.779 108.973 138.255 110.798 140.926 112.705 C 143.598 114.599 146.491 116.62 149.892 117.985 C 153.27 119.367 157.18 119.941 161.129 119.51 C 163.104 119.299 165.086 118.823 166.996 118.075 C 168.91 117.332 170.752 116.326 172.597 115.268 C 176.259 113.146 179.919 110.897 183.974 110.13 C 187.983 109.335 192.059 109.829 195.512 111.257 C 198.939 112.657 202.052 114.458 205.315 114.56 C 208.563 114.659 211.406 113.248 213.814 111.922 C 216.236 110.561 218.361 109.145 220.424 108.264 C 222.466 107.352 224.368 106.879 225.946 106.787 C 227.528 106.701 228.751 106.978 229.523 107.27 C 230.302 107.555 230.658 107.814 230.658 107.814 Z " fill="rgb(250,250,250)"/><path d=" M 251.83 129.442 C 251.83 129.442 251.723 130.036 251.206 131.049 C 250.688 132.049 249.681 133.458 247.9 134.699 C 246.145 135.95 243.619 137.005 240.56 137.297 C 237.503 137.643 234.015 137.275 230.22 136.842 C 226.454 136.46 222.165 135.995 217.916 137.394 C 215.811 138.105 213.817 139.302 211.813 140.603 C 209.805 141.895 207.75 143.323 205.391 144.336 C 200.714 146.395 195.168 147.17 189.681 146.174 C 186.936 145.707 184.229 144.737 181.701 143.377 C 179.17 142.018 176.81 140.332 174.367 138.752 C 171.923 137.185 169.431 135.711 166.737 134.919 C 164.055 134.115 161.239 134.024 158.544 134.409 C 153.13 135.196 148.213 137.374 143.311 138.701 C 140.869 139.395 138.402 139.881 135.973 139.932 C 133.553 139.972 131.16 139.637 129.044 138.761 C 124.788 137.008 121.66 134.019 118.876 131.432 C 116.101 128.798 113.543 126.458 110.944 124.902 C 108.374 123.307 105.801 122.601 103.692 122.428 C 101.568 122.255 99.922 122.635 98.873 123.009 C 97.822 123.4 97.324 123.733 97.304 123.698 C 97.304 123.698 97.779 123.329 98.83 122.896 C 99.878 122.481 101.546 122.055 103.708 122.195 C 105.855 122.333 108.489 123.022 111.117 124.614 C 113.769 126.166 116.375 128.511 119.165 131.122 C 121.962 133.688 125.085 136.618 129.227 138.299 C 131.285 139.138 133.601 139.451 135.958 139.404 C 138.326 139.345 140.745 138.863 143.163 138.168 C 145.588 137.486 148.034 136.63 150.561 135.813 C 153.085 135.001 155.701 134.207 158.464 133.827 C 161.214 133.428 164.133 133.516 166.908 134.348 C 169.693 135.166 172.232 136.671 174.693 138.248 C 177.151 139.838 179.499 141.514 181.984 142.851 C 184.463 144.186 187.098 145.134 189.785 145.595 C 195.151 146.577 200.587 145.831 205.169 143.83 C 209.753 141.829 213.356 138.353 217.758 136.922 C 219.932 136.198 222.153 135.99 224.253 135.99 C 226.359 135.995 228.366 136.202 230.269 136.421 C 234.065 136.882 237.514 137.272 240.525 136.964 C 243.542 136.707 246.02 135.705 247.767 134.507 C 249.536 133.317 250.554 131.96 251.1 130.99 C 251.644 130.011 251.792 129.429 251.83 129.442 Z " fill="rgb(250,250,250)"/><path d=" M 285.131 158.782 C 285.08 158.831 284.678 158.159 283.536 157.475 C 282.417 156.799 280.456 156.249 278.122 156.667 C 275.78 157.074 273.307 158.597 270.831 160.562 C 269.577 161.534 268.275 162.602 266.804 163.559 C 265.338 164.509 263.672 165.369 261.803 165.714 C 259.942 166.083 258.073 165.912 256.359 165.565 C 254.636 165.208 253.036 164.673 251.527 164.158 C 250.017 163.64 248.6 163.126 247.243 162.771 C 245.884 162.42 244.592 162.202 243.406 162.122 C 241.031 161.953 239.1 162.394 237.92 163 C 236.727 163.587 236.197 164.137 236.153 164.083 C 236.138 164.068 236.267 163.934 236.53 163.69 C 236.657 163.561 236.83 163.421 237.047 163.275 C 237.256 163.115 237.51 162.948 237.814 162.792 C 238.997 162.103 240.988 161.578 243.429 161.698 C 244.65 161.754 245.975 161.952 247.364 162.288 C 248.757 162.631 250.195 163.133 251.705 163.633 C 254.69 164.604 258.125 165.786 261.691 165.124 C 263.452 164.801 265.049 163.986 266.484 163.065 C 267.926 162.137 269.222 161.09 270.495 160.124 C 273.005 158.172 275.585 156.621 278.051 156.249 C 280.501 155.866 282.532 156.511 283.661 157.277 C 284.243 157.648 284.596 158.057 284.834 158.323 C 285.047 158.614 285.148 158.77 285.131 158.782 Z " fill="rgb(250,250,250)"/><path d=" M 290.919 125.659 C 290.935 125.682 290.612 125.954 289.929 126.28 C 289.249 126.606 288.186 126.945 286.832 127.063 C 285.481 127.178 283.855 127.051 282.119 126.639 C 280.377 126.229 278.555 125.53 276.657 124.82 C 274.76 124.111 272.938 123.486 271.232 123.199 C 269.526 122.91 267.948 122.939 266.668 123.183 C 264.067 123.67 262.866 124.964 262.801 124.851 C 262.783 124.833 263.041 124.497 263.653 124.048 C 264.259 123.598 265.254 123.078 266.581 122.767 C 267.905 122.459 269.547 122.384 271.32 122.654 C 273.097 122.922 274.96 123.546 276.868 124.257 C 278.772 124.971 280.568 125.675 282.25 126.101 C 283.932 126.533 285.499 126.696 286.805 126.639 C 289.448 126.531 290.876 125.541 290.919 125.659 Z " fill="rgb(250,250,250)"/><path d=" M 214.498 169.222 C 214.462 169.286 213.487 168.575 211.482 167.84 C 209.482 167.129 206.383 166.512 202.583 166.921 C 198.775 167.255 194.424 168.752 189.875 170.956 C 185.302 173.109 180.459 175.992 174.826 177.817 C 172.019 178.722 169.145 179.28 166.342 179.282 C 163.536 179.273 160.865 178.708 158.438 177.921 C 156.001 177.139 153.78 176.162 151.716 175.248 C 149.649 174.336 147.742 173.457 145.961 172.758 C 142.417 171.305 139.372 170.645 137.246 170.483 C 136.713 170.453 136.239 170.406 135.829 170.397 C 135.433 170.409 135.088 170.421 134.788 170.43 C 134.225 170.445 133.926 170.443 133.924 170.422 C 133.922 170.401 134.215 170.363 134.78 170.31 C 135.081 170.284 135.428 170.254 135.827 170.218 C 136.242 170.209 136.721 170.238 137.261 170.25 C 139.415 170.34 142.527 170.95 146.114 172.363 C 147.919 173.042 149.843 173.902 151.916 174.791 C 153.986 175.685 156.199 176.639 158.605 177.394 C 161.004 178.156 163.613 178.692 166.339 178.694 C 169.068 178.682 171.878 178.136 174.643 177.245 C 180.189 175.452 185.025 172.597 189.637 170.456 C 194.223 168.267 198.666 166.782 202.544 166.499 C 206.411 166.137 209.561 166.832 211.562 167.621 C 213.573 168.435 214.498 169.222 214.498 169.222 Z " fill="rgb(250,250,250)"/><path d=" M 57.089 139.768 C 57.089 139.768 57.251 139.623 57.637 139.506 C 58.02 139.391 58.646 139.341 59.38 139.577 C 60.111 139.807 60.946 140.309 61.652 141.15 C 62.351 141.989 62.886 143.106 63.478 144.288 C 64.059 145.48 64.873 146.668 66.028 147.683 C 67.174 148.703 68.656 149.481 70.292 150.04 C 73.602 151.145 77.52 151.212 81.516 150.577 C 85.522 149.991 89.361 149.176 92.941 149.203 C 96.528 149.146 99.723 150.225 101.978 151.709 C 104.279 153.175 105.573 155.089 106.098 156.496 C 106.63 157.92 106.579 158.774 106.579 158.774 C 106.504 158.789 106.465 157.942 105.882 156.586 C 105.305 155.245 104.009 153.443 101.75 152.067 C 99.527 150.672 96.439 149.672 92.942 149.756 C 89.44 149.758 85.642 150.579 81.6 151.171 C 77.572 151.812 73.519 151.739 70.115 150.563 C 68.425 149.971 66.887 149.143 65.698 148.055 C 64.503 146.982 63.659 145.695 63.098 144.477 C 62.523 143.268 62.031 142.177 61.39 141.36 C 60.755 140.553 59.98 140.047 59.305 139.797 C 57.9 139.288 57.089 139.853 57.089 139.768 Z " fill="rgb(250,250,250)"/><path d=" M 82.089 104.557 C 82.017 104.67 80.811 103.216 78.07 102.469 C 76.719 102.103 75.03 101.936 73.188 102.149 C 71.346 102.359 69.371 102.975 67.387 103.821 C 65.399 104.674 63.568 105.647 61.869 106.483 C 60.172 107.324 58.604 108.019 57.242 108.491 C 55.881 108.963 54.739 109.222 53.943 109.336 C 53.145 109.453 52.698 109.447 52.694 109.414 C 52.678 109.31 54.453 109.138 57.095 108.093 C 58.417 107.578 59.945 106.854 61.62 105.989 C 63.297 105.131 65.129 104.137 67.151 103.269 C 69.171 102.408 71.208 101.787 73.129 101.599 C 75.046 101.408 76.8 101.627 78.189 102.061 C 79.581 102.503 80.601 103.133 81.222 103.651 C 81.848 104.169 82.109 104.539 82.089 104.557 Z " fill="rgb(250,250,250)"/><g opacity="0.300003"><path d=" M 165.544 205.811 C 180.337 197.232 197.464 187.172 206.005 172.356 C 211.467 162.881 214.18 151.549 215.241 140.664 L 217.47 174.487 L 172.023 210.899 L 165.544 205.811 Z " fill="rgb(0,0,0)"/></g><g opacity="0.199997"><path d=" M 127.195 93.91 C 123.705 106.887 117.014 118.069 106.876 126.892 C 104.429 129.021 101.772 131.007 98.702 132.058 C 95.633 133.108 92.075 133.116 89.3 131.438 L 89.52 130.663 L 112.553 107.857 L 127.195 93.91 Z " fill="rgb(0,0,0)"/></g><path d=" M 92.452 148.804 C 92.354 148.767 92.73 147.756 93.04 146.069 C 93.356 144.385 93.516 141.998 93.096 139.419 C 92.665 136.84 91.745 134.632 90.906 133.138 C 90.071 131.64 89.39 130.804 89.47 130.738 C 89.514 130.696 90.317 131.441 91.272 132.922 C 92.226 134.395 93.244 136.657 93.689 139.321 C 94.123 141.985 93.886 144.456 93.456 146.156 C 93.028 147.866 92.507 148.829 92.452 148.804 Z " fill="rgb(38,50,56)"/><path d=" M 85.852 142.994 C 85.699 142.879 87.703 140.779 88.598 137.441 C 89.547 134.117 88.908 131.286 89.098 131.266 C 89.166 131.249 89.424 131.926 89.558 133.084 C 89.695 134.237 89.651 135.877 89.176 137.602 C 88.697 139.324 87.892 140.753 87.181 141.671 C 86.471 142.595 85.902 143.044 85.852 142.994 Z " fill="rgb(38,50,56)"/><path d=" M 128.729 119.165 C 128.894 119.15 129.84 128.338 130.841 139.684 C 131.844 151.033 132.522 160.243 132.356 160.258 C 132.191 160.273 131.246 151.086 130.243 139.737 C 129.242 128.391 128.563 119.18 128.729 119.165 Z " fill="rgb(38,50,56)"/><path d=" M 190.262 83.854 C 190.281 83.847 190.365 84.06 190.509 84.475 C 190.671 84.884 190.836 85.509 191.011 86.326 C 191.346 87.956 191.518 90.422 190.901 93.366 C 190.255 96.273 188.755 99.691 185.874 102.478 C 183.035 105.294 178.723 107.101 174.126 107.214 C 169.526 107.303 165.138 105.686 162.178 102.996 C 159.178 100.337 157.531 96.987 156.759 94.111 C 156.015 91.198 156.078 88.727 156.341 87.083 C 156.481 86.259 156.619 85.629 156.763 85.212 C 156.887 84.791 156.962 84.574 156.982 84.581 C 157.054 84.6 156.758 85.476 156.574 87.113 C 156.383 88.743 156.389 91.166 157.168 93.999 C 157.975 96.796 159.623 100.032 162.544 102.58 C 165.418 105.153 169.656 106.698 174.113 106.614 C 178.568 106.502 182.733 104.774 185.492 102.078 C 188.299 99.407 189.804 96.101 190.487 93.272 C 191.142 90.407 191.042 87.986 190.78 86.367 C 190.526 84.738 190.19 83.876 190.262 83.854 Z " fill="rgb(38,50,56)"/><path d=" M 257.218 153.289 C 257.06 153.297 256.797 150.054 257.029 146.056 C 257.25 142.055 257.881 138.864 258.036 138.889 C 258.208 138.915 257.848 142.122 257.627 146.089 C 257.396 150.055 257.391 153.283 257.218 153.289 Z " fill="rgb(38,50,56)"/><path d=" M 261.846 155.384 C 261.773 155.41 261.372 154.52 260.862 153.032 C 260.35 151.544 259.745 149.451 259.257 147.098 C 258.772 144.743 258.497 142.581 258.376 141.011 C 258.256 139.441 258.27 138.467 258.348 138.461 C 258.527 138.449 258.871 142.31 259.845 146.975 C 260.801 151.643 262.015 155.326 261.846 155.384 Z " fill="rgb(38,50,56)"/><path d=" M 215.238 156.046 C 215.072 156.051 214.694 149.558 214.395 141.543 C 214.094 133.526 213.984 127.024 214.15 127.017 C 214.315 127.012 214.693 133.504 214.994 141.521 C 215.295 149.536 215.406 156.04 215.238 156.046 Z " fill="rgb(38,50,56)"/><path d=" M 173.928 105.405 L 173.928 105.405 C 165.288 105.242 158.269 98.381 157.907 89.747 C 157.642 83.431 157.425 77.632 157.425 77.632 C 157.425 77.632 144.206 76.228 143.408 63.118 C 142.61 50.007 143.423 19.773 143.423 19.773 C 158.293 12.511 175.927 13.864 189.514 23.311 L 191.531 24.713 L 190.572 89.309 C 190.438 98.358 182.975 105.574 173.928 105.405 Z " fill="rgb(255,190,157)"/><path d=" M 157.395 77.444 C 157.395 77.444 165.718 77.716 174.261 71.754 C 174.261 71.754 170.676 81.392 157.529 80.844 L 157.395 77.444 Z " fill="rgb(235,153,110)"/><path d=" M 190.573 38.38 C 190.792 38.273 199.458 35.277 199.606 44.26 C 199.755 53.242 190.706 51.539 190.686 51.28 C 190.666 51.023 190.573 38.38 190.573 38.38 Z " fill="rgb(255,190,157)"/><path d=" M 193.374 47.832 C 193.413 47.803 193.533 47.939 193.798 48.056 C 194.058 48.17 194.502 48.244 194.969 48.06 C 195.912 47.697 196.686 46.177 196.703 44.558 C 196.711 43.74 196.527 42.964 196.229 42.324 C 195.943 41.672 195.511 41.22 195.03 41.143 C 194.553 41.04 194.22 41.332 194.115 41.587 C 193.998 41.84 194.058 42.019 194.011 42.035 C 193.986 42.058 193.816 41.887 193.881 41.515 C 193.917 41.336 194.018 41.122 194.225 40.946 C 194.439 40.767 194.753 40.673 195.088 40.704 C 195.781 40.739 196.415 41.366 196.745 42.069 C 197.114 42.774 197.338 43.645 197.329 44.564 C 197.302 46.374 196.403 48.083 195.111 48.48 C 194.481 48.655 193.951 48.474 193.676 48.266 C 193.394 48.049 193.344 47.85 193.374 47.832 Z " fill="rgb(235,153,110)"/><path d=" M 149.696 39.611 C 149.66 40.601 150.47 41.447 151.504 41.504 C 152.536 41.558 153.403 40.803 153.438 39.812 C 153.473 38.822 152.663 37.975 151.631 37.918 C 150.597 37.863 149.731 38.621 149.696 39.611 Z " fill="rgb(38,50,56)"/><path d=" M 147.414 37.733 C 147.647 37.977 149.068 36.926 151.086 36.932 C 153.102 36.908 154.583 37.946 154.802 37.698 C 154.91 37.589 154.673 37.148 154.028 36.678 C 153.393 36.21 152.311 35.756 151.053 35.762 C 149.796 35.768 148.739 36.231 148.131 36.705 C 147.51 37.181 147.3 37.623 147.414 37.733 Z " fill="rgb(38,50,56)"/><path d=" M 169.074 39.841 C 169.04 40.831 169.85 41.679 170.883 41.734 C 171.915 41.789 172.782 41.033 172.817 40.042 C 172.851 39.052 172.041 38.205 171.01 38.15 C 169.976 38.093 169.109 38.851 169.074 39.841 Z " fill="rgb(38,50,56)"/><path d=" M 167.253 38.109 C 167.486 38.354 168.909 37.302 170.926 37.308 C 172.942 37.284 174.423 38.322 174.642 38.076 C 174.749 37.966 174.515 37.525 173.868 37.055 C 173.233 36.588 172.15 36.133 170.893 36.138 C 169.636 36.144 168.578 36.607 167.97 37.081 C 167.351 37.557 167.139 38 167.253 38.109 Z " fill="rgb(38,50,56)"/><path d=" M 159.929 53.077 C 159.938 52.962 158.683 52.745 156.651 52.486 C 156.135 52.433 155.648 52.33 155.561 51.979 C 155.438 51.607 155.655 51.051 155.905 50.451 C 156.389 49.204 156.896 47.897 157.429 46.526 C 159.545 40.939 161.078 36.344 160.852 36.262 C 160.626 36.177 158.728 40.639 156.611 46.228 C 156.101 47.605 155.614 48.919 155.15 50.175 C 154.955 50.761 154.62 51.425 154.884 52.198 C 155.022 52.583 155.4 52.862 155.73 52.952 C 156.061 53.052 156.351 53.058 156.606 53.073 C 158.652 53.183 159.921 53.193 159.929 53.077 Z " fill="rgb(38,50,56)"/><path d=" M 165.869 54.473 C 165.54 54.454 165.536 56.645 163.66 58.2 C 161.789 59.76 159.454 59.515 159.436 59.82 C 159.406 59.958 159.957 60.245 160.943 60.273 C 161.909 60.307 163.322 59.995 164.468 59.045 C 165.612 58.09 166.104 56.818 166.18 55.919 C 166.263 55.004 166.019 54.461 165.869 54.473 Z " fill="rgb(38,50,56)"/><path d=" M 166.732 30.2 C 166.932 30.748 168.947 30.488 171.315 30.775 C 173.688 31.012 175.598 31.705 175.912 31.213 C 176.052 30.978 175.72 30.461 174.948 29.93 C 174.182 29.4 172.961 28.895 171.539 28.737 C 170.118 28.581 168.817 28.807 167.954 29.158 C 167.085 29.508 166.647 29.939 166.732 30.2 Z " fill="rgb(38,50,56)"/><path d=" M 148.156 31.892 C 148.511 32.349 149.902 31.874 151.574 31.851 C 153.245 31.771 154.661 32.159 154.987 31.68 C 155.13 31.447 154.907 30.988 154.289 30.555 C 153.679 30.121 152.659 29.769 151.51 29.803 C 150.362 29.839 149.366 30.255 148.784 30.724 C 148.194 31.196 147.999 31.668 148.156 31.892 Z " fill="rgb(38,50,56)"/><path d=" M 136.723 11.109 C 136.582 9.481 137.189 7.734 138.513 6.777 C 139.838 5.821 141.892 5.881 142.969 7.11 C 142.352 4.917 144.145 2.388 146.419 2.243 C 148.561 2.107 150.388 3.725 152.458 4.292 C 154.478 4.847 156.646 4.367 158.59 3.585 C 160.534 2.802 162.35 1.722 164.317 1.003 C 168.423 -0.495 173.115 -0.307 177.087 1.516 C 181.058 3.339 184.259 6.775 185.799 10.865 C 188.67 9.968 191.934 11.426 193.705 13.859 C 195.477 16.292 195.931 19.488 195.578 22.476 C 195.341 24.496 194.758 26.447 194.078 28.369 C 194.079 28.539 194.094 28.704 194.09 28.874 C 193.955 36.096 193.138 44.576 190.057 44.624 C 184.687 44.706 185.967 34.588 185.967 34.588 C 179.377 32.042 181.832 22.167 180.184 20.669 C 178.535 19.172 175.088 15.691 161.29 22.743 C 155.933 25.481 148.808 25.396 144.919 24.514 C 144.805 24.489 144.689 24.471 144.575 24.444 C 144.551 24.438 144.52 24.434 144.496 24.428 C 144.453 24.417 144.423 24.393 144.382 24.381 C 143.142 24.059 141.946 23.578 140.843 22.88 C 139.593 22.089 138.456 21.019 137.926 19.638 C 137.397 18.257 137.595 16.534 138.68 15.526 C 137.661 14.249 136.864 12.737 136.723 11.109 Z " fill="rgb(38,50,56)"/><g><path d=" M 124.89 42.545 L 103.55 60.239 L 105.519 80.502 L 88.036 70.781 L 69.414 84.01 L 0 39.432 L 124.89 42.545 Z " fill="rgb(232,80,91)"/><g opacity="0.5"><path d=" M 103.55 60.238 L 1.88 39.478 L 93.198 67.115 L 105.519 80.501 L 103.55 60.238 Z " fill="rgb(0,0,0)"/></g><g opacity="0.800003"><path d=" M 93.198 67.115 L 88.035 70.782 L 105.519 80.501 L 93.198 67.115 Z " fill="rgb(0,0,0)"/></g></g></g><path d=" M 46.132 180.587 C 46.852 184.839 48.607 189.193 51.124 193.036 C 53.644 196.875 56.927 200.21 60.767 202.351 C 61.413 202.71 62.227 202.479 62.586 201.833 C 62.945 201.188 62.714 200.373 62.068 200.014 C 58.698 198.142 55.681 195.113 53.36 191.57 C 51.038 188.029 49.415 183.981 48.77 180.142 C 48.647 179.414 47.957 178.923 47.229 179.046 C 46.502 179.168 46.01 179.858 46.133 180.586 L 46.132 180.587 Z " fill="rgb(235,235,235)"/><path d=" M 48.087 161.86 C 49.619 166.472 52.712 170.796 56.441 174.517 C 60.175 178.236 64.555 181.348 68.753 183.469 C 69.201 183.695 69.648 183.911 70.096 184.114 C 70.768 184.42 71.561 184.122 71.866 183.449 C 72.171 182.776 71.874 181.984 71.202 181.678 C 70.792 181.493 70.377 181.293 69.958 181.082 C 66.031 179.102 61.846 176.13 58.329 172.623 C 54.807 169.118 51.964 165.075 50.626 161.019 C 50.393 160.319 49.637 159.939 48.936 160.171 C 48.235 160.402 47.855 161.159 48.087 161.86 L 48.087 161.86 Z " fill="rgb(235,235,235)"/></g></g></svg>