<?xml version="1.0" encoding="UTF-8" standalone="no"?><!-- Generator: Gravit.io --><svg xmlns="http://www.w3.org/2000/svg" xmlns:xlink="http://www.w3.org/1999/xlink" style="isolation:isolate" viewBox="0 0 250 250" width="250pt" height="250pt"><defs><clipPath id="_clipPath_y202l2F3QA2aSuEwJFrFNsbipKWQVYkA"><rect width="250" height="250"/></clipPath></defs><g clip-path="url(#_clipPath_y202l2F3QA2aSuEwJFrFNsbipKWQVYkA)"><rect width="250" height="250" style="fill:rgb(0,0,0)" fill-opacity="0"/><g><path d=" M 186.583 6.729 L 179.977 13.336 C 179.574 13.74 179.574 14.395 179.977 14.797 C 180.366 15.186 181.046 15.186 181.436 14.797 L 188.042 8.19 C 188.238 7.994 188.346 7.735 188.346 7.46 C 188.346 7.184 188.238 6.925 188.042 6.731 C 187.842 6.529 187.577 6.429 187.313 6.429 C 187.049 6.429 186.785 6.529 186.583 6.729 L 186.583 6.729 Z  M 172.418 9.206 L 172.418 1.033 C 172.418 0.463 171.955 0 171.386 0 C 170.817 0 170.353 0.463 170.353 1.033 L 170.353 9.206 C 170.353 9.775 170.817 10.239 171.386 10.239 C 171.955 10.239 172.418 9.775 172.418 9.206 L 172.418 9.206 Z  M 185.566 24.419 L 193.74 24.419 C 194.311 24.419 194.773 23.956 194.773 23.387 C 194.773 22.818 194.311 22.356 193.74 22.356 L 185.566 22.356 C 184.997 22.356 184.535 22.818 184.535 23.387 C 184.535 23.956 184.997 24.419 185.566 24.419 Z " fill-rule="evenodd" fill="rgb(69,90,100)"/><path d=" M 184.403 168.926 L 65.597 168.926 L 65.597 75.29 C 65.597 73.294 67.216 71.675 69.213 71.675 L 180.787 71.675 C 182.784 71.675 184.403 73.294 184.403 75.29 L 184.403 168.926 Z " fill="rgb(69,90,100)"/><path d=" M 184.403 124.497 L 170.353 124.497 L 170.353 76.164 L 184.403 98.302 L 184.403 124.497 Z " fill="rgb(38,50,56)"/><path d=" M 247.126 224.117 L 2.874 224.117 L 2.874 130.037 C 2.874 126.978 5.354 124.497 8.414 124.497 L 242.817 124.497 C 245.196 124.497 247.126 126.427 247.126 128.806 L 247.126 224.117 Z " fill="rgb(232,232,232)"/><path d=" M 210.229 224.117 L 39.77 224.117 L 39.77 124.497 L 210.229 124.497 L 210.229 224.117 Z " fill="rgb(69,90,100)"/><path d=" M 247.126 224.117 L 210.229 224.117 L 210.229 216.661 L 247.126 216.661 L 247.126 224.117 Z  M 39.77 224.117 L 2.874 224.117 L 2.874 216.661 L 39.77 216.661 L 39.77 224.117 Z " fill="rgb(209,209,209)"/><path d=" M 210.229 224.117 L 193.328 224.117 L 192.556 222.838 L 192.556 216.661 L 210.229 216.661 L 210.229 224.117 Z  M 57.443 224.117 L 39.77 224.117 L 39.77 216.661 L 57.443 216.661 L 57.443 224.117 Z " fill="rgb(38,50,56)"/><path d=" M 192.556 224.117 L 57.443 224.117 L 57.443 185.744 L 192.556 185.744 L 192.556 224.117 Z " fill="rgb(38,50,56)"/><path d=" M 192.556 224.117 L 157.838 224.117 L 157.838 185.744 L 192.556 185.744 L 192.556 224.117 Z " fill="rgb(38,50,56)"/><path d=" M 192.556 196.18 L 57.443 196.18 L 57.443 185.819 L 192.556 185.819 L 192.556 196.18 Z " fill="rgb(22,30,41)"/><path d=" M 247.126 144.576 L 210.229 144.576 L 210.229 129.662 L 245.841 129.662 C 246.281 129.662 246.71 129.707 247.126 129.792 L 247.126 144.576 Z  M 39.77 144.576 L 2.874 144.576 L 2.874 130.037 C 2.874 129.955 2.876 129.872 2.88 129.79 C 3.293 129.707 3.721 129.662 4.159 129.662 L 39.77 129.662 L 39.77 144.576 Z " fill="rgb(232,80,91)"/><path d=" M 210.229 144.576 L 39.77 144.576 L 39.77 129.662 L 210.229 129.662 L 210.229 144.576 Z " fill="rgb(38,50,56)"/><path d=" M 205.2 250 L 44.799 250 C 42.707 250 41.498 247.626 42.729 245.934 L 57.443 225.708 L 192.556 225.708 L 207.271 245.934 C 208.501 247.626 207.293 250 205.2 250 Z " fill="rgb(38,50,56)"/><path d=" M 205.682 244.627 L 44.318 244.627 L 61.834 218.156 L 189.736 218.156 L 205.682 244.627 Z " fill="rgb(69,90,100)"/><path d=" M 235.896 163.995 C 235.896 167.303 233.215 169.984 229.908 169.984 C 226.6 169.984 223.919 167.303 223.919 163.995 C 223.919 160.688 226.6 158.007 229.908 158.007 C 233.215 158.007 235.896 160.688 235.896 163.995 Z " fill="rgb(232,80,91)"/><path d=" M 223.919 187.166 L 235.896 187.166 L 235.896 183.874 L 223.919 183.874 L 223.919 187.166 Z  M 235.896 176.319 L 235.896 179.61 L 223.919 179.61 L 223.919 176.319 L 235.896 176.319 Z " fill="rgb(209,209,209)"/><path d=" M 31.925 210.834 L 10.351 210.834 L 10.351 204.009 L 31.925 204.009 L 31.925 210.834 Z " fill="rgb(232,80,91)"/><path d=" M 29.59 208.344 L 12.685 208.344 L 12.685 206.499 L 29.59 206.499 L 29.59 208.344 Z " fill="rgb(206,58,68)"/><defs><filter id="qGLRSPXZMDd7bcpW1FKEZ0ibzGThIuhr" x="-200%" y="-200%" width="400%" height="400%" filterUnits="objectBoundingBox" color-interpolation-filters="sRGB"><feGaussianBlur xmlns="http://www.w3.org/2000/svg" in="SourceGraphic" stdDeviation="2.146804531419514"/><feOffset xmlns="http://www.w3.org/2000/svg" dx="0" dy="0" result="pf_100_offsetBlur"/><feFlood xmlns="http://www.w3.org/2000/svg" flood-color="#000000" flood-opacity="0.65"/><feComposite xmlns="http://www.w3.org/2000/svg" in2="pf_100_offsetBlur" operator="in" result="pf_100_dropShadow"/><feBlend xmlns="http://www.w3.org/2000/svg" in="SourceGraphic" in2="pf_100_dropShadow" mode="normal"/></filter></defs><g filter="url(#qGLRSPXZMDd7bcpW1FKEZ0ibzGThIuhr)"><path d=" M 170.353 124.497 L 79.648 124.497 L 79.648 21.055 L 170.353 21.055 L 170.353 124.497 Z " fill="rgb(255,255,255)"/></g><path d=" M 169.321 124.497 L 80.679 124.497 L 80.679 116.527 L 169.321 116.527 L 169.321 124.497 Z " fill="rgb(247,247,247)"/><path d=" M 193.094 238.691 L 191.333 236.115 C 190.617 235.072 189.941 234.004 189.3 232.917 L 187.571 229.753 C 185.712 226.075 184.264 222.201 183.254 218.199 L 189.736 218.156 L 194.075 225.358 L 193.094 238.691 Z " fill="rgb(38,50,56)"/><path d=" M 194.733 241.09 L 55.266 241.09 L 58.667 236.117 C 63.439 229.138 66.572 221.172 67.83 212.813 L 67.83 212.811 C 68.655 207.329 70.697 202.104 73.804 197.515 L 78.021 191.288 L 171.979 191.288 L 176.197 197.515 C 179.303 202.104 181.345 207.331 182.169 212.813 C 183.428 221.17 186.561 229.138 191.333 236.115 L 194.733 241.09 Z " fill="rgb(255,255,255)"/><path d=" M 161.744 198.203 L 88.256 198.203 C 87.435 198.203 86.944 197.755 87.157 197.21 L 87.157 197.21 C 87.367 196.669 88.188 196.236 88.992 196.236 L 161.008 196.236 C 161.812 196.236 162.632 196.669 162.842 197.21 C 163.056 197.755 162.565 198.203 161.744 198.203 Z " fill="rgb(217,217,217)"/><path d=" M 88.992 196.789 C 88.385 196.789 87.784 197.124 87.672 197.411 C 87.715 197.545 87.911 197.65 88.256 197.65 L 161.744 197.65 C 162.087 197.65 162.284 197.545 162.333 197.476 C 162.216 197.122 161.615 196.789 161.008 196.789 L 88.992 196.789 Z  M 161.744 198.758 L 88.256 198.758 C 87.587 198.758 87.039 198.518 86.753 198.1 C 86.536 197.781 86.495 197.384 86.641 197.01 C 86.935 196.253 87.946 195.683 88.992 195.683 L 161.008 195.683 C 162.055 195.683 163.063 196.253 163.357 197.008 C 163.505 197.384 163.464 197.781 163.245 198.1 C 162.962 198.518 162.413 198.758 161.744 198.758 Z " fill="rgb(255,255,255)"/><path d=" M 163.584 203.119 L 86.416 203.119 C 85.554 203.119 85.048 202.626 85.282 202.025 C 85.514 201.429 86.383 200.951 87.227 200.951 L 162.773 200.951 C 163.616 200.951 164.485 201.429 164.718 202.025 C 164.952 202.626 164.446 203.119 163.584 203.119 Z " fill="rgb(217,217,217)"/><path d=" M 87.227 201.506 C 86.569 201.506 85.931 201.884 85.799 202.224 C 85.762 202.319 85.785 202.351 85.797 202.37 C 85.847 202.443 86.033 202.566 86.416 202.566 L 163.584 202.566 C 163.966 202.566 164.152 202.443 164.204 202.37 C 164.215 202.351 164.238 202.319 164.202 202.224 C 164.069 201.886 163.43 201.506 162.773 201.506 L 87.227 201.506 Z  M 163.584 203.674 L 86.416 203.674 C 85.736 203.674 85.178 203.424 84.883 202.994 C 84.648 202.651 84.607 202.235 84.767 201.823 C 85.082 201.011 86.14 200.399 87.227 200.399 L 162.773 200.399 C 163.858 200.399 164.916 201.011 165.233 201.823 C 165.394 202.235 165.351 202.651 165.115 202.995 C 164.822 203.424 164.262 203.674 163.584 203.674 Z " fill="rgb(255,255,255)"/><path d=" M 165.617 208.554 L 84.382 208.554 C 83.475 208.554 82.953 208.007 83.212 207.34 C 83.469 206.683 84.393 206.154 85.28 206.154 L 164.719 206.154 C 165.607 206.154 166.531 206.683 166.788 207.34 C 167.046 208.007 166.524 208.554 165.617 208.554 Z " fill="rgb(217,217,217)"/><path d=" M 85.28 206.709 C 84.557 206.709 83.882 207.147 83.728 207.541 C 83.67 207.69 83.715 207.756 83.732 207.78 C 83.801 207.882 84.013 208 84.382 208 L 165.617 208 C 165.988 208 166.199 207.882 166.269 207.779 C 166.286 207.756 166.329 207.69 166.273 207.541 C 166.119 207.147 165.443 206.709 164.719 206.709 L 85.28 206.709 Z  M 165.617 209.107 L 84.382 209.107 C 83.693 209.107 83.123 208.85 82.818 208.404 C 82.566 208.037 82.523 207.587 82.697 207.14 C 83.038 206.263 84.149 205.602 85.28 205.602 L 164.719 205.602 C 165.851 205.602 166.962 206.263 167.303 207.14 C 167.477 207.587 167.434 208.035 167.183 208.404 C 166.878 208.85 166.306 209.107 165.617 209.107 Z " fill="rgb(255,255,255)"/><path d=" M 167.179 214.703 L 82.82 214.703 C 81.879 214.703 81.186 214.077 81.272 213.307 C 81.359 212.541 82.186 211.923 83.121 211.923 L 166.878 211.923 C 167.813 211.923 168.641 212.541 168.727 213.307 C 168.815 214.077 168.122 214.703 167.179 214.703 Z " fill="rgb(217,217,217)"/><path d=" M 83.121 212.475 C 82.471 212.475 81.877 212.884 81.822 213.369 C 81.803 213.538 81.854 213.691 81.974 213.824 C 82.158 214.032 82.467 214.148 82.82 214.148 L 167.179 214.148 C 167.528 214.148 167.844 214.029 168.026 213.824 C 168.146 213.691 168.197 213.538 168.176 213.369 C 168.124 212.884 167.528 212.475 166.878 212.475 L 83.121 212.475 Z  M 167.179 215.256 L 82.82 215.256 C 82.152 215.256 81.542 215.003 81.148 214.563 C 80.819 214.195 80.668 213.727 80.722 213.245 C 80.841 212.193 81.895 211.368 83.121 211.368 L 166.878 211.368 C 168.107 211.368 169.16 212.194 169.278 213.245 C 169.332 213.725 169.18 214.193 168.852 214.563 C 168.457 215.003 167.848 215.256 167.179 215.256 Z " fill="rgb(255,255,255)"/><path d=" M 167.899 221.343 L 82.101 221.343 C 81.144 221.343 80.44 220.696 80.53 219.9 C 80.619 219.108 81.462 218.469 82.413 218.469 L 167.588 218.469 C 168.538 218.469 169.381 219.108 169.471 219.9 C 169.561 220.696 168.856 221.343 167.899 221.343 Z " fill="rgb(217,217,217)"/><path d=" M 82.413 219.021 C 81.747 219.021 81.137 219.454 81.08 219.962 C 81.054 220.192 81.154 220.357 81.242 220.458 C 81.431 220.67 81.745 220.79 82.101 220.79 L 167.899 220.79 C 168.257 220.79 168.569 220.67 168.759 220.458 C 168.847 220.357 168.946 220.192 168.92 219.962 C 168.864 219.454 168.253 219.021 167.588 219.021 L 82.413 219.021 Z  M 167.899 221.897 L 82.101 221.897 C 81.429 221.897 80.815 221.641 80.417 221.195 C 80.079 220.818 79.924 220.335 79.979 219.84 C 80.101 218.761 81.17 217.916 82.413 217.916 L 167.588 217.916 C 168.83 217.916 169.9 218.761 170.021 219.838 C 170.078 220.335 169.922 220.818 169.583 221.195 C 169.184 221.641 168.569 221.897 167.899 221.897 Z " fill="rgb(255,255,255)"/><path d=" M 134.651 228.94 L 79.188 228.94 C 78.111 228.94 77.538 228.17 77.903 227.231 C 78.262 226.308 79.401 225.569 80.45 225.569 L 133.391 225.569 C 134.44 225.569 135.579 226.308 135.939 227.231 C 136.302 228.17 135.729 228.94 134.651 228.94 Z " fill="rgb(217,217,217)"/><path d=" M 80.45 226.122 C 79.625 226.122 78.695 226.723 78.418 227.434 C 78.318 227.692 78.324 227.924 78.435 228.087 C 78.564 228.277 78.839 228.387 79.188 228.387 L 134.651 228.387 C 135 228.387 135.275 228.277 135.405 228.087 C 135.517 227.924 135.523 227.692 135.421 227.432 C 135.146 226.723 134.215 226.122 133.391 226.122 L 80.45 226.122 Z  M 134.651 229.493 L 79.188 229.493 C 78.468 229.493 77.86 229.21 77.521 228.713 C 77.201 228.245 77.153 227.632 77.387 227.031 C 77.827 225.901 79.172 225.017 80.45 225.017 L 133.391 225.017 C 134.668 225.017 136.013 225.901 136.454 227.031 C 136.688 227.632 136.639 228.247 136.319 228.713 C 135.98 229.21 135.371 229.493 134.651 229.493 Z " fill="rgb(255,255,255)"/><path d=" M 72.466 199.644 L 72.363 199.644 L 73.765 197.574 C 73.309 198.25 72.875 198.941 72.466 199.644 Z " fill="rgb(27,36,55)"/><path d=" M 177.637 199.644 L 177.534 199.644 C 177.113 198.921 176.667 198.21 176.197 197.515 L 175.292 196.18 L 177.637 199.644 Z " fill="rgb(19,27,42)"/><path d=" M 177.534 199.644 L 72.466 199.644 C 72.875 198.941 73.309 198.25 73.765 197.574 L 78.021 191.288 L 171.979 191.288 L 175.292 196.18 L 176.197 197.515 C 176.667 198.21 177.113 198.921 177.534 199.644 Z  M 88.992 195.683 C 87.946 195.683 86.935 196.253 86.641 197.01 C 86.495 197.384 86.536 197.781 86.753 198.1 C 87.039 198.518 87.587 198.758 88.256 198.758 L 161.744 198.758 C 162.413 198.758 162.962 198.518 163.245 198.1 C 163.464 197.781 163.505 197.384 163.357 197.008 C 163.063 196.253 162.055 195.683 161.008 195.683 L 88.992 195.683 Z " fill="rgb(209,209,209)"/><path d=" M 161.744 197.65 L 88.256 197.65 C 87.911 197.65 87.715 197.545 87.672 197.411 C 87.784 197.124 88.385 196.789 88.992 196.789 L 161.008 196.789 C 161.615 196.789 162.216 197.122 162.333 197.476 C 162.284 197.545 162.087 197.65 161.744 197.65 Z " fill="rgb(146,151,161)"/><path d=" M 161.744 198.758 L 88.256 198.758 C 87.587 198.758 87.039 198.518 86.753 198.1 C 86.536 197.781 86.495 197.384 86.641 197.01 C 86.935 196.253 87.946 195.683 88.992 195.683 L 161.008 195.683 C 162.055 195.683 163.063 196.253 163.357 197.008 C 163.505 197.384 163.464 197.781 163.245 198.1 C 162.962 198.518 162.413 198.758 161.744 198.758 Z  M 88.992 196.789 C 88.385 196.789 87.784 197.124 87.672 197.411 C 87.715 197.545 87.911 197.65 88.256 197.65 L 161.744 197.65 C 162.087 197.65 162.284 197.545 162.333 197.476 C 162.216 197.122 161.615 196.789 161.008 196.789 L 88.992 196.789 Z " fill="rgb(209,209,209)"/><path d=" M 95.568 69.204 L 95.568 61.846 L 102.66 61.846 L 102.66 61.846 Q 103.886 55.341 106.552 50.089 L 106.552 50.089 L 106.552 50.089 Q 109.218 44.838 113.057 41.159 L 113.057 41.159 L 113.057 41.159 Q 116.895 37.48 121.747 35.481 L 121.747 35.481 L 121.747 35.481 Q 126.599 33.482 132.304 33.482 L 132.304 33.482 L 132.304 33.482 Q 139.715 33.482 144.993 36.334 L 144.993 36.334 L 144.993 36.334 Q 150.272 39.186 153.844 44.038 L 153.844 44.038 L 149.205 49.05 L 149.205 49.05 Q 148.672 49.637 148.086 50.089 L 148.086 50.089 L 148.086 50.089 Q 147.499 50.543 146.433 50.543 L 146.433 50.543 L 146.433 50.543 Q 145.687 50.543 145.074 50.116 L 145.074 50.116 L 145.074 50.116 Q 144.46 49.69 143.714 49.05 L 143.714 49.05 L 143.714 49.05 Q 142.968 48.41 142.061 47.663 L 142.061 47.663 L 142.061 47.663 Q 141.155 46.917 139.902 46.278 L 139.902 46.278 L 139.902 46.278 Q 138.649 45.638 136.942 45.211 L 136.942 45.211 L 136.942 45.211 Q 135.236 44.785 132.89 44.785 L 132.89 44.785 L 132.89 44.785 Q 126.599 44.785 122.281 49.103 L 122.281 49.103 L 122.281 49.103 Q 117.962 53.422 116.255 61.846 L 116.255 61.846 L 143.021 61.846 L 143.021 65.898 L 143.021 65.898 Q 143.021 67.124 142.034 68.164 L 142.034 68.164 L 142.034 68.164 Q 141.048 69.204 139.342 69.204 L 139.342 69.204 L 115.349 69.204 L 115.349 69.204 Q 115.296 70.11 115.296 70.99 L 115.296 70.99 L 115.296 70.99 Q 115.296 71.869 115.296 72.776 L 115.296 72.776 L 115.296 72.776 Q 115.296 73.416 115.296 74.056 L 115.296 74.056 L 115.296 74.056 Q 115.296 74.696 115.349 75.282 L 115.349 75.282 L 137.956 75.282 L 137.956 79.281 L 137.956 79.281 Q 137.956 80.507 136.969 81.547 L 136.969 81.547 L 136.969 81.547 Q 135.983 82.587 134.33 82.587 L 134.33 82.587 L 115.989 82.587 L 115.989 82.587 Q 117.482 91.757 121.72 96.263 L 121.72 96.263 L 121.72 96.263 Q 125.959 100.767 132.25 100.767 L 132.25 100.767 L 132.25 100.767 Q 136.089 100.767 138.409 99.728 L 138.409 99.728 L 138.409 99.728 Q 140.728 98.688 142.194 97.409 L 142.194 97.409 L 142.194 97.409 Q 143.66 96.129 144.647 95.089 L 144.647 95.089 L 144.647 95.089 Q 145.633 94.05 146.806 94.05 L 146.806 94.05 L 146.806 94.05 Q 147.393 94.05 147.846 94.236 L 147.846 94.236 L 147.846 94.236 Q 148.299 94.423 148.725 94.956 L 148.725 94.956 L 154.431 100.181 L 154.431 100.181 Q 150.699 105.94 144.94 109.005 L 144.94 109.005 L 144.94 109.005 Q 139.182 112.071 131.557 112.071 L 131.557 112.071 L 131.557 112.071 Q 125.319 112.071 120.334 109.965 L 120.334 109.965 L 120.334 109.965 Q 115.349 107.859 111.67 104.02 L 111.67 104.02 L 111.67 104.02 Q 107.991 100.181 105.646 94.743 L 105.646 94.743 L 105.646 94.743 Q 103.299 89.304 102.34 82.587 L 102.34 82.587 L 95.568 82.587 L 95.568 75.282 L 101.754 75.282 L 101.754 75.282 Q 101.7 74.696 101.7 74.056 L 101.7 74.056 L 101.7 74.056 Q 101.7 73.416 101.7 72.776 L 101.7 72.776 L 101.7 72.776 Q 101.7 71.869 101.7 70.99 L 101.7 70.99 L 101.7 70.99 Q 101.7 70.11 101.754 69.204 L 101.754 69.204 L 95.568 69.204 Z " fill="rgb(232,232,232)"/></g></g></svg>