<?xml version="1.0" encoding="UTF-8" standalone="no"?><!-- Generator: Gravit.io --><svg xmlns="http://www.w3.org/2000/svg" xmlns:xlink="http://www.w3.org/1999/xlink" style="isolation:isolate" viewBox="0 0 99 99" width="99pt" height="99pt"><defs><clipPath id="_clipPath_TDRr6kzhw08YgzVnMUFCAHUxsCweHLiT"><rect width="99" height="99"/></clipPath></defs><g clip-path="url(#_clipPath_TDRr6kzhw08YgzVnMUFCAHUxsCweHLiT)"><rect width="99" height="99" style="fill:rgb(0,0,0)" fill-opacity="0"/><circle vector-effect="non-scaling-stroke" cx="49.500000000000036" cy="49.5" r="49.500000000000036" fill="rgb(255,255,255)"/><path d=" M 17.292 59.353 L 17.292 70.607 L 17.292 70.607 Q 17.292 74.473 19.509 76.216 L 19.509 76.216 L 19.509 76.216 Q 21.726 77.959 26.008 78.035 L 26.008 78.035 L 26.008 83.34 L 26.008 83.34 Q 18.808 83.264 14.867 80.043 L 14.867 80.043 L 14.867 80.043 Q 10.926 76.822 10.926 70.986 L 10.926 70.986 L 10.926 59.504 L 10.926 59.504 Q 10.926 55.563 8.538 53.877 L 8.538 53.877 L 8.538 53.877 Q 6.151 52.191 1.603 52.191 L 1.603 52.191 L 1.603 46.847 L 1.603 46.847 Q 6.53 46.772 8.728 45.028 L 8.728 45.028 L 8.728 45.028 Q 10.926 43.285 10.926 39.647 L 10.926 39.647 L 10.926 28.052 L 10.926 28.052 Q 10.926 22.178 15.018 18.919 L 15.018 18.919 L 15.018 18.919 Q 19.111 15.66 26.008 15.66 L 26.008 15.66 L 26.008 20.927 L 26.008 20.927 Q 17.292 21.155 17.292 28.468 L 17.292 28.468 L 17.292 39.647 L 17.292 39.647 Q 17.292 47.795 8.841 49.273 L 8.841 49.273 L 8.841 49.727 L 8.841 49.727 Q 17.292 51.205 17.292 59.353 L 17.292 59.353 Z " fill="rgb(194,148,88)"/><path d=" M 80.708 59.353 L 80.708 70.607 L 80.708 70.607 Q 80.708 74.473 78.491 76.216 L 78.491 76.216 L 78.491 76.216 Q 76.274 77.959 71.992 78.035 L 71.992 78.035 L 71.992 83.34 L 71.992 83.34 Q 79.192 83.264 83.133 80.043 L 83.133 80.043 L 83.133 80.043 Q 87.074 76.822 87.074 70.986 L 87.074 70.986 L 87.074 59.504 L 87.074 59.504 Q 87.074 55.563 89.462 53.877 L 89.462 53.877 L 89.462 53.877 Q 91.849 52.191 96.397 52.191 L 96.397 52.191 L 96.397 46.847 L 96.397 46.847 Q 91.47 46.772 89.272 45.028 L 89.272 45.028 L 89.272 45.028 Q 87.074 43.285 87.074 39.647 L 87.074 39.647 L 87.074 28.052 L 87.074 28.052 Q 87.074 22.178 82.982 18.919 L 82.982 18.919 L 82.982 18.919 Q 78.889 15.66 71.992 15.66 L 71.992 15.66 L 71.992 20.927 L 71.992 20.927 Q 80.708 21.155 80.708 28.468 L 80.708 28.468 L 80.708 39.647 L 80.708 39.647 Q 80.708 47.795 89.159 49.273 L 89.159 49.273 L 89.159 49.727 L 89.159 49.727 Q 80.708 51.205 80.708 59.353 L 80.708 59.353 Z " fill="rgb(194,148,88)"/><g><path d=" M 48.812 21.343 C 46.789 21.343 44.815 21.551 42.91 21.946 C 42.944 22.227 42.964 22.511 42.964 22.801 C 42.964 26.233 40.492 29.085 37.231 29.679 C 37.329 30.144 37.38 30.625 37.38 31.118 C 37.38 34.981 34.249 38.112 30.387 38.112 C 29.976 38.112 29.573 38.074 29.182 38.006 C 28.557 41.229 25.722 43.663 22.317 43.663 C 21.76 43.663 21.218 43.596 20.698 43.472 C 20.175 45.649 19.895 47.921 19.895 50.259 C 19.895 66.229 32.842 79.175 48.812 79.175 C 64.781 79.175 77.727 66.229 77.727 50.259 C 77.727 34.289 64.781 21.343 48.812 21.343 Z " fill="rgb(217,163,89)"/><clipPath id="_clipPath_cYVwme3JICwhP0c9PkOmtVmIgPZ917zY"><path d=" M 48.812 21.343 C 46.789 21.343 44.815 21.551 42.91 21.946 C 42.944 22.227 42.964 22.511 42.964 22.801 C 42.964 26.233 40.492 29.085 37.231 29.679 C 37.329 30.144 37.38 30.625 37.38 31.118 C 37.38 34.981 34.249 38.112 30.387 38.112 C 29.976 38.112 29.573 38.074 29.182 38.006 C 28.557 41.229 25.722 43.663 22.317 43.663 C 21.76 43.663 21.218 43.596 20.698 43.472 C 20.175 45.649 19.895 47.921 19.895 50.259 C 19.895 66.229 32.842 79.175 48.812 79.175 C 64.781 79.175 77.727 66.229 77.727 50.259 C 77.727 34.289 64.781 21.343 48.812 21.343 Z " fill="rgb(255,255,255)"/></clipPath><g clip-path="url(#_clipPath_cYVwme3JICwhP0c9PkOmtVmIgPZ917zY)"><path d=" M 33.642 53.683 C 34.172 52.992 34.487 52.128 34.487 51.19 C 34.487 48.925 32.651 47.089 30.387 47.089 C 28.122 47.089 26.286 48.925 26.286 51.19 C 26.286 51.762 26.403 52.307 26.615 52.802 C 24.173 52.079 21.91 50.941 19.906 49.47 C 19.961 47.41 20.234 45.404 20.698 43.472 C 21.218 43.596 21.76 43.663 22.317 43.663 C 25.722 43.663 28.557 41.229 29.182 38.006 C 29.573 38.074 29.976 38.112 30.387 38.112 C 34.249 38.112 37.38 34.981 37.38 31.118 L 37.38 31.118 L 37.38 31.118 C 37.38 30.625 37.329 30.144 37.231 29.679 C 40.492 29.085 42.964 26.233 42.964 22.801 L 42.964 22.801 L 42.964 22.801 C 42.964 22.511 42.944 22.227 42.91 21.946 C 44.815 21.551 46.789 21.343 48.812 21.343 C 49.931 21.343 51.037 21.406 52.123 21.53 C 53.766 24.6 54.697 28.108 54.697 31.832 C 54.697 43.637 45.343 53.257 33.642 53.683 Z  M 41.276 45.189 C 40.882 45.189 40.562 45.508 40.562 45.902 C 40.562 46.297 40.882 46.616 41.276 46.616 C 41.67 46.616 41.99 46.297 41.99 45.902 C 41.99 45.508 41.67 45.189 41.276 45.189 Z  M 45.379 32.556 C 43.429 32.556 41.847 34.137 41.847 36.088 C 41.847 38.039 43.429 39.62 45.379 39.62 C 47.33 39.62 48.911 38.039 48.911 36.088 C 48.911 34.137 47.33 32.556 45.379 32.556 Z  M 52.397 28.926 C 52.003 28.926 51.683 29.246 51.683 29.64 C 51.683 30.034 52.003 30.354 52.397 30.354 C 52.791 30.354 53.111 30.034 53.111 29.64 C 53.111 29.246 52.791 28.926 52.397 28.926 Z " fill="rgb(221,172,102)"/></g><path d=" M 34.487 51.19 C 34.487 53.454 32.651 55.29 30.387 55.29 C 28.122 55.29 26.286 53.454 26.286 51.19 C 26.286 48.925 28.122 47.089 30.387 47.089 C 32.651 47.089 34.487 48.925 34.487 51.19 Z " fill="rgb(142,96,70)"/><path d=" M 32.526 47.691 C 32.907 48.313 33.128 49.046 33.128 49.83 C 33.128 52.095 31.292 53.93 29.027 53.93 C 28.243 53.93 27.511 53.71 26.888 53.328 C 27.609 54.505 28.906 55.29 30.387 55.29 C 32.651 55.29 34.487 53.454 34.487 51.19 C 34.487 49.709 33.702 48.412 32.526 47.691 Z " fill="rgb(130,88,64)"/><path d=" M 28.336 51.161 C 27.418 51.161 26.674 50.426 26.652 49.512 C 26.962 48.824 27.452 48.235 28.067 47.811 C 28.155 47.797 28.244 47.784 28.336 47.784 C 29.269 47.784 30.025 48.54 30.025 49.472 C 30.025 50.405 29.269 51.161 28.336 51.161 Z " fill="rgb(163,120,90)"/><path d=" M 69.132 43.172 C 69.132 45.437 67.297 47.273 65.032 47.273 C 62.767 47.273 60.931 45.437 60.931 43.172 C 60.931 40.907 62.767 39.071 65.032 39.071 C 67.297 39.071 69.132 40.907 69.132 43.172 Z " fill="rgb(142,96,70)"/><path d=" M 67.171 39.673 C 67.552 40.296 67.773 41.028 67.773 41.812 C 67.773 44.077 65.937 45.913 63.672 45.913 C 62.888 45.913 62.156 45.692 61.533 45.311 C 62.254 46.487 63.551 47.273 65.032 47.273 C 67.297 47.273 69.132 45.437 69.132 43.172 C 69.132 41.691 68.347 40.394 67.171 39.673 Z " fill="rgb(130,88,64)"/><path d=" M 62.981 43.143 C 62.063 43.143 61.319 42.408 61.297 41.495 C 61.607 40.806 62.097 40.217 62.712 39.794 C 62.8 39.78 62.889 39.767 62.981 39.767 C 63.914 39.767 64.67 40.523 64.67 41.455 C 64.67 42.387 63.914 43.143 62.981 43.143 Z " fill="rgb(163,120,90)"/><path d=" M 48.911 36.088 C 48.911 38.039 47.33 39.62 45.379 39.62 C 43.429 39.62 41.847 38.039 41.847 36.088 C 41.847 34.137 43.429 32.556 45.379 32.556 C 47.33 32.556 48.911 34.137 48.911 36.088 Z " fill="rgb(142,96,70)"/><path d=" M 47.222 33.074 C 47.55 33.611 47.74 34.241 47.74 34.916 C 47.74 36.867 46.159 38.449 44.208 38.449 C 43.533 38.449 42.902 38.259 42.366 37.93 C 42.987 38.944 44.104 39.62 45.379 39.62 C 47.33 39.62 48.911 38.039 48.911 36.088 C 48.911 34.812 48.235 33.695 47.222 33.074 Z " fill="rgb(130,88,64)"/><path d=" M 43.613 36.063 C 42.822 36.063 42.181 35.43 42.163 34.643 C 42.43 34.05 42.851 33.543 43.381 33.178 C 43.457 33.166 43.534 33.155 43.613 33.155 C 44.416 33.155 45.068 33.806 45.068 34.609 C 45.068 35.412 44.416 36.063 43.613 36.063 Z " fill="rgb(163,120,90)"/><path d=" M 47.49 69.163 C 47.49 71.113 45.909 72.695 43.958 72.695 C 42.007 72.695 40.426 71.113 40.426 69.163 C 40.426 67.212 42.007 65.631 43.958 65.631 C 45.909 65.631 47.49 67.212 47.49 69.163 Z " fill="rgb(142,96,70)"/><path d=" M 45.8 66.149 C 46.129 66.685 46.319 67.316 46.319 67.991 C 46.319 69.942 44.737 71.523 42.786 71.523 C 42.111 71.523 41.481 71.334 40.944 71.005 C 41.565 72.018 42.682 72.695 43.958 72.695 C 45.909 72.695 47.49 71.113 47.49 69.163 C 47.49 67.887 46.814 66.77 45.8 66.149 Z " fill="rgb(130,88,64)"/><path d=" M 42.192 69.138 C 41.401 69.138 40.76 68.504 40.741 67.718 C 41.008 67.125 41.43 66.618 41.96 66.253 C 42.036 66.24 42.112 66.229 42.192 66.229 C 42.995 66.229 43.646 66.881 43.646 67.683 C 43.646 68.487 42.995 69.138 42.192 69.138 Z " fill="rgb(163,120,90)"/><path d=" M 54.839 53.698 C 54.839 55.649 53.258 57.23 51.307 57.23 C 49.356 57.23 47.775 55.649 47.775 53.698 C 47.775 51.747 49.356 50.166 51.307 50.166 C 53.258 50.166 54.839 51.747 54.839 53.698 Z " fill="rgb(142,96,70)"/><path d=" M 53.149 50.684 C 53.478 51.221 53.668 51.851 53.668 52.527 C 53.668 54.477 52.086 56.059 50.135 56.059 C 49.46 56.059 48.829 55.869 48.293 55.54 C 48.914 56.554 50.031 57.23 51.307 57.23 C 53.258 57.23 54.839 55.649 54.839 53.698 C 54.839 52.422 54.163 51.305 53.149 50.684 Z " fill="rgb(130,88,64)"/><path d=" M 30.387 45.369 C 27.178 45.369 24.566 47.98 24.566 51.19 C 24.566 54.399 27.178 57.01 30.387 57.01 C 33.596 57.01 36.207 54.399 36.207 51.19 C 36.207 47.98 33.596 45.369 30.387 45.369 Z  M 30.387 47.089 C 32.651 47.089 34.487 48.925 34.487 51.19 C 34.487 53.454 32.651 55.29 30.387 55.29 C 28.122 55.29 26.286 53.454 26.286 51.19 C 26.286 48.925 28.122 47.089 30.387 47.089 Z " fill="rgb(102,84,79)"/><path d=" M 65.032 37.352 C 61.822 37.352 59.211 39.963 59.211 43.172 C 59.211 46.381 61.822 48.992 65.032 48.992 C 68.241 48.992 70.852 46.381 70.852 43.172 C 70.852 39.963 68.241 37.352 65.032 37.352 Z  M 65.032 39.071 C 67.296 39.071 69.132 40.907 69.132 43.172 C 69.132 45.437 67.296 47.273 65.032 47.273 C 62.767 47.273 60.931 45.437 60.931 43.172 C 60.931 40.907 62.767 39.071 65.032 39.071 Z " fill="rgb(102,84,79)"/><path d=" M 45.379 30.836 C 42.484 30.836 40.128 33.192 40.128 36.088 C 40.128 38.984 42.484 41.34 45.379 41.34 C 48.275 41.34 50.631 38.984 50.631 36.088 C 50.631 33.192 48.275 30.836 45.379 30.836 Z  M 45.379 32.556 C 47.33 32.556 48.911 34.137 48.911 36.088 C 48.911 38.039 47.33 39.62 45.379 39.62 C 43.429 39.62 41.847 38.039 41.847 36.088 C 41.847 34.137 43.429 32.556 45.379 32.556 Z " fill="rgb(102,84,79)"/><path d=" M 43.958 63.911 C 41.062 63.911 38.706 66.267 38.706 69.163 C 38.706 72.058 41.062 74.414 43.958 74.414 C 46.854 74.414 49.21 72.058 49.21 69.163 C 49.21 66.267 46.854 63.911 43.958 63.911 Z  M 43.958 65.631 C 45.909 65.631 47.49 67.212 47.49 69.163 C 47.49 71.113 45.909 72.695 43.958 72.695 C 42.007 72.695 40.426 71.113 40.426 69.163 C 40.426 67.212 42.007 65.631 43.958 65.631 Z " fill="rgb(102,84,79)"/><path d=" M 51.307 48.446 C 48.411 48.446 46.055 50.802 46.055 53.698 C 46.055 56.594 48.411 58.95 51.307 58.95 C 54.203 58.95 56.559 56.594 56.559 53.698 C 56.559 50.802 54.203 48.446 51.307 48.446 Z  M 51.307 50.166 C 53.258 50.166 54.839 51.747 54.839 53.698 C 54.839 55.649 53.258 57.23 51.307 57.23 C 49.356 57.23 47.775 55.649 47.775 53.698 C 47.775 51.747 49.356 50.166 51.307 50.166 Z " fill="rgb(102,84,79)"/><path d=" M 49.541 53.673 C 48.749 53.673 48.109 53.04 48.09 52.253 C 48.357 51.66 48.779 51.153 49.309 50.788 C 49.385 50.776 49.461 50.765 49.541 50.765 C 50.344 50.765 50.995 51.416 50.995 52.219 C 50.995 53.022 50.344 53.673 49.541 53.673 Z " fill="rgb(163,120,90)"/><path d=" M 48.786 79.175 C 48.783 79.175 48.781 79.175 48.778 79.175 C 48.78 79.175 48.784 79.175 48.786 79.175 Z  M 48.76 79.175 C 48.757 79.175 48.754 79.175 48.751 79.175 C 48.755 79.175 48.757 79.175 48.76 79.175 Z  M 48.735 79.175 C 48.732 79.175 48.728 79.175 48.725 79.175 C 48.729 79.175 48.731 79.175 48.735 79.175 Z  M 48.709 79.175 C 48.706 79.175 48.702 79.175 48.699 79.175 C 48.702 79.175 48.706 79.175 48.709 79.175 Z  M 48.683 79.175 C 48.68 79.175 48.677 79.175 48.674 79.175 C 48.677 79.175 48.68 79.175 48.683 79.175 Z  M 48.654 79.175 C 48.652 79.175 48.65 79.175 48.648 79.175 C 48.65 79.175 48.652 79.175 48.654 79.175 Z  M 48.623 79.174 C 48.621 79.174 48.618 79.174 48.616 79.174 C 48.618 79.174 48.621 79.174 48.623 79.174 Z  M 48.598 79.174 C 48.594 79.174 48.592 79.174 48.588 79.174 C 48.591 79.174 48.595 79.174 48.598 79.174 Z  M 48.572 79.174 C 48.569 79.174 48.566 79.174 48.562 79.174 C 48.565 79.174 48.569 79.174 48.572 79.174 Z  M 48.546 79.174 C 48.543 79.174 48.539 79.174 48.537 79.174 C 48.54 79.174 48.543 79.174 48.546 79.174 Z  M 48.519 79.174 C 48.517 79.174 48.514 79.173 48.511 79.173 C 48.514 79.173 48.516 79.174 48.519 79.174 Z  M 48.492 79.173 C 48.489 79.173 48.488 79.173 48.485 79.173 C 48.488 79.173 48.49 79.173 48.492 79.173 Z  M 48.46 79.173 C 48.459 79.173 48.458 79.173 48.457 79.173 C 48.458 79.173 48.459 79.173 48.46 79.173 Z  M 48.434 79.173 C 48.432 79.173 48.429 79.173 48.427 79.173 C 48.429 79.173 48.431 79.173 48.434 79.173 Z  M 48.409 79.172 C 48.406 79.172 48.402 79.172 48.4 79.172 C 48.403 79.172 48.406 79.172 48.409 79.172 Z  M 48.384 79.172 C 48.381 79.172 48.377 79.172 48.374 79.172 C 48.377 79.172 48.38 79.172 48.384 79.172 Z  M 48.357 79.172 C 48.354 79.172 48.352 79.171 48.349 79.171 C 48.352 79.171 48.354 79.172 48.357 79.172 Z  M 48.329 79.171 C 48.327 79.171 48.326 79.171 48.323 79.171 C 48.325 79.171 48.327 79.171 48.329 79.171 Z  M 48.272 79.17 C 48.269 79.17 48.268 79.17 48.266 79.17 C 48.268 79.17 48.27 79.17 48.272 79.17 Z  M 48.246 79.17 C 48.244 79.169 48.241 79.169 48.239 79.169 C 48.241 79.169 48.244 79.169 48.246 79.17 Z  M 48.22 79.169 C 48.218 79.169 48.215 79.169 48.213 79.169 C 48.214 79.169 48.218 79.169 48.22 79.169 Z  M 48.194 79.169 C 48.191 79.168 48.19 79.168 48.187 79.168 C 48.189 79.168 48.192 79.168 48.194 79.169 Z  M 48.166 79.168 C 48.165 79.168 48.163 79.168 48.161 79.168 C 48.163 79.168 48.164 79.168 48.166 79.168 Z  M 48.109 79.167 C 48.108 79.167 48.107 79.167 48.107 79.167 C 48.108 79.167 48.108 79.167 48.109 79.167 Z  M 48.083 79.166 C 48.081 79.166 48.08 79.166 48.078 79.166 C 48.08 79.166 48.081 79.166 48.083 79.166 Z  M 48.057 79.165 C 48.055 79.165 48.053 79.165 48.051 79.165 C 48.053 79.165 48.055 79.165 48.057 79.165 Z  M 48.031 79.165 C 48.029 79.165 48.027 79.164 48.025 79.164 C 48.027 79.164 48.029 79.165 48.031 79.165 Z  M 48.004 79.164 C 48.002 79.164 48.001 79.164 47.999 79.164 C 48.001 79.164 48.002 79.164 48.004 79.164 Z  M 47.947 79.162 L 47.946 79.162 L 47.947 79.162 Z  M 47.921 79.162 C 47.919 79.162 47.918 79.161 47.917 79.161 C 47.918 79.161 47.92 79.162 47.921 79.162 Z  M 47.895 79.161 C 47.893 79.161 47.892 79.161 47.89 79.161 C 47.891 79.161 47.894 79.161 47.895 79.161 Z  M 47.869 79.16 C 47.867 79.16 47.865 79.16 47.864 79.16 C 47.865 79.16 47.868 79.16 47.869 79.16 Z  M 47.842 79.159 C 47.84 79.159 47.84 79.159 47.838 79.159 C 47.839 79.159 47.841 79.159 47.842 79.159 Z  M 47.759 79.156 C 47.758 79.156 47.758 79.156 47.757 79.156 L 47.759 79.156 Z  M 47.733 79.155 C 47.732 79.155 47.73 79.155 47.729 79.155 C 47.731 79.155 47.731 79.155 47.733 79.155 Z  M 47.706 79.154 C 47.705 79.154 47.704 79.154 47.703 79.154 C 47.704 79.154 47.705 79.154 47.706 79.154 Z  M 47.679 79.153 L 47.677 79.153 C 47.678 79.153 47.678 79.153 47.679 79.153 Z  M 47.571 79.149 L 47.57 79.149 C 47.571 79.149 47.57 79.149 47.571 79.149 Z  M 47.544 79.148 L 47.543 79.148 L 47.544 79.148 Z  M 47.517 79.147 L 47.517 79.147 L 47.517 79.147 Z  M 77.727 50.259 L 77.727 50.259 C 77.727 50.258 77.727 50.258 77.727 50.259 L 77.727 50.259 M 77.727 50.234 C 77.727 50.231 77.727 50.227 77.727 50.224 C 77.727 50.227 77.727 50.231 77.727 50.234 Z  M 77.727 50.208 C 77.727 50.205 77.727 50.201 77.727 50.197 C 77.727 50.2 77.727 50.205 77.727 50.208 Z  M 77.727 50.184 C 77.727 50.18 77.727 50.175 77.727 50.171 C 77.727 50.176 77.727 50.179 77.727 50.184 Z  M 77.727 50.158 C 77.727 50.154 77.727 50.15 77.727 50.145 C 77.727 50.15 77.727 50.154 77.727 50.158 Z  M 77.727 50.134 C 77.727 50.129 77.727 50.125 77.727 50.12 C 77.727 50.125 77.727 50.129 77.727 50.134 Z  M 77.727 50.11 C 77.727 50.098 77.727 50.088 77.727 50.076 C 77.727 50.088 77.727 50.099 77.727 50.11 Z  M 77.727 50.072 C 77.727 50.066 77.727 50.061 77.727 50.056 C 77.727 50.061 77.727 50.066 77.727 50.072 Z  M 77.727 50.047 C 77.727 50.042 77.727 50.036 77.727 50.031 C 77.727 50.036 77.727 50.042 77.727 50.047 Z  M 77.727 50.022 C 77.726 50.016 77.726 50.012 77.726 50.006 C 77.726 50.011 77.726 50.017 77.727 50.022 Z  M 77.726 49.997 C 77.726 49.992 77.726 49.986 77.726 49.981 C 77.726 49.987 77.726 49.992 77.726 49.997 Z  M 77.726 49.973 C 77.726 49.967 77.726 49.962 77.726 49.956 C 77.726 49.962 77.726 49.968 77.726 49.973 Z  M 77.726 49.952 C 77.726 49.929 77.725 49.909 77.725 49.887 C 77.725 49.909 77.726 49.93 77.726 49.952 Z  M 77.725 49.885 C 77.725 49.878 77.725 49.872 77.725 49.865 C 77.725 49.872 77.725 49.878 77.725 49.885 Z  M 77.725 49.861 C 77.725 49.854 77.725 49.847 77.725 49.841 C 77.725 49.847 77.725 49.854 77.725 49.861 Z  M 77.725 49.837 C 77.724 49.83 77.724 49.823 77.724 49.816 C 77.724 49.823 77.724 49.83 77.725 49.837 Z  M 77.724 49.814 C 77.724 49.807 77.724 49.799 77.724 49.792 C 77.724 49.799 77.724 49.806 77.724 49.814 Z  M 77.724 49.792 C 77.723 49.761 77.723 49.73 77.722 49.699 C 77.723 49.73 77.723 49.761 77.724 49.792 Z  M 77.722 49.699 C 77.722 49.691 77.722 49.684 77.722 49.677 C 77.722 49.684 77.722 49.691 77.722 49.699 Z  M 77.722 49.675 C 77.722 49.667 77.721 49.66 77.721 49.653 C 77.721 49.661 77.722 49.667 77.722 49.675 Z  M 77.721 49.652 C 77.71 49.093 77.682 48.539 77.64 47.988 C 77.682 48.539 77.71 49.093 77.721 49.652 Z  M 77.64 47.988 C 77.636 47.942 77.633 47.897 77.629 47.851 C 77.632 47.897 77.636 47.943 77.64 47.988 Z  M 77.629 47.851 C 77.628 47.843 77.628 47.837 77.627 47.829 C 77.627 47.836 77.628 47.843 77.629 47.851 Z  M 77.627 47.827 C 77.626 47.819 77.626 47.814 77.625 47.806 C 77.626 47.813 77.626 47.82 77.627 47.827 Z  M 77.625 47.803 C 77.624 47.797 77.623 47.789 77.623 47.782 C 77.624 47.79 77.624 47.796 77.625 47.803 Z  M 77.623 47.781 C 77.62 47.751 77.618 47.722 77.615 47.692 C 77.618 47.721 77.62 47.752 77.623 47.781 Z  M 77.615 47.69 C 77.614 47.683 77.614 47.678 77.613 47.672 C 77.614 47.678 77.615 47.684 77.615 47.69 Z  M 77.613 47.665 C 77.612 47.659 77.612 47.654 77.611 47.648 C 77.612 47.654 77.612 47.659 77.613 47.665 Z  M 77.611 47.641 C 77.61 47.635 77.61 47.63 77.609 47.624 C 77.61 47.63 77.61 47.636 77.611 47.641 Z  M 77.608 47.617 C 77.608 47.611 77.607 47.606 77.607 47.6 C 77.607 47.605 77.608 47.611 77.608 47.617 Z  M 77.606 47.594 C 77.605 47.576 77.603 47.556 77.601 47.538 C 77.603 47.556 77.605 47.575 77.606 47.594 Z  M 77.6 47.529 C 77.6 47.523 77.6 47.52 77.599 47.514 C 77.599 47.519 77.6 47.524 77.6 47.529 Z  M 77.598 47.505 C 77.598 47.5 77.597 47.496 77.597 47.491 C 77.597 47.496 77.598 47.5 77.598 47.505 Z  M 77.596 47.479 C 77.595 47.475 77.595 47.47 77.594 47.466 C 77.595 47.47 77.595 47.475 77.596 47.479 Z  M 77.593 47.454 C 77.593 47.45 77.592 47.446 77.592 47.442 C 77.592 47.446 77.593 47.45 77.593 47.454 Z  M 77.591 47.427 C 77.59 47.423 77.59 47.421 77.59 47.418 C 77.59 47.421 77.59 47.424 77.591 47.427 Z  M 77.587 47.393 C 77.587 47.392 77.587 47.391 77.587 47.391 C 77.587 47.391 77.587 47.393 77.587 47.393 Z  M 77.585 47.368 C 77.585 47.365 77.584 47.363 77.584 47.361 C 77.584 47.363 77.585 47.366 77.585 47.368 Z  M 77.582 47.343 C 77.582 47.34 77.582 47.338 77.581 47.335 C 77.582 47.338 77.582 47.34 77.582 47.343 Z  M 77.58 47.318 C 77.58 47.316 77.579 47.312 77.579 47.31 C 77.579 47.312 77.58 47.315 77.58 47.318 Z  M 77.577 47.292 C 77.577 47.29 77.577 47.287 77.576 47.285 C 77.577 47.287 77.577 47.289 77.577 47.292 Z  M 77.574 47.264 C 77.574 47.263 77.574 47.262 77.574 47.26 C 77.574 47.261 77.574 47.263 77.574 47.264 Z  M 77.568 47.208 L 77.568 47.208 L 77.568 47.208 Z  M 77.566 47.183 C 77.566 47.182 77.565 47.18 77.565 47.179 C 77.566 47.181 77.566 47.181 77.566 47.183 Z  M 77.563 47.157 C 77.563 47.155 77.563 47.155 77.563 47.153 C 77.563 47.154 77.563 47.156 77.563 47.157 Z  M 77.56 47.13 L 77.56 47.128 C 77.56 47.129 77.56 47.129 77.56 47.13 Z " fill="rgb(210,211,212)"/><path d=" M 48.812 79.175 L 48.812 79.175 C 48.803 79.175 48.795 79.175 48.786 79.175 C 48.784 79.175 48.78 79.175 48.778 79.175 C 48.772 79.175 48.766 79.175 48.76 79.175 C 48.757 79.175 48.755 79.175 48.751 79.175 C 48.746 79.175 48.74 79.175 48.735 79.175 C 48.731 79.175 48.729 79.175 48.725 79.175 C 48.72 79.175 48.714 79.175 48.709 79.175 C 48.706 79.175 48.702 79.175 48.699 79.175 C 48.693 79.175 48.689 79.175 48.683 79.175 C 48.68 79.175 48.677 79.175 48.674 79.175 C 48.667 79.175 48.661 79.175 48.654 79.175 C 48.652 79.175 48.65 79.175 48.648 79.175 C 48.64 79.174 48.631 79.174 48.623 79.174 C 48.621 79.174 48.618 79.174 48.616 79.174 C 48.61 79.174 48.604 79.174 48.598 79.174 C 48.595 79.174 48.591 79.174 48.588 79.174 C 48.583 79.174 48.577 79.174 48.572 79.174 C 48.569 79.174 48.565 79.174 48.562 79.174 C 48.557 79.174 48.552 79.174 48.546 79.174 C 48.543 79.174 48.54 79.174 48.537 79.174 C 48.531 79.174 48.526 79.174 48.519 79.174 C 48.516 79.174 48.514 79.173 48.511 79.173 C 48.504 79.173 48.498 79.173 48.492 79.173 C 48.49 79.173 48.488 79.173 48.485 79.173 C 48.477 79.173 48.468 79.173 48.46 79.173 C 48.459 79.173 48.458 79.173 48.457 79.173 C 48.449 79.173 48.442 79.173 48.434 79.173 C 48.431 79.173 48.429 79.173 48.427 79.173 C 48.42 79.172 48.415 79.172 48.409 79.172 C 48.406 79.172 48.403 79.172 48.4 79.172 C 48.394 79.172 48.39 79.172 48.384 79.172 C 48.38 79.172 48.377 79.172 48.374 79.172 C 48.368 79.172 48.363 79.172 48.357 79.172 C 48.354 79.172 48.352 79.171 48.349 79.171 C 48.343 79.171 48.335 79.171 48.329 79.171 C 48.327 79.171 48.325 79.171 48.323 79.171 C 48.306 79.171 48.289 79.17 48.272 79.17 C 48.27 79.17 48.268 79.17 48.266 79.17 C 48.259 79.17 48.252 79.17 48.246 79.17 C 48.244 79.169 48.241 79.169 48.239 79.169 C 48.233 79.169 48.226 79.169 48.22 79.169 C 48.218 79.169 48.214 79.169 48.213 79.169 C 48.206 79.169 48.2 79.169 48.194 79.169 C 48.192 79.168 48.189 79.168 48.187 79.168 C 48.18 79.168 48.173 79.168 48.166 79.168 C 48.164 79.168 48.163 79.168 48.161 79.168 C 48.144 79.167 48.126 79.167 48.109 79.167 C 48.108 79.167 48.108 79.167 48.107 79.167 C 48.099 79.166 48.091 79.166 48.083 79.166 C 48.081 79.166 48.08 79.166 48.078 79.166 C 48.071 79.166 48.064 79.166 48.057 79.165 C 48.055 79.165 48.053 79.165 48.051 79.165 C 48.044 79.165 48.038 79.165 48.031 79.165 C 48.029 79.165 48.027 79.164 48.025 79.164 C 48.018 79.164 48.011 79.164 48.004 79.164 C 48.002 79.164 48.001 79.164 47.999 79.164 C 47.982 79.163 47.964 79.163 47.947 79.162 L 47.946 79.162 C 47.938 79.162 47.93 79.162 47.921 79.162 C 47.92 79.162 47.918 79.161 47.917 79.161 C 47.91 79.161 47.902 79.161 47.895 79.161 C 47.894 79.161 47.891 79.161 47.89 79.161 C 47.883 79.16 47.876 79.16 47.869 79.16 C 47.868 79.16 47.865 79.16 47.864 79.16 C 47.856 79.159 47.849 79.159 47.842 79.159 C 47.841 79.159 47.839 79.159 47.838 79.159 C 47.812 79.158 47.785 79.157 47.759 79.156 L 47.757 79.156 C 47.749 79.156 47.741 79.156 47.733 79.155 C 47.731 79.155 47.731 79.155 47.729 79.155 C 47.721 79.155 47.714 79.155 47.706 79.154 C 47.705 79.154 47.704 79.154 47.703 79.154 C 47.695 79.154 47.687 79.153 47.679 79.153 C 47.678 79.153 47.678 79.153 47.677 79.153 C 47.642 79.152 47.607 79.15 47.571 79.149 C 47.57 79.149 47.571 79.149 47.57 79.149 C 47.561 79.148 47.553 79.148 47.544 79.148 L 47.543 79.148 C 47.534 79.147 47.526 79.147 47.517 79.147 L 47.517 79.147 C 38.789 78.762 31.068 74.509 26.023 68.06 C 30.559 71.608 36.181 73.832 42.307 74.149 C 42.827 74.321 43.381 74.414 43.958 74.414 C 44.555 74.414 45.128 74.314 45.663 74.13 C 53.201 73.657 59.957 70.295 64.834 65.139 C 64.873 65.14 64.911 65.141 64.95 65.141 C 66.901 65.141 68.482 63.559 68.482 61.609 C 68.482 61.263 68.432 60.928 68.34 60.613 C 71.128 56.166 72.74 50.908 72.74 45.272 C 72.74 38.558 70.452 32.379 66.612 27.471 C 72.605 32.158 76.702 39.158 77.56 47.128 L 77.56 47.13 C 77.561 47.138 77.562 47.145 77.563 47.153 C 77.563 47.155 77.563 47.155 77.563 47.157 C 77.564 47.164 77.565 47.172 77.565 47.179 C 77.565 47.18 77.566 47.182 77.566 47.183 C 77.567 47.191 77.568 47.199 77.568 47.208 L 77.568 47.208 C 77.57 47.225 77.572 47.243 77.574 47.26 C 77.574 47.262 77.574 47.263 77.574 47.264 C 77.575 47.272 77.576 47.278 77.576 47.285 C 77.577 47.287 77.577 47.29 77.577 47.292 C 77.578 47.298 77.578 47.304 77.579 47.31 C 77.579 47.312 77.58 47.316 77.58 47.318 C 77.58 47.324 77.581 47.329 77.581 47.335 C 77.582 47.338 77.582 47.34 77.582 47.343 C 77.583 47.349 77.584 47.355 77.584 47.361 C 77.584 47.363 77.585 47.365 77.585 47.368 C 77.586 47.376 77.586 47.383 77.587 47.391 C 77.587 47.391 77.587 47.392 77.587 47.393 C 77.588 47.401 77.589 47.409 77.59 47.418 C 77.59 47.421 77.59 47.423 77.591 47.427 C 77.591 47.432 77.592 47.437 77.592 47.442 C 77.592 47.446 77.593 47.45 77.593 47.454 C 77.594 47.458 77.594 47.462 77.594 47.466 C 77.595 47.47 77.595 47.475 77.596 47.479 C 77.596 47.483 77.596 47.487 77.597 47.491 C 77.597 47.496 77.598 47.5 77.598 47.505 C 77.598 47.507 77.599 47.512 77.599 47.514 C 77.6 47.52 77.6 47.523 77.6 47.529 C 77.601 47.533 77.601 47.534 77.601 47.538 C 77.603 47.556 77.605 47.576 77.606 47.594 C 77.607 47.596 77.607 47.598 77.607 47.6 C 77.607 47.606 77.608 47.611 77.608 47.617 C 77.609 47.619 77.609 47.622 77.609 47.624 C 77.61 47.63 77.61 47.635 77.611 47.641 C 77.611 47.643 77.611 47.646 77.611 47.648 C 77.612 47.654 77.612 47.659 77.613 47.665 C 77.613 47.667 77.613 47.669 77.613 47.672 C 77.614 47.678 77.614 47.683 77.615 47.69 C 77.615 47.691 77.615 47.692 77.615 47.692 C 77.618 47.722 77.62 47.751 77.623 47.781 C 77.623 47.781 77.623 47.782 77.623 47.782 C 77.623 47.789 77.624 47.797 77.625 47.803 C 77.625 47.804 77.625 47.805 77.625 47.806 C 77.626 47.814 77.626 47.819 77.627 47.827 C 77.627 47.828 77.627 47.829 77.627 47.829 C 77.628 47.837 77.628 47.843 77.629 47.851 C 77.629 47.851 77.629 47.851 77.629 47.851 C 77.633 47.897 77.636 47.942 77.64 47.988 L 77.64 47.988 C 77.682 48.539 77.71 49.093 77.721 49.652 L 77.721 49.653 C 77.721 49.66 77.722 49.667 77.722 49.675 C 77.722 49.675 77.722 49.676 77.722 49.677 C 77.722 49.684 77.722 49.691 77.722 49.699 L 77.722 49.699 C 77.723 49.73 77.723 49.761 77.724 49.792 L 77.724 49.792 C 77.724 49.799 77.724 49.807 77.724 49.814 C 77.724 49.814 77.724 49.816 77.724 49.816 C 77.724 49.823 77.724 49.83 77.725 49.837 C 77.725 49.838 77.725 49.839 77.725 49.841 C 77.725 49.847 77.725 49.854 77.725 49.861 C 77.725 49.862 77.725 49.864 77.725 49.865 C 77.725 49.872 77.725 49.878 77.725 49.885 C 77.725 49.886 77.725 49.886 77.725 49.887 C 77.725 49.909 77.726 49.929 77.726 49.952 C 77.726 49.953 77.726 49.955 77.726 49.956 C 77.726 49.962 77.726 49.967 77.726 49.973 C 77.726 49.976 77.726 49.978 77.726 49.981 C 77.726 49.986 77.726 49.992 77.726 49.997 C 77.726 50 77.726 50.003 77.726 50.006 C 77.726 50.012 77.726 50.016 77.727 50.022 C 77.727 50.025 77.727 50.028 77.727 50.031 C 77.727 50.036 77.727 50.042 77.727 50.047 C 77.727 50.05 77.727 50.053 77.727 50.056 C 77.727 50.061 77.727 50.066 77.727 50.072 C 77.727 50.073 77.727 50.075 77.727 50.076 C 77.727 50.088 77.727 50.098 77.727 50.11 C 77.727 50.113 77.727 50.117 77.727 50.12 C 77.727 50.125 77.727 50.129 77.727 50.134 C 77.727 50.138 77.727 50.141 77.727 50.145 C 77.727 50.15 77.727 50.154 77.727 50.158 C 77.727 50.162 77.727 50.167 77.727 50.171 C 77.727 50.175 77.727 50.18 77.727 50.184 C 77.727 50.188 77.727 50.192 77.727 50.197 C 77.727 50.201 77.727 50.205 77.727 50.208 C 77.727 50.214 77.727 50.219 77.727 50.224 C 77.727 50.227 77.727 50.231 77.727 50.234 C 77.727 50.241 77.727 50.25 77.727 50.258 C 77.727 50.259 77.727 50.259 77.727 50.259 C 77.727 65.044 66.632 77.237 52.313 78.965 C 51.165 79.104 49.997 79.175 48.812 79.175 Z " fill="rgb(194,148,88)"/><path d=" M 43.958 74.414 C 43.381 74.414 42.827 74.321 42.307 74.149 C 42.81 74.175 43.315 74.188 43.824 74.188 C 44.442 74.188 45.055 74.168 45.663 74.13 C 45.128 74.314 44.555 74.414 43.958 74.414 Z " fill="rgb(94,79,76)"/><path d=" M 29.87 63.43 C 29.476 63.43 29.156 63.111 29.156 62.716 C 29.156 62.322 29.476 62.003 29.87 62.003 C 30.264 62.003 30.584 62.322 30.584 62.716 C 30.584 63.111 30.264 63.43 29.87 63.43 Z " fill="rgb(172,135,86)"/><path d=" M 35.816 69.697 C 35.421 69.697 35.102 69.377 35.102 68.983 C 35.102 68.589 35.421 68.269 35.816 68.269 C 36.21 68.269 36.529 68.589 36.529 68.983 C 36.529 69.377 36.21 69.697 35.816 69.697 Z " fill="rgb(172,135,86)"/><path d=" M 52.325 62.51 C 51.931 62.51 51.611 62.191 51.611 61.797 C 51.611 61.402 51.931 61.083 52.325 61.083 C 52.719 61.083 53.039 61.402 53.039 61.797 C 53.039 62.191 52.719 62.51 52.325 62.51 Z " fill="rgb(172,135,86)"/><path d=" M 57.439 66.281 C 57.045 66.281 56.725 65.961 56.725 65.567 C 56.725 65.172 57.045 64.853 57.439 64.853 C 57.834 64.853 58.153 65.172 58.153 65.567 C 58.153 65.961 57.834 66.281 57.439 66.281 Z " fill="rgb(172,135,86)"/><path d=" M 52.741 69.722 C 52.347 69.722 52.027 69.402 52.027 69.008 C 52.027 68.614 52.347 68.294 52.741 68.294 C 53.135 68.294 53.455 68.614 53.455 69.008 C 53.455 69.402 53.135 69.722 52.741 69.722 Z " fill="rgb(172,135,86)"/><path d=" M 62.598 53.882 C 62.204 53.882 61.884 53.562 61.884 53.168 C 61.884 52.774 62.204 52.454 62.598 52.454 C 62.993 52.454 63.312 52.774 63.312 53.168 C 63.312 53.562 62.993 53.882 62.598 53.882 Z " fill="rgb(172,135,86)"/><path d=" M 63.031 31.677 C 62.637 31.677 62.317 31.358 62.317 30.963 C 62.317 30.569 62.637 30.25 63.031 30.25 C 63.425 30.25 63.745 30.569 63.745 30.963 C 63.745 31.358 63.425 31.677 63.031 31.677 Z " fill="rgb(172,135,86)"/><path d=" M 69.753 37.383 C 69.359 37.383 69.04 37.063 69.04 36.669 C 69.04 36.275 69.359 35.955 69.753 35.955 C 70.147 35.955 70.467 36.275 70.467 36.669 C 70.467 37.063 70.147 37.383 69.753 37.383 Z " fill="rgb(172,135,86)"/><path d=" M 56.725 50.104 C 56.331 50.104 56.012 49.785 56.012 49.39 C 56.012 48.996 56.331 48.677 56.725 48.677 C 57.12 48.677 57.439 48.996 57.439 49.39 C 57.439 49.785 57.12 50.104 56.725 50.104 Z " fill="rgb(172,135,86)"/><path d=" M 41.276 46.616 C 40.882 46.616 40.562 46.297 40.562 45.902 C 40.562 45.508 40.882 45.189 41.276 45.189 C 41.67 45.189 41.99 45.508 41.99 45.902 C 41.99 46.297 41.67 46.616 41.276 46.616 Z " fill="rgb(175,140,93)"/><path d=" M 52.397 30.354 C 52.003 30.354 51.683 30.034 51.683 29.64 C 51.683 29.246 52.003 28.926 52.397 28.926 C 52.791 28.926 53.111 29.246 53.111 29.64 C 53.111 30.034 52.791 30.354 52.397 30.354 Z " fill="rgb(175,140,93)"/><path d=" M 44.062 61.797 C 43.668 61.797 43.348 61.477 43.348 61.083 C 43.348 60.688 43.668 60.369 44.062 60.369 C 44.456 60.369 44.776 60.688 44.776 61.083 C 44.776 61.477 44.456 61.797 44.062 61.797 Z " fill="rgb(172,135,86)"/><path d=" M 68.17 52.223 C 67.776 52.223 67.456 51.904 67.456 51.509 C 67.456 51.115 67.776 50.796 68.17 50.796 C 68.564 50.796 68.884 51.115 68.884 51.509 C 68.884 51.904 68.564 52.223 68.17 52.223 Z " fill="rgb(172,135,86)"/><path d=" M 30.738 62.871 C 30.738 63.265 30.419 63.585 30.025 63.585 C 29.63 63.585 29.311 63.265 29.311 62.871 C 29.311 62.477 29.63 62.157 30.025 62.157 C 30.419 62.157 30.738 62.477 30.738 62.871 Z " fill="rgb(127,93,69)"/><path d=" M 36.684 69.138 C 36.684 69.532 36.365 69.851 35.97 69.851 C 35.576 69.851 35.257 69.532 35.257 69.138 C 35.257 68.743 35.576 68.424 35.97 68.424 C 36.365 68.424 36.684 68.743 36.684 69.138 Z " fill="rgb(127,93,69)"/><path d=" M 53.194 61.951 C 53.194 62.346 52.874 62.665 52.48 62.665 C 52.086 62.665 51.766 62.346 51.766 61.951 C 51.766 61.557 52.086 61.238 52.48 61.238 C 52.874 61.238 53.194 61.557 53.194 61.951 Z " fill="rgb(127,93,69)"/><path d=" M 58.308 65.722 C 58.308 66.116 57.988 66.435 57.594 66.435 C 57.2 66.435 56.88 66.116 56.88 65.722 C 56.88 65.327 57.2 65.008 57.594 65.008 C 57.988 65.008 58.308 65.327 58.308 65.722 Z " fill="rgb(127,93,69)"/><path d=" M 53.61 69.163 C 53.61 69.557 53.29 69.876 52.896 69.876 C 52.502 69.876 52.182 69.557 52.182 69.163 C 52.182 68.768 52.502 68.449 52.896 68.449 C 53.29 68.449 53.61 68.768 53.61 69.163 Z " fill="rgb(127,93,69)"/><path d=" M 63.467 53.323 C 63.467 53.717 63.147 54.037 62.753 54.037 C 62.359 54.037 62.039 53.717 62.039 53.323 C 62.039 52.929 62.359 52.609 62.753 52.609 C 63.147 52.609 63.467 52.929 63.467 53.323 Z " fill="rgb(127,93,69)"/><path d=" M 63.9 31.118 C 63.9 31.512 63.58 31.832 63.186 31.832 C 62.792 31.832 62.472 31.512 62.472 31.118 C 62.472 30.724 62.792 30.404 63.186 30.404 C 63.58 30.404 63.9 30.724 63.9 31.118 Z " fill="rgb(127,93,69)"/><path d=" M 70.622 36.824 C 70.622 37.218 70.302 37.538 69.908 37.538 C 69.514 37.538 69.194 37.218 69.194 36.824 C 69.194 36.43 69.514 36.11 69.908 36.11 C 70.302 36.11 70.622 36.43 70.622 36.824 Z " fill="rgb(127,93,69)"/><path d=" M 57.594 49.545 C 57.594 49.939 57.275 50.259 56.88 50.259 C 56.486 50.259 56.166 49.939 56.166 49.545 C 56.166 49.151 56.486 48.831 56.88 48.831 C 57.275 48.831 57.594 49.151 57.594 49.545 Z " fill="rgb(127,93,69)"/><path d=" M 42.145 46.057 C 42.145 46.451 41.825 46.771 41.431 46.771 C 41.037 46.771 40.717 46.451 40.717 46.057 C 40.717 45.663 41.037 45.343 41.431 45.343 C 41.825 45.343 42.145 45.663 42.145 46.057 Z " fill="rgb(127,93,69)"/><path d=" M 53.266 29.795 C 53.266 30.189 52.946 30.509 52.552 30.509 C 52.158 30.509 51.838 30.189 51.838 29.795 C 51.838 29.401 52.158 29.081 52.552 29.081 C 52.946 29.081 53.266 29.401 53.266 29.795 Z " fill="rgb(127,93,69)"/><path d=" M 44.931 61.238 C 44.931 61.632 44.611 61.951 44.217 61.951 C 43.823 61.951 43.503 61.632 43.503 61.238 C 43.503 60.843 43.823 60.524 44.217 60.524 C 44.611 60.524 44.931 60.843 44.931 61.238 Z " fill="rgb(127,93,69)"/><path d=" M 69.038 51.664 C 69.038 52.059 68.719 52.378 68.325 52.378 C 67.93 52.378 67.611 52.059 67.611 51.664 C 67.611 51.27 67.93 50.95 68.325 50.95 C 68.719 50.95 69.038 51.27 69.038 51.664 Z " fill="rgb(127,93,69)"/><path d=" M 25.927 47.455 C 26.138 47.184 26.381 46.94 26.652 46.73 C 27.664 45.882 28.966 45.369 30.387 45.369 C 31.681 45.369 32.877 45.794 33.844 46.511 C 32.783 45.079 31.081 44.148 29.166 44.148 C 25.957 44.148 23.345 46.759 23.345 49.969 C 23.345 51.884 24.276 53.586 25.708 54.647 C 24.991 53.68 24.566 52.483 24.566 51.19 C 24.566 49.769 25.079 48.466 25.927 47.455 Z " fill="rgb(191,143,81)"/><path d=" M 60.353 46.63 C 59.636 45.662 59.211 44.466 59.211 43.172 C 59.211 41.751 59.724 40.449 60.572 39.437 C 60.783 39.167 61.026 38.923 61.297 38.713 C 62.308 37.864 63.611 37.352 65.032 37.352 C 66.326 37.352 67.522 37.776 68.489 38.493 C 67.428 37.061 65.726 36.131 63.811 36.131 C 60.601 36.131 57.991 38.742 57.991 41.951 C 57.991 43.866 58.921 45.568 60.353 46.63 Z " fill="rgb(191,143,81)"/><path d=" M 41.108 39.138 C 40.492 38.277 40.128 37.225 40.128 36.088 C 40.128 34.789 40.603 33.599 41.387 32.682 C 41.559 32.464 41.755 32.267 41.973 32.095 C 42.891 31.311 44.08 30.836 45.379 30.836 C 46.516 30.836 47.569 31.2 48.43 31.817 C 47.476 30.485 45.917 29.615 44.158 29.615 C 41.263 29.615 38.907 31.971 38.907 34.867 C 38.907 36.626 39.777 38.184 41.108 39.138 Z " fill="rgb(191,143,81)"/><path d=" M 39.965 65.756 C 40.137 65.538 40.334 65.342 40.551 65.17 C 41.469 64.386 42.659 63.911 43.958 63.911 C 45.095 63.911 46.148 64.275 47.008 64.891 C 46.054 63.56 44.496 62.69 42.737 62.69 C 39.841 62.69 37.485 65.046 37.485 67.942 C 37.485 69.7 38.355 71.259 39.687 72.213 C 39.07 71.352 38.706 70.299 38.706 69.163 C 38.706 67.864 39.181 66.674 39.965 65.756 Z " fill="rgb(191,143,81)"/><path d=" M 60.958 58.202 C 61.13 57.985 61.326 57.788 61.544 57.616 C 62.462 56.832 63.651 56.357 64.95 56.357 C 66.087 56.357 67.14 56.721 68 57.338 C 67.047 56.006 65.488 55.136 63.729 55.136 C 60.833 55.136 58.477 57.492 58.477 60.388 C 58.477 62.147 59.347 63.705 60.679 64.659 C 60.062 63.798 59.698 62.746 59.698 61.609 C 59.698 60.31 60.174 59.12 60.958 58.202 Z " fill="rgb(191,143,81)"/><path d=" M 47.315 50.292 C 47.486 50.074 47.683 49.877 47.9 49.706 C 48.818 48.921 50.008 48.446 51.307 48.446 C 52.444 48.446 53.496 48.81 54.357 49.427 C 53.403 48.095 51.845 47.225 50.086 47.225 C 47.19 47.225 44.834 49.581 44.834 52.477 C 44.834 54.236 45.704 55.795 47.036 56.748 C 46.419 55.888 46.055 54.835 46.055 53.698 C 46.055 52.399 46.53 51.209 47.315 50.292 Z " fill="rgb(191,143,81)"/><path d=" M 68.482 61.609 C 68.482 63.559 66.901 65.141 64.95 65.141 C 62.999 65.141 61.418 63.559 61.418 61.609 C 61.418 59.658 62.999 58.077 64.95 58.077 C 66.901 58.077 68.482 59.658 68.482 61.609 Z " fill="rgb(142,96,70)"/><path d=" M 66.793 58.595 C 67.121 59.131 67.311 59.762 67.311 60.437 C 67.311 62.388 65.73 63.97 63.779 63.97 C 63.103 63.97 62.473 63.78 61.936 63.451 C 62.557 64.465 63.675 65.141 64.95 65.141 C 66.901 65.141 68.482 63.56 68.482 61.609 C 68.482 60.333 67.806 59.216 66.793 58.595 Z " fill="rgb(130,88,64)"/><path d=" M 63.184 61.584 C 62.393 61.584 61.752 60.951 61.733 60.164 C 62 59.571 62.422 59.064 62.952 58.699 C 63.028 58.687 63.105 58.676 63.184 58.676 C 63.987 58.676 64.638 59.327 64.638 60.13 C 64.638 60.933 63.987 61.584 63.184 61.584 Z " fill="rgb(163,120,90)"/><path d=" M 64.95 56.357 C 62.054 56.357 59.698 58.713 59.698 61.609 C 59.698 64.505 62.054 66.861 64.95 66.861 C 67.846 66.861 70.202 64.505 70.202 61.609 C 70.202 58.713 67.846 56.357 64.95 56.357 Z  M 64.95 58.077 C 66.901 58.077 68.482 59.658 68.482 61.609 C 68.482 63.56 66.901 65.141 64.95 65.141 C 62.999 65.141 61.418 63.56 61.418 61.609 C 61.418 59.658 62.999 58.077 64.95 58.077 Z " fill="rgb(102,84,79)"/><path d=" M 30.025 30.25 C 30.025 31.434 29.065 32.394 27.88 32.394 C 26.696 32.394 25.736 31.434 25.736 30.25 C 25.736 29.065 26.696 28.105 27.88 28.105 C 29.065 28.105 30.025 29.065 30.025 30.25 Z " fill="rgb(217,163,89)"/><path d=" M 27.88 26.386 C 25.75 26.386 24.016 28.119 24.016 30.25 C 24.016 32.38 25.75 34.114 27.88 34.114 C 30.011 34.114 31.744 32.38 31.744 30.25 C 31.744 28.119 30.011 26.386 27.88 26.386 Z  M 27.88 28.105 C 29.065 28.105 30.025 29.065 30.025 30.25 C 30.025 31.434 29.065 32.394 27.88 32.394 C 26.696 32.394 25.736 31.434 25.736 30.25 C 25.736 29.065 26.696 28.105 27.88 28.105 Z " fill="rgb(102,84,79)"/><path d=" M 32.095 20.592 C 32.095 21.369 31.465 21.999 30.688 21.999 C 29.91 21.999 29.28 21.369 29.28 20.592 C 29.28 19.814 29.91 19.184 30.688 19.184 C 31.465 19.184 32.095 19.814 32.095 20.592 Z " fill="rgb(217,163,89)"/><path d=" M 30.688 17.465 C 28.963 17.465 27.561 18.867 27.561 20.592 C 27.561 22.316 28.963 23.719 30.688 23.719 C 32.412 23.719 33.815 22.316 33.815 20.592 C 33.815 18.867 32.412 17.465 30.688 17.465 Z  M 30.688 19.184 C 31.465 19.184 32.095 19.814 32.095 20.592 C 32.095 21.369 31.465 21.999 30.688 21.999 C 29.91 21.999 29.28 21.369 29.28 20.592 C 29.28 19.814 29.91 19.184 30.688 19.184 Z " fill="rgb(102,84,79)"/><path d=" M 19.34 37.383 C 19.34 38.16 18.71 38.79 17.933 38.79 C 17.156 38.79 16.525 38.16 16.525 37.383 C 16.525 36.605 17.156 35.975 17.933 35.975 C 18.71 35.975 19.34 36.605 19.34 37.383 Z " fill="rgb(217,163,89)"/><path d=" M 17.933 34.256 C 16.208 34.256 14.806 35.658 14.806 37.383 C 14.806 39.107 16.208 40.51 17.933 40.51 C 19.657 40.51 21.06 39.107 21.06 37.383 C 21.06 35.658 19.657 34.256 17.933 34.256 Z  M 17.933 35.975 C 18.71 35.975 19.34 36.605 19.34 37.383 C 19.34 38.16 18.71 38.79 17.933 38.79 C 17.155 38.79 16.525 38.16 16.525 37.383 C 16.525 36.605 17.155 35.975 17.933 35.975 Z " fill="rgb(102,84,79)"/><path d=" M 29.012 28.431 C 29.216 28.759 29.337 29.146 29.337 29.562 C 29.337 30.746 28.377 31.706 27.192 31.706 C 26.777 31.706 26.39 31.586 26.061 31.381 C 26.44 31.988 27.112 32.394 27.88 32.394 C 29.065 32.394 30.025 31.434 30.025 30.25 C 30.025 29.481 29.619 28.809 29.012 28.431 Z " fill="rgb(191,143,81)"/><path d=" M 31.277 19.315 C 31.36 19.494 31.407 19.693 31.407 19.904 C 31.407 20.681 30.777 21.311 30 21.311 C 29.789 21.311 29.59 21.264 29.411 21.181 C 29.634 21.663 30.121 21.999 30.688 21.999 C 31.465 21.999 32.095 21.369 32.095 20.592 C 32.095 20.025 31.759 19.538 31.277 19.315 Z " fill="rgb(191,143,81)"/><path d=" M 18.522 36.106 C 18.605 36.285 18.652 36.484 18.652 36.695 C 18.652 37.472 18.022 38.102 17.245 38.102 C 17.034 38.102 16.835 38.055 16.656 37.972 C 16.879 38.455 17.366 38.79 17.933 38.79 C 18.71 38.79 19.34 38.16 19.34 37.383 C 19.34 36.816 19.005 36.329 18.522 36.106 Z " fill="rgb(191,143,81)"/><path d=" M 48.812 80.035 C 37.783 80.035 27.708 73.984 22.517 64.243 C 22.294 63.824 22.452 63.303 22.871 63.08 C 23.291 62.856 23.811 63.015 24.035 63.434 C 28.926 72.613 38.42 78.315 48.812 78.315 C 64.282 78.315 76.868 65.729 76.868 50.259 C 76.868 34.789 64.282 22.203 48.812 22.203 C 47.137 22.203 45.462 22.352 43.822 22.646 C 43.823 22.698 43.824 22.75 43.824 22.801 C 43.824 26.315 41.504 29.359 38.201 30.332 C 38.227 30.593 38.24 30.856 38.24 31.118 C 38.24 35.449 34.717 38.972 30.387 38.972 C 30.203 38.972 30.018 38.965 29.832 38.952 C 28.842 42.223 25.8 44.522 22.317 44.522 C 21.997 44.522 21.676 44.503 21.356 44.463 C 20.957 46.363 20.755 48.309 20.755 50.259 C 20.755 52.817 21.099 55.352 21.778 57.792 C 21.905 58.25 21.637 58.723 21.18 58.851 C 20.722 58.978 20.248 58.71 20.121 58.253 C 19.401 55.662 19.035 52.973 19.035 50.259 C 19.035 47.903 19.314 45.552 19.862 43.271 C 19.973 42.81 20.435 42.526 20.897 42.636 C 21.365 42.747 21.843 42.803 22.317 42.803 C 25.249 42.803 27.781 40.717 28.338 37.843 C 28.427 37.383 28.867 37.079 29.329 37.159 C 29.684 37.221 30.04 37.252 30.387 37.252 C 33.769 37.252 36.521 34.5 36.521 31.118 C 36.521 30.695 36.477 30.27 36.39 29.855 C 36.342 29.628 36.389 29.392 36.518 29.199 C 36.647 29.007 36.849 28.875 37.077 28.833 C 39.99 28.303 42.104 25.766 42.104 22.801 C 42.104 22.558 42.089 22.313 42.057 22.051 C 42.002 21.607 42.298 21.195 42.736 21.104 C 44.724 20.692 46.768 20.483 48.812 20.483 C 65.23 20.483 78.587 33.84 78.587 50.259 C 78.587 66.677 65.23 80.035 48.812 80.035 Z " fill="rgb(102,84,79)"/><path d=" M 22.053 62.099 C 21.715 62.099 21.394 61.898 21.257 61.565 C 21.191 61.403 21.125 61.24 21.062 61.077 C 20.889 60.634 21.108 60.136 21.55 59.963 C 21.993 59.79 22.491 60.009 22.664 60.451 C 22.724 60.606 22.785 60.759 22.848 60.912 C 23.028 61.352 22.819 61.854 22.379 62.034 C 22.272 62.078 22.162 62.099 22.053 62.099 Z " fill="rgb(102,84,79)"/></g></g></svg>