<?xml version="1.0" encoding="utf-8"?>
<!-- Generator: Adobe Illustrator 25.3.1, SVG Export Plug-In . SVG Version: 6.00 Build 0)  -->
<svg version="1.1" id="Capa_1" xmlns="http://www.w3.org/2000/svg" xmlns:xlink="http://www.w3.org/1999/xlink" x="0px" y="0px"
	 viewBox="0 0 150.4 68" style="enable-background:new 0 0 150.4 68;" xml:space="preserve">
<style type="text/css">
	.st0{clip-path:url(#SVGID_2_);}
	.st1{fill-opacity:0;}
	.st2{fill-rule:evenodd;clip-rule:evenodd;fill:#FFFFFF;}
</style>
<g>
	<defs>
		<rect id="SVGID_1_" width="150.4" height="68"/>
	</defs>
	<clipPath id="SVGID_2_">
		<use xlink:href="#SVGID_1_"  style="overflow:visible;"/>
	</clipPath>
	<g class="st0">
		<rect class="st1" width="150.4" height="68"/>
		<path class="st2" d="M68,6.6c0.8,0.4,1.5,1,2,1.8l0,0l0,0c1.1,1.6,1.6,3.9,1.6,6.9l0,0v1.4l0,0l0,0l0,0c0,3-0.6,5.3-1.6,6.8l0,0
			l0,0c-1.1,1.6-2.6,2.3-4.6,2.3l0,0l0,0c-0.1,0-0.2,0-0.4,0l-0.7,4.8c0.4,0,0.7,0,1.1,0l0,0l0,0c0.8,0,1.5-0.1,2.2-0.2l0,0l6.1,4.9
			l3.8-3.3l-4.8-3.8l0,0c1.5-1.2,2.7-2.8,3.6-4.8l0,0l0,0c0.9-2,1.3-4.3,1.3-7l0,0v-1.3l0,0l0,0l0,0c0-2.8-0.5-5.3-1.5-7.5l0,0l0,0
			c-1-2.2-2.5-3.8-4.3-5l0,0l0,0c-0.9-0.6-1.9-1-3-1.3L68,6.6z M58.8,66.4c1.7,1,3.8,1.6,6.2,1.6l0,0l0,0c3.4,0,6.1-0.9,8.1-2.7l0,0
			l0,0c2.1-1.8,3.2-4.2,3.4-7.3l0,0h-5.9l0,0l0,0l0,0c-0.1,1.8-0.6,3-1.5,3.9l0,0l0,0c-0.9,0.8-2.3,1.3-4.1,1.3l0,0l0,0
			c-2,0-3.5-0.7-4.5-2.2l0,0l0,0c-0.3-0.4-0.5-0.9-0.7-1.4L58.8,66.4z M63.1,38.6c0.6-0.1,1.3-0.1,2-0.1l0,0l0,0c3.3,0,6,0.9,8,2.7
			l0,0l0,0c2,1.8,3.2,4.3,3.5,7.5l0,0h-5.9l0,0c-0.1-1.9-0.7-3.2-1.6-4l0,0l0,0c-0.9-0.8-2.2-1.3-4.1-1.3l0,0l0,0
			c-1.1,0-2.1,0.2-2.8,0.7L63.1,38.6z M94.8,30.3l-0.2-2.2l0,0c-1.4,1.7-3.4,2.6-5.8,2.6l0,0l0,0c-2.3,0-4-0.7-5.2-2l0,0l0,0
			c-1.2-1.3-1.8-3.2-1.8-5.8l0,0V9h5.7v13.8l0,0c0,2.2,1,3.3,3,3.3l0,0l0,0c1.9,0,3.3-0.7,4-2l0,0V9h5.7v21.4H94.8L94.8,30.3
			L94.8,30.3z M113.9,13.2L113.9,13.2L113.9,13.2c-1.1,0-2.1,0.4-2.8,1.1l0,0l0,0c-0.7,0.8-1.2,1.9-1.4,3.3l0,0h7.9v-0.5l0,0
			c0-1.3-0.4-2.2-1-2.9l0,0l0,0C116,13.5,115.1,13.2,113.9,13.2L113.9,13.2L113.9,13.2z M110.5,6.1l3.9-6.1h6.2l-5.5,6.1H110.5
			L110.5,6.1L110.5,6.1z M88,63.6L88,63.6L88,63.6c0.8,0,1.6-0.2,2.3-0.6l0,0l0,0c0.7-0.4,1.2-0.9,1.6-1.5l0,0v-3.7h-2.1l0,0
			c-2.9,0-4.4,1-4.6,3l0,0l0,0.3l0,0c0,0.7,0.3,1.3,0.8,1.8l0,0l0,0C86.5,63.4,87.2,63.6,88,63.6L88,63.6L88,63.6z M114.4,46.1
			l-0.1,5.5l0,0c-0.8-0.1-1.5-0.2-2.1-0.2l0,0l0,0c-2.2,0-3.6,0.7-4.2,2.2l0,0v14h-5.7V46.2h5.4l0.2,2.5l0,0c1.1-2,2.7-2.9,4.8-2.9
			l0,0l0,0C113.2,45.8,113.8,45.9,114.4,46.1L114.4,46.1L114.4,46.1L114.4,46.1z M119.4,41h5.7v5.3h3.7v4.2h-3.7v10.7l0,0
			c0,0.8,0.2,1.4,0.5,1.7l0,0l0,0c0.3,0.3,0.9,0.5,1.7,0.5l0,0l0,0c0.6,0,1.2,0,1.7-0.1l0,0v4.3l0,0c-1.1,0.3-2.3,0.5-3.5,0.5l0,0
			l0,0c-4,0-6-2-6.1-6.1l0,0V50.4h-3.1v-4.2h3.1V41L119.4,41L119.4,41z M139.9,63.6L139.9,63.6L139.9,63.6c0.8,0,1.6-0.2,2.3-0.6
			l0,0l0,0c0.7-0.4,1.2-0.9,1.6-1.5l0,0v-3.7h-2.1l0,0c-2.9,0-4.4,1-4.6,3l0,0l0,0.3l0,0c0,0.7,0.3,1.3,0.8,1.8l0,0l0,0
			C138.3,63.4,139,63.6,139.9,63.6L139.9,63.6L139.9,63.6z M114.5,30.7L114.5,30.7L114.5,30.7c-3.1,0-5.7-1-7.7-2.9l0,0l0,0
			c-2-1.9-3-4.5-3-7.7l0,0v-0.6l0,0c0-2.1,0.4-4.1,1.2-5.8l0,0l0,0c0.8-1.7,2-3,3.5-3.9l0,0l0,0c1.5-0.9,3.3-1.4,5.2-1.4l0,0l0,0
			c2.9,0,5.2,0.9,6.9,2.8l0,0l0,0c1.7,1.8,2.5,4.5,2.5,7.8l0,0v2.3h-13.6l0,0c0.2,1.4,0.7,2.5,1.7,3.4l0,0l0,0
			c0.9,0.8,2.1,1.3,3.5,1.3l0,0l0,0c2.2,0,3.9-0.8,5.2-2.4l0,0l2.8,3.1l0,0c-0.9,1.2-2,2.2-3.5,2.8l0,0l0,0
			C117.9,30.4,116.3,30.7,114.5,30.7L114.5,30.7L114.5,30.7z M98.5,67.6h-5.8l0,0c-0.3-0.5-0.5-1.2-0.6-1.9l0,0l0,0
			C90.8,67.2,89,68,86.8,68l0,0l0,0c-2.1,0-3.8-0.6-5.2-1.8l0,0l0,0c-1.4-1.2-2.1-2.7-2.1-4.6l0,0l0,0c0-2.3,0.8-4,2.5-5.2l0,0l0,0
			c1.7-1.2,4.1-1.8,7.3-1.8l0,0h2.6v-1.2l0,0c0-1-0.3-1.8-0.8-2.4l0,0l0,0c-0.5-0.6-1.3-0.9-2.4-0.9l0,0l0,0c-1,0-1.7,0.2-2.3,0.7
			l0,0l0,0c-0.5,0.5-0.8,1.1-0.8,1.9l0,0H80l0,0c0-1.2,0.4-2.4,1.1-3.4l0,0l0,0c0.8-1.1,1.8-1.9,3.2-2.5l0,0l0,0
			c1.4-0.6,3-0.9,4.7-0.9l0,0l0,0c2.6,0,4.7,0.7,6.3,2l0,0l0,0c1.5,1.3,2.3,3.2,2.3,5.6l0,0v9.3l0,0c0,2,0.3,3.6,0.8,4.6l0,0V67.6
			L98.5,67.6L98.5,67.6z M150.4,67.6h-5.8l0,0c-0.3-0.5-0.5-1.2-0.6-1.9l0,0l0,0c-1.4,1.5-3.2,2.3-5.4,2.3l0,0l0,0
			c-2.1,0-3.8-0.6-5.2-1.8l0,0l0,0c-1.4-1.2-2.1-2.7-2.1-4.6l0,0l0,0c0-2.3,0.8-4,2.5-5.2l0,0l0,0c1.7-1.2,4.1-1.8,7.3-1.8l0,0h2.6
			v-1.2l0,0c0-1-0.3-1.8-0.8-2.4l0,0l0,0c-0.5-0.6-1.3-0.9-2.4-0.9l0,0l0,0c-1,0-1.7,0.2-2.3,0.7l0,0l0,0c-0.5,0.5-0.8,1.1-0.8,1.9
			l0,0h-5.7l0,0c0-1.2,0.4-2.4,1.1-3.4l0,0l0,0c0.8-1.1,1.8-1.9,3.2-2.5l0,0l0,0c1.4-0.6,3-0.9,4.7-0.9l0,0l0,0c2.6,0,4.7,0.7,6.3,2
			l0,0l0,0c1.5,1.3,2.3,3.2,2.3,5.6l0,0v9.3l0,0c0,2,0.3,3.6,0.8,4.6l0,0V67.6L150.4,67.6L150.4,67.6z"/>
		<path class="st2" d="M62.3,6.6L39.8,8.8c-2.8,0.3-5.5-1.2-6.7-3.7C31.5,2.1,28.1,0,22,0C12.6,0,0.3,6,0.3,10.6
			c0,4.8,12.3,10.6,21.6,10.6c6.2,0,9.5-2.1,11.1-5.2c1.3-2.5,3.9-4,6.7-3.7l21.3,2.1L62.3,6.6z"/>
		<path class="st2" d="M58.1,33.9l-18,1.8c-2.8,0.3-5.5-1.2-6.7-3.7c-1.6-3.1-4.9-5.2-11.1-5.2H2.1c-0.8,0-1.4,0.6-1.4,1.4
			c0,0.8,0.7,1.5,1.5,1.5h18.7c0.8,0,1.5,0.7,1.5,1.5c0,0.8-0.7,1.5-1.5,1.5H2.2c-0.8,0-1.5,0.7-1.5,1.5v0c0,0.8,0.7,1.5,1.5,1.5
			h18.7c0.8,0,1.5,0.7,1.5,1.5c0,0.8-0.7,1.5-1.5,1.5H2.2c-0.8,0-1.5,0.7-1.5,1.5v0c0,0.8,0.7,1.5,1.5,1.5h18.7
			c0.8,0,1.5,0.7,1.5,1.5c0,0.8-0.7,1.5-1.5,1.5H2.2c-0.8,0-1.5,0.7-1.5,1.5c0,0.8,0.6,1.4,1.4,1.4h20.2c6.2,0,9.5-2.1,11.1-5.2
			c1.3-2.5,3.9-4,6.7-3.7l17,1.7L58.1,33.9z"/>
		<path class="st2" d="M54.3,59.3l-7.5,0.7c-1.8,0.2-3.6-0.4-5-1.5c-5.4-4.5-12.7-5.9-19.4-3.7L1.1,61.6C0.4,61.8,0,62.4,0,63
			c0,0.8,0.7,1.5,1.5,1.5l42.4,0.1l9.4,0.9L54.3,59.3z"/>
	</g>
</g>
</svg>
