<?xml version="1.0" encoding="UTF-8" standalone="no"?>
<!-- Generator: Gravit.io -->
<svg xmlns="http://www.w3.org/2000/svg" xmlns:xlink="http://www.w3.org/1999/xlink" style="isolation:isolate" viewBox="0 0 150.356 68" width="150.356pt" height="68pt"><defs><clipPath id="_clipPath_5r2wpdzQghFV0gv6UykzIk8GKwi7zFJu"><rect width="150.356" height="68"/></clipPath></defs><g clip-path="url(#_clipPath_5r2wpdzQghFV0gv6UykzIk8GKwi7zFJu)"><rect width="150.356" height="68" style="fill:rgb(0,0,0)" fill-opacity="0"/><g><path d=" M 67.978 6.643 Q 69.165 7.231 69.993 8.431 L 69.993 8.431 L 69.993 8.431 Q 71.612 10.78 71.612 15.302 L 71.612 15.302 L 71.612 16.704 L 71.612 16.704 L 71.612 16.704 L 71.612 16.704 Q 71.592 21.186 69.993 23.526 L 69.993 23.526 L 69.993 23.526 Q 68.393 25.865 65.412 25.865 L 65.412 25.865 L 65.412 25.865 Q 65.224 25.865 65.042 25.856 L 64.305 30.68 Q 64.849 30.722 65.412 30.722 L 65.412 30.722 L 65.412 30.722 Q 66.537 30.722 67.584 30.545 L 67.584 30.545 L 73.704 35.461 L 77.476 32.124 L 72.698 28.373 L 72.698 28.373 Q 75.008 26.576 76.311 23.605 L 76.311 23.605 L 76.311 23.605 Q 77.614 20.633 77.614 16.605 L 77.614 16.605 L 77.614 15.322 L 77.614 15.322 L 77.614 15.322 L 77.614 15.322 Q 77.614 11.096 76.084 7.868 L 76.084 7.868 L 76.084 7.868 Q 74.553 4.64 71.76 2.912 L 71.76 2.912 L 71.76 2.912 Q 70.354 2.043 68.746 1.611 L 67.978 6.643 Z  M 58.844 66.426 Q 61.441 68 65.037 68 L 65.037 68 L 65.037 68 Q 70.091 68 73.181 65.334 L 73.181 65.334 L 73.181 65.334 Q 76.271 62.669 76.607 58.029 L 76.607 58.029 L 70.684 58.029 L 70.684 58.029 L 70.684 58.029 L 70.684 58.029 Q 70.486 60.655 69.134 61.909 L 69.134 61.909 L 69.134 61.909 Q 67.781 63.163 65.037 63.163 L 65.037 63.163 L 65.037 63.163 Q 61.996 63.163 60.584 61.01 L 60.584 61.01 L 60.584 61.01 Q 60.18 60.394 59.891 59.572 L 58.844 66.426 Z  M 63.094 38.606 Q 64.068 38.462 65.116 38.462 L 65.116 38.462 L 65.116 38.462 Q 70.091 38.462 73.132 41.128 L 73.132 41.128 L 73.132 41.128 Q 76.173 43.793 76.646 48.611 L 76.646 48.611 L 70.723 48.611 L 70.723 48.611 Q 70.506 45.827 69.173 44.573 L 69.173 44.573 L 69.173 44.573 Q 67.84 43.319 65.116 43.319 L 65.116 43.319 L 65.116 43.319 Q 63.462 43.319 62.273 43.981 L 63.094 38.606 Z  M 94.788 30.328 L 94.63 28.156 L 94.63 28.156 Q 92.517 30.722 88.785 30.722 L 88.785 30.722 L 88.785 30.722 Q 85.35 30.722 83.543 28.748 L 83.543 28.748 L 83.543 28.748 Q 81.736 26.774 81.697 22.963 L 81.697 22.963 L 81.697 8.964 L 87.403 8.964 L 87.403 22.765 L 87.403 22.765 Q 87.403 26.102 90.444 26.102 L 90.444 26.102 L 90.444 26.102 Q 93.346 26.102 94.432 24.088 L 94.432 24.088 L 94.432 8.964 L 100.158 8.964 L 100.158 30.328 L 94.788 30.328 L 94.788 30.328 L 94.788 30.328 Z  M 113.896 13.189 L 113.896 13.189 L 113.896 13.189 Q 112.198 13.189 111.142 14.334 L 111.142 14.334 L 111.142 14.334 Q 110.086 15.48 109.789 17.612 L 109.789 17.612 L 117.727 17.612 L 117.727 17.158 L 117.727 17.158 Q 117.687 15.262 116.7 14.226 L 116.7 14.226 L 116.7 14.226 Q 115.713 13.189 113.896 13.189 L 113.896 13.189 L 113.896 13.189 Z  M 110.52 6.121 L 114.41 0 L 120.629 0 L 115.16 6.121 L 110.52 6.121 L 110.52 6.121 L 110.52 6.121 Z  M 88.035 63.636 L 88.035 63.636 L 88.035 63.636 Q 89.299 63.636 90.365 63.074 L 90.365 63.074 L 90.365 63.074 Q 91.431 62.511 91.944 61.563 L 91.944 61.563 L 91.944 57.891 L 89.812 57.891 L 89.812 57.891 Q 85.527 57.891 85.251 60.852 L 85.251 60.852 L 85.231 61.188 L 85.231 61.188 Q 85.231 62.254 85.982 62.945 L 85.982 62.945 L 85.982 62.945 Q 86.732 63.636 88.035 63.636 L 88.035 63.636 L 88.035 63.636 Z  M 114.39 46.103 L 114.311 51.592 L 114.311 51.592 Q 113.146 51.434 112.257 51.434 L 112.257 51.434 L 112.257 51.434 Q 109.019 51.434 108.012 53.626 L 108.012 53.626 L 108.012 67.605 L 102.306 67.605 L 102.306 46.242 L 107.696 46.242 L 107.854 48.789 L 107.854 48.789 Q 109.572 45.847 112.613 45.847 L 112.613 45.847 L 112.613 45.847 Q 113.561 45.847 114.39 46.103 L 114.39 46.103 L 114.39 46.103 L 114.39 46.103 Z  M 119.421 40.99 L 125.127 40.99 L 125.127 46.242 L 128.78 46.242 L 128.78 50.427 L 125.127 50.427 L 125.127 61.089 L 125.127 61.089 Q 125.127 62.274 125.581 62.787 L 125.581 62.787 L 125.581 62.787 Q 126.035 63.301 127.318 63.301 L 127.318 63.301 L 127.318 63.301 Q 128.266 63.301 128.997 63.163 L 128.997 63.163 L 128.997 67.487 L 128.997 67.487 Q 127.318 68 125.541 68 L 125.541 68 L 125.541 68 Q 119.539 68 119.421 61.938 L 119.421 61.938 L 119.421 50.427 L 116.301 50.427 L 116.301 46.242 L 119.421 46.242 L 119.421 40.99 L 119.421 40.99 L 119.421 40.99 Z  M 139.872 63.636 L 139.872 63.636 L 139.872 63.636 Q 141.136 63.636 142.202 63.074 L 142.202 63.074 L 142.202 63.074 Q 143.268 62.511 143.781 61.563 L 143.781 61.563 L 143.781 57.891 L 141.649 57.891 L 141.649 57.891 Q 137.364 57.891 137.088 60.852 L 137.088 60.852 L 137.068 61.188 L 137.068 61.188 Q 137.068 62.254 137.819 62.945 L 137.819 62.945 L 137.819 62.945 Q 138.569 63.636 139.872 63.636 L 139.872 63.636 L 139.872 63.636 Z  M 114.548 30.722 L 114.548 30.722 L 114.548 30.722 Q 109.849 30.722 106.897 27.84 L 106.897 27.84 L 106.897 27.84 Q 103.945 24.957 103.945 20.159 L 103.945 20.159 L 103.945 19.606 L 103.945 19.606 Q 103.945 16.388 105.189 13.851 L 105.189 13.851 L 105.189 13.851 Q 106.433 11.314 108.713 9.941 L 108.713 9.941 L 108.713 9.941 Q 110.994 8.569 113.916 8.569 L 113.916 8.569 L 113.916 8.569 Q 118.299 8.569 120.817 11.333 L 120.817 11.333 L 120.817 11.333 Q 123.334 14.098 123.334 19.172 L 123.334 19.172 L 123.334 21.502 L 109.73 21.502 L 109.73 21.502 Q 110.007 23.595 111.399 24.858 L 111.399 24.858 L 111.399 24.858 Q 112.791 26.122 114.923 26.122 L 114.923 26.122 L 114.923 26.122 Q 118.22 26.122 120.076 23.733 L 120.076 23.733 L 122.88 26.872 L 122.88 26.872 Q 121.597 28.689 119.405 29.706 L 119.405 29.706 L 119.405 29.706 Q 117.213 30.722 114.548 30.722 L 114.548 30.722 L 114.548 30.722 Z  M 98.519 67.605 L 92.754 67.605 L 92.754 67.605 Q 92.359 66.835 92.181 65.69 L 92.181 65.69 L 92.181 65.69 Q 90.108 68 86.791 68 L 86.791 68 L 86.791 68 Q 83.652 68 81.588 66.184 L 81.588 66.184 L 81.588 66.184 Q 79.525 64.367 79.525 61.603 L 79.525 61.603 L 79.525 61.603 Q 79.525 58.207 82.043 56.39 L 82.043 56.39 L 82.043 56.39 Q 84.56 54.574 89.318 54.554 L 89.318 54.554 L 91.944 54.554 L 91.944 53.33 L 91.944 53.33 Q 91.944 51.849 91.184 50.961 L 91.184 50.961 L 91.184 50.961 Q 90.424 50.072 88.785 50.072 L 88.785 50.072 L 88.785 50.072 Q 87.344 50.072 86.525 50.763 L 86.525 50.763 L 86.525 50.763 Q 85.705 51.454 85.705 52.659 L 85.705 52.659 L 79.999 52.659 L 79.999 52.659 Q 79.999 50.803 81.144 49.223 L 81.144 49.223 L 81.144 49.223 Q 82.289 47.643 84.382 46.745 L 84.382 46.745 L 84.382 46.745 Q 86.475 45.847 89.081 45.847 L 89.081 45.847 L 89.081 45.847 Q 93.03 45.847 95.35 47.831 L 95.35 47.831 L 95.35 47.831 Q 97.67 49.815 97.67 53.409 L 97.67 53.409 L 97.67 62.669 L 97.67 62.669 Q 97.69 65.71 98.519 67.269 L 98.519 67.269 L 98.519 67.605 L 98.519 67.605 L 98.519 67.605 Z  M 150.356 67.605 L 144.591 67.605 L 144.591 67.605 Q 144.196 66.835 144.018 65.69 L 144.018 65.69 L 144.018 65.69 Q 141.945 68 138.628 68 L 138.628 68 L 138.628 68 Q 135.489 68 133.425 66.184 L 133.425 66.184 L 133.425 66.184 Q 131.362 64.367 131.362 61.603 L 131.362 61.603 L 131.362 61.603 Q 131.362 58.207 133.879 56.39 L 133.879 56.39 L 133.879 56.39 Q 136.397 54.574 141.155 54.554 L 141.155 54.554 L 143.781 54.554 L 143.781 53.33 L 143.781 53.33 Q 143.781 51.849 143.021 50.961 L 143.021 50.961 L 143.021 50.961 Q 142.261 50.072 140.622 50.072 L 140.622 50.072 L 140.622 50.072 Q 139.181 50.072 138.361 50.763 L 138.361 50.763 L 138.361 50.763 Q 137.542 51.454 137.542 52.659 L 137.542 52.659 L 131.836 52.659 L 131.836 52.659 Q 131.836 50.803 132.981 49.223 L 132.981 49.223 L 132.981 49.223 Q 134.126 47.643 136.219 46.745 L 136.219 46.745 L 136.219 46.745 Q 138.312 45.847 140.918 45.847 L 140.918 45.847 L 140.918 45.847 Q 144.867 45.847 147.187 47.831 L 147.187 47.831 L 147.187 47.831 Q 149.507 49.815 149.507 53.409 L 149.507 53.409 L 149.507 62.669 L 149.507 62.669 Q 149.527 65.71 150.356 67.269 L 150.356 67.269 L 150.356 67.605 L 150.356 67.605 L 150.356 67.605 Z " fill-rule="evenodd" fill="rgb(72,81,88)"/><path d=" M 62.315 6.633 L 39.782 8.838 C 36.999 9.111 34.331 7.65 33.062 5.157 C 31.491 2.069 28.137 0 21.962 0 C 12.593 0 0.316 6.044 0.316 10.604 C 0.316 15.404 12.593 21.207 21.962 21.207 C 28.137 21.207 31.491 19.138 33.062 16.05 C 34.331 13.558 36.999 12.096 39.782 12.369 L 61.119 14.458 L 62.315 6.633 Z " fill-rule="evenodd" fill="rgb(232,80,91)"/><path d=" M 58.142 33.944 L 40.097 35.711 C 37.313 35.983 34.645 34.522 33.377 32.029 C 31.805 28.942 28.452 26.872 22.277 26.872 L 2.072 26.872 C 1.277 26.872 0.631 27.517 0.631 28.315 C 0.631 29.153 1.311 29.834 2.152 29.834 L 20.883 29.834 C 21.728 29.834 22.412 30.518 22.412 31.362 C 22.412 32.207 21.728 32.891 20.883 32.891 L 2.152 32.891 C 1.311 32.891 0.631 33.571 0.631 34.411 L 0.631 34.428 C 0.631 35.267 1.311 35.947 2.152 35.947 L 20.883 35.947 C 21.728 35.947 22.412 36.632 22.412 37.477 C 22.412 38.321 21.728 39.004 20.883 39.004 L 2.152 39.004 C 1.311 39.004 0.631 39.685 0.631 40.523 L 0.631 40.542 C 0.631 41.381 1.311 42.061 2.152 42.061 L 20.883 42.061 C 21.728 42.061 22.412 42.744 22.412 43.59 C 22.412 44.435 21.728 45.118 20.883 45.118 L 2.152 45.118 C 1.311 45.118 0.631 45.799 0.631 46.638 C 0.631 47.435 1.277 48.08 2.072 48.08 L 22.277 48.08 C 28.452 48.08 31.805 46.01 33.377 42.923 C 34.645 40.43 37.314 38.968 40.097 39.24 L 57.079 40.903 L 58.142 33.944 Z " fill-rule="evenodd" fill="rgb(232,80,91)"/><path d=" M 54.262 59.342 L 46.743 60.078 C 44.947 60.254 43.155 59.708 41.762 58.562 C 36.354 54.109 29.059 52.699 22.38 54.816 L 1.061 61.574 C 0.429 61.774 0 62.36 0 63.023 C 0 63.861 0.679 64.542 1.517 64.543 L 43.938 64.634 L 53.313 65.552 L 54.262 59.342 Z " fill-rule="evenodd" fill="rgb(232,80,91)"/></g></g></svg>